<?xml version="1.0" encoding="UTF-8" standalone="no"?>
<!DOCTYPE svg PUBLIC "-//W3C//DTD SVG 1.1//EN" "http://www.w3.org/Graphics/SVG/1.1/DTD/svg11.dtd">
<!-- Generated by Microsoft Visio, SVG Export Bottleholder.svg Page-2 -->
<svg xmlns="http://www.w3.org/2000/svg" xmlns:xlink="http://www.w3.org/1999/xlink" xmlns:ev="http://www.w3.org/2001/xml-events"
		xmlns:v="http://schemas.microsoft.com/visio/2003/SVGExtensions/" width="16.5354in" height="11.6929in"
		viewBox="0 0 1190.55 841.89" xml:space="preserve" color-interpolation-filters="sRGB" class="st13">
	<v:documentProperties v:langID="1044" v:viewMarkup="false">
		<v:userDefs>
			<v:ud v:nameU="msvNoAutoConnect" v:val="VT0(1):26"/>
		</v:userDefs>
	</v:documentProperties>

	<style type="text/css">
	<![CDATA[
		.st1 {stroke:#000000;stroke-linecap:round;stroke-linejoin:round;stroke-width:0.75}
		.st2 {marker-start:url(#mrkr13-372);stroke:#595959;stroke-linecap:round;stroke-linejoin:round;stroke-width:4}
		.st3 {fill:#595959;fill-opacity:1;stroke:#595959;stroke-opacity:1;stroke-width:0.61349693251534}
		.st4 {fill:#ffffff;stroke:none;stroke-linecap:butt;stroke-width:7.2}
		.st5 {fill:#000000;font-family:Calibri;font-size:2.50001em}
		.st6 {font-size:1em}
		.st7 {stroke:#595959;stroke-linecap:round;stroke-linejoin:round;stroke-width:4}
		.st8 {fill:none;marker-start:url(#mrkr13-394);stroke:none;stroke-linecap:round;stroke-linejoin:round;stroke-width:0.75}
		.st9 {fill:#4bacc6;fill-opacity:1;stroke:#4bacc6;stroke-opacity:1;stroke-width:0.22935779816514}
		.st10 {marker-start:url(#mrkr13-410);stroke:#595959;stroke-linecap:round;stroke-linejoin:round;stroke-width:3}
		.st11 {fill:#595959;fill-opacity:1;stroke:#595959;stroke-opacity:1;stroke-width:0.54347826086957}
		.st12 {fill:#ffffff;stroke:none;stroke-linecap:butt}
		.st13 {fill:none;fill-rule:evenodd;font-size:12px;overflow:visible;stroke-linecap:square;stroke-miterlimit:3}
	]]>
	</style>

	<defs id="Markers">
		<g id="lend13">
			<path d="M 3 1 L 0 0 L 3 -1 L 3 1 " style="stroke:none"/>
		</g>
		<marker id="mrkr13-372" class="st3" v:arrowType="13" v:arrowSize="2" v:setback="4.8" refX="4.8" orient="auto"
				markerUnits="strokeWidth" overflow="visible">
			<use xlink:href="#lend13" transform="scale(1.63) "/>
		</marker>
		<marker id="mrkr13-394" class="st9" v:arrowType="13" v:arrowSize="2" v:setback="13.08" refX="13.08" orient="auto"
				markerUnits="strokeWidth" overflow="visible">
			<use xlink:href="#lend13" transform="scale(4.36) "/>
		</marker>
		<marker id="mrkr13-410" class="st11" v:arrowType="13" v:arrowSize="2" v:setback="5.4" refX="5.4" orient="auto"
				markerUnits="strokeWidth" overflow="visible">
			<use xlink:href="#lend13" transform="scale(1.84) "/>
		</marker>
	</defs>
	<g v:mID="6" v:index="2" v:groupContext="foregroundPage">
		<title>Page-2</title>
		<v:pageProperties v:drawingScale="0.0393701" v:pageScale="0.0393701" v:drawingUnits="24" v:shadowOffsetX="9"
				v:shadowOffsetY="-9"/>
		<v:layer v:name="CAD Drawing" v:index="0"/>
		<g id="shape4911-1" v:mID="4911" v:groupContext="shape" transform="translate(539.792,-75.5829)">
			<title>Sheet.4911</title>
			<path d="M0 841.89 L0 167.88" class="st1"/>
		</g>
		<g id="shape4912-4" v:mID="4912" v:groupContext="shape" transform="translate(173.26,-75.5829)">
			<title>Sheet.4912</title>
			<path d="M0 167.88 L0 841.89" class="st1"/>
		</g>
		<g id="shape4913-7" v:mID="4913" v:groupContext="shape" transform="translate(539.792,-749.465)">
			<title>Sheet.4913</title>
			<path d="M0 841.76 L0 841.89" class="st1"/>
		</g>
		<g id="shape4914-10" v:mID="4914" v:groupContext="shape" transform="translate(539.792,-749.594)">
			<title>Sheet.4914</title>
			<path d="M12.59 829.21 L12.07 829.21 L11.55 829.34 L10.9 829.34 L10.38 829.47 L9.86 829.6 L9.21 829.73 L8.69 829.86 L8.17
						 830.12 L7.65 830.25 L7.14 830.51 L6.62 830.77 L6.1 831.02 L5.71 831.28 L5.19 831.67 L4.8 832.06 L4.28 832.32
						 L3.89 832.71 L3.5 833.09 L3.11 833.61 L2.72 834 L2.34 834.39 L2.08 834.91 L1.82 835.42 L1.56 835.94 L1.3
						 836.33 L1.04 836.85 L0.78 837.36 L0.65 838.01 L0.39 838.53 L0.26 839.04 L0.13 839.56 L0.13 840.21 L0 840.73
						 L0 841.24 L0 841.89" class="st1"/>
		</g>
		<g id="shape4915-13" v:mID="4915" v:groupContext="shape" transform="translate(173.26,-75.4535)">
			<title>Sheet.4915</title>
			<path d="M0 841.76 L0 841.89" class="st1"/>
		</g>
		<g id="shape4916-16" v:mID="4916" v:groupContext="shape" transform="translate(160.675,-749.594)">
			<title>Sheet.4916</title>
			<path d="M12.59 841.89 L12.59 841.24 L12.59 840.73 L12.46 840.21 L12.46 839.56 L12.33 839.04 L12.2 838.53 L11.94 838.01
						 L11.81 837.36 L11.55 836.85 L11.42 836.33 L11.16 835.94 L10.77 835.42 L10.51 834.91 L10.25 834.39 L9.86
						 834 L9.47 833.61 L9.08 833.09 L8.69 832.71 L8.3 832.32 L7.91 832.06 L7.4 831.67 L6.88 831.28 L6.49 831.02
						 L5.97 830.77 L5.45 830.51 L4.93 830.25 L4.41 830.12 L3.89 829.86 L3.37 829.73 L2.72 829.6 L2.21 829.47 L1.69
						 829.34 L1.17 829.34 L0.52 829.21 L0 829.21" class="st1"/>
		</g>
		<g id="shape4917-19" v:mID="4917" v:groupContext="shape" transform="translate(539.792,-749.465)">
			<title>Sheet.4917</title>
			<path d="M0 841.76 L0 841.89" class="st1"/>
		</g>
		<g id="shape4918-22" v:mID="4918" v:groupContext="shape" transform="translate(528.504,-75.5829)">
			<title>Sheet.4918</title>
			<path d="M0 167.88 L0 841.89" class="st1"/>
		</g>
		<g id="shape4919-25" v:mID="4919" v:groupContext="shape" transform="translate(160.675,-762.141)">
			<title>Sheet.4919</title>
			<path d="M0 841.76 L0 841.89" class="st1"/>
		</g>
		<g id="shape4920-28" v:mID="4920" v:groupContext="shape" transform="translate(184.548,-75.5829)">
			<title>Sheet.4920</title>
			<path d="M0 167.88 L0 841.89" class="st1"/>
		</g>
		<g id="shape4921-31" v:mID="4921" v:groupContext="shape" transform="translate(528.504,-75.4535)">
			<title>Sheet.4921</title>
			<path d="M0 841.76 L0 841.89" class="st1"/>
		</g>
		<g id="shape4922-34" v:mID="4922" v:groupContext="shape" transform="translate(173.26,-75.5829)">
			<title>Sheet.4922</title>
			<path d="M11.29 841.89 L0 841.89" class="st1"/>
		</g>
		<g id="shape4923-37" v:mID="4923" v:groupContext="shape" transform="translate(184.548,-75.4535)">
			<title>Sheet.4923</title>
			<path d="M0 841.76 L0 841.89" class="st1"/>
		</g>
		<g id="shape4924-40" v:mID="4924" v:groupContext="shape" transform="translate(528.504,-75.5829)">
			<title>Sheet.4924</title>
			<path d="M11.29 841.89 L-0 841.89" class="st1"/>
		</g>
		<g id="shape4925-43" v:mID="4925" v:groupContext="shape" transform="translate(173.26,-75.4535)">
			<title>Sheet.4925</title>
			<path d="M0 841.76 L0 841.89" class="st1"/>
		</g>
		<g id="shape4926-46" v:mID="4926" v:groupContext="shape" transform="translate(198.042,-270.892)">
			<title>Sheet.4926</title>
			<path d="M316.97 841.89 L0 841.89" class="st1"/>
		</g>
		<g id="shape4927-49" v:mID="4927" v:groupContext="shape" transform="translate(528.504,-75.4535)">
			<title>Sheet.4927</title>
			<path d="M0 841.76 L0 841.89" class="st1"/>
		</g>
		<g id="shape4928-52" v:mID="4928" v:groupContext="shape" transform="translate(515.01,-94.4671)">
			<title>Sheet.4928</title>
			<path d="M0 192.97 L0 841.89" class="st1"/>
		</g>
		<g id="shape4929-55" v:mID="4929" v:groupContext="shape" transform="translate(198.042,-270.763)">
			<title>Sheet.4929</title>
			<path d="M0 841.76 L0 841.89" class="st1"/>
		</g>
		<g id="shape4930-58" v:mID="4930" v:groupContext="shape" transform="translate(198.042,-94.4671)">
			<title>Sheet.4930</title>
			<path d="M0 192.97 L0 841.89" class="st1"/>
		</g>
		<g id="shape4931-61" v:mID="4931" v:groupContext="shape" transform="translate(515.01,-94.3378)">
			<title>Sheet.4931</title>
			<path d="M0 841.76 L0 841.89" class="st1"/>
		</g>
		<g id="shape4932-64" v:mID="4932" v:groupContext="shape" transform="translate(508.134,-88.2586)">
			<title>Sheet.4932</title>
			<path d="M6.88 835.68 L6.88 836.2 L6.75 836.72 L6.62 837.1 L6.49 837.62 L6.1 838.53 L5.84 838.91 L5.71 839.17 L5.32 839.56
						 L5.06 839.82 L4.02 840.86 L3.11 841.24 L2.08 841.63 L1.04 841.89 L0 841.89" class="st1"/>
		</g>
		<g id="shape4933-67" v:mID="4933" v:groupContext="shape" transform="translate(198.042,-94.3378)">
			<title>Sheet.4933</title>
			<path d="M0 841.76 L0 841.89" class="st1"/>
		</g>
		<g id="shape4934-70" v:mID="4934" v:groupContext="shape" transform="translate(198.042,-88.2586)">
			<title>Sheet.4934</title>
			<path d="M6.88 841.89 L5.84 841.89 L4.8 841.63 L3.89 841.24 L2.98 840.86 L1.82 839.82 L1.56 839.56 L1.3 839.17 L1.04
						 838.91 L0.78 838.53 L0.39 837.62 L0.26 837.1 L0.13 836.72 L0 836.2 L0 835.68" class="st1"/>
		</g>
		<g id="shape4935-73" v:mID="4935" v:groupContext="shape" transform="translate(508.134,-88.1292)">
			<title>Sheet.4935</title>
			<path d="M0 841.76 L0 841.89" class="st1"/>
		</g>
		<g id="shape4936-76" v:mID="4936" v:groupContext="shape" transform="translate(171.185,-749.594)">
			<title>Sheet.4936</title>
			<path d="M0 829.21 L0.91 829.34 L1.95 829.34 L2.98 829.6 L4.02 829.86 L5.32 830.38 L5.71 830.51 L6.1 830.64 L6.49 830.9
						 L6.88 831.02 L7.65 831.54 L8.04 831.8 L8.43 832.19 L8.82 832.45 L9.6 833.22 L9.99 833.48 L10.38 833.87 L10.64
						 834.26 L11.29 835.16 L11.55 835.55 L11.81 835.94 L12.07 836.46 L12.46 837.36 L12.59 837.88 L12.84 838.27
						 L12.97 838.79 L13.1 839.82 L13.23 840.34 L13.23 840.86 L13.36 841.37 L13.36 841.89" class="st1"/>
		</g>
		<g id="shape4937-79" v:mID="4937" v:groupContext="shape" transform="translate(198.042,-94.3378)">
			<title>Sheet.4937</title>
			<path d="M0 841.76 L0 841.89" class="st1"/>
		</g>
		<g id="shape4938-82" v:mID="4938" v:groupContext="shape" transform="translate(154.318,-762.27)">
			<title>Sheet.4938</title>
			<path d="M16.87 841.89 L0 841.89" class="st1"/>
		</g>
		<g id="shape4939-85" v:mID="4939" v:groupContext="shape" transform="translate(184.548,-749.465)">
			<title>Sheet.4939</title>
			<path d="M0 841.76 L0 841.89" class="st1"/>
		</g>
		<g id="shape4940-88" v:mID="4940" v:groupContext="shape" transform="translate(154.318,-762.27)">
			<title>Sheet.4940</title>
			<path d="M0 810.46 L0 841.89" class="st1"/>
		</g>
		<g id="shape4941-91" v:mID="4941" v:groupContext="shape" transform="translate(154.318,-762.141)">
			<title>Sheet.4941</title>
			<path d="M0 841.76 L0 841.89" class="st1"/>
		</g>
		<g id="shape4942-94" v:mID="4942" v:groupContext="shape" transform="translate(154.318,-793.701)">
			<title>Sheet.4942</title>
			<path d="M64.35 841.89 L0 841.89" class="st1"/>
		</g>
		<g id="shape4943-97" v:mID="4943" v:groupContext="shape" transform="translate(154.318,-762.141)">
			<title>Sheet.4943</title>
			<path d="M0 841.76 L0 841.89" class="st1"/>
		</g>
		<g id="shape4944-100" v:mID="4944" v:groupContext="shape" transform="translate(218.671,-755.932)">
			<title>Sheet.4944</title>
			<path d="M0 804.12 L0 841.89" class="st1"/>
		</g>
		<g id="shape4945-103" v:mID="4945" v:groupContext="shape" transform="translate(154.318,-793.572)">
			<title>Sheet.4945</title>
			<path d="M0 841.76 L0 841.89" class="st1"/>
		</g>
		<g id="shape4946-106" v:mID="4946" v:groupContext="shape" transform="translate(211.795,-749.594)">
			<title>Sheet.4946</title>
			<path d="M0 841.89 L0.52 841.89 L1.04 841.76 L1.56 841.63 L1.95 841.63 L2.98 841.24 L3.5 840.98 L3.89 840.73 L4.28 840.47
						 L5.06 839.69 L5.45 839.3 L5.84 838.91 L6.1 838.53 L6.49 837.62 L6.62 837.1 L6.75 836.59 L6.88 836.07 L6.88
						 835.55" class="st1"/>
		</g>
		<g id="shape4947-109" v:mID="4947" v:groupContext="shape" transform="translate(218.671,-755.803)">
			<title>Sheet.4947</title>
			<path d="M0 841.76 L0 841.89" class="st1"/>
		</g>
		<g id="shape4948-112" v:mID="4948" v:groupContext="shape" transform="translate(204.918,-749.594)">
			<title>Sheet.4948</title>
			<path d="M6.88 841.89 L-0 841.89" class="st1"/>
		</g>
		<g id="shape4949-115" v:mID="4949" v:groupContext="shape" transform="translate(218.671,-755.803)">
			<title>Sheet.4949</title>
			<path d="M0 841.76 L0 841.89" class="st1"/>
		</g>
		<g id="shape4950-118" v:mID="4950" v:groupContext="shape" transform="translate(198.042,-743.386)">
			<title>Sheet.4950</title>
			<path d="M0 841.89 L0 841.37 L0.13 840.86 L0.26 840.47 L0.39 839.95 L0.78 839.04 L1.04 838.53 L1.43 838.14 L1.69 837.75
						 L2.47 837.1 L2.98 836.72 L3.37 836.46 L3.89 836.33 L4.8 835.94 L5.32 835.81 L5.84 835.68 L6.36 835.68 L6.88
						 835.68" class="st1"/>
		</g>
		<g id="shape4951-121" v:mID="4951" v:groupContext="shape" transform="translate(204.918,-749.465)">
			<title>Sheet.4951</title>
			<path d="M0 841.76 L0 841.89" class="st1"/>
		</g>
		<g id="shape4952-124" v:mID="4952" v:groupContext="shape" transform="translate(508.134,-743.386)">
			<title>Sheet.4952</title>
			<path d="M0 835.68 L0.52 835.68 L1.04 835.68 L1.56 835.81 L2.08 835.94 L3.11 836.33 L3.5 836.46 L4.02 836.72 L4.41 837.1
						 L5.19 837.75 L5.45 838.14 L5.84 838.53 L6.1 839.04 L6.49 839.95 L6.62 840.47 L6.75 840.86 L6.88 841.37 L6.88
						 841.89" class="st1"/>
		</g>
		<g id="shape4953-127" v:mID="4953" v:groupContext="shape" transform="translate(204.918,-749.465)">
			<title>Sheet.4953</title>
			<path d="M0 841.76 L0 841.89" class="st1"/>
		</g>
		<g id="shape4954-130" v:mID="4954" v:groupContext="shape" transform="translate(501.257,-749.594)">
			<title>Sheet.4954</title>
			<path d="M6.88 841.89 L-0 841.89" class="st1"/>
		</g>
		<g id="shape4955-133" v:mID="4955" v:groupContext="shape" transform="translate(515.01,-743.257)">
			<title>Sheet.4955</title>
			<path d="M0 841.76 L0 841.89" class="st1"/>
		</g>
		<g id="shape4956-136" v:mID="4956" v:groupContext="shape" transform="translate(494.381,-749.594)">
			<title>Sheet.4956</title>
			<path d="M0 835.55 L0 836.07 L0.13 836.59 L0.26 837.1 L0.39 837.62 L0.78 838.53 L1.17 838.91 L1.43 839.3 L1.82 839.69
						 L2.59 840.47 L2.98 840.73 L3.37 840.98 L3.89 841.24 L4.93 841.5 L5.32 841.63 L5.84 841.76 L6.36 841.89 L6.88
						 841.89" class="st1"/>
		</g>
		<g id="shape4957-139" v:mID="4957" v:groupContext="shape" transform="translate(501.257,-749.465)">
			<title>Sheet.4957</title>
			<path d="M0 841.76 L0 841.89" class="st1"/>
		</g>
		<g id="shape4958-142" v:mID="4958" v:groupContext="shape" transform="translate(494.381,-755.932)">
			<title>Sheet.4958</title>
			<path d="M0 804.12 L0 841.89" class="st1"/>
		</g>
		<g id="shape4959-145" v:mID="4959" v:groupContext="shape" transform="translate(501.257,-749.465)">
			<title>Sheet.4959</title>
			<path d="M0 841.76 L0 841.89" class="st1"/>
		</g>
		<g id="shape4960-148" v:mID="4960" v:groupContext="shape" transform="translate(494.381,-793.701)">
			<title>Sheet.4960</title>
			<path d="M64.35 841.89 L0 841.89" class="st1"/>
		</g>
		<g id="shape4961-151" v:mID="4961" v:groupContext="shape" transform="translate(494.381,-755.803)">
			<title>Sheet.4961</title>
			<path d="M0 841.76 L0 841.89" class="st1"/>
		</g>
		<g id="shape4962-154" v:mID="4962" v:groupContext="shape" transform="translate(558.734,-762.27)">
			<title>Sheet.4962</title>
			<path d="M0 841.89 L0 810.46" class="st1"/>
		</g>
		<g id="shape4963-157" v:mID="4963" v:groupContext="shape" transform="translate(494.381,-793.572)">
			<title>Sheet.4963</title>
			<path d="M0 841.76 L0 841.89" class="st1"/>
		</g>
		<g id="shape4964-160" v:mID="4964" v:groupContext="shape" transform="translate(541.997,-762.27)">
			<title>Sheet.4964</title>
			<path d="M16.74 841.89 L-0 841.89" class="st1"/>
		</g>
		<g id="shape4965-163" v:mID="4965" v:groupContext="shape" transform="translate(558.734,-793.572)">
			<title>Sheet.4965</title>
			<path d="M0 841.76 L0 841.89" class="st1"/>
		</g>
		<g id="shape4966-166" v:mID="4966" v:groupContext="shape" transform="translate(528.504,-749.594)">
			<title>Sheet.4966</title>
			<path d="M0 841.89 L0 841.37 L0.13 840.86 L0.13 840.34 L0.26 839.82 L0.39 838.91 L0.52 838.53 L0.65 838.14 L0.78 837.75
						 L0.91 837.23 L1.56 836.2 L1.95 835.42 L2.47 834.78 L2.98 834 L3.5 833.35 L4.8 832.32 L5.45 831.8 L6.1 831.28
						 L6.88 830.9 L7.65 830.51 L8.82 829.99 L9.21 829.86 L9.6 829.73 L10.12 829.6 L10.51 829.6 L11.42 829.34 L11.94
						 829.34 L12.46 829.34 L12.97 829.21 L13.49 829.21" class="st1"/>
		</g>
		<g id="shape4967-169" v:mID="4967" v:groupContext="shape" transform="translate(541.997,-762.141)">
			<title>Sheet.4967</title>
			<path d="M0 841.76 L0 841.89" class="st1"/>
		</g>
		<g id="shape4968-172" v:mID="4968" v:groupContext="shape" transform="translate(184.548,-75.5829)">
			<title>Sheet.4968</title>
			<path d="M343.96 841.89 L-0 841.89" class="st1"/>
		</g>
		<g id="shape4969-175" v:mID="4969" v:groupContext="shape" transform="translate(541.997,-762.141)">
			<title>Sheet.4969</title>
			<path d="M0 841.76 L0 841.89" class="st1"/>
		</g>
		<g id="shape4970-178" v:mID="4970" v:groupContext="shape" transform="translate(204.918,-88.2585)">
			<title>Sheet.4970</title>
			<path d="M303.22 841.89 L-0 841.89" class="st1"/>
		</g>
		<g id="shape4971-181" v:mID="4971" v:groupContext="shape" transform="translate(184.548,-75.4535)">
			<title>Sheet.4971</title>
			<path d="M0 841.76 L0 841.89" class="st1"/>
		</g>
		<g id="shape4972-184" v:mID="4972" v:groupContext="shape" transform="translate(571.19,-774.817)">
			<title>Sheet.4972</title>
			<path d="M0 835.55 L0 841.89" class="st1"/>
		</g>
		<g id="shape4973-187" v:mID="4973" v:groupContext="shape" transform="translate(204.918,-88.1292)">
			<title>Sheet.4973</title>
			<path d="M0 841.76 L0 841.89" class="st1"/>
		</g>
		<g id="shape4974-190" v:mID="4974" v:groupContext="shape" transform="translate(558.734,-781.154)">
			<title>Sheet.4974</title>
			<path d="M12.46 841.89 L12.46 841.37 L12.46 840.73 L12.46 840.21 L12.33 839.69 L12.2 839.17 L12.07 838.53 L11.94 838.01
						 L11.68 837.49 L11.55 836.97 L11.29 836.46 L11.03 835.94 L10.77 835.42 L10.38 835.03 L10.12 834.52 L9.73
						 834 L9.34 833.61 L8.95 833.22 L8.56 832.84 L8.17 832.45 L7.78 832.06 L7.27 831.67 L6.88 831.41 L6.49 831.15
						 L5.97 830.77 L5.45 830.51 L4.93 830.38 L4.41 830.12 L3.89 829.99 L3.37 829.73 L2.85 829.6 L2.21 829.47 L1.69
						 829.47 L1.17 829.34 L0.52 829.34 L0 829.34" class="st1"/>
		</g>
		<g id="shape4975-193" v:mID="4975" v:groupContext="shape" transform="translate(571.19,-774.687)">
			<title>Sheet.4975</title>
			<path d="M0 841.76 L0 841.89" class="st1"/>
		</g>
		<g id="shape4976-196" v:mID="4976" v:groupContext="shape" transform="translate(558.734,-762.27)">
			<title>Sheet.4976</title>
			<path d="M0 841.89 L0.52 841.89 L1.17 841.89 L1.69 841.76 L2.21 841.76 L2.85 841.63 L3.37 841.5 L3.89 841.37 L4.41 841.11
						 L4.93 840.86 L5.45 840.73 L5.97 840.47 L6.49 840.21 L6.88 839.82 L7.27 839.56 L7.78 839.17 L8.17 838.79
						 L8.56 838.4 L8.95 838.01 L9.34 837.62 L9.73 837.23 L10.12 836.72 L10.38 836.33 L10.77 835.81 L11.03 835.29
						 L11.29 834.78 L11.55 834.26 L11.68 833.74 L11.94 833.22 L12.07 832.71 L12.2 832.19 L12.33 831.54 L12.46
						 831.02 L12.46 830.51 L12.46 829.86 L12.46 829.34" class="st1"/>
		</g>
		<g id="shape4977-199" v:mID="4977" v:groupContext="shape" transform="translate(558.734,-793.572)">
			<title>Sheet.4977</title>
			<path d="M0 841.76 L0 841.89" class="st1"/>
		</g>
		<g id="shape4978-202" v:mID="4978" v:groupContext="shape" transform="translate(141.732,-774.817)">
			<title>Sheet.4978</title>
			<path d="M0 841.89 L0 835.55" class="st1"/>
		</g>
		<g id="shape4979-205" v:mID="4979" v:groupContext="shape" transform="translate(571.19,-774.687)">
			<title>Sheet.4979</title>
			<path d="M0 841.76 L0 841.89" class="st1"/>
		</g>
		<g id="shape4980-208" v:mID="4980" v:groupContext="shape" transform="translate(141.732,-781.154)">
			<title>Sheet.4980</title>
			<path d="M12.59 829.34 L12.07 829.34 L11.42 829.34 L10.9 829.47 L10.38 829.47 L9.73 829.6 L9.21 829.73 L8.69 829.99 L8.17
						 830.12 L7.65 830.38 L7.14 830.51 L6.62 830.77 L6.1 831.15 L5.58 831.41 L5.19 831.67 L4.67 832.06 L4.28 832.45
						 L3.89 832.84 L3.5 833.22 L3.11 833.61 L2.72 834 L2.34 834.52 L2.08 835.03 L1.69 835.42 L1.43 835.94 L1.17
						 836.46 L1.04 836.97 L0.78 837.49 L0.52 838.01 L0.39 838.53 L0.26 839.17 L0.13 839.69 L0.13 840.21 L0 840.73
						 L0 841.37 L0 841.89" class="st1"/>
		</g>
		<g id="shape4981-211" v:mID="4981" v:groupContext="shape" transform="translate(141.732,-781.025)">
			<title>Sheet.4981</title>
			<path d="M0 841.76 L0 841.89" class="st1"/>
		</g>
		<g id="shape4982-214" v:mID="4982" v:groupContext="shape" transform="translate(141.732,-762.27)">
			<title>Sheet.4982</title>
			<path d="M0 829.34 L0 829.86 L0 830.51 L0.13 831.02 L0.13 831.54 L0.26 832.19 L0.39 832.71 L0.52 833.22 L0.78 833.74
						 L1.04 834.26 L1.17 834.78 L1.43 835.29 L1.69 835.81 L2.08 836.33 L2.34 836.72 L2.72 837.23 L3.11 837.62
						 L3.5 838.01 L3.89 838.4 L4.28 838.79 L4.67 839.17 L5.19 839.56 L5.58 839.82 L6.1 840.21 L6.62 840.47 L7.14
						 840.73 L7.65 840.86 L8.17 841.11 L8.69 841.37 L9.21 841.5 L9.73 841.63 L10.38 841.76 L10.9 841.76 L11.42
						 841.89 L12.07 841.89 L12.59 841.89" class="st1"/>
		</g>
		<g id="shape4983-217" v:mID="4983" v:groupContext="shape" transform="translate(141.732,-781.025)">
			<title>Sheet.4983</title>
			<path d="M0 841.76 L0 841.89" class="st1"/>
		</g>
		<g id="shape4984-220" v:mID="4984" v:groupContext="shape" transform="translate(198.042,-277.23)">
			<title>Sheet.4984</title>
			<path d="M0 841.89 L316.97 841.89" class="st1"/>
		</g>
		<g id="shape4985-223" v:mID="4985" v:groupContext="shape" transform="translate(154.318,-762.141)">
			<title>Sheet.4985</title>
			<path d="M0 841.76 L0 841.89" class="st1"/>
		</g>
		<g id="shape4986-226" v:mID="4986" v:groupContext="shape" transform="translate(528.504,-749.594)">
			<title>Sheet.4986</title>
			<path d="M11.29 841.89 L-0 841.89" class="st1"/>
		</g>
		<g id="shape4987-229" v:mID="4987" v:groupContext="shape" transform="translate(515.01,-277.101)">
			<title>Sheet.4987</title>
			<path d="M0 841.76 L0 841.89" class="st1"/>
		</g>
		<g id="shape4988-232" v:mID="4988" v:groupContext="shape" transform="translate(173.26,-749.594)">
			<title>Sheet.4988</title>
			<path d="M11.29 841.89 L0 841.89" class="st1"/>
		</g>
		<g id="shape4989-235" v:mID="4989" v:groupContext="shape" transform="translate(528.504,-749.465)">
			<title>Sheet.4989</title>
			<path d="M0 841.76 L0 841.89" class="st1"/>
		</g>
		<g id="shape4990-238" v:mID="4990" v:groupContext="shape" transform="translate(198.042,-94.4671)">
			<title>Sheet.4990</title>
			<path d="M0 841.89 L316.97 841.89" class="st1"/>
		</g>
		<g id="shape4991-241" v:mID="4991" v:groupContext="shape" transform="translate(173.26,-749.465)">
			<title>Sheet.4991</title>
			<path d="M0 841.76 L0 841.89" class="st1"/>
		</g>
		<g id="shape4993-244" v:mID="4993" v:groupContext="shape" transform="translate(515.01,-94.3378)">
			<title>Sheet.4993</title>
			<path d="M0 841.76 L0 841.89" class="st1"/>
		</g>
		<g id="shape5032-247" v:mID="5032" v:groupContext="shape" transform="translate(662.177,-479.483)">
			<title>Sheet.5032</title>
			<path d="M343.96 841.89 L-0 841.89" class="st1"/>
		</g>
		<g id="shape5034-250" v:mID="5034" v:groupContext="shape" transform="translate(650.889,-233.858)">
			<title>Sheet.5034</title>
			<path d="M11.29 596.27 L10.51 598.21 L9.86 600.28 L9.21 602.22 L8.56 604.28 L7.91 606.22 L7.27 608.29 L6.75 610.36 L6.1
						 612.43 L5.58 614.5 L5.06 616.57 L4.67 618.64 L4.15 620.71 L3.76 622.78 L3.24 624.85 L2.85 626.92 L2.59 628.99
						 L2.21 631.06 L1.95 633.13 L1.56 635.33 L1.3 637.4 L1.04 639.47 L0.91 641.67 L0.65 643.73 L0.52 645.8 L0.39
						 648 L0.26 650.07 L0.13 652.14 L0.13 654.34 L0 656.41 L0 658.61 L0 660.68 L0 662.75 L0.13 664.95 L0.26 667.02
						 L0.26 669.22 L0.39 671.29 L0.52 673.35 L0.78 675.55 L0.91 677.62 L1.17 679.69 L1.43 681.89 L1.69 683.96
						 L2.08 686.03 L2.34 688.1 L2.72 690.3 L3.11 692.37 L3.5 694.44 L3.89 696.51 L4.28 698.58 L4.8 700.65 L5.32
						 702.72 L5.84 704.79 L6.36 706.85 L6.88 708.92 L7.53 710.86 L8.17 712.93 L8.82 715 L9.47 716.94 L10.12 719.01
						 L10.77 720.95 L11.55 723.02 L12.33 724.96 L13.1 726.9 L13.88 728.97 L14.66 730.91 L15.57 732.85 L16.48 734.79
						 L17.39 736.73 L18.29 738.54 L19.2 740.48 L20.11 742.42 L21.15 744.24 L22.06 746.18 L23.09 747.99 L24.13
						 749.93 L25.3 751.74 L26.34 753.55 L27.51 755.36 L28.54 757.17 L29.71 758.98 L30.88 760.66 L32.05 762.47
						 L33.34 764.15 L34.51 765.96 L35.81 767.65 L37.11 769.33 L38.4 771.01 L39.7 772.69 L41 774.37 L42.43 776.05
						 L43.72 777.61 L45.15 779.29 L46.58 780.84 L48.01 782.39 L49.43 783.94 L50.86 785.5 L52.29 787.05 L53.84
						 788.47 L55.4 790.02 L56.96 791.45 L58.39 793 L60.07 794.42 L61.63 795.84 L63.19 797.14 L64.87 798.56 L66.43
						 799.98 L68.12 801.28 L69.8 802.57 L71.49 803.86 L73.18 805.16 L74.86 806.45 L76.55 807.74 L78.37 808.91
						 L80.05 810.2 L81.87 811.36 L83.56 812.53 L85.37 813.69 L87.19 814.73 L89.01 815.89 L90.82 816.93 L92.64
						 817.96 L94.58 819 L96.4 820.03 L98.35 821.07 L100.16 821.97 L102.11 823.01 L104.06 823.91 L105.87 824.82
						 L107.82 825.72 L109.76 826.5 L111.71 827.4 L113.79 828.18 L115.73 828.96 L117.68 829.73 L119.63 830.51 L121.7
						 831.28 L123.65 831.93 L125.72 832.58 L127.8 833.35 L129.75 833.87 L131.82 834.52 L133.9 835.16 L135.97 835.68
						 L137.92 836.2 L140 836.72 L142.07 837.23 L144.15 837.62 L146.22 838.14 L148.3 838.53 L150.5 838.91 L152.58
						 839.3 L154.66 839.69 L156.73 839.95 L158.81 840.21 L161.01 840.47 L163.09 840.73 L165.17 840.98 L167.37
						 841.24 L169.45 841.37 L171.52 841.5 L173.73 841.63 L175.81 841.76 L178.01 841.76 L180.09 841.89 L182.16
						 841.89 L184.37 841.89 L186.44 841.89 L188.65 841.76 L190.73 841.76 L192.8 841.63 L195.01 841.5 L197.08 841.37
						 L199.16 841.24 L201.37 840.98 L203.44 840.73 L205.52 840.47 L207.72 840.21 L209.8 839.95 L211.87 839.69
						 L213.95 839.3 L216.16 838.91 L218.23 838.53 L220.31 838.14 L222.38 837.62 L224.46 837.23 L226.54 836.72
						 L228.61 836.2 L230.69 835.68 L232.63 835.16 L234.71 834.52 L236.79 833.87 L238.86 833.35 L240.81 832.58
						 L242.88 831.93 L244.83 831.28 L246.91 830.51 L248.85 829.73 L250.8 828.96 L252.74 828.18 L254.82 827.4 L256.77
						 826.5 L258.71 825.72 L260.66 824.82 L262.48 823.91 L264.42 823.01 L266.37 821.97 L268.18 821.07 L270.13
						 820.03 L271.95 819 L273.89 817.96 L275.71 816.93 L277.53 815.89 L279.34 814.73 L281.16 813.69 L282.98 812.53
						 L284.66 811.36 L286.48 810.2 L288.29 808.91 L289.98 807.74 L291.67 806.45 L293.35 805.16 L295.04 803.86
						 L296.73 802.57 L298.41 801.28 L300.1 799.98 L301.79 798.56 L303.35 797.14 L304.9 795.84 L306.59 794.42 L308.15
						 793 L309.7 791.45 L311.13 790.02 L312.69 788.47 L314.24 787.05 L315.67 785.5 L317.1 783.94 L318.53 782.39
						 L319.95 780.84 L321.38 779.29 L322.81 777.61 L324.23 776.05 L325.53 774.37 L326.83 772.69 L328.13 771.01
						 L329.42 769.33 L330.72 767.65 L332.02 765.96 L333.19 764.15 L334.48 762.47 L335.65 760.66 L336.82 758.98
						 L337.99 757.17 L339.15 755.36 L340.19 753.55 L341.23 751.74 L342.4 749.93 L343.44 747.99 L344.47 746.18
						 L345.38 744.24 L346.42 742.42 L347.33 740.48 L348.37 738.54 L349.27 736.73 L350.05 734.79 L350.96 732.85
						 L351.87 730.91 L352.65 728.97 L353.43 726.9 L354.21 724.96 L354.98 723.02 L355.76 720.95 L356.41 719.01
						 L357.06 716.94 L357.71 715 L358.36 712.93 L359.01 710.86 L359.65 708.92 L360.17 706.85 L360.69 704.79 L361.21
						 702.72 L361.73 700.65 L362.25 698.58 L362.64 696.51 L363.03 694.44 L363.42 692.37 L363.81 690.3 L364.2 688.1
						 L364.58 686.03 L364.84 683.96 L365.1 681.89 L365.36 679.69 L365.62 677.62 L365.75 675.55 L366.01 673.35
						 L366.14 671.29 L366.27 669.22 L366.4 667.02 L366.4 664.95 L366.53 662.75 L366.53 660.68 L366.53 658.61 L366.53
						 656.41 L366.4 654.34 L366.4 652.14 L366.27 650.07 L366.14 648 L366.01 645.8 L365.88 643.73 L365.62 641.67
						 L365.49 639.47 L365.23 637.4 L364.97 635.33 L364.58 633.13 L364.33 631.06 L363.94 628.99 L363.68 626.92
						 L363.29 624.85 L362.77 622.78 L362.38 620.71 L361.99 618.64 L361.47 616.57 L360.95 614.5 L360.43 612.43
						 L359.78 610.36 L359.27 608.29 L358.62 606.22 L357.97 604.28 L357.32 602.22 L356.67 600.28 L356.02 598.21
						 L355.24 596.27" class="st1"/>
		</g>
		<g id="shape5035-253" v:mID="5035" v:groupContext="shape" transform="translate(662.177,-479.353)">
			<title>Sheet.5035</title>
			<path d="M0 841.76 L0 841.89" class="st1"/>
		</g>
		<g id="shape5036-256" v:mID="5036" v:groupContext="shape" transform="translate(1019.63,-353.501)">
			<title>Sheet.5036</title>
			<path d="M0 841.89 L0.65 839.69 L1.3 837.62 L1.95 835.55 L2.59 833.35 L3.24 831.28 L3.76 829.08 L4.41 827.02 L4.93 824.82
						 L5.45 822.75 L5.84 820.55 L6.36 818.35 L6.75 816.15 L7.27 814.08 L7.65 811.88 L7.91 809.68 L8.3 807.48 L8.56
						 805.29 L8.95 803.09 L9.21 800.89 L9.34 798.69 L9.6 796.49 L9.86 794.29 L9.99 792.09 L10.12 789.89 L10.25
						 787.69 L10.25 785.5 L10.38 783.3 L10.38 781.1 L10.38 778.9 L10.38 776.57 L10.38 774.37 L10.25 772.17 L10.25
						 769.97 L10.12 767.78 L9.99 765.58 L9.86 763.38 L9.6 761.18 L9.34 758.98 L9.21 756.78 L8.95 754.58 L8.56
						 752.38 L8.3 750.18 L7.91 747.99 L7.65 745.79 L7.27 743.72 L6.75 741.52 L6.36 739.32 L5.84 737.12 L5.45 735.05
						 L4.93 732.85 L4.41 730.65 L3.76 728.58 L3.24 726.39 L2.59 724.32 L1.95 722.12 L1.3 720.05 L0.65 717.98 L0
						 715.91" class="st1"/>
		</g>
		<g id="shape5037-259" v:mID="5037" v:groupContext="shape" transform="translate(1006.13,-479.353)">
			<title>Sheet.5037</title>
			<path d="M0 841.76 L0 841.89" class="st1"/>
		</g>
		<g id="shape5038-262" v:mID="5038" v:groupContext="shape" transform="translate(1006.13,-353.501)">
			<title>Sheet.5038</title>
			<path d="M13.49 841.89 L12.46 841.89 L11.42 841.89 L10.38 841.89 L9.47 841.89 L8.04 841.89 L7.65 841.89 L7.27 841.89
						 L6.88 841.89 L6.49 841.89 L5.71 841.89 L5.32 841.89 L4.93 841.89 L4.54 841.89 L3.76 841.89 L3.37 841.89
						 L2.98 841.89 L2.72 841.89 L2.08 841.89 L1.82 841.89 L1.56 841.89 L1.3 841.89 L0.91 841.89 L0.65 841.89 L0.52
						 841.89 L0.13 841.89 L0.13 841.89 L0 841.89 L0 841.89" class="st1"/>
		</g>
		<g id="shape5039-265" v:mID="5039" v:groupContext="shape" transform="translate(1019.63,-479.353)">
			<title>Sheet.5039</title>
			<path d="M0 841.76 L0 841.89" class="st1"/>
		</g>
		<g id="shape5040-268" v:mID="5040" v:groupContext="shape" transform="translate(1006.13,-479.483)">
			<title>Sheet.5040</title>
			<path d="M0 841.89 L0 841.89 L0.13 841.89 L0.13 841.89 L0.39 841.89 L0.52 841.89 L0.78 841.89 L0.91 841.89 L1.56 841.89
						 L1.95 841.89 L2.47 841.89 L2.98 841.89 L3.5 841.89 L4.93 841.89 L5.71 841.89 L6.62 841.89 L7.53 841.89 L8.82
						 841.89 L9.21 841.89 L9.6 841.89 L10.12 841.89 L10.51 841.89 L11.42 841.89 L11.94 841.89 L12.46 841.89 L12.97
						 841.89 L13.49 841.89" class="st1"/>
		</g>
		<g id="shape5041-271" v:mID="5041" v:groupContext="shape" transform="translate(1006.13,-353.372)">
			<title>Sheet.5041</title>
			<path d="M0 841.76 L0 841.89" class="st1"/>
		</g>
		<g id="shape5042-274" v:mID="5042" v:groupContext="shape" transform="translate(638.304,-353.501)">
			<title>Sheet.5042</title>
			<path d="M10.51 715.91 L9.73 717.98 L9.08 720.05 L8.43 722.12 L7.78 724.32 L7.14 726.39 L6.62 728.58 L5.97 730.65 L5.45
						 732.85 L4.93 735.05 L4.54 737.12 L4.02 739.32 L3.63 741.52 L3.24 743.72 L2.85 745.79 L2.47 747.99 L2.08
						 750.18 L1.82 752.38 L1.56 754.58 L1.17 756.78 L1.04 758.98 L0.78 761.18 L0.65 763.38 L0.39 765.58 L0.26
						 767.78 L0.13 769.97 L0.13 772.17 L0 774.37 L0 776.57 L0 778.9 L0 781.1 L0 783.3 L0.13 785.5 L0.13 787.69
						 L0.26 789.89 L0.39 792.09 L0.65 794.29 L0.78 796.49 L1.04 798.69 L1.17 800.89 L1.56 803.09 L1.82 805.29
						 L2.08 807.48 L2.47 809.68 L2.85 811.88 L3.24 814.08 L3.63 816.15 L4.02 818.35 L4.54 820.55 L4.93 822.75
						 L5.45 824.82 L5.97 827.02 L6.62 829.08 L7.14 831.28 L7.78 833.35 L8.43 835.55 L9.08 837.62 L9.73 839.69
						 L10.51 841.89" class="st1"/>
		</g>
		<g id="shape5043-277" v:mID="5043" v:groupContext="shape" transform="translate(1019.63,-479.353)">
			<title>Sheet.5043</title>
			<path d="M0 841.76 L0 841.89" class="st1"/>
		</g>
		<g id="shape5044-280" v:mID="5044" v:groupContext="shape" transform="translate(648.813,-353.501)">
			<title>Sheet.5044</title>
			<path d="M13.36 841.89 L13.36 841.89 L13.23 841.89 L13.23 841.89 L12.97 841.89 L12.84 841.89 L12.59 841.89 L12.46 841.89
						 L11.94 841.89 L11.42 841.89 L11.03 841.89 L10.51 841.89 L9.86 841.89 L8.43 841.89 L7.65 841.89 L6.75 841.89
						 L5.84 841.89 L4.54 841.89 L4.15 841.89 L3.76 841.89 L3.37 841.89 L2.85 841.89 L1.95 841.89 L1.43 841.89
						 L0.91 841.89 L0.39 841.89 L0 841.89" class="st1"/>
		</g>
		<g id="shape5045-283" v:mID="5045" v:groupContext="shape" transform="translate(648.813,-353.372)">
			<title>Sheet.5045</title>
			<path d="M0 841.76 L0 841.89" class="st1"/>
		</g>
		<g id="shape5046-286" v:mID="5046" v:groupContext="shape" transform="translate(648.813,-479.483)">
			<title>Sheet.5046</title>
			<path d="M0 841.89 L0.91 841.89 L1.95 841.89 L2.98 841.89 L4.02 841.89 L5.32 841.89 L5.71 841.89 L6.1 841.89 L6.49 841.89
						 L6.88 841.89 L7.65 841.89 L8.04 841.89 L8.43 841.89 L8.82 841.89 L9.6 841.89 L9.99 841.89 L10.38 841.89
						 L10.64 841.89 L11.29 841.89 L11.55 841.89 L11.81 841.89 L12.07 841.89 L12.46 841.89 L12.72 841.89 L12.97
						 841.89 L13.23 841.89 L13.23 841.89 L13.36 841.89 L13.36 841.89" class="st1"/>
		</g>
		<g id="shape5047-289" v:mID="5047" v:groupContext="shape" transform="translate(648.813,-353.372)">
			<title>Sheet.5047</title>
			<path d="M0 841.76 L0 841.89" class="st1"/>
		</g>
		<g id="shape5048-292" v:mID="5048" v:groupContext="shape" transform="translate(631.947,-353.501)">
			<title>Sheet.5048</title>
			<path d="M0 715.91 L0 841.89" class="st1"/>
		</g>
		<g id="shape5049-295" v:mID="5049" v:groupContext="shape" transform="translate(662.177,-479.353)">
			<title>Sheet.5049</title>
			<path d="M0 841.76 L0 841.89" class="st1"/>
		</g>
		<g id="shape5050-298" v:mID="5050" v:groupContext="shape" transform="translate(631.947,-353.501)">
			<title>Sheet.5050</title>
			<path d="M16.87 841.89 L0 841.89" class="st1"/>
		</g>
		<g id="shape5051-301" v:mID="5051" v:groupContext="shape" transform="translate(631.947,-353.372)">
			<title>Sheet.5051</title>
			<path d="M0 841.76 L0 841.89" class="st1"/>
		</g>
		<g id="shape5052-304" v:mID="5052" v:groupContext="shape" transform="translate(631.947,-479.483)">
			<title>Sheet.5052</title>
			<path d="M16.87 841.89 L0 841.89" class="st1"/>
		</g>
		<g id="shape5053-307" v:mID="5053" v:groupContext="shape" transform="translate(631.947,-353.372)">
			<title>Sheet.5053</title>
			<path d="M0 841.76 L0 841.89" class="st1"/>
		</g>
		<g id="shape5054-310" v:mID="5054" v:groupContext="shape" transform="translate(1048.82,-366.177)">
			<title>Sheet.5054</title>
			<path d="M0 741.13 L0 841.89" class="st1"/>
		</g>
		<g id="shape5055-313" v:mID="5055" v:groupContext="shape" transform="translate(631.947,-479.353)">
			<title>Sheet.5055</title>
			<path d="M0 841.76 L0 841.89" class="st1"/>
		</g>
		<g id="shape5056-316" v:mID="5056" v:groupContext="shape" transform="translate(1036.36,-353.501)">
			<title>Sheet.5056</title>
			<path d="M0 841.89 L0 715.91" class="st1"/>
		</g>
		<g id="shape5057-319" v:mID="5057" v:groupContext="shape" transform="translate(1048.82,-366.048)">
			<title>Sheet.5057</title>
			<path d="M0 841.76 L0 841.89" class="st1"/>
		</g>
		<g id="shape5058-322" v:mID="5058" v:groupContext="shape" transform="translate(1036.36,-466.936)">
			<title>Sheet.5058</title>
			<path d="M12.46 841.89 L12.46 841.37 L12.46 840.73 L12.46 840.21 L12.33 839.69 L12.2 839.04 L12.07 838.53 L11.94 838.01
						 L11.68 837.49 L11.55 836.97 L11.29 836.46 L11.03 835.94 L10.77 835.42 L10.38 834.91 L10.12 834.52 L9.73
						 834 L9.34 833.61 L8.95 833.22 L8.56 832.84 L8.17 832.45 L7.78 832.06 L7.27 831.67 L6.88 831.41 L6.49 831.02
						 L5.97 830.77 L5.45 830.51 L4.93 830.25 L4.41 830.12 L3.89 829.86 L3.37 829.73 L2.85 829.6 L2.21 829.47 L1.69
						 829.34 L1.17 829.34 L0.52 829.34 L0 829.34" class="st1"/>
		</g>
		<g id="shape5059-325" v:mID="5059" v:groupContext="shape" transform="translate(1036.36,-479.353)">
			<title>Sheet.5059</title>
			<path d="M0 841.76 L0 841.89" class="st1"/>
		</g>
		<g id="shape5060-328" v:mID="5060" v:groupContext="shape" transform="translate(1036.36,-353.501)">
			<title>Sheet.5060</title>
			<path d="M0 841.89 L0.52 841.89 L1.17 841.76 L1.69 841.76 L2.21 841.63 L2.85 841.5 L3.37 841.37 L3.89 841.24 L4.41 840.98
						 L4.93 840.86 L5.45 840.6 L5.97 840.34 L6.49 840.08 L6.88 839.69 L7.27 839.43 L7.78 839.04 L8.17 838.79 L8.56
						 838.4 L8.95 838.01 L9.34 837.49 L9.73 837.1 L10.12 836.59 L10.38 836.2 L10.77 835.68 L11.03 835.16 L11.29
						 834.65 L11.55 834.13 L11.68 833.61 L11.94 833.09 L12.07 832.58 L12.2 832.06 L12.33 831.54 L12.46 830.9 L12.46
						 830.38 L12.46 829.86 L12.46 829.21" class="st1"/>
		</g>
		<g id="shape5061-331" v:mID="5061" v:groupContext="shape" transform="translate(1036.36,-479.353)">
			<title>Sheet.5061</title>
			<path d="M0 841.76 L0 841.89" class="st1"/>
		</g>
		<g id="shape5062-334" v:mID="5062" v:groupContext="shape" transform="translate(1019.63,-353.501)">
			<title>Sheet.5062</title>
			<path d="M16.74 841.89 L-0 841.89" class="st1"/>
		</g>
		<g id="shape5063-337" v:mID="5063" v:groupContext="shape" transform="translate(1048.82,-366.048)">
			<title>Sheet.5063</title>
			<path d="M0 841.76 L0 841.89" class="st1"/>
		</g>
		<g id="shape5064-340" v:mID="5064" v:groupContext="shape" transform="translate(1019.63,-479.483)">
			<title>Sheet.5064</title>
			<path d="M16.74 841.89 L-0 841.89" class="st1"/>
		</g>
		<g id="shape5065-343" v:mID="5065" v:groupContext="shape" transform="translate(1019.63,-353.372)">
			<title>Sheet.5065</title>
			<path d="M0 841.76 L0 841.89" class="st1"/>
		</g>
		<g id="shape5066-346" v:mID="5066" v:groupContext="shape" transform="translate(619.361,-366.177)">
			<title>Sheet.5066</title>
			<path d="M0 841.89 L0 741.13" class="st1"/>
		</g>
		<g id="shape5067-349" v:mID="5067" v:groupContext="shape" transform="translate(1019.63,-479.353)">
			<title>Sheet.5067</title>
			<path d="M0 841.76 L0 841.89" class="st1"/>
		</g>
		<g id="shape5068-352" v:mID="5068" v:groupContext="shape" transform="translate(619.361,-466.936)">
			<title>Sheet.5068</title>
			<path d="M12.59 829.34 L12.07 829.34 L11.42 829.34 L10.9 829.34 L10.38 829.47 L9.73 829.6 L9.21 829.73 L8.69 829.86 L8.17
						 830.12 L7.65 830.25 L7.14 830.51 L6.62 830.77 L6.1 831.02 L5.58 831.41 L5.19 831.67 L4.67 832.06 L4.28 832.45
						 L3.89 832.84 L3.5 833.22 L3.11 833.61 L2.72 834 L2.34 834.52 L2.08 834.91 L1.69 835.42 L1.43 835.94 L1.17
						 836.46 L1.04 836.97 L0.78 837.49 L0.52 838.01 L0.39 838.53 L0.26 839.04 L0.13 839.69 L0.13 840.21 L0 840.73
						 L0 841.37 L0 841.89" class="st1"/>
		</g>
		<g id="shape5069-355" v:mID="5069" v:groupContext="shape" transform="translate(619.361,-466.807)">
			<title>Sheet.5069</title>
			<path d="M0 841.76 L0 841.89" class="st1"/>
		</g>
		<g id="shape5070-358" v:mID="5070" v:groupContext="shape" transform="translate(619.361,-353.501)">
			<title>Sheet.5070</title>
			<path d="M0 829.21 L0 829.86 L0 830.38 L0.13 830.9 L0.13 831.54 L0.26 832.06 L0.39 832.58 L0.52 833.09 L0.78 833.61 L1.04
						 834.13 L1.17 834.65 L1.43 835.16 L1.69 835.68 L2.08 836.2 L2.34 836.59 L2.72 837.1 L3.11 837.49 L3.5 838.01
						 L3.89 838.4 L4.28 838.79 L4.67 839.04 L5.19 839.43 L5.58 839.69 L6.1 840.08 L6.62 840.34 L7.14 840.6 L7.65
						 840.86 L8.17 840.98 L8.69 841.24 L9.21 841.37 L9.73 841.5 L10.38 841.63 L10.9 841.76 L11.42 841.76 L12.07
						 841.89 L12.59 841.89" class="st1"/>
		</g>
		<g id="shape5071-361" v:mID="5071" v:groupContext="shape" transform="translate(619.361,-466.807)">
			<title>Sheet.5071</title>
			<path d="M0 841.76 L0 841.89" class="st1"/>
		</g>
		<g id="shape5072-364" v:mID="5072" v:groupContext="shape" transform="translate(631.947,-353.372)">
			<title>Sheet.5072</title>
			<path d="M0 841.76 L0 841.89" class="st1"/>
		</g>
		<g id="shape5073-367" v:mID="5073" v:groupContext="shape" transform="translate(865.046,857.192) rotate(155.179)">
			<title>Sheet.5073</title>
			<desc>Lips for locking the bottle down</desc>
			<v:textBlock v:margins="rect(4,4,4,4)"/>
			<v:textRect cx="149.121" cy="841.89" width="298.25" height="0" transform="rotate(-180)"/>
			<path d="M19.2 841.89 L19.56 841.89 L298.24 841.89" class="st2"/>
			<rect v:rectContext="textBkgnd" x="-250.803" y="-877.89" width="203.365" height="72" transform="rotate(180)"
					class="st4"/>
			<text x="-240.01" y="-850.89" transform="rotate(180)" class="st5" v:langID="1044"><v:paragraph v:horizAlign="1"/><v:tabList/>Lips for locking<v:newlineChar/><tspan
						x="-250.8" dy="1.2em" class="st6"> </tspan>the bottle down</text>		</g>
		<g id="shape5074-376" v:mID="5074" v:groupContext="shape" transform="translate(619.361,-418.11)">
			<title>Sheet.5074</title>
			<desc>Center line</desc>
			<v:textBlock v:margins="rect(4,4,4,4)"/>
			<v:textRect cx="214.729" cy="841.89" width="429.46" height="0"/>
			<path d="M0 841.89 L429.46 841.89" class="st7"/>
			<rect v:rectContext="textBkgnd" x="148.049" y="823.89" width="133.36" height="36" class="st4"/>
			<text x="148.05" y="850.89" class="st5" v:langID="1044"><v:paragraph v:horizAlign="1"/><v:tabList/>Center line</text>		</g>
		<g id="shape5075-381" v:mID="5075" v:groupContext="shape" transform="translate(324.796,-405.537) rotate(-23.5186)">
			<title>Sheet.5075</title>
			<path d="M19.2 841.89 L19.56 841.89 L175.91 841.89" class="st2"/>
		</g>
		<g id="shape5076-386" v:mID="5076" v:groupContext="shape" transform="translate(709.613,1153.82) rotate(-159.274)">
			<title>Sheet.5076</title>
			<path d="M19.2 841.89 L19.56 841.89 L198.35 841.89" class="st2"/>
		</g>
		<g id="shape5077-391" v:mID="5077" v:groupContext="shape" transform="translate(727.856,-568.189)">
			<title>Sheet.5077</title>
			<desc>Overlapping to lock the bottle</desc>
			<v:textBlock v:margins="rect(4,4,4,4)"/>
			<v:textRect cx="106.299" cy="831.89" width="212.6" height="20"/>
			<rect x="0" y="821.89" width="212.598" height="20" class="st8"/>
			<text x="15.8" y="822.89" class="st5" v:langID="1044"><v:paragraph v:horizAlign="1"/><v:tabList/>Overlapping to <tspan
						x="17.89" dy="1.2em" class="st6">lock the bottle</tspan></text>		</g>
		<g id="shape5078-397" v:mID="5078" v:groupContext="shape" transform="translate(571.19,-781.154)">
			<title>Sheet.5078</title>
			<desc>Mounting lips for the interface cube</desc>
			<v:textBlock v:margins="rect(4,4,4,4)"/>
			<v:textRect cx="167.948" cy="841.89" width="335.9" height="0"/>
			<path d="M19.2 841.89 L19.56 841.89 L335.9 841.89" class="st2"/>
			<rect v:rectContext="textBkgnd" x="53.2288" y="805.89" width="229.439" height="72" class="st4"/>
			<text x="62.91" y="832.89" class="st5" v:langID="1044"><v:paragraph v:horizAlign="1"/><v:tabList/>Mounting lips for<v:newlineChar/><tspan
						x="53.23" dy="1.2em" class="st6"> </tspan>the interface cube</text>		</g>
		<g id="shape5079-405" v:mID="5079" v:groupContext="shape" transform="translate(-487.559,570.997) rotate(-90)">
			<title>Sheet.5079</title>
			<desc>Brace for the bottle</desc>
			<v:textBlock v:margins="rect(4,4,4,4)"/>
			<v:textRect cx="70.0656" cy="841.89" width="140.14" height="0" transform="rotate(90)"/>
			<path d="M16.2 841.89 L16.56 841.89 L140.13 841.89" class="st10"/>
			<rect v:rectContext="textBkgnd" x="781.384" y="-106.066" width="121.011" height="72" transform="rotate(90)"
					class="st12"/>
			<text x="786.4" y="-79.07" transform="rotate(90)" class="st5" v:langID="1044"><v:paragraph v:horizAlign="1"/><v:tabList/>Brace for <v:newlineChar/><tspan
						x="781.38" dy="1.2em" class="st6">the bottle</tspan></text>		</g>
	</g>
</svg>
