<?xml version="1.0" encoding="UTF-8" standalone="no"?>
<!DOCTYPE svg PUBLIC "-//W3C//DTD SVG 1.1//EN" "http://www.w3.org/Graphics/SVG/1.1/DTD/svg11.dtd">
<!-- Generated by Microsoft Visio, SVG Export gripperbarebonesunderside.svg Page-2 -->
<svg xmlns="http://www.w3.org/2000/svg" xmlns:xlink="http://www.w3.org/1999/xlink" xmlns:ev="http://www.w3.org/2001/xml-events"
		xmlns:v="http://schemas.microsoft.com/visio/2003/SVGExtensions/" width="16.5354in" height="11.6929in"
		viewBox="0 0 1190.55 841.89" xml:space="preserve" color-interpolation-filters="sRGB" class="st3">
	<v:documentProperties v:langID="1044" v:viewMarkup="false">
		<v:userDefs>
			<v:ud v:nameU="msvNoAutoConnect" v:val="VT0(1):26"/>
		</v:userDefs>
	</v:documentProperties>

	<style type="text/css">
	<![CDATA[
		.st1 {stroke:#000000;stroke-linecap:round;stroke-linejoin:round;stroke-width:0.75}
		.st2 {stroke:#ff0000;stroke-linecap:round;stroke-linejoin:round;stroke-width:3}
		.st3 {fill:none;fill-rule:evenodd;font-size:12px;overflow:visible;stroke-linecap:square;stroke-miterlimit:3}
	]]>
	</style>

	<g v:mID="6" v:index="2" v:groupContext="foregroundPage">
		<title>Page-2</title>
		<v:pageProperties v:drawingScale="0.0393701" v:pageScale="0.0393701" v:drawingUnits="24" v:shadowOffsetX="9"
				v:shadowOffsetY="-9"/>
		<v:layer v:name="CAD Drawing" v:index="0"/>
		<g id="shape1764-1" v:mID="1764" v:groupContext="shape" transform="translate(838.414,-54.3853)">
			<title>Sheet.1764</title>
			<path d="M32.62 825.62 L32.62 824.77 L32.19 823.48 L32.19 822.2 L31.76 821.34 L31.33 820.06 L30.9 819.2 L30.47 817.92
						 L30.04 817.06 L29.19 816.21 L28.76 815.35 L27.9 814.49 L27.04 813.64 L26.18 812.78 L24.89 812.35 L24.04
						 811.5 L23.18 811.07 L21.89 810.64 L21.03 810.21 L19.74 810.21 L18.46 809.79 L17.6 809.79 L16.31 809.79 L15.02
						 809.79 L14.16 809.79 L12.88 810.21 L11.59 810.21 L10.73 810.64 L9.44 811.07 L8.58 811.5 L7.73 812.35 L6.44
						 812.78 L5.58 813.64 L4.72 814.49 L4.29 815.35 L3.43 816.21 L2.58 817.06 L2.15 817.92 L1.72 819.2 L1.29 820.06
						 L0.86 821.34 L0.43 822.2 L0.43 823.48 L0 824.77 L0 825.62 L0 826.91 L0.43 828.19 L0.43 829.05 L0.86 830.33
						 L1.29 831.62 L1.72 832.47 L2.15 833.33 L2.58 834.61 L3.43 835.47 L4.29 836.32 L4.72 837.18 L5.58 838.04
						 L6.44 838.89 L7.73 839.32 L8.58 840.18 L9.44 840.61 L10.73 841.03 L11.59 841.46 L12.88 841.46 L14.16 841.89
						 L15.02 841.89 L16.31 841.89 L17.6 841.89 L18.46 841.89 L19.74 841.46 L21.03 841.46 L21.89 841.03 L23.18
						 840.61 L24.04 840.18 L24.89 839.32 L26.18 838.89 L27.04 838.04 L27.9 837.18 L28.76 836.32 L29.19 835.47
						 L30.04 834.61 L30.47 833.33 L30.9 832.47 L31.33 831.62 L31.76 830.33 L32.19 829.05 L32.19 828.19 L32.62
						 826.91 L32.62 825.62 L32.62 825.62" class="st1"/>
		</g>
		<g id="shape1765-4" v:mID="1765" v:groupContext="shape" transform="translate(305.344,-54.3853)">
			<title>Sheet.1765</title>
			<path d="M32.62 825.62 L32.62 824.77 L32.62 823.48 L32.19 822.2 L31.76 821.34 L31.76 820.06 L31.33 819.2 L30.47 817.92
						 L30.04 817.06 L29.19 816.21 L28.76 815.35 L27.9 814.49 L27.04 813.64 L26.18 812.78 L25.32 812.35 L24.04
						 811.5 L23.18 811.07 L21.89 810.64 L21.03 810.21 L19.74 810.21 L18.88 809.79 L17.6 809.79 L16.31 809.79 L15.02
						 809.79 L14.16 809.79 L12.88 810.21 L12.02 810.21 L10.73 810.64 L9.44 811.07 L8.58 811.5 L7.73 812.35 L6.87
						 812.78 L5.58 813.64 L4.72 814.49 L4.29 815.35 L3.43 816.21 L2.58 817.06 L2.15 817.92 L1.72 819.2 L1.29 820.06
						 L0.86 821.34 L0.43 822.2 L0.43 823.48 L0.43 824.77 L0 825.62 L0.43 826.91 L0.43 828.19 L0.43 829.05 L0.86
						 830.33 L1.29 831.62 L1.72 832.47 L2.15 833.33 L2.58 834.61 L3.43 835.47 L4.29 836.32 L4.72 837.18 L5.58
						 838.04 L6.87 838.89 L7.73 839.32 L8.58 840.18 L9.44 840.61 L10.73 841.03 L12.02 841.46 L12.88 841.46 L14.16
						 841.89 L15.02 841.89 L16.31 841.89 L17.6 841.89 L18.88 841.89 L19.74 841.46 L21.03 841.46 L21.89 841.03
						 L23.18 840.61 L24.04 840.18 L25.32 839.32 L26.18 838.89 L27.04 838.04 L27.9 837.18 L28.76 836.32 L29.19
						 835.47 L30.04 834.61 L30.47 833.33 L31.33 832.47 L31.76 831.62 L31.76 830.33 L32.19 829.05 L32.62 828.19
						 L32.62 826.91 L32.62 825.62 L32.62 825.62" class="st1"/>
		</g>
		<g id="shape1766-7" v:mID="1766" v:groupContext="shape" transform="translate(478.313,-779.095)">
			<title>Sheet.1766</title>
			<path d="M219.75 841.89 L-0 841.89" class="st1"/>
		</g>
		<g id="shape1767-10" v:mID="1767" v:groupContext="shape" transform="translate(698.065,-570.628)">
			<title>Sheet.1767</title>
			<path d="M209.02 841.89 L-0 633.42" class="st1"/>
		</g>
		<g id="shape1768-13" v:mID="1768" v:groupContext="shape" transform="translate(478.313,-778.666)">
			<title>Sheet.1768</title>
			<path d="M0 841.46 L0 841.89" class="st1"/>
		</g>
		<g id="shape1769-16" v:mID="1769" v:groupContext="shape" transform="translate(907.087,-59.9503)">
			<title>Sheet.1769</title>
			<path d="M0 841.89 L0 331.21" class="st1"/>
		</g>
		<g id="shape1770-19" v:mID="1770" v:groupContext="shape" transform="translate(698.065,-778.666)">
			<title>Sheet.1770</title>
			<path d="M0 841.46 L0 841.89" class="st1"/>
		</g>
		<g id="shape1771-22" v:mID="1771" v:groupContext="shape" transform="translate(374.017,-122.447)">
			<title>Sheet.1771</title>
			<path d="M428.34 841.89 L0 841.89" class="st1"/>
		</g>
		<g id="shape1772-25" v:mID="1772" v:groupContext="shape" transform="translate(907.087,-570.2)">
			<title>Sheet.1772</title>
			<path d="M0 841.46 L0 841.89" class="st1"/>
		</g>
		<g id="shape1773-28" v:mID="1773" v:groupContext="shape" transform="translate(269.291,-59.9503)">
			<title>Sheet.1773</title>
			<path d="M0 841.89 L0 331.21" class="st1"/>
		</g>
		<g id="shape1774-31" v:mID="1774" v:groupContext="shape" transform="translate(374.017,-122.019)">
			<title>Sheet.1774</title>
			<path d="M0 841.46 L0 841.89" class="st1"/>
		</g>
		<g id="shape1775-34" v:mID="1775" v:groupContext="shape" transform="translate(269.291,-570.628)">
			<title>Sheet.1775</title>
			<path d="M209.02 633.42 L0 841.89" class="st1"/>
		</g>
		<g id="shape1776-37" v:mID="1776" v:groupContext="shape" transform="translate(269.291,-570.2)">
			<title>Sheet.1776</title>
			<path d="M0 841.46 L0 841.89" class="st1"/>
		</g>
		<g id="shape1777-40" v:mID="1777" v:groupContext="shape" transform="translate(431.53,-242.304)">
			<title>Sheet.1777</title>
			<path d="M313.32 841.89 L-0 841.89" class="st2"/>
		</g>
		<g id="shape1778-43" v:mID="1778" v:groupContext="shape" transform="translate(269.291,-570.2)">
			<title>Sheet.1778</title>
			<path d="M0 841.46 L0 841.89" class="st1"/>
		</g>
		<g id="shape1779-46" v:mID="1779" v:groupContext="shape" transform="translate(744.848,-242.304)">
			<title>Sheet.1779</title>
			<path d="M0 424.96 L0 841.89" class="st2"/>
		</g>
		<g id="shape1780-49" v:mID="1780" v:groupContext="shape" transform="translate(431.53,-241.877)">
			<title>Sheet.1780</title>
			<path d="M0 841.46 L0 841.89" class="st2"/>
		</g>
		<g id="shape1781-52" v:mID="1781" v:groupContext="shape" transform="translate(431.53,-659.237)">
			<title>Sheet.1781</title>
			<path d="M313.32 841.89 L-0 841.89" class="st2"/>
		</g>
		<g id="shape1782-55" v:mID="1782" v:groupContext="shape" transform="translate(744.848,-241.877)">
			<title>Sheet.1782</title>
			<path d="M0 841.46 L0 841.89" class="st2"/>
		</g>
		<g id="shape1783-58" v:mID="1783" v:groupContext="shape" transform="translate(431.53,-242.304)">
			<title>Sheet.1783</title>
			<path d="M0 424.96 L0 841.89" class="st2"/>
		</g>
		<g id="shape1784-61" v:mID="1784" v:groupContext="shape" transform="translate(431.53,-658.809)">
			<title>Sheet.1784</title>
			<path d="M0 841.46 L0 841.89" class="st2"/>
		</g>
		<g id="shape1785-64" v:mID="1785" v:groupContext="shape" transform="translate(865.025,-18.4281)">
			<title>Sheet.1785</title>
			<path d="M0 841.89 L2.15 841.89 L3.86 841.89 L5.58 841.46 L7.73 841.46 L9.44 841.03 L11.16 840.61 L13.31 839.75 L15.02
						 839.32 L16.74 838.47 L18.46 838.04 L20.17 837.18 L21.46 835.9 L23.18 835.04 L24.89 834.18 L26.18 832.9 L27.47
						 831.62 L29.19 830.33 L30.47 829.05 L31.76 827.76 L33.05 826.05 L33.91 824.77 L35.19 823.06 L36.05 821.77
						 L36.91 820.06 L37.77 818.35 L38.63 816.63 L39.49 814.92 L39.92 813.21 L40.35 811.5 L40.77 809.36 L41.2 807.64
						 L41.63 805.93 L41.63 803.79 L42.06 802.08 L42.06 800.37" class="st1"/>
		</g>
		<g id="shape1786-67" v:mID="1786" v:groupContext="shape" transform="translate(431.53,-241.877)">
			<title>Sheet.1786</title>
			<path d="M0 841.46 L0 841.89" class="st2"/>
		</g>
		<g id="shape1787-70" v:mID="1787" v:groupContext="shape" transform="translate(269.291,-18.4281)">
			<title>Sheet.1787</title>
			<path d="M0 800.37 L0.43 802.08 L0.43 803.79 L0.43 805.93 L0.86 807.64 L1.29 809.36 L1.72 811.5 L2.15 813.21 L3 814.92
						 L3.43 816.63 L4.29 818.35 L5.15 820.06 L6.01 821.77 L7.3 823.06 L8.15 824.77 L9.44 826.05 L10.3 827.76 L11.59
						 829.05 L13.31 830.33 L14.59 831.62 L15.88 832.9 L17.6 834.18 L18.88 835.04 L20.6 835.9 L22.32 837.18 L24.04
						 838.04 L25.75 838.47 L27.47 839.32 L29.19 839.75 L30.9 840.61 L32.62 841.03 L34.34 841.46 L36.48 841.46
						 L38.2 841.89 L39.92 841.89 L42.06 841.89" class="st1"/>
		</g>
		<g id="shape1788-73" v:mID="1788" v:groupContext="shape" transform="translate(907.087,-59.5219)">
			<title>Sheet.1788</title>
			<path d="M0 841.46 L0 841.89" class="st1"/>
		</g>
		<g id="shape1789-76" v:mID="1789" v:groupContext="shape" transform="translate(311.353,-18.4284)">
			<title>Sheet.1789</title>
			<path d="M-0 841.89 L62.66 841.89" class="st1"/>
		</g>
		<g id="shape1790-79" v:mID="1790" v:groupContext="shape" transform="translate(311.353,-18)">
			<title>Sheet.1790</title>
			<path d="M0 841.46 L0 841.89" class="st1"/>
		</g>
		<g id="shape1791-82" v:mID="1791" v:groupContext="shape" transform="translate(374.017,-18.4284)">
			<title>Sheet.1791</title>
			<path d="M0 737.87 L0 841.89" class="st1"/>
		</g>
		<g id="shape1792-85" v:mID="1792" v:groupContext="shape" transform="translate(374.017,-18)">
			<title>Sheet.1792</title>
			<path d="M0 841.46 L0 841.89" class="st1"/>
		</g>
		<g id="shape1793-88" v:mID="1793" v:groupContext="shape" transform="translate(802.361,-18.4284)">
			<title>Sheet.1793</title>
			<path d="M62.66 841.89 L0 841.89" class="st1"/>
		</g>
		<g id="shape1794-91" v:mID="1794" v:groupContext="shape" transform="translate(374.017,-18)">
			<title>Sheet.1794</title>
			<path d="M0 841.46 L0 841.89" class="st1"/>
		</g>
		<g id="shape1795-94" v:mID="1795" v:groupContext="shape" transform="translate(802.361,-18.4284)">
			<title>Sheet.1795</title>
			<path d="M0 737.87 L0 841.89" class="st1"/>
		</g>
		<g id="shape1796-97" v:mID="1796" v:groupContext="shape" transform="translate(802.361,-18)">
			<title>Sheet.1796</title>
			<path d="M0 841.46 L0 841.89" class="st1"/>
		</g>
		<g id="shape1797-100" v:mID="1797" v:groupContext="shape" transform="translate(494.623,-283.398)">
			<title>Sheet.1797</title>
			<path d="M3.86 841.89 L0 838.47" class="st2"/>
		</g>
		<g id="shape1798-103" v:mID="1798" v:groupContext="shape" transform="translate(802.361,-18)">
			<title>Sheet.1798</title>
			<path d="M0 841.46 L0 841.89" class="st1"/>
		</g>
		<g id="shape1799-106" v:mID="1799" v:groupContext="shape" transform="translate(440.543,-242.304)">
			<title>Sheet.1799</title>
			<path d="M57.94 800.8 L0 841.89" class="st2"/>
		</g>
		<g id="shape1800-109" v:mID="1800" v:groupContext="shape" transform="translate(494.623,-286.395)">
			<title>Sheet.1800</title>
			<path d="M0 841.46 L0 841.89" class="st2"/>
		</g>
		<g id="shape1801-112" v:mID="1801" v:groupContext="shape" transform="translate(440.543,-621.14)">
			<title>Sheet.1801</title>
			<path d="M54.08 841.89 L0 803.79" class="st2"/>
		</g>
		<g id="shape1802-115" v:mID="1802" v:groupContext="shape" transform="translate(440.543,-241.877)">
			<title>Sheet.1802</title>
			<path d="M0 841.46 L0 841.89" class="st2"/>
		</g>
		<g id="shape1803-118" v:mID="1803" v:groupContext="shape" transform="translate(494.623,-286.823)">
			<title>Sheet.1803</title>
			<path d="M0 507.57 L0 841.89" class="st2"/>
		</g>
		<g id="shape1804-121" v:mID="1804" v:groupContext="shape" transform="translate(440.543,-658.809)">
			<title>Sheet.1804</title>
			<path d="M0 841.46 L0 841.89" class="st2"/>
		</g>
		<g id="shape1805-124" v:mID="1805" v:groupContext="shape" transform="translate(677.892,-242.304)">
			<title>Sheet.1805</title>
			<path d="M-0 800.8 L57.94 841.89" class="st2"/>
		</g>
		<g id="shape1806-127" v:mID="1806" v:groupContext="shape" transform="translate(494.623,-286.395)">
			<title>Sheet.1806</title>
			<path d="M0 841.46 L0 841.89" class="st2"/>
		</g>
		<g id="shape1807-130" v:mID="1807" v:groupContext="shape" transform="translate(677.892,-283.398)">
			<title>Sheet.1807</title>
			<path d="M3.86 838.47 L-0 841.89" class="st2"/>
		</g>
		<g id="shape1808-133" v:mID="1808" v:groupContext="shape" transform="translate(735.835,-241.877)">
			<title>Sheet.1808</title>
			<path d="M0 841.46 L0 841.89" class="st2"/>
		</g>
		<g id="shape1809-136" v:mID="1809" v:groupContext="shape" transform="translate(681.755,-286.823)">
			<title>Sheet.1809</title>
			<path d="M0 507.57 L0 841.89" class="st2"/>
		</g>
		<g id="shape1810-139" v:mID="1810" v:groupContext="shape" transform="translate(677.892,-282.971)">
			<title>Sheet.1810</title>
			<path d="M0 841.46 L0 841.89" class="st2"/>
		</g>
		<g id="shape1811-142" v:mID="1811" v:groupContext="shape" transform="translate(681.755,-621.14)">
			<title>Sheet.1811</title>
			<path d="M-0 841.89 L54.08 803.79" class="st2"/>
		</g>
		<g id="shape1812-145" v:mID="1812" v:groupContext="shape" transform="translate(681.755,-286.395)">
			<title>Sheet.1812</title>
			<path d="M0 841.46 L0 841.89" class="st2"/>
		</g>
		<g id="shape1813-148" v:mID="1813" v:groupContext="shape" transform="translate(498.486,-283.398)">
			<title>Sheet.1813</title>
			<path d="M179.41 841.89 L0 841.89" class="st2"/>
		</g>
		<g id="shape1814-151" v:mID="1814" v:groupContext="shape" transform="translate(735.835,-658.809)">
			<title>Sheet.1814</title>
			<path d="M0 841.46 L0 841.89" class="st2"/>
		</g>
		<g id="shape1815-154" v:mID="1815" v:groupContext="shape" transform="translate(494.623,-621.14)">
			<title>Sheet.1815</title>
			<path d="M187.13 841.89 L0 841.89" class="st2"/>
		</g>
		<g id="shape1816-157" v:mID="1816" v:groupContext="shape" transform="translate(498.486,-282.971)">
			<title>Sheet.1816</title>
			<path d="M0 841.46 L0 841.89" class="st2"/>
		</g>
		<g id="shape1817-160" v:mID="1817" v:groupContext="shape" transform="translate(321.654,-70.6515)">
			<title>Sheet.1817</title>
			<path d="M0 841.89 L0 816.21" class="st1"/>
		</g>
		<g id="shape1818-163" v:mID="1818" v:groupContext="shape" transform="translate(494.623,-620.711)">
			<title>Sheet.1818</title>
			<path d="M0 841.46 L0 841.89" class="st2"/>
		</g>
		<g id="shape1819-166" v:mID="1819" v:groupContext="shape" transform="translate(295.473,-70.6515)">
			<title>Sheet.1819</title>
			<path d="M26.18 841.89 L-0 841.89" class="st1"/>
		</g>
		<g id="shape1820-169" v:mID="1820" v:groupContext="shape" transform="translate(321.654,-95.9072)">
			<title>Sheet.1820</title>
			<path d="M0 841.46 L0 841.89" class="st1"/>
		</g>
		<g id="shape1821-172" v:mID="1821" v:groupContext="shape" transform="translate(321.654,-44.5396)">
			<title>Sheet.1821</title>
			<path d="M0 815.78 L0 841.89" class="st1"/>
		</g>
		<g id="shape1822-175" v:mID="1822" v:groupContext="shape" transform="translate(295.473,-70.2237)">
			<title>Sheet.1822</title>
			<path d="M0 841.46 L0 841.89" class="st1"/>
		</g>
		<g id="shape1823-178" v:mID="1823" v:groupContext="shape" transform="translate(321.654,-70.6515)">
			<title>Sheet.1823</title>
			<path d="M-0 841.89 L26.18 841.89" class="st1"/>
		</g>
		<g id="shape1824-181" v:mID="1824" v:groupContext="shape" transform="translate(321.654,-44.1119)">
			<title>Sheet.1824</title>
			<path d="M0 841.46 L0 841.89" class="st1"/>
		</g>
		<g id="shape1825-184" v:mID="1825" v:groupContext="shape" transform="translate(321.654,-96.3356)">
			<title>Sheet.1825</title>
			<path d="M0 841.89 L0 825.62" class="st1"/>
		</g>
		<g id="shape1826-187" v:mID="1826" v:groupContext="shape" transform="translate(347.835,-70.2237)">
			<title>Sheet.1826</title>
			<path d="M0 841.46 L0 841.89" class="st1"/>
		</g>
		<g id="shape1827-190" v:mID="1827" v:groupContext="shape" transform="translate(279.592,-70.6515)">
			<title>Sheet.1827</title>
			<path d="M15.88 841.89 L-0 841.89" class="st1"/>
		</g>
		<g id="shape1828-193" v:mID="1828" v:groupContext="shape" transform="translate(321.654,-112.174)">
			<title>Sheet.1828</title>
			<path d="M0 841.46 L0 841.89" class="st1"/>
		</g>
		<g id="shape1829-196" v:mID="1829" v:groupContext="shape" transform="translate(321.654,-28.2734)">
			<title>Sheet.1829</title>
			<path d="M0 825.62 L0 841.89" class="st1"/>
		</g>
		<g id="shape1830-199" v:mID="1830" v:groupContext="shape" transform="translate(279.592,-70.2237)">
			<title>Sheet.1830</title>
			<path d="M0 841.46 L0 841.89" class="st1"/>
		</g>
		<g id="shape1831-202" v:mID="1831" v:groupContext="shape" transform="translate(347.835,-70.6515)">
			<title>Sheet.1831</title>
			<path d="M0 841.89 L16.31 841.89" class="st1"/>
		</g>
		<g id="shape1832-205" v:mID="1832" v:groupContext="shape" transform="translate(321.654,-27.8456)">
			<title>Sheet.1832</title>
			<path d="M0 841.46 L0 841.89" class="st1"/>
		</g>
		<g id="shape1833-208" v:mID="1833" v:groupContext="shape" transform="translate(854.724,-70.6515)">
			<title>Sheet.1833</title>
			<path d="M0 841.89 L0 816.21" class="st1"/>
		</g>
		<g id="shape1834-211" v:mID="1834" v:groupContext="shape" transform="translate(364.145,-70.2237)">
			<title>Sheet.1834</title>
			<path d="M0 841.46 L0 841.89" class="st1"/>
		</g>
		<g id="shape1835-214" v:mID="1835" v:groupContext="shape" transform="translate(828.543,-70.6515)">
			<title>Sheet.1835</title>
			<path d="M26.18 841.89 L-0 841.89" class="st1"/>
		</g>
		<g id="shape1836-217" v:mID="1836" v:groupContext="shape" transform="translate(854.724,-95.9072)">
			<title>Sheet.1836</title>
			<path d="M0 841.46 L0 841.89" class="st1"/>
		</g>
		<g id="shape1837-220" v:mID="1837" v:groupContext="shape" transform="translate(854.724,-44.5396)">
			<title>Sheet.1837</title>
			<path d="M0 815.78 L0 841.89" class="st1"/>
		</g>
		<g id="shape1838-223" v:mID="1838" v:groupContext="shape" transform="translate(828.543,-70.2237)">
			<title>Sheet.1838</title>
			<path d="M0 841.46 L0 841.89" class="st1"/>
		</g>
		<g id="shape1839-226" v:mID="1839" v:groupContext="shape" transform="translate(854.724,-70.6515)">
			<title>Sheet.1839</title>
			<path d="M-0 841.89 L26.18 841.89" class="st1"/>
		</g>
		<g id="shape1840-229" v:mID="1840" v:groupContext="shape" transform="translate(854.724,-44.1119)">
			<title>Sheet.1840</title>
			<path d="M0 841.46 L0 841.89" class="st1"/>
		</g>
		<g id="shape1841-232" v:mID="1841" v:groupContext="shape" transform="translate(854.724,-96.3356)">
			<title>Sheet.1841</title>
			<path d="M0 841.89 L0 825.62" class="st1"/>
		</g>
		<g id="shape1842-235" v:mID="1842" v:groupContext="shape" transform="translate(880.905,-70.2237)">
			<title>Sheet.1842</title>
			<path d="M0 841.46 L0 841.89" class="st1"/>
		</g>
		<g id="shape1843-238" v:mID="1843" v:groupContext="shape" transform="translate(812.233,-70.6515)">
			<title>Sheet.1843</title>
			<path d="M16.31 841.89 L0 841.89" class="st1"/>
		</g>
		<g id="shape1844-241" v:mID="1844" v:groupContext="shape" transform="translate(854.724,-112.174)">
			<title>Sheet.1844</title>
			<path d="M0 841.46 L0 841.89" class="st1"/>
		</g>
		<g id="shape1845-244" v:mID="1845" v:groupContext="shape" transform="translate(854.724,-28.2734)">
			<title>Sheet.1845</title>
			<path d="M0 825.62 L0 841.89" class="st1"/>
		</g>
		<g id="shape1846-247" v:mID="1846" v:groupContext="shape" transform="translate(812.233,-70.2237)">
			<title>Sheet.1846</title>
			<path d="M0 841.46 L0 841.89" class="st1"/>
		</g>
		<g id="shape1847-250" v:mID="1847" v:groupContext="shape" transform="translate(880.905,-70.6515)">
			<title>Sheet.1847</title>
			<path d="M0 841.89 L16.31 841.89" class="st1"/>
		</g>
		<g id="shape1848-253" v:mID="1848" v:groupContext="shape" transform="translate(854.724,-27.8456)">
			<title>Sheet.1848</title>
			<path d="M0 841.46 L0 841.89" class="st1"/>
		</g>
		<g id="shape1850-256" v:mID="1850" v:groupContext="shape" transform="translate(897.215,-70.2237)">
			<title>Sheet.1850</title>
			<path d="M0 841.46 L0 841.89" class="st1"/>
		</g>
	</g>
</svg>
