<?xml version="1.0" encoding="UTF-8" standalone="no"?>
<!DOCTYPE svg PUBLIC "-//W3C//DTD SVG 1.1//EN" "http://www.w3.org/Graphics/SVG/1.1/DTD/svg11.dtd">
<!-- Generated by Microsoft Visio, SVG Export grippers barebonesprofile.svg Page-2 -->
<svg xmlns="http://www.w3.org/2000/svg" xmlns:xlink="http://www.w3.org/1999/xlink" xmlns:ev="http://www.w3.org/2001/xml-events"
		xmlns:v="http://schemas.microsoft.com/visio/2003/SVGExtensions/" width="16.5354in" height="11.6929in"
		viewBox="0 0 1190.55 841.89" xml:space="preserve" color-interpolation-filters="sRGB" class="st3">
	<v:documentProperties v:langID="1044" v:viewMarkup="false">
		<v:userDefs>
			<v:ud v:nameU="msvNoAutoConnect" v:val="VT0(1):26"/>
		</v:userDefs>
	</v:documentProperties>

	<style type="text/css">
	<![CDATA[
		.st1 {stroke:#000000;stroke-linecap:round;stroke-linejoin:round;stroke-width:0.75}
		.st2 {stroke:#00b050;stroke-linecap:round;stroke-linejoin:round;stroke-width:2}
		.st3 {fill:none;fill-rule:evenodd;font-size:12px;overflow:visible;stroke-linecap:square;stroke-miterlimit:3}
	]]>
	</style>

	<g v:mID="6" v:index="2" v:groupContext="foregroundPage">
		<title>Page-2</title>
		<v:pageProperties v:drawingScale="0.0393701" v:pageScale="0.0393701" v:drawingUnits="24" v:shadowOffsetX="9"
				v:shadowOffsetY="-9"/>
		<v:layer v:name="CAD Drawing" v:index="0"/>
		<g id="shape2201-1" v:mID="2201" v:groupContext="shape" transform="translate(1021.49,-298.406)">
			<title>Sheet.2201</title>
			<path d="M0 755.45 L0 841.89" class="st1"/>
		</g>
		<g id="shape2202-4" v:mID="2202" v:groupContext="shape" transform="translate(1077.17,-298.406)">
			<title>Sheet.2202</title>
			<path d="M0 755.45 L0 841.89" class="st1"/>
		</g>
		<g id="shape2203-7" v:mID="2203" v:groupContext="shape" transform="translate(1021.49,-297.834)">
			<title>Sheet.2203</title>
			<path d="M0 841.32 L0 841.89" class="st1"/>
		</g>
		<g id="shape2204-10" v:mID="2204" v:groupContext="shape" transform="translate(1021.49,-384.841)">
			<title>Sheet.2204</title>
			<path d="M-0 841.89 L55.67 841.89" class="st1"/>
		</g>
		<g id="shape2205-13" v:mID="2205" v:groupContext="shape" transform="translate(1077.17,-297.834)">
			<title>Sheet.2205</title>
			<path d="M0 841.32 L0 841.89" class="st1"/>
		</g>
		<g id="shape2206-16" v:mID="2206" v:groupContext="shape" transform="translate(1021.49,-298.406)">
			<title>Sheet.2206</title>
			<path d="M-0 841.89 L55.67 841.89" class="st1"/>
		</g>
		<g id="shape2207-19" v:mID="2207" v:groupContext="shape" transform="translate(1077.17,-384.269)">
			<title>Sheet.2207</title>
			<path d="M0 841.32 L0 841.89" class="st1"/>
		</g>
		<g id="shape2208-22" v:mID="2208" v:groupContext="shape" transform="translate(886.616,-552.56)">
			<title>Sheet.2208</title>
			<path d="M8.61 841.89 L-0 841.89" class="st1"/>
		</g>
		<g id="shape2209-25" v:mID="2209" v:groupContext="shape" transform="translate(1077.17,-297.834)">
			<title>Sheet.2209</title>
			<path d="M0 841.32 L0 841.89" class="st1"/>
		</g>
		<g id="shape2210-28" v:mID="2210" v:groupContext="shape" transform="translate(895.225,-384.841)">
			<title>Sheet.2210</title>
			<path d="M0 674.17 L0 841.89" class="st1"/>
		</g>
		<g id="shape2211-31" v:mID="2211" v:groupContext="shape" transform="translate(886.616,-551.988)">
			<title>Sheet.2211</title>
			<path d="M0 841.32 L0 841.89" class="st1"/>
		</g>
		<g id="shape2212-34" v:mID="2212" v:groupContext="shape" transform="translate(336.204,-298.406)">
			<title>Sheet.2212</title>
			<path d="M0 757.17 L0 841.89" class="st1"/>
		</g>
		<g id="shape2213-37" v:mID="2213" v:groupContext="shape" transform="translate(895.225,-384.269)">
			<title>Sheet.2213</title>
			<path d="M0 841.32 L0 841.89" class="st1"/>
		</g>
		<g id="shape2214-40" v:mID="2214" v:groupContext="shape" transform="translate(336.204,-383.124)">
			<title>Sheet.2214</title>
			<path d="M241.06 841.89 L-0 841.89" class="st1"/>
		</g>
		<g id="shape2215-43" v:mID="2215" v:groupContext="shape" transform="translate(336.204,-297.834)">
			<title>Sheet.2215</title>
			<path d="M0 841.32 L0 841.89" class="st1"/>
		</g>
		<g id="shape2216-46" v:mID="2216" v:groupContext="shape" transform="translate(577.26,-383.124)">
			<title>Sheet.2216</title>
			<path d="M238.76 743.43 L0 841.89" class="st1"/>
		</g>
		<g id="shape2217-49" v:mID="2217" v:groupContext="shape" transform="translate(336.204,-382.552)">
			<title>Sheet.2217</title>
			<path d="M0 841.32 L0 841.89" class="st1"/>
		</g>
		<g id="shape2218-52" v:mID="2218" v:groupContext="shape" transform="translate(816.021,-481.58)">
			<title>Sheet.2218</title>
			<path d="M44.77 796.67 L0 841.89" class="st1"/>
		</g>
		<g id="shape2219-55" v:mID="2219" v:groupContext="shape" transform="translate(577.26,-382.552)">
			<title>Sheet.2219</title>
			<path d="M0 841.32 L0 841.89" class="st1"/>
		</g>
		<g id="shape2220-58" v:mID="2220" v:groupContext="shape" transform="translate(816.021,-481.008)">
			<title>Sheet.2220</title>
			<path d="M0 841.32 L0 841.89" class="st1"/>
		</g>
		<g id="shape2221-61" v:mID="2221" v:groupContext="shape" transform="translate(860.789,-526.801)">
			<title>Sheet.2221</title>
			<path d="M25.83 816.13 L-0 841.89" class="st1"/>
		</g>
		<g id="shape2222-64" v:mID="2222" v:groupContext="shape" transform="translate(860.789,-526.229)">
			<title>Sheet.2222</title>
			<path d="M0 841.32 L0 841.89" class="st1"/>
		</g>
		<g id="shape2223-67" v:mID="2223" v:groupContext="shape" transform="translate(895.225,-384.841)">
			<title>Sheet.2223</title>
			<path d="M0 841.89 L126.27 841.89" class="st1"/>
		</g>
		<g id="shape2224-70" v:mID="2224" v:groupContext="shape" transform="translate(860.789,-526.229)">
			<title>Sheet.2224</title>
			<path d="M0 841.32 L0 841.89" class="st1"/>
		</g>
		<g id="shape2225-73" v:mID="2225" v:groupContext="shape" transform="translate(336.204,-298.406)">
			<title>Sheet.2225</title>
			<path d="M685.29 841.89 L-0 841.89" class="st1"/>
		</g>
		<g id="shape2226-76" v:mID="2226" v:groupContext="shape" transform="translate(1021.49,-384.269)">
			<title>Sheet.2226</title>
			<path d="M0 841.32 L0 841.89" class="st1"/>
		</g>
		<g id="shape2227-79" v:mID="2227" v:groupContext="shape" transform="translate(56.6929,-298.406)">
			<title>Sheet.2227</title>
			<path d="M0 811.55 L0 841.89" class="st1"/>
		</g>
		<g id="shape2228-82" v:mID="2228" v:groupContext="shape" transform="translate(336.204,-297.834)">
			<title>Sheet.2228</title>
			<path d="M0 841.32 L0 841.89" class="st1"/>
		</g>
		<g id="shape2229-85" v:mID="2229" v:groupContext="shape" transform="translate(56.6929,-328.744)">
			<title>Sheet.2229</title>
			<path d="M28.7 798.39 L0 841.89" class="st1"/>
		</g>
		<g id="shape2230-88" v:mID="2230" v:groupContext="shape" transform="translate(56.6929,-297.834)">
			<title>Sheet.2230</title>
			<path d="M0 841.32 L0 841.89" class="st1"/>
		</g>
		<g id="shape2231-91" v:mID="2231" v:groupContext="shape" transform="translate(85.39,-324.165)">
			<title>Sheet.2231</title>
			<path d="M0 793.81 L48.21 841.89" class="st1"/>
		</g>
		<g id="shape2232-94" v:mID="2232" v:groupContext="shape" transform="translate(56.6929,-328.172)">
			<title>Sheet.2232</title>
			<path d="M0 841.32 L0 841.89" class="st1"/>
		</g>
		<g id="shape2233-97" v:mID="2233" v:groupContext="shape" transform="translate(133.602,-324.165)">
			<title>Sheet.2233</title>
			<path d="M2.3 839.6 L-0 841.89" class="st1"/>
		</g>
		<g id="shape2234-100" v:mID="2234" v:groupContext="shape" transform="translate(133.602,-323.593)">
			<title>Sheet.2234</title>
			<path d="M0 841.32 L0 841.89" class="st1"/>
		</g>
		<g id="shape2235-103" v:mID="2235" v:groupContext="shape" transform="translate(135.897,-326.454)">
			<title>Sheet.2235</title>
			<path d="M0 841.89 L102.74 841.89" class="st1"/>
		</g>
		<g id="shape2236-106" v:mID="2236" v:groupContext="shape" transform="translate(133.602,-323.593)">
			<title>Sheet.2236</title>
			<path d="M0 841.32 L0 841.89" class="st1"/>
		</g>
		<g id="shape2237-109" v:mID="2237" v:groupContext="shape" transform="translate(238.633,-326.454)">
			<title>Sheet.2237</title>
			<path d="M55.67 785.79 L0 841.89" class="st1"/>
		</g>
		<g id="shape2238-112" v:mID="2238" v:groupContext="shape" transform="translate(238.633,-325.882)">
			<title>Sheet.2238</title>
			<path d="M0 841.32 L0 841.89" class="st1"/>
		</g>
		<g id="shape2239-115" v:mID="2239" v:groupContext="shape" transform="translate(294.306,-382.552)">
			<title>Sheet.2239</title>
			<path d="M0 841.89 L0 841.32" class="st1"/>
		</g>
		<g id="shape2240-118" v:mID="2240" v:groupContext="shape" transform="translate(238.633,-325.882)">
			<title>Sheet.2240</title>
			<path d="M0 841.32 L0 841.89" class="st1"/>
		</g>
		<g id="shape2241-121" v:mID="2241" v:groupContext="shape" transform="translate(294.306,-383.124)">
			<title>Sheet.2241</title>
			<path d="M41.9 841.89 L0 841.89" class="st1"/>
		</g>
		<g id="shape2242-124" v:mID="2242" v:groupContext="shape" transform="translate(294.306,-382.552)">
			<title>Sheet.2242</title>
			<path d="M0 841.32 L0 841.89" class="st1"/>
		</g>
		<g id="shape2243-127" v:mID="2243" v:groupContext="shape" transform="translate(56.6929,-298.406)">
			<title>Sheet.2243</title>
			<path d="M279.51 841.89 L0 841.89" class="st1"/>
		</g>
		<g id="shape2244-130" v:mID="2244" v:groupContext="shape" transform="translate(294.306,-382.552)">
			<title>Sheet.2244</title>
			<path d="M0 841.32 L0 841.89" class="st1"/>
		</g>
		<g id="shape2245-133" v:mID="2245" v:groupContext="shape" transform="translate(85.39,-372.248)">
			<title>Sheet.2245</title>
			<path d="M6.89 831.01 L0 841.89" class="st1"/>
		</g>
		<g id="shape2246-136" v:mID="2246" v:groupContext="shape" transform="translate(56.6929,-297.834)">
			<title>Sheet.2246</title>
			<path d="M0 841.32 L0 841.89" class="st1"/>
		</g>
		<g id="shape2247-139" v:mID="2247" v:groupContext="shape" transform="translate(92.2774,-383.124)">
			<title>Sheet.2247</title>
			<path d="M0 841.89 L202.03 841.89" class="st1"/>
		</g>
		<g id="shape2248-142" v:mID="2248" v:groupContext="shape" transform="translate(294.306,-382.552)">
			<title>Sheet.2248</title>
			<path d="M0 841.32 L0 841.89" class="st1"/>
		</g>
		<g id="shape2249-145" v:mID="2249" v:groupContext="shape" transform="translate(-83.3505,-364.601) rotate(-12.041)">
			<title>Sheet.2249</title>
			<path d="M0 841.89 L812.21 841.89" class="st2"/>
		</g>
	</g>
</svg>
