<?xml version="1.0" encoding="UTF-8" standalone="no"?>
<!DOCTYPE svg PUBLIC "-//W3C//DTD SVG 1.1//EN" "http://www.w3.org/Graphics/SVG/1.1/DTD/svg11.dtd">
<!-- Generated by Microsoft Visio, SVG Export levermechanism.svg Page-2 -->
<svg xmlns="http://www.w3.org/2000/svg" xmlns:xlink="http://www.w3.org/1999/xlink" xmlns:ev="http://www.w3.org/2001/xml-events"
		xmlns:v="http://schemas.microsoft.com/visio/2003/SVGExtensions/" width="16.5354in" height="11.6929in"
		viewBox="0 0 1190.55 841.89" xml:space="preserve" color-interpolation-filters="sRGB" class="st14">
	<v:documentProperties v:langID="1044" v:viewMarkup="false">
		<v:userDefs>
			<v:ud v:nameU="msvNoAutoConnect" v:val="VT0(1):26"/>
		</v:userDefs>
	</v:documentProperties>

	<style type="text/css">
	<![CDATA[
		.st1 {stroke:#000000;stroke-linecap:round;stroke-linejoin:round;stroke-width:0.75}
		.st2 {marker-start:url(#mrkr13-501);stroke:#ff0000;stroke-linecap:round;stroke-linejoin:round;stroke-width:4}
		.st3 {fill:#ff0000;fill-opacity:1;stroke:#ff0000;stroke-opacity:1;stroke-width:0.61349693251534}
		.st4 {fill:#ffffff;stroke:none;stroke-linecap:butt}
		.st5 {fill:#000000;font-family:Calibri;font-size:2.50001em}
		.st6 {font-size:1em}
		.st7 {fill:#ffffff;stroke:none;stroke-linecap:butt;stroke-width:7.2}
		.st8 {marker-start:url(#mrkr13-517);stroke:#595959;stroke-linecap:round;stroke-linejoin:round;stroke-width:4}
		.st9 {fill:#595959;fill-opacity:1;stroke:#595959;stroke-opacity:1;stroke-width:0.61349693251534}
		.st10 {marker-start:url(#mrkr13-525);stroke:#3f3f3f;stroke-linecap:round;stroke-linejoin:round;stroke-width:4}
		.st11 {fill:#3f3f3f;fill-opacity:1;stroke:#3f3f3f;stroke-opacity:1;stroke-width:0.61349693251534}
		.st12 {fill:#595959;fill-opacity:0.47;marker-start:url(#mrkr13-531);stroke:#595959;stroke-linecap:round;stroke-linejoin:round;stroke-width:0.75}
		.st13 {fill:#595959;fill-opacity:1;stroke:#595959;stroke-opacity:1;stroke-width:0.22935779816514}
		.st14 {fill:none;fill-rule:evenodd;font-size:12px;overflow:visible;stroke-linecap:square;stroke-miterlimit:3}
	]]>
	</style>

	<defs id="Markers">
		<g id="lend13">
			<path d="M 3 1 L 0 0 L 3 -1 L 3 1 " style="stroke:none"/>
		</g>
		<marker id="mrkr13-501" class="st3" v:arrowType="13" v:arrowSize="2" v:setback="4.8" refX="4.8" orient="auto"
				markerUnits="strokeWidth" overflow="visible">
			<use xlink:href="#lend13" transform="scale(1.63) "/>
		</marker>
		<marker id="mrkr13-517" class="st9" v:arrowType="13" v:arrowSize="2" v:setback="4.8" refX="4.8" orient="auto"
				markerUnits="strokeWidth" overflow="visible">
			<use xlink:href="#lend13" transform="scale(1.63) "/>
		</marker>
		<marker id="mrkr13-525" class="st11" v:arrowType="13" v:arrowSize="2" v:setback="4.8" refX="4.8" orient="auto"
				markerUnits="strokeWidth" overflow="visible">
			<use xlink:href="#lend13" transform="scale(1.63) "/>
		</marker>
		<marker id="mrkr13-531" class="st13" v:arrowType="13" v:arrowSize="2" v:setback="13.08" refX="13.08" orient="auto"
				markerUnits="strokeWidth" overflow="visible">
			<use xlink:href="#lend13" transform="scale(4.36) "/>
		</marker>
	</defs>
	<g v:mID="6" v:index="2" v:groupContext="foregroundPage">
		<title>Page-2</title>
		<v:pageProperties v:drawingScale="0.0393701" v:pageScale="0.0393701" v:drawingUnits="24" v:shadowOffsetX="9"
				v:shadowOffsetY="-9"/>
		<v:layer v:name="CAD Drawing" v:index="0"/>
		<g id="shape3494-1" v:mID="3494" v:groupContext="shape" transform="translate(551.258,-579.453)">
			<title>Sheet.3494</title>
			<path d="M73.86 841.89 L0 841.89" class="st1"/>
		</g>
		<g id="shape3495-4" v:mID="3495" v:groupContext="shape" transform="translate(366.791,-371.012)">
			<title>Sheet.3495</title>
			<path d="M0 817.35 L0 841.89" class="st1"/>
		</g>
		<g id="shape3496-7" v:mID="3496" v:groupContext="shape" transform="translate(551.258,-579.075)">
			<title>Sheet.3496</title>
			<path d="M0 841.51 L0 841.89" class="st1"/>
		</g>
		<g id="shape3497-10" v:mID="3497" v:groupContext="shape" transform="translate(809.587,-371.012)">
			<title>Sheet.3497</title>
			<path d="M0 841.89 L0 817.35" class="st1"/>
		</g>
		<g id="shape3498-13" v:mID="3498" v:groupContext="shape" transform="translate(366.791,-370.635)">
			<title>Sheet.3498</title>
			<path d="M0 841.51 L0 841.89" class="st1"/>
		</g>
		<g id="shape3499-16" v:mID="3499" v:groupContext="shape" transform="translate(366.791,-395.557)">
			<title>Sheet.3499</title>
			<path d="M0 841.89 L0 841.51 L0 841.13 L0.38 840.76 L0.38 839.62 L0.76 838.87 L0.76 838.49 L1.52 836.98 L1.89 836.23
						 L2.27 835.47 L3.41 833.58 L3.79 832.45 L4.55 831.32 L5.68 829.43 L6.44 828.3 L7.2 827.16 L9.09 824.52 L9.85
						 823.01 L10.98 821.88 L12.88 818.86 L14.01 817.35 L15.15 816.21 L17.05 813.57 L17.8 812.81 L18.56 811.68
						 L20.08 810.17 L20.45 809.04 L21.21 808.28 L22.73 806.39 L23.48 805.64 L24.24 804.88 L26.14 802.24 L27.27
						 800.73 L28.79 799.22 L31.06 796.2 L32.58 794.69 L33.71 793.18 L35.98 790.91 L36.74 790.16 L37.5 789.4 L38.26
						 788.27 L39.01 787.51 L39.77 786.76 L40.91 785.25 L41.67 784.49 L42.42 783.74 L43.18 782.98 L43.94 782.23
						 L44.32 781.47 L47.73 777.7 L50.38 775.05 L53.03 772.03 L55.3 769.39 L57.95 766.37 L60.61 763.72 L66.67 757.68
						 L69.7 754.28 L73.1 750.89 L76.51 747.49 L79.92 744.09 L84.09 739.94 L85.23 738.8 L85.98 737.67 L87.12 736.91
						 L88.26 735.78 L89.01 734.65 L91.29 732.76 L92.04 732.01 L93.18 730.87 L94.32 729.74 L95.07 728.98 L96.21
						 727.85 L99.62 724.83 L101.89 722.57 L104.17 720.3 L106.44 718.03 L108.71 716.15 L110.98 713.88 L113.26 711.99
						 L115.53 709.73 L117.8 707.84 L118.94 706.71 L120.07 705.57 L121.21 704.82 L122.35 703.68 L123.48 702.55
						 L125.38 700.66 L126.51 699.53 L127.65 698.78 L128.79 697.64 L129.92 696.89 L134.09 693.11 L137.12 690.85
						 L139.77 688.2 L142.8 685.56 L146.21 682.92 L146.59 682.54 L146.97 682.54 L146.97 682.16 L147.35 681.78 L148.1
						 681.41 L148.48 681.03 L148.48 681.03 L148.86 680.65 L149.24 680.27 L150 679.9 L150.76 679.14 L151.13 678.76
						 L151.89 678.38 L152.65 678.01 L153.03 677.25 L153.41 677.25 L153.79 676.87 L154.16 676.5 L154.54 676.5 L154.92
						 675.74 L155.3 675.74 L155.68 675.36 L156.06 674.99 L158.33 673.1 L160.22 671.97 L162.12 670.45 L164.39 668.94
						 L167.8 666.3 L169.32 665.17 L171.21 664.41 L172.72 663.28 L175.38 661.39 L176.51 661.01 L178.03 660.26 L179.16
						 659.5 L180.68 659.13 L181.44 658.75 L181.82 658.75 L182.19 658.37 L182.95 658.37 L183.33 658.37 L183.71
						 657.99 L184.09 657.99 L184.47 657.99" class="st1"/>
		</g>
		<g id="shape3500-19" v:mID="3500" v:groupContext="shape" transform="translate(809.587,-395.179)">
			<title>Sheet.3500</title>
			<path d="M0 841.51 L0 841.89" class="st1"/>
		</g>
		<g id="shape3501-22" v:mID="3501" v:groupContext="shape" transform="translate(625.12,-395.557)">
			<title>Sheet.3501</title>
			<path d="M0 657.99 L0.38 657.99 L0.76 658.37 L1.52 658.37 L2.27 658.37 L3.03 658.75 L3.79 658.75 L4.92 659.5 L6.06 659.88
						 L6.82 660.26 L8.71 661.39 L9.47 661.77 L10.61 662.53 L12.88 663.66 L14.01 664.41 L15.15 665.17 L17.42 667.06
						 L18.94 667.81 L20.08 668.94 L23.11 670.83 L24.62 671.97 L26.14 673.1 L28.41 674.99 L29.17 675.74 L30.3 676.5
						 L32.2 678.01 L32.95 678.38 L33.71 679.14 L35.61 680.65 L36.36 681.41 L37.5 682.16 L39.77 684.05 L41.29 685.18
						 L42.8 686.69 L45.83 688.96 L47.35 690.47 L48.86 691.98 L51.14 693.87 L52.27 694.62 L53.03 695.38 L53.79
						 696.13 L54.54 696.89 L55.3 697.64 L57.2 698.78 L57.95 699.53 L58.71 700.29 L59.47 701.04 L60.23 701.8 L60.98
						 702.17 L64.39 705.57 L67.42 708.22 L70.07 710.86 L72.73 713.12 L75.76 715.77 L78.41 718.41 L84.47 724.45
						 L87.88 727.47 L91.29 730.87 L94.7 734.27 L98.1 737.67 L102.65 741.82 L103.41 742.96 L104.54 743.71 L105.3
						 744.84 L106.44 745.98 L107.57 746.73 L109.47 749 L110.6 749.75 L111.36 750.89 L112.5 752.02 L113.26 752.77
						 L114.39 753.91 L117.42 757.31 L119.7 759.57 L121.97 761.84 L124.24 764.1 L126.13 766.37 L128.41 768.63 L130.68
						 770.9 L132.57 773.16 L134.85 775.43 L135.6 776.56 L136.74 777.7 L137.88 778.83 L138.63 779.96 L139.77 781.09
						 L141.66 782.98 L142.8 784.12 L143.56 785.25 L144.69 786.38 L145.83 787.51 L149.24 791.67 L151.89 794.69
						 L154.16 797.33 L156.82 800.35 L159.47 803.75 L159.85 804.13 L160.22 804.51 L160.22 804.88 L160.6 804.88
						 L160.98 805.64 L161.36 806.02 L161.36 806.02 L161.74 806.39 L162.12 806.77 L162.88 807.53 L163.26 808.28
						 L163.63 809.04 L164.01 809.42 L164.77 810.17 L165.15 810.55 L165.53 810.93 L165.53 811.3 L165.91 811.68
						 L166.29 812.06 L166.66 812.44 L167.04 812.81 L167.04 813.19 L167.42 813.57 L169.32 815.83 L170.83 817.72
						 L172.35 819.99 L173.48 821.88 L176.13 825.27 L177.27 826.79 L178.41 828.67 L179.16 830.18 L181.06 832.83
						 L181.82 833.96 L182.19 835.47 L182.95 836.6 L183.71 838.11 L183.71 838.87 L184.09 839.25 L184.09 839.62
						 L184.47 840.38 L184.47 840.76 L184.47 841.13 L184.47 841.51 L184.47 841.89" class="st1"/>
		</g>
		<g id="shape3502-25" v:mID="3502" v:groupContext="shape" transform="translate(551.258,-579.075)">
			<title>Sheet.3502</title>
			<path d="M0 841.51 L0 841.89" class="st1"/>
		</g>
		<g id="shape3503-28" v:mID="3503" v:groupContext="shape" transform="translate(251.641,-239.227)">
			<title>Sheet.3503</title>
			<path d="M0 688.96 L0 841.89" class="st1"/>
		</g>
		<g id="shape3504-31" v:mID="3504" v:groupContext="shape" transform="translate(809.587,-395.179)">
			<title>Sheet.3504</title>
			<path d="M0 841.51 L0 841.89" class="st1"/>
		</g>
		<g id="shape3505-34" v:mID="3505" v:groupContext="shape" transform="translate(251.641,-239.227)">
			<title>Sheet.3505</title>
			<path d="M0 841.89 L68.94 841.89" class="st1"/>
		</g>
		<g id="shape3506-37" v:mID="3506" v:groupContext="shape" transform="translate(251.641,-238.849)">
			<title>Sheet.3506</title>
			<path d="M0 841.51 L0 841.89" class="st1"/>
		</g>
		<g id="shape3507-40" v:mID="3507" v:groupContext="shape" transform="translate(924.358,-239.227)">
			<title>Sheet.3507</title>
			<path d="M0 688.96 L0 841.89" class="st1"/>
		</g>
		<g id="shape3508-43" v:mID="3508" v:groupContext="shape" transform="translate(320.58,-238.849)">
			<title>Sheet.3508</title>
			<path d="M0 841.51 L0 841.89" class="st1"/>
		</g>
		<g id="shape3509-46" v:mID="3509" v:groupContext="shape" transform="translate(251.641,-667.814)">
			<title>Sheet.3509</title>
			<path d="M672.72 841.89 L0 841.89" class="st1"/>
		</g>
		<g id="shape3510-49" v:mID="3510" v:groupContext="shape" transform="translate(924.358,-238.849)">
			<title>Sheet.3510</title>
			<path d="M0 841.51 L0 841.89" class="st1"/>
		</g>
		<g id="shape3511-52" v:mID="3511" v:groupContext="shape" transform="translate(292.928,-260.75)">
			<title>Sheet.3511</title>
			<path d="M27.65 841.89 L27.65 840.38 L27.65 838.87 L27.65 837.36 L27.27 836.23 L26.89 834.72 L26.51 833.2 L26.14 832.07
						 L25.38 830.56 L24.62 829.43 L24.24 827.92 L23.48 826.79 L22.35 825.65 L21.59 824.52 L20.83 823.39 L19.7
						 822.25 L18.56 821.5 L17.42 820.37 L16.29 819.61 L15.15 818.86 L14.01 818.1 L12.88 817.35 L11.36 816.59 L10.23
						 816.21 L8.71 815.46 L7.2 815.08 L6.06 814.7 L4.55 814.7 L3.03 814.32 L1.52 814.32 L0 814.32" class="st1"/>
		</g>
		<g id="shape3512-55" v:mID="3512" v:groupContext="shape" transform="translate(251.641,-667.436)">
			<title>Sheet.3512</title>
			<path d="M0 841.51 L0 841.89" class="st1"/>
		</g>
		<g id="shape3513-58" v:mID="3513" v:groupContext="shape" transform="translate(892.161,-325.322)">
			<title>Sheet.3513</title>
			<path d="M9.47 841.89 L9.09 841.13 L9.09 840.38 L9.09 839.62 L8.71 838.87 L8.33 838.11 L7.95 837.36 L7.58 836.6 L6.82
						 835.85 L6.44 835.09 L5.68 834.72 L4.92 834.34 L4.17 833.96 L3.41 833.58 L2.65 833.2 L1.89 833.2 L0.76 832.83
						 L0 832.83" class="st1"/>
		</g>
		<g id="shape3514-61" v:mID="3514" v:groupContext="shape" transform="translate(292.928,-287.938)">
			<title>Sheet.3514</title>
			<path d="M0 841.51 L0 841.89" class="st1"/>
		</g>
		<g id="shape3515-64" v:mID="3515" v:groupContext="shape" transform="translate(855.798,-239.227)">
			<title>Sheet.3515</title>
			<path d="M-0 841.89 L68.56 841.89" class="st1"/>
		</g>
		<g id="shape3516-67" v:mID="3516" v:groupContext="shape" transform="translate(892.161,-334.007)">
			<title>Sheet.3516</title>
			<path d="M0 841.51 L0 841.89" class="st1"/>
		</g>
		<g id="shape3517-70" v:mID="3517" v:groupContext="shape" transform="translate(274.747,-297.378)">
			<title>Sheet.3517</title>
			<path d="M0 813.95 L0 841.89" class="st1"/>
		</g>
		<g id="shape3518-73" v:mID="3518" v:groupContext="shape" transform="translate(924.358,-238.849)">
			<title>Sheet.3518</title>
			<path d="M0 841.51 L0 841.89" class="st1"/>
		</g>
		<g id="shape3519-76" v:mID="3519" v:groupContext="shape" transform="translate(274.747,-325.322)">
			<title>Sheet.3519</title>
			<path d="M9.09 832.83 L8.33 832.83 L7.58 833.2 L6.44 833.2 L5.68 833.58 L4.92 833.96 L4.17 834.34 L3.41 834.72 L3.03
						 835.09 L2.27 835.85 L1.89 836.6 L1.14 837.36 L0.76 838.11 L0.38 838.87 L0.38 839.62 L0 840.38 L0 841.13
						 L0 841.89" class="st1"/>
		</g>
		<g id="shape3520-79" v:mID="3520" v:groupContext="shape" transform="translate(274.747,-297.001)">
			<title>Sheet.3520</title>
			<path d="M0 841.51 L0 841.89" class="st1"/>
		</g>
		<g id="shape3521-82" v:mID="3521" v:groupContext="shape" transform="translate(283.838,-334.384)">
			<title>Sheet.3521</title>
			<path d="M46.21 841.89 L-0 841.89" class="st1"/>
		</g>
		<g id="shape3522-85" v:mID="3522" v:groupContext="shape" transform="translate(274.747,-324.944)">
			<title>Sheet.3522</title>
			<path d="M0 841.51 L0 841.89" class="st1"/>
		</g>
		<g id="shape3523-88" v:mID="3523" v:groupContext="shape" transform="translate(330.049,-334.384)">
			<title>Sheet.3523</title>
			<path d="M0 841.89 L1.52 841.89 L3.41 841.89 L4.92 841.51 L6.44 841.51 L7.95 841.13 L9.85 840.76 L11.36 840 L12.88 839.62
						 L14.39 838.87 L15.91 838.11 L17.42 837.36 L18.94 836.6 L20.08 835.85 L21.59 835.09 L23.11 833.96 L24.24
						 832.83 L25.38 831.69 L26.51 830.56 L27.65 829.43 L28.79 827.92 L29.92 826.79 L30.68 825.27 L31.44 824.14
						 L32.58 822.63 L33.33 821.12 L33.71 819.61 L34.47 818.1 L34.85 816.59 L35.61 815.08 L35.98 813.19 L36.36
						 811.68 L36.36 810.17 L36.74 808.28 L36.74 806.77 L36.74 805.26" class="st1"/>
		</g>
		<g id="shape3524-91" v:mID="3524" v:groupContext="shape" transform="translate(283.838,-334.007)">
			<title>Sheet.3524</title>
			<path d="M0 841.51 L0 841.89" class="st1"/>
		</g>
		<g id="shape3525-94" v:mID="3525" v:groupContext="shape" transform="translate(924.358,-529.986)">
			<title>Sheet.3525</title>
			<path d="M138.63 841.89 L0 704.06" class="st1"/>
		</g>
		<g id="shape3526-97" v:mID="3526" v:groupContext="shape" transform="translate(366.791,-370.635)">
			<title>Sheet.3526</title>
			<path d="M0 841.51 L0 841.89" class="st1"/>
		</g>
		<g id="shape3527-100" v:mID="3527" v:groupContext="shape" transform="translate(283.838,-288.316)">
			<title>Sheet.3527</title>
			<path d="M-0 841.89 L9.09 841.89" class="st1"/>
		</g>
		<g id="shape3528-103" v:mID="3528" v:groupContext="shape" transform="translate(924.358,-667.436)">
			<title>Sheet.3528</title>
			<path d="M0 841.51 L0 841.89" class="st1"/>
		</g>
		<g id="shape3529-106" v:mID="3529" v:groupContext="shape" transform="translate(274.747,-288.316)">
			<title>Sheet.3529</title>
			<path d="M0 832.83 L0 833.58 L0 834.34 L0.38 835.09 L0.38 835.85 L0.76 836.6 L1.14 837.36 L1.89 838.11 L2.27 838.87 L3.03
						 839.62 L3.41 840 L4.17 840.38 L4.92 840.76 L5.68 841.13 L6.44 841.51 L7.58 841.51 L8.33 841.89 L9.09 841.89"
					class="st1"/>
		</g>
		<g id="shape3530-109" v:mID="3530" v:groupContext="shape" transform="translate(292.928,-287.938)">
			<title>Sheet.3530</title>
			<path d="M0 841.51 L0 841.89" class="st1"/>
		</g>
		<g id="shape3531-112" v:mID="3531" v:groupContext="shape" transform="translate(809.587,-334.384)">
			<title>Sheet.3531</title>
			<path d="M0 805.26 L0 806.77 L0 808.28 L0.38 810.17 L0.76 811.68 L0.76 813.19 L1.52 815.08 L1.89 816.59 L2.27 818.1 L3.03
						 819.61 L3.79 821.12 L4.55 822.63 L5.3 824.14 L6.06 825.27 L7.2 826.79 L7.95 827.92 L9.09 829.43 L10.23 830.56
						 L11.36 831.69 L12.5 832.83 L14.01 833.96 L15.15 835.09 L16.67 835.85 L17.8 836.6 L19.32 837.36 L20.83 838.11
						 L22.35 838.87 L23.86 839.62 L25.38 840 L27.27 840.76 L28.79 841.13 L30.3 841.51 L31.82 841.51 L33.71 841.89
						 L35.23 841.89 L36.74 841.89" class="st1"/>
		</g>
		<g id="shape3532-115" v:mID="3532" v:groupContext="shape" transform="translate(283.838,-287.938)">
			<title>Sheet.3532</title>
			<path d="M0 841.51 L0 841.89" class="st1"/>
		</g>
		<g id="shape3533-118" v:mID="3533" v:groupContext="shape" transform="translate(846.329,-334.384)">
			<title>Sheet.3533</title>
			<path d="M45.83 841.89 L-0 841.89" class="st1"/>
		</g>
		<g id="shape3534-121" v:mID="3534" v:groupContext="shape" transform="translate(846.329,-334.007)">
			<title>Sheet.3534</title>
			<path d="M0 841.51 L0 841.89" class="st1"/>
		</g>
		<g id="shape3535-124" v:mID="3535" v:groupContext="shape" transform="translate(883.071,-288.316)">
			<title>Sheet.3535</title>
			<path d="M0 841.89 L9.09 841.89" class="st1"/>
		</g>
		<g id="shape3536-127" v:mID="3536" v:groupContext="shape" transform="translate(846.329,-334.007)">
			<title>Sheet.3536</title>
			<path d="M0 841.51 L0 841.89" class="st1"/>
		</g>
		<g id="shape3537-130" v:mID="3537" v:groupContext="shape" transform="translate(901.631,-297.378)">
			<title>Sheet.3537</title>
			<path d="M0 841.89 L0 813.95" class="st1"/>
		</g>
		<g id="shape3538-133" v:mID="3538" v:groupContext="shape" transform="translate(892.161,-287.938)">
			<title>Sheet.3538</title>
			<path d="M0 841.51 L0 841.89" class="st1"/>
		</g>
		<g id="shape3539-136" v:mID="3539" v:groupContext="shape" transform="translate(892.161,-288.316)">
			<title>Sheet.3539</title>
			<path d="M0 841.89 L0.76 841.89 L1.89 841.51 L2.65 841.51 L3.41 841.13 L4.17 840.76 L4.92 840.38 L5.68 840 L6.44 839.62
						 L6.82 838.87 L7.58 838.11 L7.95 837.36 L8.33 836.6 L8.71 835.85 L9.09 835.09 L9.09 834.34 L9.09 833.58 L9.47
						 832.83" class="st1"/>
		</g>
		<g id="shape3540-139" v:mID="3540" v:groupContext="shape" transform="translate(901.631,-324.944)">
			<title>Sheet.3540</title>
			<path d="M0 841.51 L0 841.89" class="st1"/>
		</g>
		<g id="shape3541-142" v:mID="3541" v:groupContext="shape" transform="translate(855.798,-239.227)">
			<title>Sheet.3541</title>
			<path d="M0 841.89 L0 820.37" class="st1"/>
		</g>
		<g id="shape3542-145" v:mID="3542" v:groupContext="shape" transform="translate(901.631,-297.001)">
			<title>Sheet.3542</title>
			<path d="M0 841.51 L0 841.89" class="st1"/>
		</g>
		<g id="shape3543-148" v:mID="3543" v:groupContext="shape" transform="translate(855.798,-260.75)">
			<title>Sheet.3543</title>
			<path d="M27.27 814.32 L25.76 814.32 L24.24 814.32 L22.73 814.7 L21.59 814.7 L20.08 815.08 L18.56 815.46 L17.42 816.21
						 L15.91 816.59 L14.77 817.35 L13.26 818.1 L12.12 818.86 L10.98 819.61 L9.85 820.37 L9.09 821.5 L7.95 822.25
						 L7.2 823.39 L6.06 824.52 L5.3 825.65 L4.55 826.79 L3.79 827.92 L3.03 829.43 L2.27 830.56 L1.89 832.07 L1.14
						 833.2 L0.76 834.72 L0.38 836.23 L0.38 837.36 L0 838.87 L0 840.38 L0 841.89" class="st1"/>
		</g>
		<g id="shape3544-151" v:mID="3544" v:groupContext="shape" transform="translate(855.798,-260.373)">
			<title>Sheet.3544</title>
			<path d="M0 841.51 L0 841.89" class="st1"/>
		</g>
		<g id="shape3545-154" v:mID="3545" v:groupContext="shape" transform="translate(320.58,-239.227)">
			<title>Sheet.3545</title>
			<path d="M0 820.37 L0 841.89" class="st1"/>
		</g>
		<g id="shape3546-157" v:mID="3546" v:groupContext="shape" transform="translate(855.798,-260.373)">
			<title>Sheet.3546</title>
			<path d="M0 841.51 L0 841.89" class="st1"/>
		</g>
		<g id="shape3547-160" v:mID="3547" v:groupContext="shape" transform="translate(113.386,-392.158)">
			<title>Sheet.3547</title>
			<path d="M138.26 841.89 L-0 704.06" class="st1"/>
		</g>
		<g id="shape3548-163" v:mID="3548" v:groupContext="shape" transform="translate(320.58,-238.849)">
			<title>Sheet.3548</title>
			<path d="M0 841.51 L0 841.89" class="st1"/>
		</g>
		<g id="shape3549-166" v:mID="3549" v:groupContext="shape" transform="translate(113.386,-529.986)">
			<title>Sheet.3549</title>
			<path d="M-0 841.89 L138.26 704.06" class="st1"/>
		</g>
		<g id="shape3550-169" v:mID="3550" v:groupContext="shape" transform="translate(113.386,-529.608)">
			<title>Sheet.3550</title>
			<path d="M0 841.51 L0 841.89" class="st1"/>
		</g>
		<g id="shape3551-172" v:mID="3551" v:groupContext="shape" transform="translate(251.641,-667.436)">
			<title>Sheet.3551</title>
			<path d="M0 841.51 L0 841.89" class="st1"/>
		</g>
		<g id="shape3552-175" v:mID="3552" v:groupContext="shape" transform="translate(696.71,-547.734)">
			<title>Sheet.3552</title>
			<path d="M59.85 812.06 L59.85 810.55 L59.85 809.04 L59.47 807.9 L59.09 806.39 L59.09 804.88 L58.71 803.37 L57.95 802.24
						 L57.57 800.73 L56.82 799.22 L56.44 798.09 L55.68 796.95 L54.92 795.44 L53.79 794.31 L53.03 793.18 L51.89
						 792.05 L51.14 790.91 L50 790.16 L48.86 789.02 L47.73 788.27 L46.59 787.14 L45.45 786.38 L43.94 785.63 L42.8
						 785.25 L41.29 784.49 L40.15 784.12 L38.64 783.74 L37.12 782.98 L35.61 782.98 L34.09 782.61 L32.95 782.23
						 L31.44 782.23 L29.92 782.23 L28.41 782.23 L26.89 782.23 L25.38 782.61 L23.86 782.98 L22.73 782.98 L21.21
						 783.74 L19.7 784.12 L18.56 784.49 L17.05 785.25 L15.91 785.63 L14.39 786.38 L13.26 787.14 L12.12 788.27
						 L10.98 789.02 L9.85 790.16 L8.71 790.91 L7.58 792.05 L6.82 793.18 L5.68 794.31 L4.92 795.44 L4.17 796.95
						 L3.41 798.09 L2.65 799.22 L2.27 800.73 L1.52 802.24 L1.14 803.37 L0.76 804.88 L0.38 806.39 L0.38 807.9 L0
						 809.04 L0 810.55 L0 812.06 L0 813.57 L0 815.08 L0.38 816.59 L0.38 818.1 L0.76 819.23 L1.14 820.74 L1.52
						 822.25 L2.27 823.76 L2.65 824.9 L3.41 826.41 L4.17 827.54 L4.92 828.67 L5.68 829.81 L6.82 830.94 L7.58 832.07
						 L8.71 833.2 L9.85 834.34 L10.98 835.09 L12.12 836.23 L13.26 836.98 L14.39 837.74 L15.91 838.49 L17.05 839.25
						 L18.56 839.62 L19.7 840.38 L21.21 840.76 L22.73 841.13 L23.86 841.51 L25.38 841.89 L26.89 841.89 L28.41
						 841.89 L29.92 841.89 L31.44 841.89 L32.95 841.89 L34.09 841.89 L35.61 841.51 L37.12 841.13 L38.64 840.76
						 L40.15 840.38 L41.29 839.62 L42.8 839.25 L43.94 838.49 L45.45 837.74 L46.59 836.98 L47.73 836.23 L48.86
						 835.09 L50 834.34 L51.14 833.2 L51.89 832.07 L53.03 830.94 L53.79 829.81 L54.92 828.67 L55.68 827.54 L56.44
						 826.41 L56.82 824.9 L57.57 823.76 L57.95 822.25 L58.71 820.74 L59.09 819.23 L59.09 818.1 L59.47 816.59 L59.85
						 815.08 L59.85 813.57 L59.85 812.06 L59.85 812.06" class="st1"/>
		</g>
		<g id="shape3553-178" v:mID="3553" v:groupContext="shape" transform="translate(924.358,-392.158)">
			<title>Sheet.3553</title>
			<path d="M0 841.89 L138.63 704.06" class="st1"/>
		</g>
		<g id="shape3554-181" v:mID="3554" v:groupContext="shape" transform="translate(1062.99,-529.608)">
			<title>Sheet.3554</title>
			<path d="M0 841.51 L0 841.89" class="st1"/>
		</g>
		<g id="shape3555-184" v:mID="3555" v:groupContext="shape" transform="translate(419.82,-547.734)">
			<title>Sheet.3555</title>
			<path d="M59.85 812.06 L59.85 810.55 L59.85 809.04 L59.85 807.9 L59.47 806.39 L59.09 804.88 L58.71 803.37 L58.33 802.24
						 L57.57 800.73 L57.2 799.22 L56.44 798.09 L55.68 796.95 L54.92 795.44 L54.17 794.31 L53.41 793.18 L52.27
						 792.05 L51.14 790.91 L50 790.16 L49.24 789.02 L47.73 788.27 L46.59 787.14 L45.45 786.38 L44.32 785.63 L42.8
						 785.25 L41.67 784.49 L40.15 784.12 L38.64 783.74 L37.5 782.98 L35.98 782.98 L34.47 782.61 L32.95 782.23
						 L31.44 782.23 L29.92 782.23 L28.41 782.23 L27.27 782.23 L25.76 782.61 L24.24 782.98 L22.73 782.98 L21.21
						 783.74 L20.08 784.12 L18.56 784.49 L17.05 785.25 L15.91 785.63 L14.77 786.38 L13.26 787.14 L12.12 788.27
						 L10.98 789.02 L9.85 790.16 L8.71 790.91 L7.95 792.05 L6.82 793.18 L6.06 794.31 L5.3 795.44 L4.17 796.95
						 L3.79 798.09 L3.03 799.22 L2.27 800.73 L1.89 802.24 L1.52 803.37 L1.14 804.88 L0.76 806.39 L0.38 807.9 L0.38
						 809.04 L0 810.55 L0 812.06 L0 813.57 L0.38 815.08 L0.38 816.59 L0.76 818.1 L1.14 819.23 L1.52 820.74 L1.89
						 822.25 L2.27 823.76 L3.03 824.9 L3.79 826.41 L4.17 827.54 L5.3 828.67 L6.06 829.81 L6.82 830.94 L7.95 832.07
						 L8.71 833.2 L9.85 834.34 L10.98 835.09 L12.12 836.23 L13.26 836.98 L14.77 837.74 L15.91 838.49 L17.05 839.25
						 L18.56 839.62 L20.08 840.38 L21.21 840.76 L22.73 841.13 L24.24 841.51 L25.76 841.89 L27.27 841.89 L28.41
						 841.89 L29.92 841.89 L31.44 841.89 L32.95 841.89 L34.47 841.89 L35.98 841.51 L37.5 841.13 L38.64 840.76
						 L40.15 840.38 L41.67 839.62 L42.8 839.25 L44.32 838.49 L45.45 837.74 L46.59 836.98 L47.73 836.23 L49.24
						 835.09 L50 834.34 L51.14 833.2 L52.27 832.07 L53.41 830.94 L54.17 829.81 L54.92 828.67 L55.68 827.54 L56.44
						 826.41 L57.2 824.9 L57.57 823.76 L58.33 822.25 L58.71 820.74 L59.09 819.23 L59.47 818.1 L59.85 816.59 L59.85
						 815.08 L59.85 813.57 L59.85 812.06 L59.85 812.06" class="st1"/>
		</g>
		<g id="shape3556-187" v:mID="3556" v:groupContext="shape" transform="translate(696.71,-547.734)">
			<title>Sheet.3556</title>
			<path d="M59.85 812.06 L59.85 810.55 L59.85 809.04 L59.47 807.9 L59.09 806.39 L59.09 804.88 L58.71 803.37 L57.95 802.24
						 L57.57 800.73 L56.82 799.22 L56.44 798.09 L55.68 796.95 L54.92 795.44 L53.79 794.31 L53.03 793.18 L51.89
						 792.05 L51.14 790.91 L50 790.16 L48.86 789.02 L47.73 788.27 L46.59 787.14 L45.45 786.38 L43.94 785.63 L42.8
						 785.25 L41.29 784.49 L40.15 784.12 L38.64 783.74 L37.12 782.98 L35.61 782.98 L34.09 782.61 L32.95 782.23
						 L31.44 782.23 L29.92 782.23 L28.41 782.23 L26.89 782.23 L25.38 782.61 L23.86 782.98 L22.73 782.98 L21.21
						 783.74 L19.7 784.12 L18.56 784.49 L17.05 785.25 L15.91 785.63 L14.39 786.38 L13.26 787.14 L12.12 788.27
						 L10.98 789.02 L9.85 790.16 L8.71 790.91 L7.58 792.05 L6.82 793.18 L5.68 794.31 L4.92 795.44 L4.17 796.95
						 L3.41 798.09 L2.65 799.22 L2.27 800.73 L1.52 802.24 L1.14 803.37 L0.76 804.88 L0.38 806.39 L0.38 807.9 L0
						 809.04 L0 810.55 L0 812.06 L0 813.57 L0 815.08 L0.38 816.59 L0.38 818.1 L0.76 819.23 L1.14 820.74 L1.52
						 822.25 L2.27 823.76 L2.65 824.9 L3.41 826.41 L4.17 827.54 L4.92 828.67 L5.68 829.81 L6.82 830.94 L7.58 832.07
						 L8.71 833.2 L9.85 834.34 L10.98 835.09 L12.12 836.23 L13.26 836.98 L14.39 837.74 L15.91 838.49 L17.05 839.25
						 L18.56 839.62 L19.7 840.38 L21.21 840.76 L22.73 841.13 L23.86 841.51 L25.38 841.89 L26.89 841.89 L28.41
						 841.89 L29.92 841.89 L31.44 841.89 L32.95 841.89 L34.09 841.89 L35.61 841.51 L37.12 841.13 L38.64 840.76
						 L40.15 840.38 L41.29 839.62 L42.8 839.25 L43.94 838.49 L45.45 837.74 L46.59 836.98 L47.73 836.23 L48.86
						 835.09 L50 834.34 L51.14 833.2 L51.89 832.07 L53.03 830.94 L53.79 829.81 L54.92 828.67 L55.68 827.54 L56.44
						 826.41 L56.82 824.9 L57.57 823.76 L57.95 822.25 L58.71 820.74 L59.09 819.23 L59.09 818.1 L59.47 816.59 L59.85
						 815.08 L59.85 813.57 L59.85 812.06 L59.85 812.06" class="st1"/>
		</g>
		<g id="shape3557-190" v:mID="3557" v:groupContext="shape" transform="translate(924.358,-589.648)">
			<title>Sheet.3557</title>
			<path d="M0 763.72 L78.41 841.89" class="st1"/>
		</g>
		<g id="shape3558-193" v:mID="3558" v:groupContext="shape" transform="translate(625.12,-667.814)">
			<title>Sheet.3558</title>
			<path d="M-0 841.89 L299.24 841.89" class="st1"/>
		</g>
		<g id="shape3559-196" v:mID="3559" v:groupContext="shape" transform="translate(1002.77,-589.27)">
			<title>Sheet.3559</title>
			<path d="M0 841.51 L0 841.89" class="st1"/>
		</g>
		<g id="shape3560-199" v:mID="3560" v:groupContext="shape" transform="translate(606.56,-579.453)">
			<title>Sheet.3560</title>
			<path d="M0 841.89 L18.56 841.89" class="st1"/>
		</g>
		<g id="shape3561-202" v:mID="3561" v:groupContext="shape" transform="translate(924.358,-667.436)">
			<title>Sheet.3561</title>
			<path d="M0 841.51 L0 841.89" class="st1"/>
		</g>
		<g id="shape3562-205" v:mID="3562" v:groupContext="shape" transform="translate(625.12,-490.337)">
			<title>Sheet.3562</title>
			<path d="M0 752.77 L0.38 752.77 L0.76 753.15 L1.14 753.15 L1.52 753.15 L1.89 753.15 L3.41 753.53 L4.55 753.91 L5.68 754.66
						 L6.82 755.04 L7.95 755.79 L11.36 757.68 L13.64 759.19 L15.91 760.33 L18.18 761.84 L20.45 763.35 L24.62 766.37
						 L26.89 768.26 L29.17 769.77 L31.06 771.28 L33.33 773.16 L37.5 776.56 L39.39 778.45 L41.67 779.96 L43.56
						 781.85 L45.83 783.74 L49.62 787.14 L51.89 789.02 L53.79 790.91 L55.68 792.42 L57.95 794.31 L64.01 799.98
						 L67.8 803.75 L71.97 807.15 L76.14 810.93 L79.92 814.7 L87.12 821.5 L90.15 824.52 L92.8 827.16 L95.83 830.18
						 L98.86 833.2 L101.89 835.85 L104.54 838.87 L107.57 841.89" class="st1"/>
		</g>
		<g id="shape3563-208" v:mID="3563" v:groupContext="shape" transform="translate(625.12,-579.075)">
			<title>Sheet.3563</title>
			<path d="M0 841.51 L0 841.89" class="st1"/>
		</g>
		<g id="shape3564-211" v:mID="3564" v:groupContext="shape" transform="translate(732.694,-489.959)">
			<title>Sheet.3564</title>
			<path d="M0 841.51 L0 841.89" class="st1"/>
		</g>
		<g id="shape3565-214" v:mID="3565" v:groupContext="shape" transform="translate(419.82,-547.734)">
			<title>Sheet.3565</title>
			<path d="M59.85 812.06 L59.85 810.55 L59.85 809.04 L59.85 807.9 L59.47 806.39 L59.09 804.88 L58.71 803.37 L58.33 802.24
						 L57.57 800.73 L57.2 799.22 L56.44 798.09 L55.68 796.95 L54.92 795.44 L54.17 794.31 L53.41 793.18 L52.27
						 792.05 L51.14 790.91 L50 790.16 L49.24 789.02 L47.73 788.27 L46.59 787.14 L45.45 786.38 L44.32 785.63 L42.8
						 785.25 L41.67 784.49 L40.15 784.12 L38.64 783.74 L37.5 782.98 L35.98 782.98 L34.47 782.61 L32.95 782.23
						 L31.44 782.23 L29.92 782.23 L28.41 782.23 L27.27 782.23 L25.76 782.61 L24.24 782.98 L22.73 782.98 L21.21
						 783.74 L20.08 784.12 L18.56 784.49 L17.05 785.25 L15.91 785.63 L14.77 786.38 L13.26 787.14 L12.12 788.27
						 L10.98 789.02 L9.85 790.16 L8.71 790.91 L7.95 792.05 L6.82 793.18 L6.06 794.31 L5.3 795.44 L4.17 796.95
						 L3.79 798.09 L3.03 799.22 L2.27 800.73 L1.89 802.24 L1.52 803.37 L1.14 804.88 L0.76 806.39 L0.38 807.9 L0.38
						 809.04 L0 810.55 L0 812.06 L0 813.57 L0.38 815.08 L0.38 816.59 L0.76 818.1 L1.14 819.23 L1.52 820.74 L1.89
						 822.25 L2.27 823.76 L3.03 824.9 L3.79 826.41 L4.17 827.54 L5.3 828.67 L6.06 829.81 L6.82 830.94 L7.95 832.07
						 L8.71 833.2 L9.85 834.34 L10.98 835.09 L12.12 836.23 L13.26 836.98 L14.77 837.74 L15.91 838.49 L17.05 839.25
						 L18.56 839.62 L20.08 840.38 L21.21 840.76 L22.73 841.13 L24.24 841.51 L25.76 841.89 L27.27 841.89 L28.41
						 841.89 L29.92 841.89 L31.44 841.89 L32.95 841.89 L34.47 841.89 L35.98 841.51 L37.5 841.13 L38.64 840.76
						 L40.15 840.38 L41.67 839.62 L42.8 839.25 L44.32 838.49 L45.45 837.74 L46.59 836.98 L47.73 836.23 L49.24
						 835.09 L50 834.34 L51.14 833.2 L52.27 832.07 L53.41 830.94 L54.17 829.81 L54.92 828.67 L55.68 827.54 L56.44
						 826.41 L57.2 824.9 L57.57 823.76 L58.33 822.25 L58.71 820.74 L59.09 819.23 L59.47 818.1 L59.85 816.59 L59.85
						 815.08 L59.85 813.57 L59.85 812.06 L59.85 812.06" class="st1"/>
		</g>
		<g id="shape3566-217" v:mID="3566" v:groupContext="shape" transform="translate(173.233,-589.648)">
			<title>Sheet.3566</title>
			<path d="M78.41 763.72 L-0 841.89" class="st1"/>
		</g>
		<g id="shape3567-220" v:mID="3567" v:groupContext="shape" transform="translate(251.641,-667.814)">
			<title>Sheet.3567</title>
			<path d="M0 841.89 L299.62 841.89" class="st1"/>
		</g>
		<g id="shape3568-223" v:mID="3568" v:groupContext="shape" transform="translate(173.233,-589.27)">
			<title>Sheet.3568</title>
			<path d="M0 841.51 L0 841.89" class="st1"/>
		</g>
		<g id="shape3569-226" v:mID="3569" v:groupContext="shape" transform="translate(551.258,-579.453)">
			<title>Sheet.3569</title>
			<path d="M0 841.89 L18.56 841.89" class="st1"/>
		</g>
		<g id="shape3570-229" v:mID="3570" v:groupContext="shape" transform="translate(551.258,-667.436)">
			<title>Sheet.3570</title>
			<path d="M0 841.51 L0 841.89" class="st1"/>
		</g>
		<g id="shape3571-232" v:mID="3571" v:groupContext="shape" transform="translate(443.684,-490.337)">
			<title>Sheet.3571</title>
			<path d="M0 841.89 L3.03 838.87 L5.68 835.85 L8.71 833.2 L11.74 830.18 L14.39 827.54 L17.42 824.52 L20.45 821.88 L27.27
						 815.08 L31.06 811.3 L35.23 807.9 L39.01 804.13 L43.18 800.35 L49.24 795.07 L51.14 793.18 L53.41 791.29 L55.3
						 789.4 L57.2 787.51 L61.36 784.12 L63.64 782.23 L65.53 780.34 L67.8 778.45 L69.7 776.94 L73.86 773.54 L76.14
						 771.65 L78.41 770.14 L80.68 768.26 L82.57 766.75 L87.12 763.72 L89.39 762.21 L91.67 760.7 L93.94 759.19
						 L96.21 757.68 L99.62 755.79 L100.76 755.04 L101.51 754.66 L102.65 754.28 L103.41 753.91 L104.92 753.53 L105.68
						 753.15 L106.06 753.15 L106.44 753.15 L107.2 752.77 L107.57 752.77" class="st1"/>
		</g>
		<g id="shape3572-235" v:mID="3572" v:groupContext="shape" transform="translate(569.818,-579.075)">
			<title>Sheet.3572</title>
			<path d="M0 841.51 L0 841.89" class="st1"/>
		</g>
		<g id="shape3573-238" v:mID="3573" v:groupContext="shape" transform="translate(732.694,-490.337)">
			<title>Sheet.3573</title>
			<path d="M80.3 761.84 L-0 841.89" class="st1"/>
		</g>
		<g id="shape3574-241" v:mID="3574" v:groupContext="shape" transform="translate(551.258,-579.075)">
			<title>Sheet.3574</title>
			<path d="M0 841.51 L0 841.89" class="st1"/>
		</g>
		<g id="shape3575-244" v:mID="3575" v:groupContext="shape" transform="translate(984.963,-576.054)">
			<title>Sheet.3575</title>
			<path d="M0 841.89 L1.14 841.89 L2.27 841.89 L3.41 841.51 L4.55 841.51 L5.68 841.13 L6.82 840.76 L7.95 840.38 L9.09 839.62
						 L9.85 839.25 L10.98 838.49 L11.74 837.74 L12.88 836.98 L13.64 836.23 L14.39 835.47 L15.15 834.34 L15.53
						 833.58 L16.29 832.45 L16.67 831.32 L17.05 830.56 L17.8 829.43 L17.8 828.3" class="st1"/>
		</g>
		<g id="shape3576-247" v:mID="3576" v:groupContext="shape" transform="translate(732.694,-489.959)">
			<title>Sheet.3576</title>
			<path d="M0 841.51 L0 841.89" class="st1"/>
		</g>
		<g id="shape3577-250" v:mID="3577" v:groupContext="shape" transform="translate(173.233,-576.054)">
			<title>Sheet.3577</title>
			<path d="M0 828.3 L0.38 829.43 L0.76 830.56 L1.14 831.32 L1.52 832.45 L2.27 833.58 L3.03 834.34 L3.41 835.47 L4.17 836.23
						 L5.3 836.98 L6.06 837.74 L6.82 838.49 L7.95 839.25 L9.09 839.62 L9.85 840.38 L10.98 840.76 L12.12 841.13
						 L13.26 841.51 L14.39 841.51 L15.53 841.89 L16.67 841.89 L17.8 841.89" class="st1"/>
		</g>
		<g id="shape3578-253" v:mID="3578" v:groupContext="shape" transform="translate(1002.77,-589.27)">
			<title>Sheet.3578</title>
			<path d="M0 841.51 L0 841.89" class="st1"/>
		</g>
		<g id="shape3579-256" v:mID="3579" v:groupContext="shape" transform="translate(191.036,-576.055)">
			<title>Sheet.3579</title>
			<path d="M0 841.89 L159.47 841.89" class="st1"/>
		</g>
		<g id="shape3580-259" v:mID="3580" v:groupContext="shape" transform="translate(191.036,-575.677)">
			<title>Sheet.3580</title>
			<path d="M0 841.51 L0 841.89" class="st1"/>
		</g>
		<g id="shape3581-262" v:mID="3581" v:groupContext="shape" transform="translate(826.253,-576.055)">
			<title>Sheet.3581</title>
			<path d="M-0 841.89 L158.71 841.89" class="st1"/>
		</g>
		<g id="shape3582-265" v:mID="3582" v:groupContext="shape" transform="translate(350.503,-575.677)">
			<title>Sheet.3582</title>
			<path d="M0 841.51 L0 841.89" class="st1"/>
		</g>
		<g id="shape3583-268" v:mID="3583" v:groupContext="shape" transform="translate(551.258,-579.453)">
			<title>Sheet.3583</title>
			<path d="M0 823.76 L0 824.9 L0.38 826.03 L0.38 827.16 L0.76 828.3 L1.14 829.43 L1.52 830.18 L1.89 831.32 L2.27 832.45
						 L3.03 833.58 L3.41 834.34 L4.17 835.47 L4.92 836.23 L6.06 836.98 L6.82 837.74 L7.58 838.49 L8.71 839.25
						 L9.47 839.62 L10.61 840.38 L11.74 840.76 L12.88 841.13 L14.01 841.51 L15.15 841.51 L16.29 841.89 L17.42
						 841.89 L18.56 841.89" class="st1"/>
		</g>
		<g id="shape3584-271" v:mID="3584" v:groupContext="shape" transform="translate(984.963,-575.677)">
			<title>Sheet.3584</title>
			<path d="M0 841.51 L0 841.89" class="st1"/>
		</g>
		<g id="shape3585-274" v:mID="3585" v:groupContext="shape" transform="translate(350.503,-570.39)">
			<title>Sheet.3585</title>
			<path d="M12.88 841.89 L12.12 840.76 L10.98 840 L10.23 839.25 L9.09 838.87 L7.95 838.11 L6.82 837.74 L5.68 837.36 L4.55
						 836.98 L3.41 836.6 L2.27 836.6 L1.14 836.23 L0 836.23" class="st1"/>
		</g>
		<g id="shape3586-277" v:mID="3586" v:groupContext="shape" transform="translate(569.818,-579.075)">
			<title>Sheet.3586</title>
			<path d="M0 841.51 L0 841.89" class="st1"/>
		</g>
		<g id="shape3587-280" v:mID="3587" v:groupContext="shape" transform="translate(363.382,-490.337)">
			<title>Sheet.3587</title>
			<path d="M80.3 841.89 L-0 761.84" class="st1"/>
		</g>
		<g id="shape3588-283" v:mID="3588" v:groupContext="shape" transform="translate(350.503,-575.677)">
			<title>Sheet.3588</title>
			<path d="M0 841.51 L0 841.89" class="st1"/>
		</g>
		<g id="shape3589-286" v:mID="3589" v:groupContext="shape" transform="translate(606.56,-579.453)">
			<title>Sheet.3589</title>
			<path d="M0 841.89 L1.14 841.89 L2.27 841.89 L3.41 841.51 L4.55 841.51 L5.68 841.13 L6.82 840.76 L7.95 840.38 L9.09 839.62
						 L9.85 839.25 L10.98 838.49 L11.74 837.74 L12.88 836.98 L13.64 836.23 L14.39 835.47 L15.15 834.34 L15.53
						 833.58 L16.29 832.45 L16.67 831.32 L17.42 830.18 L17.8 829.43 L17.8 828.3 L18.18 827.16 L18.56 826.03 L18.56
						 824.9 L18.56 823.76" class="st1"/>
		</g>
		<g id="shape3590-289" v:mID="3590" v:groupContext="shape" transform="translate(363.382,-570.013)">
			<title>Sheet.3590</title>
			<path d="M0 841.51 L0 841.89" class="st1"/>
		</g>
		<g id="shape3591-292" v:mID="3591" v:groupContext="shape" transform="translate(625.12,-597.578)">
			<title>Sheet.3591</title>
			<path d="M0 771.65 L0 841.89" class="st1"/>
		</g>
		<g id="shape3592-295" v:mID="3592" v:groupContext="shape" transform="translate(625.12,-597.2)">
			<title>Sheet.3592</title>
			<path d="M0 841.51 L0 841.89" class="st1"/>
		</g>
		<g id="shape3593-298" v:mID="3593" v:groupContext="shape" transform="translate(551.258,-597.578)">
			<title>Sheet.3593</title>
			<path d="M0 841.89 L0 771.65" class="st1"/>
		</g>
		<g id="shape3594-301" v:mID="3594" v:groupContext="shape" transform="translate(625.12,-597.2)">
			<title>Sheet.3594</title>
			<path d="M0 841.51 L0 841.89" class="st1"/>
		</g>
		<g id="shape3595-304" v:mID="3595" v:groupContext="shape" transform="translate(812.996,-570.39)">
			<title>Sheet.3595</title>
			<path d="M13.26 836.23 L11.74 836.23 L10.61 836.6 L9.47 836.6 L8.33 836.98 L7.2 837.36 L6.06 837.74 L4.92 838.11 L3.79
						 838.87 L3.03 839.25 L1.89 840 L1.14 840.76 L0 841.89" class="st1"/>
		</g>
		<g id="shape3596-307" v:mID="3596" v:groupContext="shape" transform="translate(551.258,-667.436)">
			<title>Sheet.3596</title>
			<path d="M0 841.51 L0 841.89" class="st1"/>
		</g>
		<g id="shape3597-310" v:mID="3597" v:groupContext="shape" transform="translate(812.996,-570.39)">
			<title>Sheet.3597</title>
			<path d="M0 841.89 L1.52 840.38 L1.52 840.38" class="st1"/>
		</g>
		<g id="shape3598-313" v:mID="3598" v:groupContext="shape" transform="translate(812.996,-570.013)">
			<title>Sheet.3598</title>
			<path d="M0 841.51 L0 841.89" class="st1"/>
		</g>
		<g id="shape3599-316" v:mID="3599" v:groupContext="shape" transform="translate(825.117,-576.055)">
			<title>Sheet.3599</title>
			<path d="M-0 841.89 L1.14 841.89" class="st1"/>
		</g>
		<g id="shape3600-319" v:mID="3600" v:groupContext="shape" transform="translate(814.511,-571.523)">
			<title>Sheet.3600</title>
			<path d="M0 841.51 L0 841.89" class="st1"/>
		</g>
		<g id="shape3601-322" v:mID="3601" v:groupContext="shape" transform="translate(606.56,-579.453)">
			<title>Sheet.3601</title>
			<path d="M0 841.89 L1.14 841.89 L2.27 841.89 L3.41 841.51 L4.55 841.51 L5.68 841.13 L6.82 840.76 L7.95 840.38 L9.09 839.62
						 L9.85 839.25 L10.98 838.49 L11.74 837.74 L12.88 836.98 L13.64 836.23 L14.39 835.47 L15.15 834.34 L15.53
						 833.58 L16.29 832.45 L16.67 831.32 L17.42 830.18 L17.8 829.43 L17.8 828.3 L18.18 827.16 L18.56 826.03 L18.56
						 824.9 L18.56 823.76" class="st1"/>
		</g>
		<g id="shape3602-325" v:mID="3602" v:groupContext="shape" transform="translate(826.253,-575.677)">
			<title>Sheet.3602</title>
			<path d="M0 841.51 L0 841.89" class="st1"/>
		</g>
		<g id="shape3603-328" v:mID="3603" v:groupContext="shape" transform="translate(984.963,-576.054)">
			<title>Sheet.3603</title>
			<path d="M0 841.89 L1.14 841.89 L2.27 841.89 L3.41 841.51 L4.55 841.51 L5.68 841.13 L6.82 840.76 L7.95 840.38 L9.09 839.62
						 L9.85 839.25 L10.98 838.49 L11.74 837.74 L12.88 836.98 L13.64 836.23 L14.39 835.47 L15.15 834.34 L15.53
						 833.58 L16.29 832.45 L16.67 831.32 L17.05 830.56 L17.8 829.43 L17.8 828.3" class="st1"/>
		</g>
		<g id="shape3604-331" v:mID="3604" v:groupContext="shape" transform="translate(625.12,-597.2)">
			<title>Sheet.3604</title>
			<path d="M0 841.51 L0 841.89" class="st1"/>
		</g>
		<g id="shape3605-334" v:mID="3605" v:groupContext="shape" transform="translate(932.691,-589.648)">
			<title>Sheet.3605</title>
			<path d="M70.07 841.89 L0 771.65" class="st1"/>
		</g>
		<g id="shape3606-337" v:mID="3606" v:groupContext="shape" transform="translate(1002.77,-589.27)">
			<title>Sheet.3606</title>
			<path d="M0 841.51 L0 841.89" class="st1"/>
		</g>
		<g id="shape3607-340" v:mID="3607" v:groupContext="shape" transform="translate(625.12,-667.814)">
			<title>Sheet.3607</title>
			<path d="M234.09 841.89 L-0 841.89" class="st1"/>
		</g>
		<g id="shape3608-343" v:mID="3608" v:groupContext="shape" transform="translate(932.691,-659.506)">
			<title>Sheet.3608</title>
			<path d="M0 841.51 L0 841.89" class="st1"/>
		</g>
		<g id="shape3609-346" v:mID="3609" v:groupContext="shape" transform="translate(695.574,-490.337)">
			<title>Sheet.3609</title>
			<path d="M37.12 841.89 L33.71 838.49 L30.68 835.09 L27.27 832.07 L23.86 828.67 L20.45 825.27 L17.42 822.25 L12.12 817.35
						 L10.61 815.83 L8.71 813.95 L7.2 812.44 L5.3 810.93 L3.41 809.42 L1.89 807.53 L0 806.02" class="st1"/>
		</g>
		<g id="shape3610-349" v:mID="3610" v:groupContext="shape" transform="translate(625.12,-667.436)">
			<title>Sheet.3610</title>
			<path d="M0 841.51 L0 841.89" class="st1"/>
		</g>
		<g id="shape3611-352" v:mID="3611" v:groupContext="shape" transform="translate(625.12,-578.698)">
			<title>Sheet.3611</title>
			<path d="M2.65 841.89 L-0 841.13" class="st1"/>
		</g>
		<g id="shape3612-355" v:mID="3612" v:groupContext="shape" transform="translate(695.574,-525.832)">
			<title>Sheet.3612</title>
			<path d="M0 841.51 L0 841.89" class="st1"/>
		</g>
		<g id="shape3613-358" v:mID="3613" v:groupContext="shape" transform="translate(350.503,-570.39)">
			<title>Sheet.3613</title>
			<path d="M12.88 841.89 L12.12 840.76 L10.98 840 L10.23 839.25 L9.09 838.87 L7.95 838.11 L6.82 837.74 L5.68 837.36 L4.55
						 836.98 L3.41 836.6 L2.27 836.6 L1.14 836.23 L0 836.23" class="st1"/>
		</g>
		<g id="shape3614-361" v:mID="3614" v:groupContext="shape" transform="translate(625.12,-579.075)">
			<title>Sheet.3614</title>
			<path d="M0 841.51 L0 841.89" class="st1"/>
		</g>
		<g id="shape3615-364" v:mID="3615" v:groupContext="shape" transform="translate(551.258,-579.453)">
			<title>Sheet.3615</title>
			<path d="M0 823.76 L0 824.9 L0.38 826.03 L0.38 827.16 L0.76 828.3 L1.14 829.43 L1.52 830.18 L1.89 831.32 L2.27 832.45
						 L3.03 833.58 L3.41 834.34 L4.17 835.47 L4.92 836.23 L6.06 836.98 L6.82 837.74 L7.58 838.49 L8.71 839.25
						 L9.47 839.62 L10.61 840.38 L11.74 840.76 L12.88 841.13 L14.01 841.51 L15.15 841.51 L16.29 841.89 L17.42
						 841.89 L18.56 841.89" class="st1"/>
		</g>
		<g id="shape3616-367" v:mID="3616" v:groupContext="shape" transform="translate(350.503,-575.677)">
			<title>Sheet.3616</title>
			<path d="M0 841.51 L0 841.89" class="st1"/>
		</g>
		<g id="shape3617-370" v:mID="3617" v:groupContext="shape" transform="translate(173.233,-576.054)">
			<title>Sheet.3617</title>
			<path d="M0 828.3 L0.38 829.43 L0.76 830.56 L1.14 831.32 L1.52 832.45 L2.27 833.58 L3.03 834.34 L3.41 835.47 L4.17 836.23
						 L5.3 836.98 L6.06 837.74 L6.82 838.49 L7.95 839.25 L9.09 839.62 L9.85 840.38 L10.98 840.76 L12.12 841.13
						 L13.26 841.51 L14.39 841.51 L15.53 841.89 L16.67 841.89 L17.8 841.89" class="st1"/>
		</g>
		<g id="shape3618-373" v:mID="3618" v:groupContext="shape" transform="translate(569.818,-579.075)">
			<title>Sheet.3618</title>
			<path d="M0 841.51 L0 841.89" class="st1"/>
		</g>
		<g id="shape3619-376" v:mID="3619" v:groupContext="shape" transform="translate(443.684,-490.337)">
			<title>Sheet.3619</title>
			<path d="M107.57 752.77 L107.2 752.77 L106.82 753.15 L106.44 753.15 L106.06 753.15 L105.68 753.15 L104.17 753.53 L103.03
						 753.91 L101.89 754.66 L100.76 755.04 L100 755.79 L96.59 757.68 L93.94 759.19 L91.67 760.33 L89.39 761.84
						 L87.5 763.35 L82.95 766.37 L80.68 768.26 L78.79 769.77 L76.51 771.28 L74.24 773.16 L70.07 776.56 L68.18
						 778.45 L65.91 779.96 L64.01 781.85 L62.12 783.74 L57.95 787.14 L55.68 789.02 L53.79 790.91 L51.89 792.42
						 L50 794.31 L43.56 799.98 L39.77 803.75 L35.61 807.15 L31.44 810.93 L27.65 814.7 L20.45 821.5 L17.8 824.52
						 L14.77 827.16 L11.74 830.18 L8.71 833.2 L6.06 835.85 L3.03 838.87 L0 841.89" class="st1"/>
		</g>
		<g id="shape3620-379" v:mID="3620" v:groupContext="shape" transform="translate(191.036,-575.677)">
			<title>Sheet.3620</title>
			<path d="M0 841.51 L0 841.89" class="st1"/>
		</g>
		<g id="shape3621-382" v:mID="3621" v:groupContext="shape" transform="translate(443.684,-489.959)">
			<title>Sheet.3621</title>
			<path d="M0 841.51 L0 841.89" class="st1"/>
		</g>
		<g id="shape3622-385" v:mID="3622" v:groupContext="shape" transform="translate(419.82,-547.734)">
			<title>Sheet.3622</title>
			<path d="M59.85 812.06 L59.85 810.55 L59.85 809.04 L59.85 807.9 L59.47 806.39 L59.09 804.88 L58.71 803.37 L58.33 802.24
						 L57.57 800.73 L57.2 799.22 L56.44 798.09 L55.68 796.95 L54.92 795.44 L54.17 794.31 L53.41 793.18 L52.27
						 792.05 L51.14 790.91 L50 790.16 L49.24 789.02 L47.73 788.27 L46.59 787.14 L45.45 786.38 L44.32 785.63 L42.8
						 785.25 L41.67 784.49 L40.15 784.12 L38.64 783.74 L37.5 782.98 L35.98 782.98 L34.47 782.61 L32.95 782.23
						 L31.44 782.23 L29.92 782.23 L28.41 782.23 L27.27 782.23 L25.76 782.61 L24.24 782.98 L22.73 782.98 L21.21
						 783.74 L20.08 784.12 L18.56 784.49 L17.05 785.25 L15.91 785.63 L14.77 786.38 L13.26 787.14 L12.12 788.27
						 L10.98 789.02 L9.85 790.16 L8.71 790.91 L7.95 792.05 L6.82 793.18 L6.06 794.31 L5.3 795.44 L4.17 796.95
						 L3.79 798.09 L3.03 799.22 L2.27 800.73 L1.89 802.24 L1.52 803.37 L1.14 804.88 L0.76 806.39 L0.38 807.9 L0.38
						 809.04 L0 810.55 L0 812.06 L0 813.57 L0.38 815.08 L0.38 816.59 L0.76 818.1 L1.14 819.23 L1.52 820.74 L1.89
						 822.25 L2.27 823.76 L3.03 824.9 L3.79 826.41 L4.17 827.54 L5.3 828.67 L6.06 829.81 L6.82 830.94 L7.95 832.07
						 L8.71 833.2 L9.85 834.34 L10.98 835.09 L12.12 836.23 L13.26 836.98 L14.77 837.74 L15.91 838.49 L17.05 839.25
						 L18.56 839.62 L20.08 840.38 L21.21 840.76 L22.73 841.13 L24.24 841.51 L25.76 841.89 L27.27 841.89 L28.41
						 841.89 L29.92 841.89 L31.44 841.89 L32.95 841.89 L34.47 841.89 L35.98 841.51 L37.5 841.13 L38.64 840.76
						 L40.15 840.38 L41.67 839.62 L42.8 839.25 L44.32 838.49 L45.45 837.74 L46.59 836.98 L47.73 836.23 L49.24
						 835.09 L50 834.34 L51.14 833.2 L52.27 832.07 L53.41 830.94 L54.17 829.81 L54.92 828.67 L55.68 827.54 L56.44
						 826.41 L57.2 824.9 L57.57 823.76 L58.33 822.25 L58.71 820.74 L59.09 819.23 L59.47 818.1 L59.85 816.59 L59.85
						 815.08 L59.85 813.57 L59.85 812.06 L59.85 812.06" class="st1"/>
		</g>
		<g id="shape3623-388" v:mID="3623" v:groupContext="shape" transform="translate(419.82,-547.734)">
			<title>Sheet.3623</title>
			<path d="M59.85 812.06 L59.85 810.55 L59.85 809.04 L59.85 807.9 L59.47 806.39 L59.09 804.88 L58.71 803.37 L58.33 802.24
						 L57.57 800.73 L57.2 799.22 L56.44 798.09 L55.68 796.95 L54.92 795.44 L54.17 794.31 L53.41 793.18 L52.27
						 792.05 L51.14 790.91 L50 790.16 L49.24 789.02 L47.73 788.27 L46.59 787.14 L45.45 786.38 L44.32 785.63 L42.8
						 785.25 L41.67 784.49 L40.15 784.12 L38.64 783.74 L37.5 782.98 L35.98 782.98 L34.47 782.61 L32.95 782.23
						 L31.44 782.23 L29.92 782.23 L28.41 782.23 L27.27 782.23 L25.76 782.61 L24.24 782.98 L22.73 782.98 L21.21
						 783.74 L20.08 784.12 L18.56 784.49 L17.05 785.25 L15.91 785.63 L14.77 786.38 L13.26 787.14 L12.12 788.27
						 L10.98 789.02 L9.85 790.16 L8.71 790.91 L7.95 792.05 L6.82 793.18 L6.06 794.31 L5.3 795.44 L4.17 796.95
						 L3.79 798.09 L3.03 799.22 L2.27 800.73 L1.89 802.24 L1.52 803.37 L1.14 804.88 L0.76 806.39 L0.38 807.9 L0.38
						 809.04 L0 810.55 L0 812.06 L0 813.57 L0.38 815.08 L0.38 816.59 L0.76 818.1 L1.14 819.23 L1.52 820.74 L1.89
						 822.25 L2.27 823.76 L3.03 824.9 L3.79 826.41 L4.17 827.54 L5.3 828.67 L6.06 829.81 L6.82 830.94 L7.95 832.07
						 L8.71 833.2 L9.85 834.34 L10.98 835.09 L12.12 836.23 L13.26 836.98 L14.77 837.74 L15.91 838.49 L17.05 839.25
						 L18.56 839.62 L20.08 840.38 L21.21 840.76 L22.73 841.13 L24.24 841.51 L25.76 841.89 L27.27 841.89 L28.41
						 841.89 L29.92 841.89 L31.44 841.89 L32.95 841.89 L34.47 841.89 L35.98 841.51 L37.5 841.13 L38.64 840.76
						 L40.15 840.38 L41.67 839.62 L42.8 839.25 L44.32 838.49 L45.45 837.74 L46.59 836.98 L47.73 836.23 L49.24
						 835.09 L50 834.34 L51.14 833.2 L52.27 832.07 L53.41 830.94 L54.17 829.81 L54.92 828.67 L55.68 827.54 L56.44
						 826.41 L57.2 824.9 L57.57 823.76 L58.33 822.25 L58.71 820.74 L59.09 819.23 L59.47 818.1 L59.85 816.59 L59.85
						 815.08 L59.85 813.57 L59.85 812.06 L59.85 812.06" class="st1"/>
		</g>
		<g id="shape3624-391" v:mID="3624" v:groupContext="shape" transform="translate(855.798,-260.75)">
			<title>Sheet.3624</title>
			<path d="M27.27 814.32 L25.76 814.32 L24.24 814.32 L22.73 814.7 L21.59 814.7 L20.08 815.08 L18.56 815.46 L17.42 816.21
						 L15.91 816.59 L14.77 817.35 L13.26 818.1 L12.12 818.86 L10.98 819.61 L9.85 820.37 L9.09 821.5 L7.95 822.25
						 L7.2 823.39 L6.06 824.52 L5.3 825.65 L4.55 826.79 L3.79 827.92 L3.03 829.43 L2.27 830.56 L1.89 832.07 L1.14
						 833.2 L0.76 834.72 L0.38 836.23 L0.38 837.36 L0 838.87 L0 840.38 L0 841.89" class="st1"/>
		</g>
		<g id="shape3625-394" v:mID="3625" v:groupContext="shape" transform="translate(892.161,-288.316)">
			<title>Sheet.3625</title>
			<path d="M0 841.89 L0.76 841.89 L1.89 841.51 L2.65 841.51 L3.41 841.13 L4.17 840.76 L4.92 840.38 L5.68 840 L6.44 839.62
						 L6.82 838.87 L7.58 838.11 L7.95 837.36 L8.33 836.6 L8.71 835.85 L9.09 835.09 L9.09 834.34 L9.09 833.58 L9.47
						 832.83" class="st1"/>
		</g>
		<g id="shape3626-397" v:mID="3626" v:groupContext="shape" transform="translate(855.798,-260.373)">
			<title>Sheet.3626</title>
			<path d="M0 841.51 L0 841.89" class="st1"/>
		</g>
		<g id="shape3627-400" v:mID="3627" v:groupContext="shape" transform="translate(809.587,-334.384)">
			<title>Sheet.3627</title>
			<path d="M0 805.26 L0 806.77 L0 808.28 L0.38 810.17 L0.76 811.68 L0.76 813.19 L1.52 815.08 L1.89 816.59 L2.27 818.1 L3.03
						 819.61 L3.79 821.12 L4.55 822.63 L5.3 824.14 L6.06 825.27 L7.2 826.79 L7.95 827.92 L9.09 829.43 L10.23 830.56
						 L11.36 831.69 L12.5 832.83 L14.01 833.96 L15.15 835.09 L16.67 835.85 L17.8 836.6 L19.32 837.36 L20.83 838.11
						 L22.35 838.87 L23.86 839.62 L25.38 840 L27.27 840.76 L28.79 841.13 L30.3 841.51 L31.82 841.51 L33.71 841.89
						 L35.23 841.89 L36.74 841.89" class="st1"/>
		</g>
		<g id="shape3628-403" v:mID="3628" v:groupContext="shape" transform="translate(901.631,-297.001)">
			<title>Sheet.3628</title>
			<path d="M0 841.51 L0 841.89" class="st1"/>
		</g>
		<g id="shape3629-406" v:mID="3629" v:groupContext="shape" transform="translate(274.747,-288.316)">
			<title>Sheet.3629</title>
			<path d="M0 832.83 L0 833.58 L0 834.34 L0.38 835.09 L0.38 835.85 L0.76 836.6 L1.14 837.36 L1.89 838.11 L2.27 838.87 L3.03
						 839.62 L3.41 840 L4.17 840.38 L4.92 840.76 L5.68 841.13 L6.44 841.51 L7.58 841.51 L8.33 841.89 L9.09 841.89"
					class="st1"/>
		</g>
		<g id="shape3630-409" v:mID="3630" v:groupContext="shape" transform="translate(846.329,-334.007)">
			<title>Sheet.3630</title>
			<path d="M0 841.51 L0 841.89" class="st1"/>
		</g>
		<g id="shape3631-412" v:mID="3631" v:groupContext="shape" transform="translate(932.691,-529.986)">
			<title>Sheet.3631</title>
			<path d="M130.3 841.89 L0 711.99" class="st1"/>
		</g>
		<g id="shape3632-415" v:mID="3632" v:groupContext="shape" transform="translate(283.838,-287.938)">
			<title>Sheet.3632</title>
			<path d="M0 841.51 L0 841.89" class="st1"/>
		</g>
		<g id="shape3633-418" v:mID="3633" v:groupContext="shape" transform="translate(330.049,-334.384)">
			<title>Sheet.3633</title>
			<path d="M0 841.89 L1.52 841.89 L3.41 841.89 L4.92 841.51 L6.44 841.51 L7.95 841.13 L9.85 840.76 L11.36 840 L12.88 839.62
						 L14.39 838.87 L15.91 838.11 L17.42 837.36 L18.94 836.6 L20.08 835.85 L21.59 835.09 L23.11 833.96 L24.24
						 832.83 L25.38 831.69 L26.51 830.56 L27.65 829.43 L28.79 827.92 L29.92 826.79 L30.68 825.27 L31.44 824.14
						 L32.58 822.63 L33.33 821.12 L33.71 819.61 L34.47 818.1 L34.85 816.59 L35.61 815.08 L35.98 813.19 L36.36
						 811.68 L36.36 810.17 L36.74 808.28 L36.74 806.77 L36.74 805.26" class="st1"/>
		</g>
		<g id="shape3634-421" v:mID="3634" v:groupContext="shape" transform="translate(932.691,-659.506)">
			<title>Sheet.3634</title>
			<path d="M0 841.51 L0 841.89" class="st1"/>
		</g>
		<g id="shape3635-424" v:mID="3635" v:groupContext="shape" transform="translate(274.747,-325.322)">
			<title>Sheet.3635</title>
			<path d="M9.09 832.83 L8.33 832.83 L7.58 833.2 L6.44 833.2 L5.68 833.58 L4.92 833.96 L4.17 834.34 L3.41 834.72 L3.03
						 835.09 L2.27 835.85 L1.89 836.6 L1.14 837.36 L0.76 838.11 L0.38 838.87 L0.38 839.62 L0 840.38 L0 841.13
						 L0 841.89" class="st1"/>
		</g>
		<g id="shape3636-427" v:mID="3636" v:groupContext="shape" transform="translate(366.791,-370.635)">
			<title>Sheet.3636</title>
			<path d="M0 841.51 L0 841.89" class="st1"/>
		</g>
		<g id="shape3637-430" v:mID="3637" v:groupContext="shape" transform="translate(892.161,-325.322)">
			<title>Sheet.3637</title>
			<path d="M9.47 841.89 L9.09 841.13 L9.09 840.38 L9.09 839.62 L8.71 838.87 L8.33 838.11 L7.95 837.36 L7.58 836.6 L6.82
						 835.85 L6.44 835.09 L5.68 834.72 L4.92 834.34 L4.17 833.96 L3.41 833.58 L2.65 833.2 L1.89 833.2 L0.76 832.83
						 L0 832.83" class="st1"/>
		</g>
		<g id="shape3638-433" v:mID="3638" v:groupContext="shape" transform="translate(274.747,-324.944)">
			<title>Sheet.3638</title>
			<path d="M0 841.51 L0 841.89" class="st1"/>
		</g>
		<g id="shape3639-436" v:mID="3639" v:groupContext="shape" transform="translate(292.928,-260.75)">
			<title>Sheet.3639</title>
			<path d="M27.65 841.89 L27.65 840.38 L27.65 838.87 L27.65 837.36 L27.27 836.23 L26.89 834.72 L26.51 833.2 L26.14 832.07
						 L25.38 830.56 L24.62 829.43 L24.24 827.92 L23.48 826.79 L22.35 825.65 L21.59 824.52 L20.83 823.39 L19.7
						 822.25 L18.56 821.5 L17.42 820.37 L16.29 819.61 L15.15 818.86 L14.01 818.1 L12.88 817.35 L11.36 816.59 L10.23
						 816.21 L8.71 815.46 L7.2 815.08 L6.06 814.7 L4.55 814.7 L3.03 814.32 L1.52 814.32 L0 814.32" class="st1"/>
		</g>
		<g id="shape3640-439" v:mID="3640" v:groupContext="shape" transform="translate(892.161,-334.007)">
			<title>Sheet.3640</title>
			<path d="M0 841.51 L0 841.89" class="st1"/>
		</g>
		<g id="shape3641-442" v:mID="3641" v:groupContext="shape" transform="translate(251.641,-667.814)">
			<title>Sheet.3641</title>
			<path d="M607.57 841.89 L0 841.89" class="st1"/>
		</g>
		<g id="shape3642-445" v:mID="3642" v:groupContext="shape" transform="translate(292.928,-287.938)">
			<title>Sheet.3642</title>
			<path d="M0 841.51 L0 841.89" class="st1"/>
		</g>
		<g id="shape3643-448" v:mID="3643" v:groupContext="shape" transform="translate(366.791,-395.557)">
			<title>Sheet.3643</title>
			<path d="M184.47 657.99 L184.09 657.99 L183.71 658.37 L183.33 658.37 L182.19 658.37 L181.44 658.75 L181.06 658.75 L179.54
						 659.5 L178.79 659.88 L177.65 660.26 L176.13 661.39 L175 661.77 L173.86 662.53 L171.97 663.66 L170.83 664.41
						 L169.32 665.17 L167.04 667.06 L165.53 667.81 L164.39 668.94 L161.36 670.83 L159.85 671.97 L158.71 673.1
						 L156.06 674.99 L155.3 675.74 L154.16 676.5 L152.65 678.01 L151.51 678.38 L150.76 679.14 L148.86 680.65 L148.1
						 681.41 L146.97 682.16 L144.69 684.05 L143.18 685.18 L141.66 686.69 L138.63 688.96 L137.12 690.47 L135.6
						 691.98 L133.33 693.87 L132.57 694.62 L131.44 695.38 L130.68 696.13 L129.92 696.89 L129.16 697.64 L127.65
						 698.78 L126.89 699.53 L126.13 700.29 L125.38 701.04 L124.62 701.8 L123.86 702.17 L120.07 705.57 L117.42
						 708.22 L114.39 710.86 L111.74 713.12 L108.71 715.77 L106.06 718.41 L100 724.45 L96.59 727.47 L93.18 730.87
						 L89.77 734.27 L86.36 737.67 L82.2 741.82 L81.06 742.96 L79.92 743.71 L79.17 744.84 L78.03 745.98 L76.89
						 746.73 L75 749 L74.24 749.75 L73.1 750.89 L71.97 752.02 L71.21 752.77 L70.07 753.91 L67.04 757.31 L64.77
						 759.57 L62.5 761.84 L60.23 764.1 L58.33 766.37 L56.06 768.63 L54.17 770.9 L51.89 773.16 L50 775.43 L48.86
						 776.56 L47.73 777.7 L46.97 778.83 L45.83 779.96 L44.7 781.09 L42.8 782.98 L41.67 784.12 L40.91 785.25 L39.77
						 786.38 L39.01 787.51 L35.23 791.67 L32.95 794.69 L30.3 797.33 L27.65 800.35 L25 803.75 L24.62 804.13 L24.62
						 804.51 L24.24 804.88 L23.86 804.88 L23.48 805.64 L23.11 806.02 L23.11 806.02 L22.73 806.39 L22.35 806.77
						 L21.97 807.53 L21.21 808.28 L20.83 809.04 L20.45 809.42 L20.08 810.17 L19.32 810.55 L19.32 810.93 L18.94
						 811.3 L18.56 811.68 L18.56 812.06 L17.8 812.44 L17.42 812.81 L17.42 813.19 L17.05 813.57 L15.15 815.83 L14.01
						 817.72 L12.5 819.99 L10.98 821.88 L8.33 825.27 L7.2 826.79 L6.44 828.67 L5.3 830.18 L3.41 832.83 L3.03 833.96
						 L2.27 835.47 L1.52 836.6 L0.76 838.11 L0.76 838.87 L0.76 839.25 L0.38 839.62 L0.38 840.38 L0.38 840.76 L0
						 841.13 L0 841.51 L0 841.89" class="st1"/>
		</g>
		<g id="shape3644-451" v:mID="3644" v:groupContext="shape" transform="translate(251.641,-667.436)">
			<title>Sheet.3644</title>
			<path d="M0 841.51 L0 841.89" class="st1"/>
		</g>
		<g id="shape3645-454" v:mID="3645" v:groupContext="shape" transform="translate(695.952,-395.557)">
			<title>Sheet.3645</title>
			<path d="M113.63 841.89 L113.63 841.51 L113.63 841.13 L113.63 840.76 L113.26 839.62 L112.88 838.87 L112.88 838.49 L112.12
						 836.98 L111.74 836.23 L111.36 835.47 L110.6 833.58 L109.85 832.45 L109.47 831.32 L107.95 829.43 L107.2 828.3
						 L106.44 827.16 L104.54 824.52 L103.79 823.01 L102.65 821.88 L100.76 818.86 L99.62 817.35 L98.48 816.21 L96.59
						 813.57 L95.83 812.81 L95.07 811.68 L93.94 810.17 L93.18 809.04 L92.42 808.28 L90.91 806.39 L90.15 805.64
						 L89.39 804.88 L87.5 802.24 L86.36 800.73 L85.23 799.22 L82.57 796.2 L81.06 794.69 L79.92 793.18 L77.65 790.91
						 L76.89 790.16 L76.14 789.4 L75.38 788.27 L75 787.51 L74.24 786.76 L72.73 785.25 L71.97 784.49 L71.21 783.74
						 L70.45 782.98 L70.07 782.23 L69.32 781.47 L65.91 777.7 L63.26 775.05 L60.98 772.03 L58.33 769.39 L55.68
						 766.37 L53.03 763.72 L46.97 757.68 L43.94 754.28 L40.53 750.89 L37.12 747.49 L34.09 744.09 L29.54 739.94
						 L28.79 738.8 L27.65 737.67 L26.51 736.91 L25.38 735.78 L24.62 734.65 L22.35 732.76 L21.59 732.01 L20.45
						 730.87 L19.7 729.74 L18.56 728.98 L17.42 727.85 L15.15 725.59 L13.64 724.45 L12.5 722.94 L10.98 721.81 L8.33
						 719.17 L6.82 717.66 L5.3 716.52 L4.17 715.39 L2.27 713.5 L1.52 712.75 L1.14 712.37 L0.38 711.61 L0 711.24"
					class="st1"/>
		</g>
		<g id="shape3646-457" v:mID="3646" v:groupContext="shape" transform="translate(366.791,-395.179)">
			<title>Sheet.3646</title>
			<path d="M0 841.51 L0 841.89" class="st1"/>
		</g>
		<g id="shape3647-460" v:mID="3647" v:groupContext="shape" transform="translate(625.12,-578.698)">
			<title>Sheet.3647</title>
			<path d="M2.65 841.89 L2.27 841.51 L2.27 841.51 L1.89 841.51 L1.14 841.51 L0.76 841.13 L0 841.13 L0 841.13" class="st1"/>
		</g>
		<g id="shape3648-463" v:mID="3648" v:groupContext="shape" transform="translate(695.952,-525.832)">
			<title>Sheet.3648</title>
			<path d="M0 841.51 L0 841.89" class="st1"/>
		</g>
		<g id="shape3649-466" v:mID="3649" v:groupContext="shape" transform="translate(498.228,-500.91)">
			<title>Sheet.3649</title>
			<path d="M0 813.95 L3.03 815.83 L6.44 817.72 L9.47 819.23 L12.88 821.12 L16.29 823.01 L19.7 824.52 L23.11 826.03 L26.51
						 827.54 L29.92 828.67 L33.33 830.18 L36.74 831.32 L40.15 832.45 L43.94 833.58 L47.35 834.72 L51.14 835.85
						 L54.54 836.6 L58.33 837.36 L61.74 838.11 L65.53 838.87 L69.32 839.62 L72.73 840 L76.51 840.38 L80.3 841.13
						 L84.09 841.13 L87.5 841.51 L91.29 841.51 L95.07 841.89 L98.86 841.89 L102.65 841.89 L106.06 841.51 L109.85
						 841.51 L113.63 841.13 L117.42 840.76 L121.21 840.38 L124.62 840 L128.41 839.25 L132.19 838.49 L135.6 837.74
						 L139.39 836.98 L142.8 836.23 L146.59 835.09 L150 834.34 L153.79 833.2 L157.19 832.07 L160.6 830.56 L164.01
						 829.43" class="st1"/>
		</g>
		<g id="shape3650-469" v:mID="3650" v:groupContext="shape" transform="translate(625.12,-579.075)">
			<title>Sheet.3650</title>
			<path d="M0 841.51 L0 841.89" class="st1"/>
		</g>
		<g id="shape3651-472" v:mID="3651" v:groupContext="shape" transform="translate(498.228,-528.853)">
			<title>Sheet.3651</title>
			<path d="M-0 841.89 L429.92 676.12" class="st1"/>
		</g>
		<g id="shape3652-475" v:mID="3652" v:groupContext="shape" transform="translate(662.241,-512.993)">
			<title>Sheet.3652</title>
			<path d="M0 841.51 L0 841.89" class="st1"/>
		</g>
		<g id="shape3653-478" v:mID="3653" v:groupContext="shape" transform="translate(885.722,-599.466)">
			<title>Sheet.3653</title>
			<path d="M0 841.89 L2.27 841.13 L4.17 840 L6.44 839.25 L8.33 838.11 L10.61 836.98 L12.5 835.85 L14.39 834.34 L16.29 833.2
						 L18.18 831.69 L20.08 830.18 L21.97 829.05 L23.48 827.16 L25.38 825.65 L26.89 824.14 L28.41 822.25 L29.92
						 820.74 L31.44 818.86 L32.95 816.97 L34.09 815.08 L35.61 813.19 L36.74 811.3 L37.88 809.42 L39.01 807.15
						 L40.15 805.26 L40.91 803 L41.67 801.11 L42.8 798.84 L43.56 796.58 L44.32 794.31 L44.7 792.05 L45.45 789.78
						 L45.83 787.51 L46.21 785.25 L46.59 782.98 L46.97 780.72 L46.97 778.45 L47.35 776.19 L47.35 773.92 L47.35
						 771.65 L46.97 769.39 L46.97 767.12 L46.59 764.86 L46.59 762.21 L46.21 759.95 L45.45 757.68 L45.08 755.42
						 L44.32 753.53 L43.94 751.26 L43.18 749 L42.42 746.73" class="st1"/>
		</g>
		<g id="shape3654-481" v:mID="3654" v:groupContext="shape" transform="translate(928.146,-694.246)">
			<title>Sheet.3654</title>
			<path d="M0 841.51 L0 841.89" class="st1"/>
		</g>
		<g id="shape3655-484" v:mID="3655" v:groupContext="shape" transform="translate(662.241,-513.371)">
			<title>Sheet.3655</title>
			<path d="M0 841.89 L223.48 755.79" class="st1"/>
		</g>
		<g id="shape3656-487" v:mID="3656" v:groupContext="shape" transform="translate(928.146,-694.246)">
			<title>Sheet.3656</title>
			<path d="M0 841.51 L0 841.89" class="st1"/>
		</g>
		<g id="shape3657-490" v:mID="3657" v:groupContext="shape" transform="translate(885.722,-599.089)">
			<title>Sheet.3657</title>
			<path d="M0 841.51 L0 841.89" class="st1"/>
		</g>
		<g id="shape3658-493" v:mID="3658" v:groupContext="shape" transform="translate(696.71,-547.734)">
			<title>Sheet.3658</title>
			<path d="M59.85 812.06 L59.85 810.55 L59.85 809.04 L59.47 807.9 L59.09 806.39 L59.09 804.88 L58.71 803.37 L57.95 802.24
						 L57.57 800.73 L56.82 799.22 L56.44 798.09 L55.68 796.95 L54.92 795.44 L53.79 794.31 L53.03 793.18 L51.89
						 792.05 L51.14 790.91 L50 790.16 L48.86 789.02 L47.73 788.27 L46.59 787.14 L45.45 786.38 L43.94 785.63 L42.8
						 785.25 L41.29 784.49 L40.15 784.12 L38.64 783.74 L37.12 782.98 L35.61 782.98 L34.09 782.61 L32.95 782.23
						 L31.44 782.23 L29.92 782.23 L28.41 782.23 L26.89 782.23 L25.38 782.61 L23.86 782.98 L22.73 782.98 L21.21
						 783.74 L19.7 784.12 L18.56 784.49 L17.05 785.25 L15.91 785.63 L14.39 786.38 L13.26 787.14 L12.12 788.27
						 L10.98 789.02 L9.85 790.16 L8.71 790.91 L7.58 792.05 L6.82 793.18 L5.68 794.31 L4.92 795.44 L4.17 796.95
						 L3.41 798.09 L2.65 799.22 L2.27 800.73 L1.52 802.24 L1.14 803.37 L0.76 804.88 L0.38 806.39 L0.38 807.9 L0
						 809.04 L0 810.55 L0 812.06 L0 813.57 L0 815.08 L0.38 816.59 L0.38 818.1 L0.76 819.23 L1.14 820.74 L1.52
						 822.25 L2.27 823.76 L2.65 824.9 L3.41 826.41 L4.17 827.54 L4.92 828.67 L5.68 829.81 L6.82 830.94 L7.58 832.07
						 L8.71 833.2 L9.85 834.34 L10.98 835.09 L12.12 836.23 L13.26 836.98 L14.39 837.74 L15.91 838.49 L17.05 839.25
						 L18.56 839.62 L19.7 840.38 L21.21 840.76 L22.73 841.13 L23.86 841.51 L25.38 841.89 L26.89 841.89 L28.41
						 841.89 L29.92 841.89 L31.44 841.89 L32.95 841.89 L34.09 841.89 L35.61 841.51 L37.12 841.13 L38.64 840.76
						 L40.15 840.38 L41.29 839.62 L42.8 839.25 L43.94 838.49 L45.45 837.74 L46.59 836.98 L47.73 836.23 L48.86
						 835.09 L50 834.34 L51.14 833.2 L51.89 832.07 L53.03 830.94 L53.79 829.81 L54.92 828.67 L55.68 827.54 L56.44
						 826.41 L56.82 824.9 L57.57 823.76 L57.95 822.25 L58.71 820.74 L59.09 819.23 L59.09 818.1 L59.47 816.59 L59.85
						 815.08 L59.85 813.57 L59.85 812.06 L59.85 812.06" class="st1"/>
		</g>
		<g id="shape3659-496" v:mID="3659" v:groupContext="shape" transform="translate(928.146,-694.624)">
			<title>Sheet.3659</title>
			<desc>Gripper force</desc>
			<v:textBlock v:margins="rect(4,4,4,4)"/>
			<v:textRect cx="75.8867" cy="841.89" width="151.78" height="0"/>
			<path d="M19.2 841.89 L19.56 841.89 L151.77 841.89" class="st2"/>
			<rect v:rectContext="textBkgnd" x="29.2972" y="805.89" width="93.1792" height="72" class="st4"/>
			<text x="29.3" y="832.89" class="st5" v:langID="1044"><v:paragraph v:horizAlign="1"/><v:tabList/>Gripper <tspan
						x="44.36" dy="1.2em" class="st6">force</tspan></text>		</g>
		<g id="shape3661-505" v:mID="3661" v:groupContext="shape" transform="translate(-260.759,480.614) rotate(-89.5274)">
			<title>Sheet.3661</title>
			<desc>Lever force</desc>
			<v:textBlock v:margins="rect(4,4,4,4)"/>
			<v:textRect cx="73.6698" cy="841.89" width="147.34" height="0" transform="rotate(90)"/>
			<path d="M19.2 841.89 L19.56 841.89 L147.34 841.89" class="st2"/>
			<rect v:rectContext="textBkgnd" x="773.738" y="-91.6698" width="136.304" height="36" transform="rotate(90)" class="st7"/>
			<text x="773.74" y="-64.67" transform="rotate(90)" class="st5" v:langID="1044"><v:paragraph v:horizAlign="1"/><v:tabList/>Lever force</text>		</g>
		<g id="shape3662-512" v:mID="3662" v:groupContext="shape" transform="translate(-34.0157,232.441) rotate(-90)">
			<title>Sheet.3662</title>
			<desc>Lever</desc>
			<v:textBlock v:margins="rect(4,4,4,4)"/>
			<v:textRect cx="77.9528" cy="841.89" width="155.91" height="0" transform="rotate(90)"/>
			<path d="M19.2 841.89 L19.56 841.89 L155.91 841.89" class="st8"/>
			<rect v:rectContext="textBkgnd" x="808.652" y="-95.9528" width="66.4747" height="36" transform="rotate(90)" class="st7"/>
			<text x="808.65" y="-68.95" transform="rotate(90)" class="st5" v:langID="1044"><v:paragraph v:horizAlign="1"/><v:tabList/>Lever</text>		</g>
		<g id="shape3663-520" v:mID="3663" v:groupContext="shape" transform="translate(1564.72,260.787) rotate(90)">
			<title>Sheet.3663</title>
			<desc>Pivot point</desc>
			<v:textBlock v:margins="rect(4,4,4,4)"/>
			<v:textRect cx="92.126" cy="841.89" width="184.26" height="0" transform="rotate(-90)"/>
			<path d="M19.2 841.89 L19.56 841.89 L184.25 841.89" class="st10"/>
			<rect v:rectContext="textBkgnd" x="-908.321" y="74.126" width="132.862" height="36" transform="rotate(-90)" class="st7"/>
			<text x="-908.32" y="101.13" transform="rotate(-90)" class="st5" v:langID="1044"><v:paragraph v:horizAlign="1"/><v:tabList/>Pivot point</text>		</g>
		<g id="shape3664-528" v:mID="3664" v:groupContext="shape" transform="translate(924.358,-396.85)">
			<title>Sheet.3664</title>
			<desc>Interface cube</desc>
			<v:textBlock v:margins="rect(4,4,4,4)"/>
			<v:textRect cx="69.4488" cy="711.496" width="138.9" height="260.787"/>
			<rect x="0" y="581.102" width="138.898" height="260.787" class="st12"/>
			<text x="14.5" y="702.5" class="st5" v:langID="1044"><v:paragraph v:horizAlign="1"/><v:tabList/>Interface <tspan
						x="39.88" dy="1.2em" class="st6">cube</tspan></text>		</g>
	</g>
</svg>
