<?xml version="1.0" encoding="UTF-8" standalone="no"?>
<!DOCTYPE svg PUBLIC "-//W3C//DTD SVG 1.1//EN" "http://www.w3.org/Graphics/SVG/1.1/DTD/svg11.dtd">
<!-- Generated by Microsoft Visio, SVG Export servogolder.svg Page-1 -->
<svg xmlns="http://www.w3.org/2000/svg" xmlns:xlink="http://www.w3.org/1999/xlink" xmlns:ev="http://www.w3.org/2001/xml-events"
		xmlns:v="http://schemas.microsoft.com/visio/2003/SVGExtensions/" width="16.5354in" height="11.6929in"
		viewBox="0 0 1190.55 841.89" xml:space="preserve" color-interpolation-filters="sRGB" class="st13">
	<v:documentProperties v:langID="1044" v:viewMarkup="false">
		<v:userDefs>
			<v:ud v:nameU="msvNoAutoConnect" v:val="VT0(1):26"/>
		</v:userDefs>
	</v:documentProperties>

	<style type="text/css">
	<![CDATA[
		.st1 {stroke:#000000;stroke-linecap:round;stroke-linejoin:round;stroke-width:0.75}
		.st2 {marker-start:url(#mrkr13-774);stroke:#595959;stroke-linecap:round;stroke-linejoin:round;stroke-width:4}
		.st3 {fill:#595959;fill-opacity:1;stroke:#595959;stroke-opacity:1;stroke-width:0.61349693251534}
		.st4 {fill:#ffffff;stroke:none;stroke-linecap:butt}
		.st5 {fill:#000000;font-family:Calibri;font-size:2.50001em}
		.st6 {fill:#595959;fill-opacity:0.48;marker-start:url(#mrkr13-780);stroke:#595959;stroke-linecap:round;stroke-linejoin:round;stroke-width:0.75}
		.st7 {fill:#595959;fill-opacity:1;stroke:#595959;stroke-opacity:1;stroke-width:0.22935779816514}
		.st8 {marker-start:url(#mrkr13-787);stroke:#595959;stroke-linecap:round;stroke-linejoin:round;stroke-width:3.25}
		.st9 {fill:#595959;fill-opacity:1;stroke:#595959;stroke-opacity:1;stroke-width:0.5632582322357}
		.st10 {fill:#ffffff;stroke:none;stroke-linecap:butt;stroke-width:7.2}
		.st11 {font-size:1em}
		.st12 {fill:#595959;fill-opacity:0.51;marker-start:url(#mrkr13-780);stroke:#595959;stroke-linecap:round;stroke-linejoin:round;stroke-width:0.75}
		.st13 {fill:none;fill-rule:evenodd;font-size:12px;overflow:visible;stroke-linecap:square;stroke-miterlimit:3}
	]]>
	</style>

	<defs id="Markers">
		<g id="lend13">
			<path d="M 3 1 L 0 0 L 3 -1 L 3 1 " style="stroke:none"/>
		</g>
		<marker id="mrkr13-774" class="st3" v:arrowType="13" v:arrowSize="2" v:setback="4.8" refX="4.8" orient="auto"
				markerUnits="strokeWidth" overflow="visible">
			<use xlink:href="#lend13" transform="scale(1.63) "/>
		</marker>
		<marker id="mrkr13-780" class="st7" v:arrowType="13" v:arrowSize="2" v:setback="13.08" refX="13.08" orient="auto"
				markerUnits="strokeWidth" overflow="visible">
			<use xlink:href="#lend13" transform="scale(4.36) "/>
		</marker>
		<marker id="mrkr13-787" class="st9" v:arrowType="13" v:arrowSize="2" v:setback="5.21538" refX="5.2153846153846"
				orient="auto" markerUnits="strokeWidth" overflow="visible">
			<use xlink:href="#lend13" transform="scale(1.7753846153846) "/>
		</marker>
	</defs>
	<g v:mID="0" v:index="1" v:groupContext="foregroundPage">
		<title>Page-1</title>
		<v:pageProperties v:drawingScale="0.0393701" v:pageScale="0.0393701" v:drawingUnits="24" v:shadowOffsetX="9"
				v:shadowOffsetY="-9"/>
		<v:layer v:name="CAD Drawing" v:index="0"/>
		<v:layer v:name="0" v:index="1" color="#000000"/>
		<v:layer v:name="FORMAT" v:index="2" color="#000000"/>
		<v:layer v:name="DWGEntityColorOverrideLayer" v:index="3" v:visibility="hidden"/>
		<g id="shape12238-1" v:mID="12238" v:groupContext="shape" transform="translate(328.336,-424.598)">
			<title>Sheet.12238</title>
			<path d="M0 841.89 L0.19 841.89 L0.37 841.89 L0.56 841.7 L0.93 841.7 L1.12 841.52 L1.3 841.52 L1.86 841.33 L2.05 841.14
						 L2.42 841.14 L2.79 840.96 L3.72 840.77 L4.47 840.59 L5.4 840.4 L6.14 840.4" class="st1"/>
		</g>
		<g id="shape12239-4" v:mID="12239" v:groupContext="shape" transform="translate(323.122,-400.947)">
			<title>Sheet.12239</title>
			<path d="M11.36 816.75 L12.1 817.49 L12.66 818.42 L13.22 819.17 L13.96 820.47 L13.96 820.85 L14.15 821.22 L14.34 821.59
						 L14.52 822.52 L14.52 822.89 L14.52 823.27 L14.71 823.64 L14.71 824.76 L14.71 825.69 L14.71 826.43 L14.52
						 827.18 L14.15 828.67 L13.96 829.41 L13.78 830.16 L13.41 830.9 L12.66 832.39 L12.29 833.14 L11.73 833.7 L11.36
						 834.44 L10.24 835.74 L9.68 836.3 L8.94 836.86 L8.38 837.42 L7.07 838.54 L6.33 838.91 L5.59 839.47 L4.84
						 839.84 L3.35 840.77 L2.61 841.14 L1.68 841.33 L0.93 841.7 L0 841.89" class="st1"/>
		</g>
		<g id="shape12240-7" v:mID="12240" v:groupContext="shape" transform="translate(334.48,-425.902)">
			<title>Sheet.12240</title>
			<path d="M0 841.7 L0 841.89" class="st1"/>
		</g>
		<g id="shape12241-10" v:mID="12241" v:groupContext="shape" transform="translate(313.068,-400.947)">
			<title>Sheet.12241</title>
			<path d="M10.05 841.89 L9.68 841.52 L9.12 841.14 L8.75 840.77 L8.38 840.4 L7.45 839.65 L6.89 839.28 L6.52 838.91 L5.96
						 838.72 L5.21 838.35 L5.03 838.17 L4.84 837.98 L4.65 837.98 L4.1 837.61 L3.72 837.61 L3.35 837.42 L2.61 837.05
						 L2.23 837.05 L1.86 836.86 L1.12 836.68 L0.74 836.49 L0.37 836.49 L0 836.3" class="st1"/>
		</g>
		<g id="shape12242-13" v:mID="12242" v:groupContext="shape" transform="translate(323.122,-400.76)">
			<title>Sheet.12242</title>
			<path d="M0 841.7 L0 841.89" class="st1"/>
		</g>
		<g id="shape12243-16" v:mID="12243" v:groupContext="shape" transform="translate(313.068,-406.161)">
			<title>Sheet.12243</title>
			<path d="M0 841.52 L0.74 841.7 L1.3 841.7 L2.05 841.89 L2.79 841.89 L3.35 841.89 L4.1 841.7 L4.84 841.7 L5.4 841.52 L6.14
						 841.33 L6.7 841.14 L7.45 840.96 L8.01 840.59 L8.56 840.21 L9.31 840.03 L9.87 839.65 L10.43 839.1 L10.8 838.72
						 L11.36 838.35 L11.92 837.79 L12.29 837.23 L12.85 836.68 L13.22 836.12 L13.59 835.56 L13.78 835 L14.15 834.44
						 L14.34 833.7 L14.71 833.14 L14.89 832.39 L15.08 831.83 L15.08 831.09 L15.27 830.34 L15.27 829.78 L15.27
						 829.04" class="st1"/>
		</g>
		<g id="shape12244-19" v:mID="12244" v:groupContext="shape" transform="translate(313.068,-406.347)">
			<title>Sheet.12244</title>
			<path d="M0 841.7 L0 841.89" class="st1"/>
		</g>
		<g id="shape12245-22" v:mID="12245" v:groupContext="shape" transform="translate(328.336,-419.011)">
			<title>Sheet.12245</title>
			<path d="M0 841.89 L0 841.33 L0 840.77 L0 840.21 L0 839.65 L0 838.54 L0 837.98 L0 837.42 L0 836.86 L0 836.3"
					class="st1"/>
		</g>
		<g id="shape12246-25" v:mID="12246" v:groupContext="shape" transform="translate(328.336,-418.825)">
			<title>Sheet.12246</title>
			<path d="M0 841.7 L0 841.89" class="st1"/>
		</g>
		<g id="shape12247-28" v:mID="12247" v:groupContext="shape" transform="translate(360.359,-151.767)">
			<title>Sheet.12247</title>
			<path d="M0 567.57 L0 841.89" class="st1"/>
		</g>
		<g id="shape12248-31" v:mID="12248" v:groupContext="shape" transform="translate(328.336,-424.412)">
			<title>Sheet.12248</title>
			<path d="M0 841.7 L0 841.89" class="st1"/>
		</g>
		<g id="shape12249-34" v:mID="12249" v:groupContext="shape" transform="translate(309.159,-151.767)">
			<title>Sheet.12249</title>
			<path d="M-0 841.89 L51.2 841.89" class="st1"/>
		</g>
		<g id="shape12250-37" v:mID="12250" v:groupContext="shape" transform="translate(360.359,-151.581)">
			<title>Sheet.12250</title>
			<path d="M0 841.7 L0 841.89" class="st1"/>
		</g>
		<g id="shape12251-40" v:mID="12251" v:groupContext="shape" transform="translate(309.159,-151.767)">
			<title>Sheet.12251</title>
			<path d="M0 841.89 L2.61 841.52 L5.03 840.59 L7.45 839.1 L9.68 837.05 L11.73 834.63 L13.59 831.46 L15.27 827.92 L16.57
						 824.2 L17.69 819.91 L18.62 815.63 L18.99 810.98 L19.18 806.32" class="st1"/>
		</g>
		<g id="shape12252-43" v:mID="12252" v:groupContext="shape" transform="translate(360.359,-151.581)">
			<title>Sheet.12252</title>
			<path d="M0 841.7 L0 841.89" class="st1"/>
		</g>
		<g id="shape12253-46" v:mID="12253" v:groupContext="shape" transform="translate(328.336,-187.338)">
			<title>Sheet.12253</title>
			<path d="M0 641.5 L0 841.89" class="st1"/>
		</g>
		<g id="shape12254-49" v:mID="12254" v:groupContext="shape" transform="translate(328.336,-187.151)">
			<title>Sheet.12254</title>
			<path d="M0 841.7 L0 841.89" class="st1"/>
		</g>
		<g id="shape12255-52" v:mID="12255" v:groupContext="shape" transform="translate(323.122,-387.724)">
			<title>Sheet.12255</title>
			<path d="M5.21 841.89 L5.21 841.14 L5.21 840.21 L5.03 839.47 L5.03 838.54 L4.84 837.61 L4.65 836.86 L4.28 836.12 L4.1
						 835.19 L3.72 834.44 L3.35 833.7 L2.98 832.95 L2.61 832.21 L2.05 831.46 L1.68 830.72 L1.12 829.97 L0.56 829.41
						 L0 828.67" class="st1"/>
		</g>
		<g id="shape12256-55" v:mID="12256" v:groupContext="shape" transform="translate(328.336,-187.151)">
			<title>Sheet.12256</title>
			<path d="M0 841.7 L0 841.89" class="st1"/>
		</g>
		<g id="shape12257-58" v:mID="12257" v:groupContext="shape" transform="translate(334.48,-426.088)">
			<title>Sheet.12257</title>
			<path d="M25.88 841.89 L-0 841.89" class="st1"/>
		</g>
		<g id="shape12258-61" v:mID="12258" v:groupContext="shape" transform="translate(323.122,-400.76)">
			<title>Sheet.12258</title>
			<path d="M0 841.7 L0 841.89" class="st1"/>
		</g>
		<g id="shape12259-64" v:mID="12259" v:groupContext="shape" transform="translate(328.336,-778.813)">
			<title>Sheet.12259</title>
			<path d="M32.02 841.89 L-0 841.89" class="st1"/>
		</g>
		<g id="shape12260-67" v:mID="12260" v:groupContext="shape" transform="translate(334.48,-425.902)">
			<title>Sheet.12260</title>
			<path d="M0 841.7 L0 841.89" class="st1"/>
		</g>
		<g id="shape12261-70" v:mID="12261" v:groupContext="shape" transform="translate(328.336,-778.813)">
			<title>Sheet.12261</title>
			<path d="M0 841.89 L0 829.04" class="st1"/>
		</g>
		<g id="shape12262-73" v:mID="12262" v:groupContext="shape" transform="translate(328.336,-778.626)">
			<title>Sheet.12262</title>
			<path d="M0 841.7 L0 841.89" class="st1"/>
		</g>
		<g id="shape12263-76" v:mID="12263" v:groupContext="shape" transform="translate(328.336,-791.663)">
			<title>Sheet.12263</title>
			<path d="M-0 841.89 L32.02 841.89" class="st1"/>
		</g>
		<g id="shape12264-79" v:mID="12264" v:groupContext="shape" transform="translate(328.336,-791.477)">
			<title>Sheet.12264</title>
			<path d="M0 841.7 L0 841.89" class="st1"/>
		</g>
		<g id="shape12265-82" v:mID="12265" v:groupContext="shape" transform="translate(360.359,-778.813)">
			<title>Sheet.12265</title>
			<path d="M0 829.04 L0 841.89" class="st1"/>
		</g>
		<g id="shape12266-85" v:mID="12266" v:groupContext="shape" transform="translate(360.359,-791.477)">
			<title>Sheet.12266</title>
			<path d="M0 841.7 L0 841.89" class="st1"/>
		</g>
		<g id="shape12267-88" v:mID="12267" v:groupContext="shape" transform="translate(328.336,-424.598)">
			<title>Sheet.12267</title>
			<path d="M0 841.89 L0 840.4" class="st1"/>
		</g>
		<g id="shape12268-91" v:mID="12268" v:groupContext="shape" transform="translate(360.359,-778.626)">
			<title>Sheet.12268</title>
			<path d="M0 841.7 L0 841.89" class="st1"/>
		</g>
		<g id="shape12269-94" v:mID="12269" v:groupContext="shape" transform="translate(328.336,-426.088)">
			<title>Sheet.12269</title>
			<path d="M0 489.16 L0 841.89" class="st1"/>
		</g>
		<g id="shape12270-97" v:mID="12270" v:groupContext="shape" transform="translate(328.336,-425.902)">
			<title>Sheet.12270</title>
			<path d="M0 841.7 L0 841.89" class="st1"/>
		</g>
		<g id="shape12271-100" v:mID="12271" v:groupContext="shape" transform="translate(360.359,-426.088)">
			<title>Sheet.12271</title>
			<path d="M0 489.16 L0 841.89" class="st1"/>
		</g>
		<g id="shape12272-103" v:mID="12272" v:groupContext="shape" transform="translate(328.336,-425.902)">
			<title>Sheet.12272</title>
			<path d="M0 841.7 L0 841.89" class="st1"/>
		</g>
		<g id="shape12273-106" v:mID="12273" v:groupContext="shape" transform="translate(91.8817,-406.906)">
			<title>Sheet.12273</title>
			<path d="M0 841.89 L217.28 841.89" class="st1"/>
		</g>
		<g id="shape12274-109" v:mID="12274" v:groupContext="shape" transform="translate(360.359,-425.902)">
			<title>Sheet.12274</title>
			<path d="M0 841.7 L0 841.89" class="st1"/>
		</g>
		<g id="shape12275-112" v:mID="12275" v:groupContext="shape" transform="translate(56.6929,-387.724)">
			<title>Sheet.12275</title>
			<path d="M35.19 822.71 L30.53 822.89 L26.07 823.45 L21.78 824.2 L17.69 825.32 L13.78 826.8 L10.43 828.29 L7.26 830.34
						 L4.84 832.39 L2.79 834.63 L1.3 837.05 L0.37 839.47 L0 841.89" class="st1"/>
		</g>
		<g id="shape12276-115" v:mID="12276" v:groupContext="shape" transform="translate(309.159,-406.72)">
			<title>Sheet.12276</title>
			<path d="M0 841.7 L0 841.89" class="st1"/>
		</g>
		<g id="shape12277-118" v:mID="12277" v:groupContext="shape" transform="translate(56.6929,-387.724)">
			<title>Sheet.12277</title>
			<path d="M0 841.89 L0 790.86" class="st1"/>
		</g>
		<g id="shape12278-121" v:mID="12278" v:groupContext="shape" transform="translate(56.6929,-387.538)">
			<title>Sheet.12278</title>
			<path d="M0 841.7 L0 841.89" class="st1"/>
		</g>
		<g id="shape12279-124" v:mID="12279" v:groupContext="shape" transform="translate(56.6929,-426.088)">
			<title>Sheet.12279</title>
			<path d="M0 829.23 L0.37 830.9 L0.93 832.39 L1.86 834.07 L3.17 835.56 L4.84 836.86 L6.89 838.17 L9.31 839.28 L11.73 840.21
						 L14.52 840.96 L17.5 841.52 L20.48 841.89 L23.46 841.89" class="st1"/>
		</g>
		<g id="shape12280-127" v:mID="12280" v:groupContext="shape" transform="translate(56.6929,-438.566)">
			<title>Sheet.12280</title>
			<path d="M0 841.7 L0 841.89" class="st1"/>
		</g>
		<g id="shape12281-130" v:mID="12281" v:groupContext="shape" transform="translate(80.1521,-426.088)">
			<title>Sheet.12281</title>
			<path d="M0 841.89 L248.18 841.89" class="st1"/>
		</g>
		<g id="shape12282-133" v:mID="12282" v:groupContext="shape" transform="translate(80.1521,-425.902)">
			<title>Sheet.12282</title>
			<path d="M0 841.7 L0 841.89" class="st1"/>
		</g>
		<g id="shape12283-136" v:mID="12283" v:groupContext="shape" transform="translate(309.159,-406.533)">
			<title>Sheet.12283</title>
			<path d="M3.91 841.89 L2.98 841.7 L2.05 841.7 L0.93 841.52 L0 841.52" class="st1"/>
		</g>
		<g id="shape12284-139" v:mID="12284" v:groupContext="shape" transform="translate(328.336,-425.902)">
			<title>Sheet.12284</title>
			<path d="M0 841.7 L0 841.89" class="st1"/>
		</g>
		<g id="shape12285-142" v:mID="12285" v:groupContext="shape" transform="translate(328.336,-419.011)">
			<title>Sheet.12285</title>
			<path d="M0 841.89 L0 836.3" class="st1"/>
		</g>
		<g id="shape12286-145" v:mID="12286" v:groupContext="shape" transform="translate(309.159,-406.72)">
			<title>Sheet.12286</title>
			<path d="M0 841.7 L0 841.89" class="st1"/>
		</g>
		<g id="shape12287-148" v:mID="12287" v:groupContext="shape" transform="translate(309.159,-387.724)">
			<title>Sheet.12287</title>
			<path d="M0 822.71 L0 841.89" class="st1"/>
		</g>
		<g id="shape12288-151" v:mID="12288" v:groupContext="shape" transform="translate(328.336,-424.412)">
			<title>Sheet.12288</title>
			<path d="M0 841.7 L0 841.89" class="st1"/>
		</g>
		<g id="shape12289-154" v:mID="12289" v:groupContext="shape" transform="translate(56.6929,-387.724)">
			<title>Sheet.12289</title>
			<path d="M252.47 841.89 L-0 841.89" class="st1"/>
		</g>
		<g id="shape12290-157" v:mID="12290" v:groupContext="shape" transform="translate(309.159,-387.538)">
			<title>Sheet.12290</title>
			<path d="M0 841.7 L0 841.89" class="st1"/>
		</g>
		<g id="shape12291-160" v:mID="12291" v:groupContext="shape" transform="translate(309.159,-387.724)">
			<title>Sheet.12291</title>
			<path d="M19.18 841.89 L-0 841.89" class="st1"/>
		</g>
		<g id="shape12292-163" v:mID="12292" v:groupContext="shape" transform="translate(56.6929,-387.538)">
			<title>Sheet.12292</title>
			<path d="M0 841.7 L0 841.89" class="st1"/>
		</g>
		<g id="shape12293-166" v:mID="12293" v:groupContext="shape" transform="translate(309.159,-151.767)">
			<title>Sheet.12293</title>
			<path d="M0 841.89 L0 605.93" class="st1"/>
		</g>
		<g id="shape12294-169" v:mID="12294" v:groupContext="shape" transform="translate(309.159,-387.538)">
			<title>Sheet.12294</title>
			<path d="M0 841.7 L0 841.89" class="st1"/>
		</g>
		<g id="shape12295-172" v:mID="12295" v:groupContext="shape" transform="translate(56.6929,-438.752)">
			<title>Sheet.12295</title>
			<path d="M-0 841.89 L271.64 841.89" class="st1"/>
		</g>
		<g id="shape12296-175" v:mID="12296" v:groupContext="shape" transform="translate(309.159,-387.538)">
			<title>Sheet.12296</title>
			<path d="M0 841.7 L0 841.89" class="st1"/>
		</g>
		<g id="shape12297-178" v:mID="12297" v:groupContext="shape" transform="translate(328.336,-438.566)">
			<title>Sheet.12297</title>
			<path d="M0 841.7 L0 841.89" class="st1"/>
		</g>
		<g id="shape12298-181" v:mID="12298" v:groupContext="shape" transform="translate(240.829,-246.373)">
			<title>Sheet.12298</title>
			<path d="M21.6 830.9 L21.6 830.34 L21.6 829.78 L21.6 829.23 L21.41 828.67 L21.22 827.92 L21.04 827.36 L20.85 826.8 L20.67
						 826.25 L20.29 825.69 L20.11 825.32 L19.74 824.76 L19.36 824.2 L18.99 823.83 L18.43 823.27 L18.06 822.89
						 L17.69 822.52 L17.13 822.15 L16.57 821.78 L16.01 821.59 L15.64 821.22 L15.08 821.03 L14.52 820.85 L13.78
						 820.66 L13.22 820.47 L12.66 820.29 L12.1 820.29 L11.54 820.29 L10.8 820.1 L10.24 820.29 L9.68 820.29 L9.12
						 820.29 L8.38 820.47 L7.82 820.66 L7.26 820.85 L6.7 821.03 L6.14 821.22 L5.59 821.59 L5.03 821.78 L4.65 822.15
						 L4.1 822.52 L3.72 822.89 L3.17 823.27 L2.79 823.83 L2.42 824.2 L2.05 824.76 L1.68 825.32 L1.49 825.69 L1.12
						 826.25 L0.93 826.8 L0.74 827.36 L0.56 827.92 L0.37 828.67 L0.19 829.23 L0.19 829.78 L0 830.34 L0 830.9 L0
						 831.65 L0.19 832.21 L0.19 832.76 L0.37 833.32 L0.56 834.07 L0.74 834.63 L0.93 835.19 L1.12 835.74 L1.49
						 836.3 L1.68 836.68 L2.05 837.23 L2.42 837.79 L2.79 838.17 L3.17 838.72 L3.72 839.1 L4.1 839.47 L4.65 839.84
						 L5.03 840.21 L5.59 840.4 L6.14 840.77 L6.7 840.96 L7.26 841.14 L7.82 841.33 L8.38 841.52 L9.12 841.7 L9.68
						 841.7 L10.24 841.7 L10.8 841.89 L11.54 841.7 L12.1 841.7 L12.66 841.7 L13.22 841.52 L13.78 841.33 L14.52
						 841.14 L15.08 840.96 L15.64 840.77 L16.01 840.4 L16.57 840.21 L17.13 839.84 L17.69 839.47 L18.06 839.1 L18.43
						 838.72 L18.99 838.17 L19.36 837.79 L19.74 837.23 L20.11 836.68 L20.29 836.3 L20.67 835.74 L20.85 835.19
						 L21.04 834.63 L21.22 834.07 L21.41 833.32 L21.6 832.76 L21.6 832.21 L21.6 831.65 L21.6 830.9 L21.6 830.9"
					class="st1"/>
		</g>
		<g id="shape12299-184" v:mID="12299" v:groupContext="shape" transform="translate(238.967,-244.511)">
			<title>Sheet.12299</title>
			<path d="M25.51 829.04 L25.51 828.48 L25.51 827.74 L25.32 827.18 L25.32 826.43 L25.13 825.87 L24.95 825.13 L24.58 824.57
						 L24.39 824.01 L24.2 823.27 L23.83 822.71 L23.46 822.15 L23.09 821.59 L22.71 821.03 L22.16 820.66 L21.78
						 820.1 L21.22 819.54 L20.85 819.17 L20.29 818.8 L19.74 818.42 L19.18 818.05 L18.62 817.68 L17.87 817.49 L17.32
						 817.12 L16.76 816.93 L16.01 816.75 L15.45 816.56 L14.71 816.56 L14.15 816.38 L13.41 816.38 L12.66 816.38
						 L12.1 816.38 L11.36 816.38 L10.8 816.56 L10.05 816.56 L9.5 816.75 L8.75 816.93 L8.19 817.12 L7.45 817.49
						 L6.89 817.68 L6.33 818.05 L5.77 818.42 L5.21 818.8 L4.65 819.17 L4.1 819.54 L3.72 820.1 L3.17 820.66 L2.79
						 821.03 L2.42 821.59 L2.05 822.15 L1.68 822.71 L1.3 823.27 L1.12 824.01 L0.74 824.57 L0.56 825.13 L0.37 825.87
						 L0.19 826.43 L0.19 827.18 L0 827.74 L0 828.48 L0 829.04 L0 829.78 L0 830.53 L0.19 831.09 L0.19 831.83 L0.37
						 832.39 L0.56 833.14 L0.74 833.7 L1.12 834.25 L1.3 835 L1.68 835.56 L2.05 836.12 L2.42 836.68 L2.79 837.23
						 L3.17 837.61 L3.72 838.17 L4.1 838.72 L4.65 839.1 L5.21 839.47 L5.77 839.84 L6.33 840.21 L6.89 840.59 L7.45
						 840.77 L8.19 841.14 L8.75 841.33 L9.5 841.52 L10.05 841.7 L10.8 841.7 L11.36 841.89 L12.1 841.89 L12.66
						 841.89 L13.41 841.89 L14.15 841.89 L14.71 841.7 L15.45 841.7 L16.01 841.52 L16.76 841.33 L17.32 841.14 L17.87
						 840.77 L18.62 840.59 L19.18 840.21 L19.74 839.84 L20.29 839.47 L20.85 839.1 L21.22 838.72 L21.78 838.17
						 L22.16 837.61 L22.71 837.23 L23.09 836.68 L23.46 836.12 L23.83 835.56 L24.2 835 L24.39 834.25 L24.58 833.7
						 L24.95 833.14 L25.13 832.39 L25.32 831.83 L25.32 831.09 L25.51 830.53 L25.51 829.78 L25.51 829.04 L25.51
						 829.04" class="st1"/>
		</g>
		<g id="shape12300-187" v:mID="12300" v:groupContext="shape" transform="translate(138.614,-246.373)">
			<title>Sheet.12300</title>
			<path d="M21.6 830.9 L21.6 830.34 L21.6 829.78 L21.41 829.23 L21.41 828.67 L21.22 827.92 L21.04 827.36 L20.85 826.8 L20.67
						 826.25 L20.29 825.69 L19.92 825.32 L19.74 824.76 L19.36 824.2 L18.8 823.83 L18.43 823.27 L18.06 822.89 L17.5
						 822.52 L17.13 822.15 L16.57 821.78 L16.01 821.59 L15.45 821.22 L14.89 821.03 L14.34 820.85 L13.78 820.66
						 L13.22 820.47 L12.66 820.29 L12.1 820.29 L11.36 820.29 L10.8 820.1 L10.24 820.29 L9.68 820.29 L8.94 820.29
						 L8.38 820.47 L7.82 820.66 L7.26 820.85 L6.7 821.03 L6.14 821.22 L5.59 821.59 L5.03 821.78 L4.65 822.15 L4.1
						 822.52 L3.54 822.89 L3.17 823.27 L2.79 823.83 L2.42 824.2 L2.05 824.76 L1.68 825.32 L1.3 825.69 L1.12 826.25
						 L0.93 826.8 L0.56 827.36 L0.37 827.92 L0.37 828.67 L0.19 829.23 L0 829.78 L0 830.34 L0 830.9 L0 831.65 L0
						 832.21 L0.19 832.76 L0.37 833.32 L0.37 834.07 L0.56 834.63 L0.93 835.19 L1.12 835.74 L1.3 836.3 L1.68 836.68
						 L2.05 837.23 L2.42 837.79 L2.79 838.17 L3.17 838.72 L3.54 839.1 L4.1 839.47 L4.65 839.84 L5.03 840.21 L5.59
						 840.4 L6.14 840.77 L6.7 840.96 L7.26 841.14 L7.82 841.33 L8.38 841.52 L8.94 841.7 L9.68 841.7 L10.24 841.7
						 L10.8 841.89 L11.36 841.7 L12.1 841.7 L12.66 841.7 L13.22 841.52 L13.78 841.33 L14.34 841.14 L14.89 840.96
						 L15.45 840.77 L16.01 840.4 L16.57 840.21 L17.13 839.84 L17.5 839.47 L18.06 839.1 L18.43 838.72 L18.8 838.17
						 L19.36 837.79 L19.74 837.23 L19.92 836.68 L20.29 836.3 L20.67 835.74 L20.85 835.19 L21.04 834.63 L21.22
						 834.07 L21.41 833.32 L21.41 832.76 L21.6 832.21 L21.6 831.65 L21.6 830.9 L21.6 830.9" class="st1"/>
		</g>
		<g id="shape12301-190" v:mID="12301" v:groupContext="shape" transform="translate(136.752,-244.511)">
			<title>Sheet.12301</title>
			<path d="M25.51 829.04 L25.51 828.48 L25.32 827.74 L25.32 827.18 L25.13 826.43 L24.95 825.87 L24.76 825.13 L24.58 824.57
						 L24.39 824.01 L24.02 823.27 L23.83 822.71 L23.46 822.15 L23.09 821.59 L22.71 821.03 L22.16 820.66 L21.78
						 820.1 L21.22 819.54 L20.67 819.17 L20.29 818.8 L19.74 818.42 L19.18 818.05 L18.43 817.68 L17.87 817.49 L17.32
						 817.12 L16.57 816.93 L16.01 816.75 L15.27 816.56 L14.71 816.56 L13.96 816.38 L13.41 816.38 L12.66 816.38
						 L12.1 816.38 L11.36 816.38 L10.61 816.56 L10.05 816.56 L9.31 816.75 L8.75 816.93 L8.19 817.12 L7.45 817.49
						 L6.89 817.68 L6.33 818.05 L5.77 818.42 L5.21 818.8 L4.65 819.17 L4.1 819.54 L3.72 820.1 L3.17 820.66 L2.79
						 821.03 L2.42 821.59 L2.05 822.15 L1.68 822.71 L1.3 823.27 L0.93 824.01 L0.74 824.57 L0.56 825.13 L0.37 825.87
						 L0.19 826.43 L0 827.18 L0 827.74 L0 828.48 L0 829.04 L0 829.78 L0 830.53 L0 831.09 L0.19 831.83 L0.37 832.39
						 L0.56 833.14 L0.74 833.7 L0.93 834.25 L1.3 835 L1.68 835.56 L2.05 836.12 L2.42 836.68 L2.79 837.23 L3.17
						 837.61 L3.72 838.17 L4.1 838.72 L4.65 839.1 L5.21 839.47 L5.77 839.84 L6.33 840.21 L6.89 840.59 L7.45 840.77
						 L8.19 841.14 L8.75 841.33 L9.31 841.52 L10.05 841.7 L10.61 841.7 L11.36 841.89 L12.1 841.89 L12.66 841.89
						 L13.41 841.89 L13.96 841.89 L14.71 841.7 L15.27 841.7 L16.01 841.52 L16.57 841.33 L17.32 841.14 L17.87 840.77
						 L18.43 840.59 L19.18 840.21 L19.74 839.84 L20.29 839.47 L20.67 839.1 L21.22 838.72 L21.78 838.17 L22.16
						 837.61 L22.71 837.23 L23.09 836.68 L23.46 836.12 L23.83 835.56 L24.02 835 L24.39 834.25 L24.58 833.7 L24.76
						 833.14 L24.95 832.39 L25.13 831.83 L25.32 831.09 L25.32 830.53 L25.51 829.78 L25.51 829.04 L25.51 829.04"
					class="st1"/>
		</g>
		<g id="shape12302-193" v:mID="12302" v:groupContext="shape" transform="translate(240.829,-323.101)">
			<title>Sheet.12302</title>
			<path d="M21.6 831.09 L21.6 830.34 L21.6 829.78 L21.6 829.23 L21.41 828.67 L21.22 828.11 L21.04 827.36 L20.85 826.8 L20.67
						 826.25 L20.29 825.69 L20.11 825.32 L19.74 824.76 L19.36 824.2 L18.99 823.83 L18.43 823.45 L18.06 822.89
						 L17.69 822.52 L17.13 822.15 L16.57 821.78 L16.01 821.59 L15.64 821.22 L15.08 821.03 L14.52 820.85 L13.78
						 820.66 L13.22 820.47 L12.66 820.29 L12.1 820.29 L11.54 820.29 L10.8 820.29 L10.24 820.29 L9.68 820.29 L9.12
						 820.29 L8.38 820.47 L7.82 820.66 L7.26 820.85 L6.7 821.03 L6.14 821.22 L5.59 821.59 L5.03 821.78 L4.65 822.15
						 L4.1 822.52 L3.72 822.89 L3.17 823.45 L2.79 823.83 L2.42 824.2 L2.05 824.76 L1.68 825.32 L1.49 825.69 L1.12
						 826.25 L0.93 826.8 L0.74 827.36 L0.56 828.11 L0.37 828.67 L0.19 829.23 L0.19 829.78 L0 830.34 L0 831.09
						 L0 831.65 L0.19 832.21 L0.19 832.76 L0.37 833.51 L0.56 834.07 L0.74 834.63 L0.93 835.19 L1.12 835.74 L1.49
						 836.3 L1.68 836.68 L2.05 837.23 L2.42 837.79 L2.79 838.17 L3.17 838.72 L3.72 839.1 L4.1 839.47 L4.65 839.84
						 L5.03 840.21 L5.59 840.4 L6.14 840.77 L6.7 840.96 L7.26 841.14 L7.82 841.33 L8.38 841.52 L9.12 841.7 L9.68
						 841.7 L10.24 841.89 L10.8 841.89 L11.54 841.89 L12.1 841.7 L12.66 841.7 L13.22 841.52 L13.78 841.33 L14.52
						 841.14 L15.08 840.96 L15.64 840.77 L16.01 840.4 L16.57 840.21 L17.13 839.84 L17.69 839.47 L18.06 839.1 L18.43
						 838.72 L18.99 838.17 L19.36 837.79 L19.74 837.23 L20.11 836.68 L20.29 836.3 L20.67 835.74 L20.85 835.19
						 L21.04 834.63 L21.22 834.07 L21.41 833.51 L21.6 832.76 L21.6 832.21 L21.6 831.65 L21.6 831.09 L21.6 831.09"
					class="st1"/>
		</g>
		<g id="shape12303-196" v:mID="12303" v:groupContext="shape" transform="translate(238.967,-321.239)">
			<title>Sheet.12303</title>
			<path d="M25.51 829.23 L25.51 828.48 L25.51 827.74 L25.32 827.18 L25.32 826.43 L25.13 825.87 L24.95 825.13 L24.58 824.57
						 L24.39 824.01 L24.2 823.27 L23.83 822.71 L23.46 822.15 L23.09 821.59 L22.71 821.03 L22.16 820.66 L21.78
						 820.1 L21.22 819.73 L20.85 819.17 L20.29 818.8 L19.74 818.42 L19.18 818.05 L18.62 817.68 L17.87 817.49 L17.32
						 817.12 L16.76 816.93 L16.01 816.75 L15.45 816.56 L14.71 816.56 L14.15 816.38 L13.41 816.38 L12.66 816.38
						 L12.1 816.38 L11.36 816.38 L10.8 816.56 L10.05 816.56 L9.5 816.75 L8.75 816.93 L8.19 817.12 L7.45 817.49
						 L6.89 817.68 L6.33 818.05 L5.77 818.42 L5.21 818.8 L4.65 819.17 L4.1 819.73 L3.72 820.1 L3.17 820.66 L2.79
						 821.03 L2.42 821.59 L2.05 822.15 L1.68 822.71 L1.3 823.27 L1.12 824.01 L0.74 824.57 L0.56 825.13 L0.37 825.87
						 L0.19 826.43 L0.19 827.18 L0 827.74 L0 828.48 L0 829.23 L0 829.78 L0 830.53 L0.19 831.09 L0.19 831.83 L0.37
						 832.39 L0.56 833.14 L0.74 833.7 L1.12 834.44 L1.3 835 L1.68 835.56 L2.05 836.12 L2.42 836.68 L2.79 837.23
						 L3.17 837.79 L3.72 838.17 L4.1 838.72 L4.65 839.1 L5.21 839.47 L5.77 839.84 L6.33 840.21 L6.89 840.59 L7.45
						 840.77 L8.19 841.14 L8.75 841.33 L9.5 841.52 L10.05 841.7 L10.8 841.7 L11.36 841.89 L12.1 841.89 L12.66
						 841.89 L13.41 841.89 L14.15 841.89 L14.71 841.7 L15.45 841.7 L16.01 841.52 L16.76 841.33 L17.32 841.14 L17.87
						 840.77 L18.62 840.59 L19.18 840.21 L19.74 839.84 L20.29 839.47 L20.85 839.1 L21.22 838.72 L21.78 838.17
						 L22.16 837.79 L22.71 837.23 L23.09 836.68 L23.46 836.12 L23.83 835.56 L24.2 835 L24.39 834.44 L24.58 833.7
						 L24.95 833.14 L25.13 832.39 L25.32 831.83 L25.32 831.09 L25.51 830.53 L25.51 829.78 L25.51 829.23 L25.51
						 829.23" class="st1"/>
		</g>
		<g id="shape12304-199" v:mID="12304" v:groupContext="shape" transform="translate(309.159,-439.497)">
			<title>Sheet.12304</title>
			<path d="M0 841.89 L0.93 841.89 L1.68 841.89 L2.61 841.7 L3.35 841.7 L4.28 841.52 L5.03 841.33 L5.77 840.96 L6.7 840.77
						 L7.45 840.4 L8.19 840.21 L8.94 839.84 L9.68 839.28 L10.43 838.91 L10.98 838.54 L11.73 837.98 L12.29 837.42
						 L13.03 836.86 L13.59 836.3 L14.15 835.74 L14.71 835 L15.27 834.44 L15.83 833.7 L16.2 833.14 L16.57 832.39
						 L17.13 831.65 L17.5 830.9 L17.69 830.16 L18.06 829.23 L18.43 828.48 L18.62 827.74 L18.8 826.99 L18.99 826.06
						 L18.99 825.32 L19.18 824.38 L19.18 823.64 L19.18 822.71" class="st1"/>
		</g>
		<g id="shape12305-202" v:mID="12305" v:groupContext="shape" transform="translate(56.6929,-438.752)">
			<title>Sheet.12305</title>
			<path d="M0 841.14 L0 841.89" class="st1"/>
		</g>
		<g id="shape12306-205" v:mID="12306" v:groupContext="shape" transform="translate(328.336,-458.492)">
			<title>Sheet.12306</title>
			<path d="M0 841.7 L0 841.89" class="st1"/>
		</g>
		<g id="shape12307-208" v:mID="12307" v:groupContext="shape" transform="translate(56.6929,-439.497)">
			<title>Sheet.12307</title>
			<path d="M252.47 841.89 L-0 841.89" class="st1"/>
		</g>
		<g id="shape12308-211" v:mID="12308" v:groupContext="shape" transform="translate(56.6929,-438.566)">
			<title>Sheet.12308</title>
			<path d="M0 841.7 L0 841.89" class="st1"/>
		</g>
		<g id="shape12309-214" v:mID="12309" v:groupContext="shape" transform="translate(56.6929,-151.767)">
			<title>Sheet.12309</title>
			<path d="M-0 841.89 L252.47 841.89" class="st1"/>
		</g>
		<g id="shape12310-217" v:mID="12310" v:groupContext="shape" transform="translate(56.6929,-439.31)">
			<title>Sheet.12310</title>
			<path d="M0 841.7 L0 841.89" class="st1"/>
		</g>
		<g id="shape12311-220" v:mID="12311" v:groupContext="shape" transform="translate(309.159,-151.581)">
			<title>Sheet.12311</title>
			<path d="M0 841.7 L0 841.89" class="st1"/>
		</g>
		<g id="shape12312-223" v:mID="12312" v:groupContext="shape" transform="translate(136.752,-321.239)">
			<title>Sheet.12312</title>
			<path d="M25.51 829.23 L25.51 828.48 L25.32 827.74 L25.32 827.18 L25.13 826.43 L24.95 825.87 L24.76 825.13 L24.58 824.57
						 L24.39 824.01 L24.02 823.27 L23.83 822.71 L23.46 822.15 L23.09 821.59 L22.71 821.03 L22.16 820.66 L21.78
						 820.1 L21.22 819.73 L20.67 819.17 L20.29 818.8 L19.74 818.42 L19.18 818.05 L18.43 817.68 L17.87 817.49 L17.32
						 817.12 L16.57 816.93 L16.01 816.75 L15.27 816.56 L14.71 816.56 L13.96 816.38 L13.41 816.38 L12.66 816.38
						 L12.1 816.38 L11.36 816.38 L10.61 816.56 L10.05 816.56 L9.31 816.75 L8.75 816.93 L8.19 817.12 L7.45 817.49
						 L6.89 817.68 L6.33 818.05 L5.77 818.42 L5.21 818.8 L4.65 819.17 L4.1 819.73 L3.72 820.1 L3.17 820.66 L2.79
						 821.03 L2.42 821.59 L2.05 822.15 L1.68 822.71 L1.3 823.27 L0.93 824.01 L0.74 824.57 L0.56 825.13 L0.37 825.87
						 L0.19 826.43 L0 827.18 L0 827.74 L0 828.48 L0 829.23 L0 829.78 L0 830.53 L0 831.09 L0.19 831.83 L0.37 832.39
						 L0.56 833.14 L0.74 833.7 L0.93 834.44 L1.3 835 L1.68 835.56 L2.05 836.12 L2.42 836.68 L2.79 837.23 L3.17
						 837.79 L3.72 838.17 L4.1 838.72 L4.65 839.1 L5.21 839.47 L5.77 839.84 L6.33 840.21 L6.89 840.59 L7.45 840.77
						 L8.19 841.14 L8.75 841.33 L9.31 841.52 L10.05 841.7 L10.61 841.7 L11.36 841.89 L12.1 841.89 L12.66 841.89
						 L13.41 841.89 L13.96 841.89 L14.71 841.7 L15.27 841.7 L16.01 841.52 L16.57 841.33 L17.32 841.14 L17.87 840.77
						 L18.43 840.59 L19.18 840.21 L19.74 839.84 L20.29 839.47 L20.67 839.1 L21.22 838.72 L21.78 838.17 L22.16
						 837.79 L22.71 837.23 L23.09 836.68 L23.46 836.12 L23.83 835.56 L24.02 835 L24.39 834.44 L24.58 833.7 L24.76
						 833.14 L24.95 832.39 L25.13 831.83 L25.32 831.09 L25.32 830.53 L25.51 829.78 L25.51 829.23 L25.51 829.23"
					class="st1"/>
		</g>
		<g id="shape12313-226" v:mID="12313" v:groupContext="shape" transform="translate(56.6929,-151.767)">
			<title>Sheet.12313</title>
			<path d="M0 605.93 L0 841.89" class="st1"/>
		</g>
		<g id="shape12314-229" v:mID="12314" v:groupContext="shape" transform="translate(56.6929,-151.581)">
			<title>Sheet.12314</title>
			<path d="M0 841.7 L0 841.89" class="st1"/>
		</g>
		<g id="shape12315-232" v:mID="12315" v:groupContext="shape" transform="translate(138.614,-323.101)">
			<title>Sheet.12315</title>
			<path d="M21.6 831.09 L21.6 830.34 L21.6 829.78 L21.41 829.23 L21.41 828.67 L21.22 828.11 L21.04 827.36 L20.85 826.8
						 L20.67 826.25 L20.29 825.69 L19.92 825.32 L19.74 824.76 L19.36 824.2 L18.8 823.83 L18.43 823.45 L18.06 822.89
						 L17.5 822.52 L17.13 822.15 L16.57 821.78 L16.01 821.59 L15.45 821.22 L14.89 821.03 L14.34 820.85 L13.78
						 820.66 L13.22 820.47 L12.66 820.29 L12.1 820.29 L11.36 820.29 L10.8 820.29 L10.24 820.29 L9.68 820.29 L8.94
						 820.29 L8.38 820.47 L7.82 820.66 L7.26 820.85 L6.7 821.03 L6.14 821.22 L5.59 821.59 L5.03 821.78 L4.65 822.15
						 L4.1 822.52 L3.54 822.89 L3.17 823.45 L2.79 823.83 L2.42 824.2 L2.05 824.76 L1.68 825.32 L1.3 825.69 L1.12
						 826.25 L0.93 826.8 L0.56 827.36 L0.37 828.11 L0.37 828.67 L0.19 829.23 L0 829.78 L0 830.34 L0 831.09 L0
						 831.65 L0 832.21 L0.19 832.76 L0.37 833.51 L0.37 834.07 L0.56 834.63 L0.93 835.19 L1.12 835.74 L1.3 836.3
						 L1.68 836.68 L2.05 837.23 L2.42 837.79 L2.79 838.17 L3.17 838.72 L3.54 839.1 L4.1 839.47 L4.65 839.84 L5.03
						 840.21 L5.59 840.4 L6.14 840.77 L6.7 840.96 L7.26 841.14 L7.82 841.33 L8.38 841.52 L8.94 841.7 L9.68 841.7
						 L10.24 841.89 L10.8 841.89 L11.36 841.89 L12.1 841.7 L12.66 841.7 L13.22 841.52 L13.78 841.33 L14.34 841.14
						 L14.89 840.96 L15.45 840.77 L16.01 840.4 L16.57 840.21 L17.13 839.84 L17.5 839.47 L18.06 839.1 L18.43 838.72
						 L18.8 838.17 L19.36 837.79 L19.74 837.23 L19.92 836.68 L20.29 836.3 L20.67 835.74 L20.85 835.19 L21.04 834.63
						 L21.22 834.07 L21.41 833.51 L21.41 832.76 L21.6 832.21 L21.6 831.65 L21.6 831.09 L21.6 831.09" class="st1"/>
		</g>
		<g id="shape12316-235" v:mID="12316" v:groupContext="shape" transform="translate(139.917,-247.677)">
			<title>Sheet.12316</title>
			<path d="M19.18 832.21 L19.18 831.65 L18.99 831.09 L18.99 830.53 L18.8 829.97 L18.62 829.41 L18.43 828.85 L18.25 828.29
						 L18.06 827.92 L17.69 827.36 L17.5 826.8 L17.13 826.43 L16.76 825.87 L16.38 825.5 L15.83 825.13 L15.45 824.76
						 L14.89 824.38 L14.52 824.01 L13.96 823.83 L13.41 823.64 L12.85 823.27 L12.47 823.08 L11.92 822.89 L11.17
						 822.89 L10.61 822.71 L10.05 822.71 L9.5 822.71 L8.94 822.71 L8.38 822.71 L7.82 822.89 L7.26 822.89 L6.7
						 823.08 L6.14 823.27 L5.59 823.64 L5.03 823.83 L4.65 824.01 L4.1 824.38 L3.54 824.76 L3.17 825.13 L2.79 825.5
						 L2.42 825.87 L2.05 826.43 L1.68 826.8 L1.3 827.36 L1.12 827.92 L0.74 828.29 L0.56 828.85 L0.37 829.41 L0.19
						 829.97 L0.19 830.53 L0 831.09 L0 831.65 L0 832.21 L0 832.95 L0 833.51 L0.19 834.07 L0.19 834.63 L0.37 835.19
						 L0.56 835.74 L0.74 836.3 L1.12 836.68 L1.3 837.23 L1.68 837.79 L2.05 838.17 L2.42 838.72 L2.79 839.1 L3.17
						 839.47 L3.54 839.84 L4.1 840.21 L4.65 840.59 L5.03 840.77 L5.59 840.96 L6.14 841.33 L6.7 841.52 L7.26 841.52
						 L7.82 841.7 L8.38 841.89 L8.94 841.89 L9.5 841.89 L10.05 841.89 L10.61 841.89 L11.17 841.7 L11.92 841.52
						 L12.47 841.52 L12.85 841.33 L13.41 840.96 L13.96 840.77 L14.52 840.59 L14.89 840.21 L15.45 839.84 L15.83
						 839.47 L16.38 839.1 L16.76 838.72 L17.13 838.17 L17.5 837.79 L17.69 837.23 L18.06 836.68 L18.25 836.3 L18.43
						 835.74 L18.62 835.19 L18.8 834.63 L18.99 834.07 L18.99 833.51 L19.18 832.95 L19.18 832.21 L19.18 832.21"
					class="st1"/>
		</g>
		<g id="shape12317-238" v:mID="12317" v:groupContext="shape" transform="translate(242.132,-324.405)">
			<title>Sheet.12317</title>
			<path d="M19.18 832.39 L19.18 831.65 L18.99 831.09 L18.99 830.53 L18.8 829.97 L18.8 829.41 L18.62 828.85 L18.25 828.29
						 L18.06 827.92 L17.69 827.36 L17.5 826.8 L17.13 826.43 L16.76 825.87 L16.38 825.5 L16.01 825.13 L15.45 824.76
						 L15.08 824.38 L14.52 824.2 L13.96 823.83 L13.59 823.64 L13.03 823.27 L12.47 823.08 L11.92 823.08 L11.36
						 822.89 L10.8 822.71 L10.05 822.71 L9.5 822.71 L8.94 822.71 L8.38 822.71 L7.82 822.89 L7.26 823.08 L6.7 823.08
						 L6.14 823.27 L5.59 823.64 L5.03 823.83 L4.65 824.2 L4.1 824.38 L3.72 824.76 L3.17 825.13 L2.79 825.5 L2.42
						 825.87 L2.05 826.43 L1.68 826.8 L1.3 827.36 L1.12 827.92 L0.74 828.29 L0.56 828.85 L0.37 829.41 L0.19 829.97
						 L0.19 830.53 L0 831.09 L0 831.65 L0 832.39 L0 832.95 L0 833.51 L0.19 834.07 L0.19 834.63 L0.37 835.19 L0.56
						 835.74 L0.74 836.3 L1.12 836.86 L1.3 837.23 L1.68 837.79 L2.05 838.17 L2.42 838.72 L2.79 839.1 L3.17 839.47
						 L3.72 839.84 L4.1 840.21 L4.65 840.59 L5.03 840.77 L5.59 841.14 L6.14 841.33 L6.7 841.52 L7.26 841.7 L7.82
						 841.7 L8.38 841.89 L8.94 841.89 L9.5 841.89 L10.05 841.89 L10.8 841.89 L11.36 841.7 L11.92 841.7 L12.47
						 841.52 L13.03 841.33 L13.59 841.14 L13.96 840.77 L14.52 840.59 L15.08 840.21 L15.45 839.84 L16.01 839.47
						 L16.38 839.1 L16.76 838.72 L17.13 838.17 L17.5 837.79 L17.69 837.23 L18.06 836.86 L18.25 836.3 L18.62 835.74
						 L18.8 835.19 L18.8 834.63 L18.99 834.07 L18.99 833.51 L19.18 832.95 L19.18 832.39 L19.18 832.39"
					class="st1"/>
		</g>
		<g id="shape12318-241" v:mID="12318" v:groupContext="shape" transform="translate(139.917,-324.405)">
			<title>Sheet.12318</title>
			<path d="M19.18 832.39 L19.18 831.65 L18.99 831.09 L18.99 830.53 L18.8 829.97 L18.62 829.41 L18.43 828.85 L18.25 828.29
						 L18.06 827.92 L17.69 827.36 L17.5 826.8 L17.13 826.43 L16.76 825.87 L16.38 825.5 L15.83 825.13 L15.45 824.76
						 L14.89 824.38 L14.52 824.2 L13.96 823.83 L13.41 823.64 L12.85 823.27 L12.47 823.08 L11.92 823.08 L11.17
						 822.89 L10.61 822.71 L10.05 822.71 L9.5 822.71 L8.94 822.71 L8.38 822.71 L7.82 822.89 L7.26 823.08 L6.7
						 823.08 L6.14 823.27 L5.59 823.64 L5.03 823.83 L4.65 824.2 L4.1 824.38 L3.54 824.76 L3.17 825.13 L2.79 825.5
						 L2.42 825.87 L2.05 826.43 L1.68 826.8 L1.3 827.36 L1.12 827.92 L0.74 828.29 L0.56 828.85 L0.37 829.41 L0.19
						 829.97 L0.19 830.53 L0 831.09 L0 831.65 L0 832.39 L0 832.95 L0 833.51 L0.19 834.07 L0.19 834.63 L0.37 835.19
						 L0.56 835.74 L0.74 836.3 L1.12 836.86 L1.3 837.23 L1.68 837.79 L2.05 838.17 L2.42 838.72 L2.79 839.1 L3.17
						 839.47 L3.54 839.84 L4.1 840.21 L4.65 840.59 L5.03 840.77 L5.59 841.14 L6.14 841.33 L6.7 841.52 L7.26 841.7
						 L7.82 841.7 L8.38 841.89 L8.94 841.89 L9.5 841.89 L10.05 841.89 L10.61 841.89 L11.17 841.7 L11.92 841.7
						 L12.47 841.52 L12.85 841.33 L13.41 841.14 L13.96 840.77 L14.52 840.59 L14.89 840.21 L15.45 839.84 L15.83
						 839.47 L16.38 839.1 L16.76 838.72 L17.13 838.17 L17.5 837.79 L17.69 837.23 L18.06 836.86 L18.25 836.3 L18.43
						 835.74 L18.62 835.19 L18.8 834.63 L18.99 834.07 L18.99 833.51 L19.18 832.95 L19.18 832.39 L19.18 832.39"
					class="st1"/>
		</g>
		<g id="shape12319-244" v:mID="12319" v:groupContext="shape" transform="translate(242.132,-247.677)">
			<title>Sheet.12319</title>
			<path d="M19.18 832.21 L19.18 831.65 L18.99 831.09 L18.99 830.53 L18.8 829.97 L18.8 829.41 L18.62 828.85 L18.25 828.29
						 L18.06 827.92 L17.69 827.36 L17.5 826.8 L17.13 826.43 L16.76 825.87 L16.38 825.5 L16.01 825.13 L15.45 824.76
						 L15.08 824.38 L14.52 824.01 L13.96 823.83 L13.59 823.64 L13.03 823.27 L12.47 823.08 L11.92 822.89 L11.36
						 822.89 L10.8 822.71 L10.05 822.71 L9.5 822.71 L8.94 822.71 L8.38 822.71 L7.82 822.89 L7.26 822.89 L6.7 823.08
						 L6.14 823.27 L5.59 823.64 L5.03 823.83 L4.65 824.01 L4.1 824.38 L3.72 824.76 L3.17 825.13 L2.79 825.5 L2.42
						 825.87 L2.05 826.43 L1.68 826.8 L1.3 827.36 L1.12 827.92 L0.74 828.29 L0.56 828.85 L0.37 829.41 L0.19 829.97
						 L0.19 830.53 L0 831.09 L0 831.65 L0 832.21 L0 832.95 L0 833.51 L0.19 834.07 L0.19 834.63 L0.37 835.19 L0.56
						 835.74 L0.74 836.3 L1.12 836.68 L1.3 837.23 L1.68 837.79 L2.05 838.17 L2.42 838.72 L2.79 839.1 L3.17 839.47
						 L3.72 839.84 L4.1 840.21 L4.65 840.59 L5.03 840.77 L5.59 840.96 L6.14 841.33 L6.7 841.52 L7.26 841.52 L7.82
						 841.7 L8.38 841.89 L8.94 841.89 L9.5 841.89 L10.05 841.89 L10.8 841.89 L11.36 841.7 L11.92 841.52 L12.47
						 841.52 L13.03 841.33 L13.59 840.96 L13.96 840.77 L14.52 840.59 L15.08 840.21 L15.45 839.84 L16.01 839.47
						 L16.38 839.1 L16.76 838.72 L17.13 838.17 L17.5 837.79 L17.69 837.23 L18.06 836.68 L18.25 836.3 L18.62 835.74
						 L18.8 835.19 L18.8 834.63 L18.99 834.07 L18.99 833.51 L19.18 832.95 L19.18 832.21 L19.18 832.21"
					class="st1"/>
		</g>
		<g id="shape12320-247" v:mID="12320" v:groupContext="shape" transform="translate(149.413,-333.903)">
			<title>Sheet.12320</title>
			<path d="M0 841.89 L0 825.87" class="st1"/>
		</g>
		<g id="shape12321-250" v:mID="12321" v:groupContext="shape" transform="translate(133.401,-333.903)">
			<title>Sheet.12321</title>
			<path d="M16.01 841.89 L-0 841.89" class="st1"/>
		</g>
		<g id="shape12322-253" v:mID="12322" v:groupContext="shape" transform="translate(149.413,-349.733)">
			<title>Sheet.12322</title>
			<path d="M0 841.7 L0 841.89" class="st1"/>
		</g>
		<g id="shape12323-256" v:mID="12323" v:groupContext="shape" transform="translate(149.413,-318.073)">
			<title>Sheet.12323</title>
			<path d="M0 826.06 L0 841.89" class="st1"/>
		</g>
		<g id="shape12324-259" v:mID="12324" v:groupContext="shape" transform="translate(133.401,-333.716)">
			<title>Sheet.12324</title>
			<path d="M0 841.7 L0 841.89" class="st1"/>
		</g>
		<g id="shape12325-262" v:mID="12325" v:groupContext="shape" transform="translate(149.413,-333.903)">
			<title>Sheet.12325</title>
			<path d="M-0 841.89 L16.01 841.89" class="st1"/>
		</g>
		<g id="shape12326-265" v:mID="12326" v:groupContext="shape" transform="translate(149.413,-317.887)">
			<title>Sheet.12326</title>
			<path d="M0 841.7 L0 841.89" class="st1"/>
		</g>
		<g id="shape12327-268" v:mID="12327" v:groupContext="shape" transform="translate(149.413,-349.919)">
			<title>Sheet.12327</title>
			<path d="M0 841.89 L0 832.21" class="st1"/>
		</g>
		<g id="shape12328-271" v:mID="12328" v:groupContext="shape" transform="translate(165.424,-333.716)">
			<title>Sheet.12328</title>
			<path d="M0 841.7 L0 841.89" class="st1"/>
		</g>
		<g id="shape12329-274" v:mID="12329" v:groupContext="shape" transform="translate(123.905,-333.903)">
			<title>Sheet.12329</title>
			<path d="M9.5 841.89 L0 841.89" class="st1"/>
		</g>
		<g id="shape12330-277" v:mID="12330" v:groupContext="shape" transform="translate(149.413,-359.417)">
			<title>Sheet.12330</title>
			<path d="M0 841.7 L0 841.89" class="st1"/>
		</g>
		<g id="shape12331-280" v:mID="12331" v:groupContext="shape" transform="translate(149.413,-308.389)">
			<title>Sheet.12331</title>
			<path d="M0 832.21 L0 841.89" class="st1"/>
		</g>
		<g id="shape12332-283" v:mID="12332" v:groupContext="shape" transform="translate(123.905,-333.716)">
			<title>Sheet.12332</title>
			<path d="M0 841.7 L0 841.89" class="st1"/>
		</g>
		<g id="shape12333-286" v:mID="12333" v:groupContext="shape" transform="translate(165.424,-333.903)">
			<title>Sheet.12333</title>
			<path d="M-0 841.89 L9.5 841.89" class="st1"/>
		</g>
		<g id="shape12334-289" v:mID="12334" v:groupContext="shape" transform="translate(149.413,-308.203)">
			<title>Sheet.12334</title>
			<path d="M0 841.7 L0 841.89" class="st1"/>
		</g>
		<g id="shape12335-292" v:mID="12335" v:groupContext="shape" transform="translate(251.628,-333.903)">
			<title>Sheet.12335</title>
			<path d="M0 841.89 L0 825.87" class="st1"/>
		</g>
		<g id="shape12336-295" v:mID="12336" v:groupContext="shape" transform="translate(174.92,-333.716)">
			<title>Sheet.12336</title>
			<path d="M0 841.7 L0 841.89" class="st1"/>
		</g>
		<g id="shape12337-298" v:mID="12337" v:groupContext="shape" transform="translate(235.802,-333.903)">
			<title>Sheet.12337</title>
			<path d="M15.83 841.89 L0 841.89" class="st1"/>
		</g>
		<g id="shape12338-301" v:mID="12338" v:groupContext="shape" transform="translate(251.628,-349.733)">
			<title>Sheet.12338</title>
			<path d="M0 841.7 L0 841.89" class="st1"/>
		</g>
		<g id="shape12339-304" v:mID="12339" v:groupContext="shape" transform="translate(251.628,-318.073)">
			<title>Sheet.12339</title>
			<path d="M0 826.06 L0 841.89" class="st1"/>
		</g>
		<g id="shape12340-307" v:mID="12340" v:groupContext="shape" transform="translate(235.802,-333.716)">
			<title>Sheet.12340</title>
			<path d="M0 841.7 L0 841.89" class="st1"/>
		</g>
		<g id="shape12341-310" v:mID="12341" v:groupContext="shape" transform="translate(251.628,-333.903)">
			<title>Sheet.12341</title>
			<path d="M-0 841.89 L16.01 841.89" class="st1"/>
		</g>
		<g id="shape12342-313" v:mID="12342" v:groupContext="shape" transform="translate(251.628,-317.887)">
			<title>Sheet.12342</title>
			<path d="M0 841.7 L0 841.89" class="st1"/>
		</g>
		<g id="shape12343-316" v:mID="12343" v:groupContext="shape" transform="translate(251.628,-349.919)">
			<title>Sheet.12343</title>
			<path d="M0 841.89 L0 832.21" class="st1"/>
		</g>
		<g id="shape12344-319" v:mID="12344" v:groupContext="shape" transform="translate(267.64,-333.716)">
			<title>Sheet.12344</title>
			<path d="M0 841.7 L0 841.89" class="st1"/>
		</g>
		<g id="shape12345-322" v:mID="12345" v:groupContext="shape" transform="translate(226.12,-333.903)">
			<title>Sheet.12345</title>
			<path d="M9.68 841.89 L0 841.89" class="st1"/>
		</g>
		<g id="shape12346-325" v:mID="12346" v:groupContext="shape" transform="translate(251.628,-359.417)">
			<title>Sheet.12346</title>
			<path d="M0 841.7 L0 841.89" class="st1"/>
		</g>
		<g id="shape12347-328" v:mID="12347" v:groupContext="shape" transform="translate(251.628,-308.389)">
			<title>Sheet.12347</title>
			<path d="M0 832.21 L0 841.89" class="st1"/>
		</g>
		<g id="shape12348-331" v:mID="12348" v:groupContext="shape" transform="translate(226.12,-333.716)">
			<title>Sheet.12348</title>
			<path d="M0 841.7 L0 841.89" class="st1"/>
		</g>
		<g id="shape12349-334" v:mID="12349" v:groupContext="shape" transform="translate(267.64,-333.903)">
			<title>Sheet.12349</title>
			<path d="M0 841.89 L9.68 841.89" class="st1"/>
		</g>
		<g id="shape12350-337" v:mID="12350" v:groupContext="shape" transform="translate(251.628,-308.203)">
			<title>Sheet.12350</title>
			<path d="M0 841.7 L0 841.89" class="st1"/>
		</g>
		<g id="shape12351-340" v:mID="12351" v:groupContext="shape" transform="translate(251.628,-257.361)">
			<title>Sheet.12351</title>
			<path d="M0 841.89 L0 826.06" class="st1"/>
		</g>
		<g id="shape12352-343" v:mID="12352" v:groupContext="shape" transform="translate(277.321,-333.716)">
			<title>Sheet.12352</title>
			<path d="M0 841.7 L0 841.89" class="st1"/>
		</g>
		<g id="shape12353-346" v:mID="12353" v:groupContext="shape" transform="translate(235.802,-257.361)">
			<title>Sheet.12353</title>
			<path d="M15.83 841.89 L0 841.89" class="st1"/>
		</g>
		<g id="shape12354-349" v:mID="12354" v:groupContext="shape" transform="translate(251.628,-273.005)">
			<title>Sheet.12354</title>
			<path d="M0 841.7 L0 841.89" class="st1"/>
		</g>
		<g id="shape12355-352" v:mID="12355" v:groupContext="shape" transform="translate(251.628,-241.345)">
			<title>Sheet.12355</title>
			<path d="M0 825.87 L0 841.89" class="st1"/>
		</g>
		<g id="shape12356-355" v:mID="12356" v:groupContext="shape" transform="translate(235.802,-257.175)">
			<title>Sheet.12356</title>
			<path d="M0 841.7 L0 841.89" class="st1"/>
		</g>
		<g id="shape12357-358" v:mID="12357" v:groupContext="shape" transform="translate(251.628,-257.361)">
			<title>Sheet.12357</title>
			<path d="M-0 841.89 L16.01 841.89" class="st1"/>
		</g>
		<g id="shape12358-361" v:mID="12358" v:groupContext="shape" transform="translate(251.628,-241.159)">
			<title>Sheet.12358</title>
			<path d="M0 841.7 L0 841.89" class="st1"/>
		</g>
		<g id="shape12359-364" v:mID="12359" v:groupContext="shape" transform="translate(251.628,-273.191)">
			<title>Sheet.12359</title>
			<path d="M0 841.89 L0 832.21" class="st1"/>
		</g>
		<g id="shape12360-367" v:mID="12360" v:groupContext="shape" transform="translate(267.64,-257.175)">
			<title>Sheet.12360</title>
			<path d="M0 841.7 L0 841.89" class="st1"/>
		</g>
		<g id="shape12361-370" v:mID="12361" v:groupContext="shape" transform="translate(226.12,-257.361)">
			<title>Sheet.12361</title>
			<path d="M9.68 841.89 L0 841.89" class="st1"/>
		</g>
		<g id="shape12362-373" v:mID="12362" v:groupContext="shape" transform="translate(251.628,-282.689)">
			<title>Sheet.12362</title>
			<path d="M0 841.7 L0 841.89" class="st1"/>
		</g>
		<g id="shape12363-376" v:mID="12363" v:groupContext="shape" transform="translate(251.628,-231.661)">
			<title>Sheet.12363</title>
			<path d="M0 832.21 L0 841.89" class="st1"/>
		</g>
		<g id="shape12364-379" v:mID="12364" v:groupContext="shape" transform="translate(226.12,-257.175)">
			<title>Sheet.12364</title>
			<path d="M0 841.7 L0 841.89" class="st1"/>
		</g>
		<g id="shape12365-382" v:mID="12365" v:groupContext="shape" transform="translate(267.64,-257.361)">
			<title>Sheet.12365</title>
			<path d="M0 841.89 L9.68 841.89" class="st1"/>
		</g>
		<g id="shape12366-385" v:mID="12366" v:groupContext="shape" transform="translate(251.628,-231.475)">
			<title>Sheet.12366</title>
			<path d="M0 841.7 L0 841.89" class="st1"/>
		</g>
		<g id="shape12367-388" v:mID="12367" v:groupContext="shape" transform="translate(149.413,-257.361)">
			<title>Sheet.12367</title>
			<path d="M0 841.89 L0 826.06" class="st1"/>
		</g>
		<g id="shape12368-391" v:mID="12368" v:groupContext="shape" transform="translate(277.321,-257.175)">
			<title>Sheet.12368</title>
			<path d="M0 841.7 L0 841.89" class="st1"/>
		</g>
		<g id="shape12369-394" v:mID="12369" v:groupContext="shape" transform="translate(133.401,-257.361)">
			<title>Sheet.12369</title>
			<path d="M16.01 841.89 L-0 841.89" class="st1"/>
		</g>
		<g id="shape12370-397" v:mID="12370" v:groupContext="shape" transform="translate(149.413,-273.005)">
			<title>Sheet.12370</title>
			<path d="M0 841.7 L0 841.89" class="st1"/>
		</g>
		<g id="shape12371-400" v:mID="12371" v:groupContext="shape" transform="translate(149.413,-241.345)">
			<title>Sheet.12371</title>
			<path d="M0 825.87 L0 841.89" class="st1"/>
		</g>
		<g id="shape12372-403" v:mID="12372" v:groupContext="shape" transform="translate(133.401,-257.175)">
			<title>Sheet.12372</title>
			<path d="M0 841.7 L0 841.89" class="st1"/>
		</g>
		<g id="shape12373-406" v:mID="12373" v:groupContext="shape" transform="translate(149.413,-257.361)">
			<title>Sheet.12373</title>
			<path d="M-0 841.89 L16.01 841.89" class="st1"/>
		</g>
		<g id="shape12374-409" v:mID="12374" v:groupContext="shape" transform="translate(149.413,-241.159)">
			<title>Sheet.12374</title>
			<path d="M0 841.7 L0 841.89" class="st1"/>
		</g>
		<g id="shape12375-412" v:mID="12375" v:groupContext="shape" transform="translate(149.413,-273.191)">
			<title>Sheet.12375</title>
			<path d="M0 841.89 L0 832.21" class="st1"/>
		</g>
		<g id="shape12376-415" v:mID="12376" v:groupContext="shape" transform="translate(165.424,-257.175)">
			<title>Sheet.12376</title>
			<path d="M0 841.7 L0 841.89" class="st1"/>
		</g>
		<g id="shape12377-418" v:mID="12377" v:groupContext="shape" transform="translate(123.905,-257.361)">
			<title>Sheet.12377</title>
			<path d="M9.5 841.89 L0 841.89" class="st1"/>
		</g>
		<g id="shape12378-421" v:mID="12378" v:groupContext="shape" transform="translate(149.413,-282.689)">
			<title>Sheet.12378</title>
			<path d="M0 841.7 L0 841.89" class="st1"/>
		</g>
		<g id="shape12379-424" v:mID="12379" v:groupContext="shape" transform="translate(149.413,-231.661)">
			<title>Sheet.12379</title>
			<path d="M0 832.21 L0 841.89" class="st1"/>
		</g>
		<g id="shape12380-427" v:mID="12380" v:groupContext="shape" transform="translate(123.905,-257.175)">
			<title>Sheet.12380</title>
			<path d="M0 841.7 L0 841.89" class="st1"/>
		</g>
		<g id="shape12381-430" v:mID="12381" v:groupContext="shape" transform="translate(165.424,-257.361)">
			<title>Sheet.12381</title>
			<path d="M-0 841.89 L9.5 841.89" class="st1"/>
		</g>
		<g id="shape12382-433" v:mID="12382" v:groupContext="shape" transform="translate(149.413,-231.475)">
			<title>Sheet.12382</title>
			<path d="M0 841.7 L0 841.89" class="st1"/>
		</g>
		<g id="shape12383-436" v:mID="12383" v:groupContext="shape" transform="translate(687.482,-529.669)">
			<title>Sheet.12383</title>
			<path d="M0 841.89 L0.37 841.14 L0.56 840.59 L0.93 840.03 L1.12 839.28 L1.3 838.54" class="st1"/>
		</g>
		<g id="shape12384-439" v:mID="12384" v:groupContext="shape" transform="translate(174.92,-257.175)">
			<title>Sheet.12384</title>
			<path d="M0 841.7 L0 841.89" class="st1"/>
		</g>
		<g id="shape12385-442" v:mID="12385" v:groupContext="shape" transform="translate(688.785,-532.835)">
			<title>Sheet.12385</title>
			<path d="M0 841.7 L0 841.89" class="st1"/>
		</g>
		<g id="shape12386-445" v:mID="12386" v:groupContext="shape" transform="translate(721.181,-407.315)">
			<title>Sheet.12386</title>
			<path d="M25.69 829.23 L25.69 828.48 L25.51 827.74 L25.51 827.18 L25.32 826.43 L25.13 825.87 L24.95 825.13 L24.76 824.57
						 L24.58 824.01 L24.2 823.27 L24.02 822.71 L23.65 822.15 L23.27 821.59 L22.71 821.03 L22.34 820.66 L21.97
						 820.1 L21.41 819.73 L20.85 819.17 L20.29 818.8 L19.74 818.42 L19.18 818.05 L18.62 817.68 L18.06 817.49 L17.5
						 817.12 L16.76 816.93 L16.2 816.75 L15.45 816.56 L14.89 816.56 L14.15 816.38 L13.59 816.38 L12.85 816.38
						 L12.29 816.38 L11.54 816.38 L10.8 816.56 L10.24 816.56 L9.5 816.75 L8.94 816.93 L8.19 817.12 L7.63 817.49
						 L7.07 817.68 L6.52 818.05 L5.96 818.42 L5.4 818.8 L4.84 819.17 L4.28 819.73 L3.91 820.1 L3.35 820.66 L2.98
						 821.03 L2.61 821.59 L2.23 822.15 L1.86 822.71 L1.49 823.27 L1.12 824.01 L0.93 824.57 L0.74 825.13 L0.56
						 825.87 L0.37 826.43 L0.19 827.18 L0.19 827.74 L0.19 828.48 L0 829.23 L0.19 829.78 L0.19 830.53 L0.19 831.09
						 L0.37 831.83 L0.56 832.39 L0.74 833.14 L0.93 833.7 L1.12 834.25 L1.49 835 L1.86 835.56 L2.23 836.12 L2.61
						 836.68 L2.98 837.23 L3.35 837.61 L3.91 838.17 L4.28 838.72 L4.84 839.1 L5.4 839.47 L5.96 839.84 L6.52 840.21
						 L7.07 840.59 L7.63 840.77 L8.19 841.14 L8.94 841.33 L9.5 841.52 L10.24 841.7 L10.8 841.7 L11.54 841.89 L12.29
						 841.89 L12.85 841.89 L13.59 841.89 L14.15 841.89 L14.89 841.7 L15.45 841.7 L16.2 841.52 L16.76 841.33 L17.5
						 841.14 L18.06 840.77 L18.62 840.59 L19.18 840.21 L19.74 839.84 L20.29 839.47 L20.85 839.1 L21.41 838.72
						 L21.97 838.17 L22.34 837.61 L22.71 837.23 L23.27 836.68 L23.65 836.12 L24.02 835.56 L24.2 835 L24.58 834.25
						 L24.76 833.7 L24.95 833.14 L25.13 832.39 L25.32 831.83 L25.51 831.09 L25.51 830.53 L25.69 829.78 L25.69
						 829.23 L25.69 829.23" class="st1"/>
		</g>
		<g id="shape12387-448" v:mID="12387" v:groupContext="shape" transform="translate(1035.65,-407.315)">
			<title>Sheet.12387</title>
			<path d="M25.69 829.23 L25.51 828.48 L25.51 827.74 L25.51 827.18 L25.32 826.43 L25.13 825.87 L24.95 825.13 L24.76 824.57
						 L24.58 824.01 L24.2 823.27 L23.83 822.71 L23.46 822.15 L23.09 821.59 L22.71 821.03 L22.34 820.66 L21.78
						 820.1 L21.41 819.73 L20.85 819.17 L20.29 818.8 L19.74 818.42 L19.18 818.05 L18.62 817.68 L18.06 817.49 L17.32
						 817.12 L16.76 816.93 L16.2 816.75 L15.45 816.56 L14.89 816.56 L14.15 816.38 L13.41 816.38 L12.85 816.38
						 L12.1 816.38 L11.54 816.38 L10.8 816.56 L10.24 816.56 L9.5 816.75 L8.94 816.93 L8.19 817.12 L7.63 817.49
						 L7.07 817.68 L6.52 818.05 L5.77 818.42 L5.4 818.8 L4.84 819.17 L4.28 819.73 L3.72 820.1 L3.35 820.66 L2.98
						 821.03 L2.42 821.59 L2.05 822.15 L1.68 822.71 L1.49 823.27 L1.12 824.01 L0.93 824.57 L0.74 825.13 L0.56
						 825.87 L0.37 826.43 L0.19 827.18 L0.19 827.74 L0 828.48 L0 829.23 L0 829.78 L0.19 830.53 L0.19 831.09 L0.37
						 831.83 L0.56 832.39 L0.74 833.14 L0.93 833.7 L1.12 834.25 L1.49 835 L1.68 835.56 L2.05 836.12 L2.42 836.68
						 L2.98 837.23 L3.35 837.61 L3.72 838.17 L4.28 838.72 L4.84 839.1 L5.4 839.47 L5.77 839.84 L6.52 840.21 L7.07
						 840.59 L7.63 840.77 L8.19 841.14 L8.94 841.33 L9.5 841.52 L10.24 841.7 L10.8 841.7 L11.54 841.89 L12.1 841.89
						 L12.85 841.89 L13.41 841.89 L14.15 841.89 L14.89 841.7 L15.45 841.7 L16.2 841.52 L16.76 841.33 L17.32 841.14
						 L18.06 840.77 L18.62 840.59 L19.18 840.21 L19.74 839.84 L20.29 839.47 L20.85 839.1 L21.41 838.72 L21.78
						 838.17 L22.34 837.61 L22.71 837.23 L23.09 836.68 L23.46 836.12 L23.83 835.56 L24.2 835 L24.58 834.25 L24.76
						 833.7 L24.95 833.14 L25.13 832.39 L25.32 831.83 L25.51 831.09 L25.51 830.53 L25.51 829.78 L25.69 829.23
						 L25.69 829.23" class="st1"/>
		</g>
		<g id="shape12388-451" v:mID="12388" v:groupContext="shape" transform="translate(1022.99,-468.026)">
			<title>Sheet.12388</title>
			<path d="M19.18 841.89 L0 841.89" class="st1"/>
		</g>
		<g id="shape12389-454" v:mID="12389" v:groupContext="shape" transform="translate(1022.99,-468.026)">
			<title>Sheet.12389</title>
			<path d="M0 790.12 L0 841.89" class="st1"/>
		</g>
		<g id="shape12390-457" v:mID="12390" v:groupContext="shape" transform="translate(1022.99,-467.84)">
			<title>Sheet.12390</title>
			<path d="M0 841.7 L0 841.89" class="st1"/>
		</g>
		<g id="shape12391-460" v:mID="12391" v:groupContext="shape" transform="translate(759.535,-519.799)">
			<title>Sheet.12391</title>
			<path d="M263.45 841.89 L-0 841.89" class="st1"/>
		</g>
		<g id="shape12392-463" v:mID="12392" v:groupContext="shape" transform="translate(1022.99,-467.84)">
			<title>Sheet.12392</title>
			<path d="M0 841.7 L0 841.89" class="st1"/>
		</g>
		<g id="shape12393-466" v:mID="12393" v:groupContext="shape" transform="translate(759.535,-384.222)">
			<title>Sheet.12393</title>
			<path d="M0 706.31 L0 841.89" class="st1"/>
		</g>
		<g id="shape12394-469" v:mID="12394" v:groupContext="shape" transform="translate(759.535,-519.613)">
			<title>Sheet.12394</title>
			<path d="M0 841.7 L0 841.89" class="st1"/>
		</g>
		<g id="shape12395-472" v:mID="12395" v:groupContext="shape" transform="translate(759.535,-384.222)">
			<title>Sheet.12395</title>
			<path d="M263.45 841.89 L-0 841.89" class="st1"/>
		</g>
		<g id="shape12396-475" v:mID="12396" v:groupContext="shape" transform="translate(759.535,-384.035)">
			<title>Sheet.12396</title>
			<path d="M0 841.7 L0 841.89" class="st1"/>
		</g>
		<g id="shape12397-478" v:mID="12397" v:groupContext="shape" transform="translate(1022.99,-384.222)">
			<title>Sheet.12397</title>
			<path d="M0 790.12 L0 841.89" class="st1"/>
		</g>
		<g id="shape12398-481" v:mID="12398" v:groupContext="shape" transform="translate(759.535,-384.035)">
			<title>Sheet.12398</title>
			<path d="M0 841.7 L0 841.89" class="st1"/>
		</g>
		<g id="shape12399-484" v:mID="12399" v:groupContext="shape" transform="translate(1022.99,-435.994)">
			<title>Sheet.12399</title>
			<path d="M19.18 841.89 L0 841.89" class="st1"/>
		</g>
		<g id="shape12400-487" v:mID="12400" v:groupContext="shape" transform="translate(1022.99,-384.035)">
			<title>Sheet.12400</title>
			<path d="M0 841.7 L0 841.89" class="st1"/>
		</g>
		<g id="shape12401-490" v:mID="12401" v:groupContext="shape" transform="translate(1042.16,-435.994)">
			<title>Sheet.12401</title>
			<path d="M0 809.86 L0 841.89" class="st1"/>
		</g>
		<g id="shape12402-493" v:mID="12402" v:groupContext="shape" transform="translate(1022.99,-435.808)">
			<title>Sheet.12402</title>
			<path d="M0 841.7 L0 841.89" class="st1"/>
		</g>
		<g id="shape12403-496" v:mID="12403" v:groupContext="shape" transform="translate(434.458,-365.04)">
			<title>Sheet.12403</title>
			<path d="M0 816.19 L0 841.89" class="st1"/>
		</g>
		<g id="shape12404-499" v:mID="12404" v:groupContext="shape" transform="translate(1042.16,-435.808)">
			<title>Sheet.12404</title>
			<path d="M0 841.7 L0 841.89" class="st1"/>
		</g>
		<g id="shape12405-502" v:mID="12405" v:groupContext="shape" transform="translate(434.458,-390.74)">
			<title>Sheet.12405</title>
			<path d="M274.06 693.65 L-0 841.89" class="st1"/>
		</g>
		<g id="shape12406-505" v:mID="12406" v:groupContext="shape" transform="translate(434.458,-364.853)">
			<title>Sheet.12406</title>
			<path d="M0 841.7 L0 841.89" class="st1"/>
		</g>
		<g id="shape12407-508" v:mID="12407" v:groupContext="shape" transform="translate(708.521,-538.981)">
			<title>Sheet.12407</title>
			<path d="M352.82 841.89 L-0 841.89" class="st1"/>
		</g>
		<g id="shape12408-511" v:mID="12408" v:groupContext="shape" transform="translate(434.458,-390.554)">
			<title>Sheet.12408</title>
			<path d="M0 841.7 L0 841.89" class="st1"/>
		</g>
		<g id="shape12409-514" v:mID="12409" v:groupContext="shape" transform="translate(1061.34,-526.131)">
			<title>Sheet.12409</title>
			<path d="M12.66 841.89 L12.66 841.14 L12.66 840.4 L12.47 839.84 L12.47 839.1 L12.29 838.35 L12.1 837.79 L11.73 837.05
						 L11.54 836.49 L11.17 835.93 L10.8 835.19 L10.43 834.63 L10.05 834.07 L9.68 833.51 L9.12 833.14 L8.75 832.58
						 L8.19 832.02 L7.63 831.65 L7.07 831.27 L6.52 830.9 L5.96 830.53 L5.21 830.16 L4.65 829.97 L3.91 829.78 L3.35
						 829.6 L2.61 829.41 L2.05 829.23 L1.3 829.23 L0.56 829.04 L0 829.04" class="st1"/>
		</g>
		<g id="shape12410-517" v:mID="12410" v:groupContext="shape" transform="translate(708.521,-538.795)">
			<title>Sheet.12410</title>
			<path d="M0 841.7 L0 841.89" class="st1"/>
		</g>
		<g id="shape12411-520" v:mID="12411" v:groupContext="shape" transform="translate(1074,-377.89)">
			<title>Sheet.12411</title>
			<path d="M0 693.65 L0 841.89" class="st1"/>
		</g>
		<g id="shape12412-523" v:mID="12412" v:groupContext="shape" transform="translate(1061.34,-538.795)">
			<title>Sheet.12412</title>
			<path d="M0 841.7 L0 841.89" class="st1"/>
		</g>
		<g id="shape12413-526" v:mID="12413" v:groupContext="shape" transform="translate(1061.34,-365.04)">
			<title>Sheet.12413</title>
			<path d="M0 841.89 L0.56 841.89 L1.3 841.7 L2.05 841.7 L2.61 841.52 L3.35 841.33 L3.91 841.14 L4.65 840.96 L5.21 840.59
						 L5.96 840.4 L6.52 840.03 L7.07 839.65 L7.63 839.28 L8.19 838.72 L8.75 838.35 L9.12 837.79 L9.68 837.42 L10.05
						 836.86 L10.43 836.3 L10.8 835.56 L11.17 835 L11.54 834.44 L11.73 833.88 L12.1 833.14 L12.29 832.39 L12.47
						 831.83 L12.47 831.09 L12.66 830.53 L12.66 829.78 L12.66 829.04" class="st1"/>
		</g>
		<g id="shape12414-529" v:mID="12414" v:groupContext="shape" transform="translate(1074,-377.704)">
			<title>Sheet.12414</title>
			<path d="M0 841.7 L0 841.89" class="st1"/>
		</g>
		<g id="shape12415-532" v:mID="12415" v:groupContext="shape" transform="translate(434.458,-365.04)">
			<title>Sheet.12415</title>
			<path d="M626.88 841.89 L-0 841.89" class="st1"/>
		</g>
		<g id="shape12416-535" v:mID="12416" v:groupContext="shape" transform="translate(1074,-377.704)">
			<title>Sheet.12416</title>
			<path d="M0 841.7 L0 841.89" class="st1"/>
		</g>
		<g id="shape12417-538" v:mID="12417" v:groupContext="shape" transform="translate(434.458,-364.853)">
			<title>Sheet.12417</title>
			<path d="M0 841.7 L0 841.89" class="st1"/>
		</g>
		<g id="shape12418-541" v:mID="12418" v:groupContext="shape" transform="translate(721.181,-471.192)">
			<title>Sheet.12418</title>
			<path d="M25.69 829.04 L25.69 828.48 L25.51 827.74 L25.51 827.18 L25.32 826.43 L25.13 825.87 L24.95 825.13 L24.76 824.57
						 L24.58 823.83 L24.2 823.27 L24.02 822.71 L23.65 822.15 L23.27 821.59 L22.71 821.03 L22.34 820.47 L21.97
						 820.1 L21.41 819.54 L20.85 819.17 L20.29 818.8 L19.74 818.42 L19.18 818.05 L18.62 817.68 L18.06 817.49 L17.5
						 817.12 L16.76 816.93 L16.2 816.75 L15.45 816.56 L14.89 816.38 L14.15 816.38 L13.59 816.38 L12.85 816.38
						 L12.29 816.38 L11.54 816.38 L10.8 816.38 L10.24 816.56 L9.5 816.75 L8.94 816.93 L8.19 817.12 L7.63 817.49
						 L7.07 817.68 L6.52 818.05 L5.96 818.42 L5.4 818.8 L4.84 819.17 L4.28 819.54 L3.91 820.1 L3.35 820.47 L2.98
						 821.03 L2.61 821.59 L2.23 822.15 L1.86 822.71 L1.49 823.27 L1.12 823.83 L0.93 824.57 L0.74 825.13 L0.56
						 825.87 L0.37 826.43 L0.19 827.18 L0.19 827.74 L0.19 828.48 L0 829.04 L0.19 829.78 L0.19 830.34 L0.19 831.09
						 L0.37 831.83 L0.56 832.39 L0.74 833.14 L0.93 833.7 L1.12 834.25 L1.49 834.81 L1.86 835.56 L2.23 836.12 L2.61
						 836.68 L2.98 837.23 L3.35 837.61 L3.91 838.17 L4.28 838.54 L4.84 839.1 L5.4 839.47 L5.96 839.84 L6.52 840.21
						 L7.07 840.4 L7.63 840.77 L8.19 840.96 L8.94 841.33 L9.5 841.52 L10.24 841.52 L10.8 841.7 L11.54 841.89 L12.29
						 841.89 L12.85 841.89 L13.59 841.89 L14.15 841.89 L14.89 841.7 L15.45 841.52 L16.2 841.52 L16.76 841.33 L17.5
						 840.96 L18.06 840.77 L18.62 840.4 L19.18 840.21 L19.74 839.84 L20.29 839.47 L20.85 839.1 L21.41 838.54 L21.97
						 838.17 L22.34 837.61 L22.71 837.23 L23.27 836.68 L23.65 836.12 L24.02 835.56 L24.2 834.81 L24.58 834.25
						 L24.76 833.7 L24.95 833.14 L25.13 832.39 L25.32 831.83 L25.51 831.09 L25.51 830.34 L25.69 829.78 L25.69
						 829.04 L25.69 829.04" class="st1"/>
		</g>
		<g id="shape12419-544" v:mID="12419" v:groupContext="shape" transform="translate(1035.65,-471.192)">
			<title>Sheet.12419</title>
			<path d="M25.69 829.04 L25.51 828.48 L25.51 827.74 L25.51 827.18 L25.32 826.43 L25.13 825.87 L24.95 825.13 L24.76 824.57
						 L24.58 823.83 L24.2 823.27 L23.83 822.71 L23.46 822.15 L23.09 821.59 L22.71 821.03 L22.34 820.47 L21.78
						 820.1 L21.41 819.54 L20.85 819.17 L20.29 818.8 L19.74 818.42 L19.18 818.05 L18.62 817.68 L18.06 817.49 L17.32
						 817.12 L16.76 816.93 L16.2 816.75 L15.45 816.56 L14.89 816.38 L14.15 816.38 L13.41 816.38 L12.85 816.38
						 L12.1 816.38 L11.54 816.38 L10.8 816.38 L10.24 816.56 L9.5 816.75 L8.94 816.93 L8.19 817.12 L7.63 817.49
						 L7.07 817.68 L6.52 818.05 L5.77 818.42 L5.4 818.8 L4.84 819.17 L4.28 819.54 L3.72 820.1 L3.35 820.47 L2.98
						 821.03 L2.42 821.59 L2.05 822.15 L1.68 822.71 L1.49 823.27 L1.12 823.83 L0.93 824.57 L0.74 825.13 L0.56
						 825.87 L0.37 826.43 L0.19 827.18 L0.19 827.74 L0 828.48 L0 829.04 L0 829.78 L0.19 830.34 L0.19 831.09 L0.37
						 831.83 L0.56 832.39 L0.74 833.14 L0.93 833.7 L1.12 834.25 L1.49 834.81 L1.68 835.56 L2.05 836.12 L2.42 836.68
						 L2.98 837.23 L3.35 837.61 L3.72 838.17 L4.28 838.54 L4.84 839.1 L5.4 839.47 L5.77 839.84 L6.52 840.21 L7.07
						 840.4 L7.63 840.77 L8.19 840.96 L8.94 841.33 L9.5 841.52 L10.24 841.52 L10.8 841.7 L11.54 841.89 L12.1 841.89
						 L12.85 841.89 L13.41 841.89 L14.15 841.89 L14.89 841.7 L15.45 841.52 L16.2 841.52 L16.76 841.33 L17.32 840.96
						 L18.06 840.77 L18.62 840.4 L19.18 840.21 L19.74 839.84 L20.29 839.47 L20.85 839.1 L21.41 838.54 L21.78 838.17
						 L22.34 837.61 L22.71 837.23 L23.09 836.68 L23.46 836.12 L23.83 835.56 L24.2 834.81 L24.58 834.25 L24.76
						 833.7 L24.95 833.14 L25.13 832.39 L25.32 831.83 L25.51 831.09 L25.51 830.34 L25.51 829.78 L25.69 829.04
						 L25.69 829.04" class="st1"/>
		</g>
		<g id="shape12420-547" v:mID="12420" v:groupContext="shape" transform="translate(683.572,-525.386)">
			<title>Sheet.12420</title>
			<path d="M0 841.89 L0.37 841.7 L0.74 841.52 L0.93 841.14 L1.3 840.96 L2.05 840.4 L2.23 840.03 L2.61 839.84 L2.79 839.47
						 L3.17 838.72 L3.35 838.54 L3.54 838.17 L3.72 837.79 L3.91 837.61" class="st1"/>
		</g>
		<g id="shape12421-550" v:mID="12421" v:groupContext="shape" transform="translate(688.785,-533.022)">
			<title>Sheet.12421</title>
			<path d="M12.66 835.93 L10.8 835.93 L9.12 836.3 L7.26 836.68 L5.77 837.05 L4.28 837.61 L2.98 838.35 L1.86 839.1 L1.12
						 840.03 L0.37 840.96 L0 841.89" class="st1"/>
		</g>
		<g id="shape12422-553" v:mID="12422" v:groupContext="shape" transform="translate(687.482,-529.483)">
			<title>Sheet.12422</title>
			<path d="M0 841.7 L0 841.89" class="st1"/>
		</g>
		<g id="shape12423-556" v:mID="12423" v:groupContext="shape" transform="translate(701.446,-538.795)">
			<title>Sheet.12423</title>
			<path d="M0 841.7 L0.56 841.7 L1.12 841.7 L1.68 841.89 L2.23 841.89 L3.35 841.89 L3.91 841.89 L4.47 841.89 L5.03 841.89
						 L5.59 841.7" class="st1"/>
		</g>
		<g id="shape12424-559" v:mID="12424" v:groupContext="shape" transform="translate(688.785,-532.835)">
			<title>Sheet.12424</title>
			<path d="M0 841.7 L0 841.89" class="st1"/>
		</g>
		<g id="shape12425-562" v:mID="12425" v:groupContext="shape" transform="translate(707.031,-538.981)">
			<title>Sheet.12425</title>
			<path d="M0 841.89 L0 841.89 L0.19 841.89 L0.19 841.89 L0.19 841.89 L0.37 841.89 L0.37 841.89 L0.56 841.89 L0.74 841.89
						 L0.93 841.89 L1.12 841.89 L1.3 841.89 L1.49 841.89 L1.49 841.89" class="st1"/>
		</g>
		<g id="shape12426-565" v:mID="12426" v:groupContext="shape" transform="translate(707.031,-538.795)">
			<title>Sheet.12426</title>
			<path d="M0 841.7 L0 841.89" class="st1"/>
		</g>
		<g id="shape12427-568" v:mID="12427" v:groupContext="shape" transform="translate(701.446,-538.981)">
			<title>Sheet.12427</title>
			<path d="M-0 841.89 L5.59 841.89" class="st1"/>
		</g>
		<g id="shape12428-571" v:mID="12428" v:groupContext="shape" transform="translate(708.521,-538.795)">
			<title>Sheet.12428</title>
			<path d="M0 841.7 L0 841.89" class="st1"/>
		</g>
		<g id="shape12429-574" v:mID="12429" v:groupContext="shape" transform="translate(1048.49,-419.978)">
			<title>Sheet.12429</title>
			<path d="M0 841.89 L0 825.87" class="st1"/>
		</g>
		<g id="shape12430-577" v:mID="12430" v:groupContext="shape" transform="translate(707.031,-538.795)">
			<title>Sheet.12430</title>
			<path d="M0 841.7 L0 841.89" class="st1"/>
		</g>
		<g id="shape12431-580" v:mID="12431" v:groupContext="shape" transform="translate(1032.48,-419.978)">
			<title>Sheet.12431</title>
			<path d="M16.01 841.89 L-0 841.89" class="st1"/>
		</g>
		<g id="shape12432-583" v:mID="12432" v:groupContext="shape" transform="translate(1048.49,-435.808)">
			<title>Sheet.12432</title>
			<path d="M0 841.7 L0 841.89" class="st1"/>
		</g>
		<g id="shape12433-586" v:mID="12433" v:groupContext="shape" transform="translate(1048.49,-404.149)">
			<title>Sheet.12433</title>
			<path d="M0 826.06 L0 841.89" class="st1"/>
		</g>
		<g id="shape12434-589" v:mID="12434" v:groupContext="shape" transform="translate(1032.48,-419.792)">
			<title>Sheet.12434</title>
			<path d="M0 841.7 L0 841.89" class="st1"/>
		</g>
		<g id="shape12435-592" v:mID="12435" v:groupContext="shape" transform="translate(1048.49,-419.978)">
			<title>Sheet.12435</title>
			<path d="M0 841.89 L16.01 841.89" class="st1"/>
		</g>
		<g id="shape12436-595" v:mID="12436" v:groupContext="shape" transform="translate(1048.49,-403.962)">
			<title>Sheet.12436</title>
			<path d="M0 841.7 L0 841.89" class="st1"/>
		</g>
		<g id="shape12437-598" v:mID="12437" v:groupContext="shape" transform="translate(1048.49,-435.994)">
			<title>Sheet.12437</title>
			<path d="M0 841.89 L0 829.04" class="st1"/>
		</g>
		<g id="shape12438-601" v:mID="12438" v:groupContext="shape" transform="translate(1064.5,-419.792)">
			<title>Sheet.12438</title>
			<path d="M0 841.7 L0 841.89" class="st1"/>
		</g>
		<g id="shape12439-604" v:mID="12439" v:groupContext="shape" transform="translate(1019.63,-419.978)">
			<title>Sheet.12439</title>
			<path d="M12.85 841.89 L-0 841.89" class="st1"/>
		</g>
		<g id="shape12440-607" v:mID="12440" v:groupContext="shape" transform="translate(1048.49,-448.658)">
			<title>Sheet.12440</title>
			<path d="M0 841.7 L0 841.89" class="st1"/>
		</g>
		<g id="shape12441-610" v:mID="12441" v:groupContext="shape" transform="translate(1048.49,-391.299)">
			<title>Sheet.12441</title>
			<path d="M0 829.04 L0 841.89" class="st1"/>
		</g>
		<g id="shape12442-613" v:mID="12442" v:groupContext="shape" transform="translate(1019.63,-419.792)">
			<title>Sheet.12442</title>
			<path d="M0 841.7 L0 841.89" class="st1"/>
		</g>
		<g id="shape12443-616" v:mID="12443" v:groupContext="shape" transform="translate(1064.5,-419.978)">
			<title>Sheet.12443</title>
			<path d="M0 841.89 L12.66 841.89" class="st1"/>
		</g>
		<g id="shape12444-619" v:mID="12444" v:groupContext="shape" transform="translate(1048.49,-391.112)">
			<title>Sheet.12444</title>
			<path d="M0 841.7 L0 841.89" class="st1"/>
		</g>
		<g id="shape12445-622" v:mID="12445" v:groupContext="shape" transform="translate(734.028,-484.042)">
			<title>Sheet.12445</title>
			<path d="M0 841.89 L0 825.87" class="st1"/>
		</g>
		<g id="shape12446-625" v:mID="12446" v:groupContext="shape" transform="translate(1077.17,-419.792)">
			<title>Sheet.12446</title>
			<path d="M0 841.7 L0 841.89" class="st1"/>
		</g>
		<g id="shape12447-628" v:mID="12447" v:groupContext="shape" transform="translate(718.016,-484.042)">
			<title>Sheet.12447</title>
			<path d="M16.01 841.89 L-0 841.89" class="st1"/>
		</g>
		<g id="shape12448-631" v:mID="12448" v:groupContext="shape" transform="translate(734.028,-499.872)">
			<title>Sheet.12448</title>
			<path d="M0 841.7 L0 841.89" class="st1"/>
		</g>
		<g id="shape12449-634" v:mID="12449" v:groupContext="shape" transform="translate(734.028,-468.026)">
			<title>Sheet.12449</title>
			<path d="M0 825.87 L0 841.89" class="st1"/>
		</g>
		<g id="shape12450-637" v:mID="12450" v:groupContext="shape" transform="translate(718.016,-483.856)">
			<title>Sheet.12450</title>
			<path d="M0 841.7 L0 841.89" class="st1"/>
		</g>
		<g id="shape12451-640" v:mID="12451" v:groupContext="shape" transform="translate(734.028,-484.042)">
			<title>Sheet.12451</title>
			<path d="M-0 841.89 L16.01 841.89" class="st1"/>
		</g>
		<g id="shape12452-643" v:mID="12452" v:groupContext="shape" transform="translate(734.028,-467.84)">
			<title>Sheet.12452</title>
			<path d="M0 841.7 L0 841.89" class="st1"/>
		</g>
		<g id="shape12453-646" v:mID="12453" v:groupContext="shape" transform="translate(734.028,-500.058)">
			<title>Sheet.12453</title>
			<path d="M0 841.89 L0 829.23" class="st1"/>
		</g>
		<g id="shape12454-649" v:mID="12454" v:groupContext="shape" transform="translate(750.04,-483.856)">
			<title>Sheet.12454</title>
			<path d="M0 841.7 L0 841.89" class="st1"/>
		</g>
		<g id="shape12455-652" v:mID="12455" v:groupContext="shape" transform="translate(705.356,-484.042)">
			<title>Sheet.12455</title>
			<path d="M12.66 841.89 L-0 841.89" class="st1"/>
		</g>
		<g id="shape12456-655" v:mID="12456" v:groupContext="shape" transform="translate(734.028,-512.536)">
			<title>Sheet.12456</title>
			<path d="M0 841.7 L0 841.89" class="st1"/>
		</g>
		<g id="shape12457-658" v:mID="12457" v:groupContext="shape" transform="translate(734.028,-455.176)">
			<title>Sheet.12457</title>
			<path d="M0 829.04 L0 841.89" class="st1"/>
		</g>
		<g id="shape12458-661" v:mID="12458" v:groupContext="shape" transform="translate(705.356,-483.856)">
			<title>Sheet.12458</title>
			<path d="M0 841.7 L0 841.89" class="st1"/>
		</g>
		<g id="shape12459-664" v:mID="12459" v:groupContext="shape" transform="translate(750.04,-484.042)">
			<title>Sheet.12459</title>
			<path d="M0 841.89 L12.85 841.89" class="st1"/>
		</g>
		<g id="shape12460-667" v:mID="12460" v:groupContext="shape" transform="translate(734.028,-454.99)">
			<title>Sheet.12460</title>
			<path d="M0 841.7 L0 841.89" class="st1"/>
		</g>
		<g id="shape12461-670" v:mID="12461" v:groupContext="shape" transform="translate(1048.49,-484.042)">
			<title>Sheet.12461</title>
			<path d="M0 841.89 L0 825.87" class="st1"/>
		</g>
		<g id="shape12462-673" v:mID="12462" v:groupContext="shape" transform="translate(762.887,-483.856)">
			<title>Sheet.12462</title>
			<path d="M0 841.7 L0 841.89" class="st1"/>
		</g>
		<g id="shape12463-676" v:mID="12463" v:groupContext="shape" transform="translate(1032.48,-484.042)">
			<title>Sheet.12463</title>
			<path d="M16.01 841.89 L-0 841.89" class="st1"/>
		</g>
		<g id="shape12464-679" v:mID="12464" v:groupContext="shape" transform="translate(1048.49,-499.872)">
			<title>Sheet.12464</title>
			<path d="M0 841.7 L0 841.89" class="st1"/>
		</g>
		<g id="shape12465-682" v:mID="12465" v:groupContext="shape" transform="translate(1048.49,-468.026)">
			<title>Sheet.12465</title>
			<path d="M0 825.87 L0 841.89" class="st1"/>
		</g>
		<g id="shape12466-685" v:mID="12466" v:groupContext="shape" transform="translate(1032.48,-483.856)">
			<title>Sheet.12466</title>
			<path d="M0 841.7 L0 841.89" class="st1"/>
		</g>
		<g id="shape12467-688" v:mID="12467" v:groupContext="shape" transform="translate(1048.49,-484.042)">
			<title>Sheet.12467</title>
			<path d="M0 841.89 L16.01 841.89" class="st1"/>
		</g>
		<g id="shape12468-691" v:mID="12468" v:groupContext="shape" transform="translate(1048.49,-467.84)">
			<title>Sheet.12468</title>
			<path d="M0 841.7 L0 841.89" class="st1"/>
		</g>
		<g id="shape12469-694" v:mID="12469" v:groupContext="shape" transform="translate(1048.49,-500.058)">
			<title>Sheet.12469</title>
			<path d="M0 841.89 L0 829.23" class="st1"/>
		</g>
		<g id="shape12470-697" v:mID="12470" v:groupContext="shape" transform="translate(1064.5,-483.856)">
			<title>Sheet.12470</title>
			<path d="M0 841.7 L0 841.89" class="st1"/>
		</g>
		<g id="shape12471-700" v:mID="12471" v:groupContext="shape" transform="translate(1019.63,-484.042)">
			<title>Sheet.12471</title>
			<path d="M12.85 841.89 L-0 841.89" class="st1"/>
		</g>
		<g id="shape12472-703" v:mID="12472" v:groupContext="shape" transform="translate(1048.49,-512.536)">
			<title>Sheet.12472</title>
			<path d="M0 841.7 L0 841.89" class="st1"/>
		</g>
		<g id="shape12473-706" v:mID="12473" v:groupContext="shape" transform="translate(1048.49,-455.176)">
			<title>Sheet.12473</title>
			<path d="M0 829.04 L0 841.89" class="st1"/>
		</g>
		<g id="shape12474-709" v:mID="12474" v:groupContext="shape" transform="translate(1019.63,-483.856)">
			<title>Sheet.12474</title>
			<path d="M0 841.7 L0 841.89" class="st1"/>
		</g>
		<g id="shape12475-712" v:mID="12475" v:groupContext="shape" transform="translate(1064.5,-484.042)">
			<title>Sheet.12475</title>
			<path d="M0 841.89 L12.66 841.89" class="st1"/>
		</g>
		<g id="shape12476-715" v:mID="12476" v:groupContext="shape" transform="translate(1048.49,-454.99)">
			<title>Sheet.12476</title>
			<path d="M0 841.7 L0 841.89" class="st1"/>
		</g>
		<g id="shape12477-718" v:mID="12477" v:groupContext="shape" transform="translate(734.028,-419.978)">
			<title>Sheet.12477</title>
			<path d="M0 841.89 L0 825.87" class="st1"/>
		</g>
		<g id="shape12478-721" v:mID="12478" v:groupContext="shape" transform="translate(1077.17,-483.856)">
			<title>Sheet.12478</title>
			<path d="M0 841.7 L0 841.89" class="st1"/>
		</g>
		<g id="shape12479-724" v:mID="12479" v:groupContext="shape" transform="translate(718.016,-419.978)">
			<title>Sheet.12479</title>
			<path d="M16.01 841.89 L-0 841.89" class="st1"/>
		</g>
		<g id="shape12480-727" v:mID="12480" v:groupContext="shape" transform="translate(734.028,-435.808)">
			<title>Sheet.12480</title>
			<path d="M0 841.7 L0 841.89" class="st1"/>
		</g>
		<g id="shape12481-730" v:mID="12481" v:groupContext="shape" transform="translate(734.028,-404.149)">
			<title>Sheet.12481</title>
			<path d="M0 826.06 L0 841.89" class="st1"/>
		</g>
		<g id="shape12482-733" v:mID="12482" v:groupContext="shape" transform="translate(718.016,-419.792)">
			<title>Sheet.12482</title>
			<path d="M0 841.7 L0 841.89" class="st1"/>
		</g>
		<g id="shape12483-736" v:mID="12483" v:groupContext="shape" transform="translate(734.028,-419.978)">
			<title>Sheet.12483</title>
			<path d="M-0 841.89 L16.01 841.89" class="st1"/>
		</g>
		<g id="shape12484-739" v:mID="12484" v:groupContext="shape" transform="translate(734.028,-403.962)">
			<title>Sheet.12484</title>
			<path d="M0 841.7 L0 841.89" class="st1"/>
		</g>
		<g id="shape12485-742" v:mID="12485" v:groupContext="shape" transform="translate(734.028,-435.994)">
			<title>Sheet.12485</title>
			<path d="M0 841.89 L0 829.04" class="st1"/>
		</g>
		<g id="shape12486-745" v:mID="12486" v:groupContext="shape" transform="translate(750.04,-419.792)">
			<title>Sheet.12486</title>
			<path d="M0 841.7 L0 841.89" class="st1"/>
		</g>
		<g id="shape12487-748" v:mID="12487" v:groupContext="shape" transform="translate(705.356,-419.978)">
			<title>Sheet.12487</title>
			<path d="M12.66 841.89 L-0 841.89" class="st1"/>
		</g>
		<g id="shape12488-751" v:mID="12488" v:groupContext="shape" transform="translate(734.028,-448.658)">
			<title>Sheet.12488</title>
			<path d="M0 841.7 L0 841.89" class="st1"/>
		</g>
		<g id="shape12489-754" v:mID="12489" v:groupContext="shape" transform="translate(734.028,-391.299)">
			<title>Sheet.12489</title>
			<path d="M0 829.04 L0 841.89" class="st1"/>
		</g>
		<g id="shape12490-757" v:mID="12490" v:groupContext="shape" transform="translate(705.356,-419.792)">
			<title>Sheet.12490</title>
			<path d="M0 841.7 L0 841.89" class="st1"/>
		</g>
		<g id="shape12491-760" v:mID="12491" v:groupContext="shape" transform="translate(750.04,-419.978)">
			<title>Sheet.12491</title>
			<path d="M0 841.89 L12.85 841.89" class="st1"/>
		</g>
		<g id="shape12492-763" v:mID="12492" v:groupContext="shape" transform="translate(734.028,-391.112)">
			<title>Sheet.12492</title>
			<path d="M0 841.7 L0 841.89" class="st1"/>
		</g>
		<g id="shape12493-766" v:mID="12493" v:groupContext="shape" transform="translate(762.887,-419.792)">
			<title>Sheet.12493</title>
			<path d="M0 841.7 L0 841.89" class="st1"/>
		</g>
		<g id="shape12494-769" v:mID="12494" v:groupContext="shape" transform="translate(1451.34,416.693) rotate(90)">
			<title>Sheet.12494</title>
			<desc>Brace</desc>
			<v:textBlock v:margins="rect(4,4,4,4)"/>
			<v:textRect cx="92.126" cy="841.89" width="184.26" height="0" transform="rotate(-90)"/>
			<path d="M19.2 841.89 L19.56 841.89 L184.25 841.89" class="st2"/>
			<rect v:rectContext="textBkgnd" x="-876.27" y="74.126" width="68.7601" height="36" transform="rotate(-90)" class="st4"/>
			<text x="-876.27" y="101.13" transform="rotate(-90)" class="st5" v:langID="1044"><v:paragraph v:horizAlign="1"/><v:tabList/>Brace</text>		</g>
		<g id="shape12495-777" v:mID="12495" v:groupContext="shape" transform="translate(700.157,-371.339)">
			<title>Sheet.12495</title>
			<desc>Servo holder</desc>
			<v:textBlock v:margins="rect(4,4,4,4)"/>
			<v:textRect cx="181.417" cy="761.811" width="362.84" height="160.157"/>
			<rect x="0" y="681.732" width="362.835" height="160.157" class="st6"/>
			<text x="103.95" y="770.81" class="st5" v:langID="1044"><v:paragraph v:horizAlign="1"/><v:tabList/>Servo holder</text>		</g>
		<g id="shape12497-782" v:mID="12497" v:groupContext="shape" transform="translate(251.628,-288.928)">
			<title>Sheet.12497</title>
			<desc>Mounting holes for the robot</desc>
			<v:textBlock v:margins="rect(4,4,4,4)"/>
			<v:textRect cx="157.651" cy="841.89" width="315.31" height="0"/>
			<path d="M16.95 841.89 L17.31 841.89 L277.72 841.89 L315.3 841.89" class="st8"/>
			<rect v:rectContext="textBkgnd" x="61.791" y="805.89" width="191.719" height="72" class="st10"/>
			<text x="61.79" y="832.89" class="st5" v:langID="1044"><v:paragraph v:horizAlign="1"/><v:tabList/>Mounting holes<v:newlineChar/><tspan
						x="75.44" dy="1.2em" class="st11"> </tspan>for the robot</text>		</g>
		<g id="shape12498-791" v:mID="12498" v:groupContext="shape" transform="translate(119.055,-226.772)">
			<title>Sheet.12498</title>
			<rect x="0" y="700.157" width="164.409" height="141.732" class="st12"/>
		</g>
		<g id="shape12499-794" v:mID="12499" v:groupContext="shape" transform="translate(-643.465,425.197) rotate(-90)">
			<title>Sheet.12499</title>
			<desc>Brace</desc>
			<v:textBlock v:margins="rect(4,4,4,4)"/>
			<v:textRect cx="117.638" cy="841.89" width="235.28" height="0" transform="rotate(90)"/>
			<path d="M19.2 841.89 L19.56 841.89 L235.28 841.89" class="st2"/>
			<rect v:rectContext="textBkgnd" x="807.51" y="-135.638" width="68.7601" height="36" transform="rotate(90)" class="st10"/>
			<text x="807.51" y="-108.64" transform="rotate(90)" class="st5" v:langID="1044"><v:paragraph v:horizAlign="1"/><v:tabList/>Brace</text>		</g>
		<g id="shape12500-801" v:mID="12500" v:groupContext="shape" transform="translate(1876.54,394.016) rotate(90)">
			<title>Sheet.12500</title>
			<desc>Cable slot</desc>
			<v:textBlock v:margins="rect(4,4,4,4)"/>
			<v:textRect cx="143.635" cy="841.89" width="287.27" height="0" transform="rotate(-90)"/>
			<path d="M19.2 841.89 L19.56 841.89 L287.27 841.89" class="st2"/>
			<rect v:rectContext="textBkgnd" x="-901.494" y="125.635" width="119.209" height="36" transform="rotate(-90)"
					class="st10"/>
			<text x="-901.49" y="152.63" transform="rotate(-90)" class="st5" v:langID="1044"><v:paragraph v:horizAlign="1"/><v:tabList/>Cable slot</text>		</g>
	</g>
</svg>
