<?xml version="1.0" encoding="UTF-8" standalone="no"?>
<!DOCTYPE svg PUBLIC "-//W3C//DTD SVG 1.1//EN" "http://www.w3.org/Graphics/SVG/1.1/DTD/svg11.dtd">
<!-- Generated by Microsoft Visio, SVG Export sidemount.svg Page-1 -->
<svg xmlns="http://www.w3.org/2000/svg" xmlns:xlink="http://www.w3.org/1999/xlink" xmlns:ev="http://www.w3.org/2001/xml-events"
		xmlns:v="http://schemas.microsoft.com/visio/2003/SVGExtensions/" width="16.5354in" height="11.6929in"
		viewBox="0 0 1190.55 841.89" xml:space="preserve" color-interpolation-filters="sRGB" class="st10">
	<v:documentProperties v:langID="1044" v:viewMarkup="false">
		<v:userDefs>
			<v:ud v:nameU="msvNoAutoConnect" v:val="VT0(1):26"/>
		</v:userDefs>
	</v:documentProperties>

	<style type="text/css">
	<![CDATA[
		.st1 {stroke:#000000;stroke-linecap:round;stroke-linejoin:round;stroke-width:0.75}
		.st2 {stroke:#00b0f0;stroke-linecap:round;stroke-linejoin:round;stroke-width:2}
		.st3 {stroke:#00b050;stroke-linecap:round;stroke-linejoin:round;stroke-width:2}
		.st4 {marker-start:url(#mrkr13-417);stroke:#00b050;stroke-linecap:round;stroke-linejoin:round;stroke-width:0.75}
		.st5 {fill:#00b050;fill-opacity:1;stroke:#00b050;stroke-opacity:1;stroke-width:0.076923076923077}
		.st6 {fill:#ffffff;stroke:none;stroke-linecap:butt;stroke-width:7.2}
		.st7 {fill:#000000;font-family:Calibri;font-size:2.50001em}
		.st8 {marker-start:url(#mrkr13-425);stroke:#4bacc6;stroke-linecap:round;stroke-linejoin:round;stroke-width:0.75}
		.st9 {fill:#4bacc6;fill-opacity:1;stroke:#4bacc6;stroke-opacity:1;stroke-width:0.076923076923077}
		.st10 {fill:none;fill-rule:evenodd;font-size:12px;overflow:visible;stroke-linecap:square;stroke-miterlimit:3}
	]]>
	</style>

	<defs id="Markers">
		<g id="lend13">
			<path d="M 3 1 L 0 0 L 3 -1 L 3 1 " style="stroke:none"/>
		</g>
		<marker id="mrkr13-417" class="st5" v:arrowType="13" v:arrowSize="5" v:setback="38.52" refX="38.52" orient="auto"
				markerUnits="strokeWidth" overflow="visible">
			<use xlink:href="#lend13" transform="scale(13) "/>
		</marker>
		<marker id="mrkr13-425" class="st9" v:arrowType="13" v:arrowSize="5" v:setback="38.52" refX="38.52" orient="auto"
				markerUnits="strokeWidth" overflow="visible">
			<use xlink:href="#lend13" transform="scale(13) "/>
		</marker>
	</defs>
	<g v:mID="0" v:index="1" v:groupContext="foregroundPage">
		<title>Page-1</title>
		<v:pageProperties v:drawingScale="0.0393701" v:pageScale="0.0393701" v:drawingUnits="24" v:shadowOffsetX="9"
				v:shadowOffsetY="-9"/>
		<v:layer v:name="CAD Drawing" v:index="0"/>
		<v:layer v:name="0" v:index="1" color="#000000"/>
		<v:layer v:name="FORMAT" v:index="2" color="#000000"/>
		<v:layer v:name="DWGEntityColorOverrideLayer" v:index="3" v:visibility="hidden"/>
		<g id="shape8190-1" v:mID="8190" v:groupContext="shape" transform="translate(258.979,-372.52)">
			<title>Sheet.8190</title>
			<path d="M0 827.43 L0 828.32 L0 829.2 L0.3 830.09 L0.3 830.97 L0.59 831.86 L0.89 832.74 L1.48 833.63 L1.78 834.51 L2.37
						 835.1 L2.66 835.99 L3.26 836.58 L3.85 837.46 L4.44 838.05 L5.33 838.64 L5.92 839.23 L6.81 839.53 L7.4 840.12
						 L8.29 840.41 L9.17 840.71 L10.06 841.3 L10.95 841.3 L11.84 841.59 L12.72 841.89 L13.61 841.89 L14.5 841.89"
					class="st1"/>
		</g>
		<g id="shape8191-4" v:mID="8191" v:groupContext="shape" transform="translate(416.114,-231.802)">
			<title>Sheet.8191</title>
			<path d="M0 841.89 L0 701.17" class="st1"/>
		</g>
		<g id="shape8192-7" v:mID="8192" v:groupContext="shape" transform="translate(273.479,-372.225)">
			<title>Sheet.8192</title>
			<path d="M0 841.59 L0 841.89" class="st1"/>
		</g>
		<g id="shape8193-10" v:mID="8193" v:groupContext="shape" transform="translate(185.591,-231.802)">
			<title>Sheet.8193</title>
			<path d="M0 841.89 L230.52 841.89" class="st1"/>
		</g>
		<g id="shape8194-13" v:mID="8194" v:groupContext="shape" transform="translate(416.114,-372.225)">
			<title>Sheet.8194</title>
			<path d="M0 841.59 L0 841.89" class="st1"/>
		</g>
		<g id="shape8195-16" v:mID="8195" v:groupContext="shape" transform="translate(142.09,-430.046)">
			<title>Sheet.8195</title>
			<path d="M43.5 841.89 L43.2 840.41 L43.2 838.64 L43.2 837.17 L42.91 835.69 L42.61 834.22 L42.32 832.45 L42.02 830.97
						 L41.43 829.5 L41.13 828.02 L40.54 826.55 L39.95 825.07 L39.36 823.6 L38.47 822.12 L37.88 820.94 L36.99 819.47
						 L36.1 817.99 L35.21 816.81 L34.33 815.63 L33.44 814.45 L32.26 813.27 L31.37 812.09 L30.18 810.91 L29 809.73
						 L27.82 808.85 L26.63 807.67 L25.15 806.78 L23.97 805.9 L22.79 805.01 L21.31 804.42 L19.83 803.54 L18.35
						 802.95 L17.16 802.36 L15.68 801.77 L14.2 801.18 L12.72 800.59 L10.95 800.29 L9.47 799.7 L7.99 799.41 L6.51
						 799.41 L4.73 799.11 L3.26 798.82 L1.78 798.82 L0 798.82" class="st1"/>
		</g>
		<g id="shape8196-19" v:mID="8196" v:groupContext="shape" transform="translate(416.114,-231.508)">
			<title>Sheet.8196</title>
			<path d="M0 841.59 L0 841.89" class="st1"/>
		</g>
		<g id="shape8197-22" v:mID="8197" v:groupContext="shape" transform="translate(127.886,-473.117)">
			<title>Sheet.8197</title>
			<path d="M0 841.89 L14.2 841.89" class="st1"/>
		</g>
		<g id="shape8198-25" v:mID="8198" v:groupContext="shape" transform="translate(142.09,-472.822)">
			<title>Sheet.8198</title>
			<path d="M0 841.59 L0 841.89" class="st1"/>
		</g>
		<g id="shape8199-28" v:mID="8199" v:groupContext="shape" transform="translate(127.886,-473.117)">
			<title>Sheet.8199</title>
			<path d="M0 701.17 L0 841.89" class="st1"/>
		</g>
		<g id="shape8200-31" v:mID="8200" v:groupContext="shape" transform="translate(142.09,-472.822)">
			<title>Sheet.8200</title>
			<path d="M0 841.59 L0 841.89" class="st1"/>
		</g>
		<g id="shape8201-34" v:mID="8201" v:groupContext="shape" transform="translate(127.886,-613.835)">
			<title>Sheet.8201</title>
			<path d="M0 841.89 L131.09 841.89" class="st1"/>
		</g>
		<g id="shape8202-37" v:mID="8202" v:groupContext="shape" transform="translate(127.886,-472.822)">
			<title>Sheet.8202</title>
			<path d="M0 841.59 L0 841.89" class="st1"/>
		</g>
		<g id="shape8203-40" v:mID="8203" v:groupContext="shape" transform="translate(258.979,-386.976)">
			<title>Sheet.8203</title>
			<path d="M0 615.03 L0 841.89" class="st1"/>
		</g>
		<g id="shape8204-43" v:mID="8204" v:groupContext="shape" transform="translate(258.979,-613.54)">
			<title>Sheet.8204</title>
			<path d="M0 841.59 L0 841.89" class="st1"/>
		</g>
		<g id="shape8205-46" v:mID="8205" v:groupContext="shape" transform="translate(258.979,-386.681)">
			<title>Sheet.8205</title>
			<path d="M0 841.59 L0 841.89" class="st1"/>
		</g>
		<g id="shape8206-49" v:mID="8206" v:groupContext="shape" transform="translate(321.715,-279.888)">
			<title>Sheet.8206</title>
			<path d="M44.68 819.76 L44.68 818.58 L44.39 817.4 L44.39 816.22 L44.09 815.34 L44.09 814.16 L43.8 813.27 L43.2 812.09
						 L42.91 811.21 L42.61 810.03 L42.02 809.14 L41.43 808.26 L40.84 807.37 L40.25 806.49 L39.65 805.6 L38.77
						 804.72 L38.17 803.83 L37.29 803.24 L36.4 802.36 L35.51 801.77 L34.62 801.18 L33.74 800.59 L32.85 800 L31.96
						 799.41 L30.78 799.11 L29.89 798.52 L28.7 798.23 L27.82 797.93 L26.63 797.64 L25.45 797.64 L24.56 797.34
						 L23.38 797.34 L22.19 797.34 L21.31 797.34 L20.12 797.34 L18.94 797.64 L18.05 797.64 L16.87 797.93 L15.68
						 798.23 L14.8 798.52 L13.61 799.11 L12.72 799.41 L11.84 800 L10.65 800.59 L9.77 801.18 L8.88 801.77 L7.99
						 802.36 L7.4 803.24 L6.51 803.83 L5.62 804.72 L5.03 805.6 L4.44 806.49 L3.85 807.37 L3.26 808.26 L2.66 809.14
						 L2.07 810.03 L1.78 811.21 L1.18 812.09 L0.89 813.27 L0.59 814.16 L0.3 815.34 L0.3 816.22 L0 817.4 L0 818.58
						 L0 819.76 L0 820.65 L0 821.83 L0.3 823.01 L0.3 823.89 L0.59 825.07 L0.89 825.96 L1.18 827.14 L1.78 828.02
						 L2.07 829.2 L2.66 830.09 L3.26 830.97 L3.85 831.86 L4.44 832.74 L5.03 833.63 L5.62 834.51 L6.51 835.4 L7.4
						 835.99 L7.99 836.87 L8.88 837.46 L9.77 838.05 L10.65 838.64 L11.84 839.23 L12.72 839.82 L13.61 840.12 L14.8
						 840.71 L15.68 841 L16.87 841.3 L18.05 841.59 L18.94 841.59 L20.12 841.89 L21.31 841.89 L22.19 841.89 L23.38
						 841.89 L24.56 841.89 L25.45 841.59 L26.63 841.59 L27.82 841.3 L28.7 841 L29.89 840.71 L30.78 840.12 L31.96
						 839.82 L32.85 839.23 L33.74 838.64 L34.62 838.05 L35.51 837.46 L36.4 836.87 L37.29 835.99 L38.17 835.4 L38.77
						 834.51 L39.65 833.63 L40.25 832.74 L40.84 831.86 L41.43 830.97 L42.02 830.09 L42.61 829.2 L42.91 828.02
						 L43.2 827.14 L43.8 825.96 L44.09 825.07 L44.09 823.89 L44.39 823.01 L44.39 821.83 L44.68 820.65 L44.68 819.76
						 L44.68 819.76" class="st2"/>
		</g>
		<g id="shape8207-52" v:mID="8207" v:groupContext="shape" transform="translate(185.591,-231.802)">
			<title>Sheet.8207</title>
			<path d="M0 643.65 L0 841.89" class="st1"/>
		</g>
		<g id="shape8208-55" v:mID="8208" v:groupContext="shape" transform="translate(273.479,-372.52)">
			<title>Sheet.8208</title>
			<path d="M0 841.89 L142.63 841.89" class="st1"/>
		</g>
		<g id="shape8209-58" v:mID="8209" v:groupContext="shape" transform="translate(185.591,-231.508)">
			<title>Sheet.8209</title>
			<path d="M0 841.59 L0 841.89" class="st1"/>
		</g>
		<g id="shape8210-61" v:mID="8210" v:groupContext="shape" transform="translate(444.818,-260.418)">
			<title>Sheet.8210</title>
			<path d="M0 758.4 L0 841.89" class="st1"/>
		</g>
		<g id="shape8211-64" v:mID="8211" v:groupContext="shape" transform="translate(416.114,-372.225)">
			<title>Sheet.8211</title>
			<path d="M0 841.59 L0 841.89" class="st1"/>
		</g>
		<g id="shape8212-67" v:mID="8212" v:groupContext="shape" transform="translate(416.114,-231.802)">
			<title>Sheet.8212</title>
			<path d="M0 841.89 L1.18 841.89 L2.66 841.89 L3.85 841.59 L5.03 841.59 L6.21 841.3 L7.69 841 L8.88 840.41 L10.06 840.12
						 L11.25 839.53 L12.43 839.23 L13.61 838.64 L14.8 837.76 L15.68 837.17 L16.87 836.58 L18.05 835.69 L18.94
						 834.81 L19.83 833.92 L20.71 833.04 L21.6 832.15 L22.49 830.97 L23.38 830.09 L23.97 828.91 L24.56 828.02
						 L25.45 826.84 L26.04 825.66 L26.34 824.48 L26.93 823.3 L27.22 822.12 L27.82 820.94 L28.11 819.47 L28.41
						 818.29 L28.41 817.11 L28.7 815.63 L28.7 814.45 L28.7 813.27" class="st1"/>
		</g>
		<g id="shape8213-70" v:mID="8213" v:groupContext="shape" transform="translate(444.818,-260.123)">
			<title>Sheet.8213</title>
			<path d="M0 841.59 L0 841.89" class="st1"/>
		</g>
		<g id="shape8214-73" v:mID="8214" v:groupContext="shape" transform="translate(416.114,-343.905)">
			<title>Sheet.8214</title>
			<path d="M28.7 841.89 L28.7 840.71 L28.7 839.53 L28.41 838.05 L28.41 836.87 L28.11 835.69 L27.82 834.22 L27.22 833.04
						 L26.93 831.86 L26.34 830.68 L26.04 829.5 L25.45 828.32 L24.56 827.14 L23.97 826.25 L23.38 825.07 L22.49
						 824.19 L21.6 823.01 L20.71 822.12 L19.83 821.24 L18.94 820.35 L18.05 819.47 L16.87 818.58 L15.68 817.99
						 L14.8 817.4 L13.61 816.81 L12.43 816.22 L11.25 815.63 L10.06 815.04 L8.88 814.75 L7.69 814.16 L6.21 813.86
						 L5.03 813.57 L3.85 813.57 L2.66 813.27 L1.18 813.27 L0 813.27" class="st1"/>
		</g>
		<g id="shape8215-76" v:mID="8215" v:groupContext="shape" transform="translate(444.818,-260.123)">
			<title>Sheet.8215</title>
			<path d="M0 841.59 L0 841.89" class="st1"/>
		</g>
		<g id="shape8216-79" v:mID="8216" v:groupContext="shape" transform="translate(113.386,-487.572)">
			<title>Sheet.8216</title>
			<path d="M0 841.89 L0 729.79" class="st1"/>
		</g>
		<g id="shape8217-82" v:mID="8217" v:groupContext="shape" transform="translate(416.114,-372.225)">
			<title>Sheet.8217</title>
			<path d="M0 841.59 L0 841.89" class="st1"/>
		</g>
		<g id="shape8218-85" v:mID="8218" v:groupContext="shape" transform="translate(113.386,-599.675)">
			<title>Sheet.8218</title>
			<path d="M14.5 827.73 L13.61 827.73 L12.72 827.73 L11.84 828.02 L10.95 828.02 L10.06 828.32 L9.17 828.61 L8.29 828.91
						 L7.4 829.5 L6.81 829.79 L5.92 830.38 L5.33 830.97 L4.44 831.56 L3.85 832.15 L3.26 832.74 L2.66 833.63 L2.37
						 834.22 L1.78 835.1 L1.48 835.99 L0.89 836.58 L0.59 837.46 L0.59 838.35 L0.3 839.23 L0 840.12 L0 841 L0 841.89"
					class="st1"/>
		</g>
		<g id="shape8219-88" v:mID="8219" v:groupContext="shape" transform="translate(113.386,-599.38)">
			<title>Sheet.8219</title>
			<path d="M0 841.59 L0 841.89" class="st1"/>
		</g>
		<g id="shape8220-91" v:mID="8220" v:groupContext="shape" transform="translate(113.386,-473.117)">
			<title>Sheet.8220</title>
			<path d="M0 827.43 L0 828.32 L0 829.2 L0.3 830.09 L0.59 830.97 L0.59 831.86 L0.89 832.74 L1.48 833.63 L1.78 834.51 L2.37
						 835.1 L2.66 835.99 L3.26 836.58 L3.85 837.46 L4.44 838.05 L5.33 838.64 L5.92 839.23 L6.81 839.53 L7.4 840.12
						 L8.29 840.41 L9.17 841 L10.06 841.3 L10.95 841.3 L11.84 841.59 L12.72 841.89 L13.61 841.89 L14.5 841.89"
					class="st1"/>
		</g>
		<g id="shape8221-94" v:mID="8221" v:groupContext="shape" transform="translate(113.386,-599.38)">
			<title>Sheet.8221</title>
			<path d="M0 841.59 L0 841.89" class="st1"/>
		</g>
		<g id="shape8222-97" v:mID="8222" v:groupContext="shape" transform="translate(258.979,-458.662)">
			<title>Sheet.8222</title>
			<path d="M14.5 827.43 L13.02 827.43 L11.54 827.73 L10.36 828.02 L9.17 828.32 L6.81 829.5 L5.92 830.09 L5.03 830.97 L4.14
						 831.56 L2.66 833.33 L2.07 834.22 L1.78 835.1 L1.18 835.99 L0.59 837.76 L0.3 838.94 L0 839.82 L0 840.71 L0
						 841.89" class="st1"/>
		</g>
		<g id="shape8223-100" v:mID="8223" v:groupContext="shape" transform="translate(127.886,-472.822)">
			<title>Sheet.8223</title>
			<path d="M0 841.59 L0 841.89" class="st1"/>
		</g>
		<g id="shape8224-103" v:mID="8224" v:groupContext="shape" transform="translate(287.684,-473.117)">
			<title>Sheet.8224</title>
			<path d="M0 701.17 L0 841.89" class="st1"/>
		</g>
		<g id="shape8225-106" v:mID="8225" v:groupContext="shape" transform="translate(258.979,-458.367)">
			<title>Sheet.8225</title>
			<path d="M0 841.59 L0 841.89" class="st1"/>
		</g>
		<g id="shape8226-109" v:mID="8226" v:groupContext="shape" transform="translate(273.479,-473.117)">
			<title>Sheet.8226</title>
			<path d="M14.2 841.89 L0 841.89" class="st1"/>
		</g>
		<g id="shape8227-112" v:mID="8227" v:groupContext="shape" transform="translate(287.684,-472.822)">
			<title>Sheet.8227</title>
			<path d="M0 841.59 L0 841.89" class="st1"/>
		</g>
		<g id="shape8228-115" v:mID="8228" v:groupContext="shape" transform="translate(258.979,-613.835)">
			<title>Sheet.8228</title>
			<path d="M0 841.89 L28.7 841.89" class="st1"/>
		</g>
		<g id="shape8229-118" v:mID="8229" v:groupContext="shape" transform="translate(273.479,-472.822)">
			<title>Sheet.8229</title>
			<path d="M0 841.59 L0 841.89" class="st1"/>
		</g>
		<g id="shape8230-121" v:mID="8230" v:groupContext="shape" transform="translate(316.684,-599.675)">
			<title>Sheet.8230</title>
			<path d="M14.2 841.89 L14.2 841 L14.2 840.12 L14.2 839.23 L13.91 838.35 L13.61 837.46 L13.32 836.58 L13.02 835.99 L12.43
						 835.1 L12.13 834.22 L11.54 833.63 L10.95 832.74 L10.36 832.15 L9.77 831.56 L9.17 830.97 L8.29 830.38 L7.69
						 829.79 L6.81 829.5 L5.92 828.91 L5.33 828.61 L4.44 828.32 L3.55 828.02 L2.66 828.02 L1.78 827.73 L0.89 827.73
						 L0 827.73" class="st1"/>
		</g>
		<g id="shape8231-124" v:mID="8231" v:groupContext="shape" transform="translate(287.684,-613.54)">
			<title>Sheet.8231</title>
			<path d="M0 841.59 L0 841.89" class="st1"/>
		</g>
		<g id="shape8232-127" v:mID="8232" v:groupContext="shape" transform="translate(316.684,-473.117)">
			<title>Sheet.8232</title>
			<path d="M0 841.89 L0.89 841.89 L1.78 841.89 L2.66 841.59 L3.55 841.3 L4.44 841.3 L5.33 841 L5.92 840.41 L6.81 840.12
						 L7.69 839.53 L8.29 839.23 L9.17 838.64 L9.77 838.05 L10.36 837.46 L10.95 836.58 L11.54 835.99 L12.13 835.1
						 L12.43 834.51 L13.02 833.63 L13.32 832.74 L13.61 831.86 L13.91 830.97 L14.2 830.09 L14.2 829.2 L14.2 828.32
						 L14.2 827.43" class="st1"/>
		</g>
		<g id="shape8233-130" v:mID="8233" v:groupContext="shape" transform="translate(316.684,-613.54)">
			<title>Sheet.8233</title>
			<path d="M0 841.59 L0 841.89" class="st1"/>
		</g>
		<g id="shape8234-133" v:mID="8234" v:groupContext="shape" transform="translate(330.888,-487.572)">
			<title>Sheet.8234</title>
			<path d="M0 841.89 L0 729.79" class="st1"/>
		</g>
		<g id="shape8235-136" v:mID="8235" v:groupContext="shape" transform="translate(330.888,-487.278)">
			<title>Sheet.8235</title>
			<path d="M0 841.59 L0 841.89" class="st1"/>
		</g>
		<g id="shape8236-139" v:mID="8236" v:groupContext="shape" transform="translate(287.684,-473.117)">
			<title>Sheet.8236</title>
			<path d="M29 841.89 L-0 841.89" class="st1"/>
		</g>
		<g id="shape8237-142" v:mID="8237" v:groupContext="shape" transform="translate(330.888,-599.38)">
			<title>Sheet.8237</title>
			<path d="M0 841.59 L0 841.89" class="st1"/>
		</g>
		<g id="shape8238-145" v:mID="8238" v:groupContext="shape" transform="translate(287.684,-613.835)">
			<title>Sheet.8238</title>
			<path d="M29 841.89 L-0 841.89" class="st1"/>
		</g>
		<g id="shape8239-148" v:mID="8239" v:groupContext="shape" transform="translate(287.684,-472.822)">
			<title>Sheet.8239</title>
			<path d="M0 841.59 L0 841.89" class="st1"/>
		</g>
		<g id="shape8240-151" v:mID="8240" v:groupContext="shape" transform="translate(343.909,-302.014)">
			<title>Sheet.8240</title>
			<path d="M0 841.89 L0 805.9" class="st1"/>
		</g>
		<g id="shape8241-154" v:mID="8241" v:groupContext="shape" transform="translate(287.684,-613.54)">
			<title>Sheet.8241</title>
			<path d="M0 841.59 L0 841.89" class="st1"/>
		</g>
		<g id="shape8242-157" v:mID="8242" v:groupContext="shape" transform="translate(308.102,-302.014)">
			<title>Sheet.8242</title>
			<path d="M35.81 841.89 L0 841.89" class="st1"/>
		</g>
		<g id="shape8243-160" v:mID="8243" v:groupContext="shape" transform="translate(343.909,-337.71)">
			<title>Sheet.8243</title>
			<path d="M0 841.59 L0 841.89" class="st1"/>
		</g>
		<g id="shape8244-163" v:mID="8244" v:groupContext="shape" transform="translate(343.909,-266.318)">
			<title>Sheet.8244</title>
			<path d="M0 806.19 L0 841.89" class="st1"/>
		</g>
		<g id="shape8245-166" v:mID="8245" v:groupContext="shape" transform="translate(308.102,-301.719)">
			<title>Sheet.8245</title>
			<path d="M0 841.59 L0 841.89" class="st1"/>
		</g>
		<g id="shape8246-169" v:mID="8246" v:groupContext="shape" transform="translate(343.909,-302.014)">
			<title>Sheet.8246</title>
			<path d="M-0 841.89 L36.1 841.89" class="st1"/>
		</g>
		<g id="shape8247-172" v:mID="8247" v:groupContext="shape" transform="translate(343.909,-266.023)">
			<title>Sheet.8247</title>
			<path d="M0 841.59 L0 841.89" class="st1"/>
		</g>
		<g id="shape8248-175" v:mID="8248" v:groupContext="shape" transform="translate(343.909,-338.004)">
			<title>Sheet.8248</title>
			<path d="M0 841.89 L0 819.47" class="st1"/>
		</g>
		<g id="shape8249-178" v:mID="8249" v:groupContext="shape" transform="translate(380.011,-301.719)">
			<title>Sheet.8249</title>
			<path d="M0 841.59 L0 841.89" class="st1"/>
		</g>
		<g id="shape8250-181" v:mID="8250" v:groupContext="shape" transform="translate(285.612,-302.014)">
			<title>Sheet.8250</title>
			<path d="M22.49 841.89 L-0 841.89" class="st1"/>
		</g>
		<g id="shape8251-184" v:mID="8251" v:groupContext="shape" transform="translate(343.909,-360.13)">
			<title>Sheet.8251</title>
			<path d="M0 841.59 L0 841.89" class="st1"/>
		</g>
		<g id="shape8252-187" v:mID="8252" v:groupContext="shape" transform="translate(343.909,-243.898)">
			<title>Sheet.8252</title>
			<path d="M0 819.47 L0 841.89" class="st1"/>
		</g>
		<g id="shape8253-190" v:mID="8253" v:groupContext="shape" transform="translate(285.612,-301.719)">
			<title>Sheet.8253</title>
			<path d="M0 841.59 L0 841.89" class="st1"/>
		</g>
		<g id="shape8254-193" v:mID="8254" v:groupContext="shape" transform="translate(380.011,-302.014)">
			<title>Sheet.8254</title>
			<path d="M-0 841.89 L22.49 841.89" class="st1"/>
		</g>
		<g id="shape8255-196" v:mID="8255" v:groupContext="shape" transform="translate(343.909,-243.602)">
			<title>Sheet.8255</title>
			<path d="M0 841.59 L0 841.89" class="st1"/>
		</g>
		<g id="shape8256-199" v:mID="8256" v:groupContext="shape" transform="translate(1037.12,-758.89)">
			<title>Sheet.8256</title>
			<path d="M28.7 841.89 L28.7 841 L28.7 839.82 L28.7 838.94 L28.41 837.76 L28.11 835.99 L27.82 834.81 L27.52 833.92 L27.22
						 832.74 L26.34 830.68 L25.75 829.5 L25.15 828.02 L23.67 825.66 L22.79 824.48 L21.9 823.6 L20.12 821.53 L19.23
						 820.65 L18.35 820.06 L17.46 819.17 L15.68 817.99 L14.5 817.11 L13.61 816.52 L12.43 816.22 L10.36 815.04
						 L9.17 814.75 L7.99 814.45 L6.81 813.86 L4.44 813.57 L3.26 813.27 L2.37 813.27 L1.18 813.27 L0 813.27"
					class="st1"/>
		</g>
		<g id="shape8257-202" v:mID="8257" v:groupContext="shape" transform="translate(402.501,-301.719)">
			<title>Sheet.8257</title>
			<path d="M0 841.59 L0 841.89" class="st1"/>
		</g>
		<g id="shape8258-205" v:mID="8258" v:groupContext="shape" transform="translate(734.394,-773.346)">
			<title>Sheet.8258</title>
			<path d="M14.5 827.73 L13.61 827.73 L12.72 827.73 L11.84 827.73 L10.95 828.02 L10.06 828.32 L9.17 828.61 L8.29 828.91
						 L7.4 829.5 L6.81 829.79 L5.92 830.38 L5.33 830.97 L4.44 831.56 L3.85 832.15 L3.26 832.74 L2.66 833.63 L2.37
						 834.22 L1.78 835.1 L1.48 835.99 L0.89 836.58 L0.59 837.46 L0.59 838.35 L0.3 839.23 L0 840.12 L0 841 L0 841.89"
					class="st1"/>
		</g>
		<g id="shape8259-208" v:mID="8259" v:groupContext="shape" transform="translate(1037.12,-787.211)">
			<title>Sheet.8259</title>
			<path d="M0 841.59 L0 841.89" class="st1"/>
		</g>
		<g id="shape8260-211" v:mID="8260" v:groupContext="shape" transform="translate(748.895,-773.346)">
			<title>Sheet.8260</title>
			<path d="M0 841.89 L0 827.73" class="st1"/>
		</g>
		<g id="shape8261-214" v:mID="8261" v:groupContext="shape" transform="translate(734.394,-773.051)">
			<title>Sheet.8261</title>
			<path d="M0 841.59 L0 841.89" class="st1"/>
		</g>
		<g id="shape8262-217" v:mID="8262" v:groupContext="shape" transform="translate(734.394,-773.346)">
			<title>Sheet.8262</title>
			<path d="M-0 841.89 L14.5 841.89" class="st1"/>
		</g>
		<g id="shape8263-220" v:mID="8263" v:groupContext="shape" transform="translate(748.895,-787.211)">
			<title>Sheet.8263</title>
			<path d="M0 841.59 L0 841.89" class="st1"/>
		</g>
		<g id="shape8264-223" v:mID="8264" v:groupContext="shape" transform="translate(937.693,-773.346)">
			<title>Sheet.8264</title>
			<path d="M0 841.89 L0 827.73" class="st1"/>
		</g>
		<g id="shape8265-226" v:mID="8265" v:groupContext="shape" transform="translate(748.895,-773.051)">
			<title>Sheet.8265</title>
			<path d="M0 841.59 L0 841.89" class="st1"/>
		</g>
		<g id="shape8266-229" v:mID="8266" v:groupContext="shape" transform="translate(937.693,-773.346)">
			<title>Sheet.8266</title>
			<path d="M14.2 841.89 L14.2 841 L14.2 840.12 L14.2 839.23 L13.91 838.35 L13.61 837.46 L13.32 836.58 L13.02 835.99 L12.43
						 835.1 L12.13 834.22 L11.54 833.63 L10.95 832.74 L10.36 832.15 L9.77 831.56 L9.17 830.97 L8.29 830.38 L7.69
						 829.79 L6.81 829.5 L5.92 828.91 L5.33 828.61 L4.44 828.32 L3.55 828.02 L2.66 827.73 L1.78 827.73 L0.89 827.73
						 L0 827.73" class="st1"/>
		</g>
		<g id="shape8267-232" v:mID="8267" v:groupContext="shape" transform="translate(937.693,-787.211)">
			<title>Sheet.8267</title>
			<path d="M0 841.59 L0 841.89" class="st1"/>
		</g>
		<g id="shape8268-235" v:mID="8268" v:groupContext="shape" transform="translate(937.693,-773.346)">
			<title>Sheet.8268</title>
			<path d="M0 841.89 L14.2 841.89" class="st1"/>
		</g>
		<g id="shape8269-238" v:mID="8269" v:groupContext="shape" transform="translate(937.693,-787.211)">
			<title>Sheet.8269</title>
			<path d="M0 841.59 L0 841.89" class="st1"/>
		</g>
		<g id="shape8270-241" v:mID="8270" v:groupContext="shape" transform="translate(861.345,-787.506)">
			<title>Sheet.8270</title>
			<path d="M0 841.89 L76.35 841.89" class="st1"/>
		</g>
		<g id="shape8271-244" v:mID="8271" v:groupContext="shape" transform="translate(951.897,-773.051)">
			<title>Sheet.8271</title>
			<path d="M0 841.59 L0 841.89" class="st1"/>
		</g>
		<g id="shape8272-247" v:mID="8272" v:groupContext="shape" transform="translate(748.895,-773.346)">
			<title>Sheet.8272</title>
			<path d="M188.8 841.89 L0 841.89" class="st1"/>
		</g>
		<g id="shape8273-250" v:mID="8273" v:groupContext="shape" transform="translate(937.693,-787.211)">
			<title>Sheet.8273</title>
			<path d="M0 841.59 L0 841.89" class="st1"/>
		</g>
		<g id="shape8274-253" v:mID="8274" v:groupContext="shape" transform="translate(748.895,-787.506)">
			<title>Sheet.8274</title>
			<path d="M0 841.89 L76.05 841.89" class="st1"/>
		</g>
		<g id="shape8275-256" v:mID="8275" v:groupContext="shape" transform="translate(748.895,-773.051)">
			<title>Sheet.8275</title>
			<path d="M0 841.59 L0 841.89" class="st1"/>
		</g>
		<g id="shape8276-259" v:mID="8276" v:groupContext="shape" transform="translate(824.946,-787.211)">
			<title>Sheet.8276</title>
			<path d="M0 841.59 L1.48 841.59 L2.96 841.59 L4.44 841.59 L5.92 841.59 L7.4 841.59 L10.65 841.59 L12.13 841.59 L13.61
						 841.59 L15.09 841.89 L16.57 841.89 L19.83 841.89 L21.31 841.89 L22.79 841.59 L24.56 841.59 L26.04 841.59
						 L29 841.59 L30.48 841.59 L31.96 841.59 L33.44 841.59 L34.92 841.59 L36.4 841.59" class="st1"/>
		</g>
		<g id="shape8277-262" v:mID="8277" v:groupContext="shape" transform="translate(824.946,-787.211)">
			<title>Sheet.8277</title>
			<path d="M0 841.59 L0 841.89" class="st1"/>
		</g>
		<g id="shape8278-265" v:mID="8278" v:groupContext="shape" transform="translate(937.693,-144.098)">
			<title>Sheet.8278</title>
			<path d="M0 841.89 L0 212.64" class="st1"/>
		</g>
		<g id="shape8279-268" v:mID="8279" v:groupContext="shape" transform="translate(861.345,-787.211)">
			<title>Sheet.8279</title>
			<path d="M0 841.59 L0 841.89" class="st1"/>
		</g>
		<g id="shape8280-271" v:mID="8280" v:groupContext="shape" transform="translate(951.897,-144.098)">
			<title>Sheet.8280</title>
			<path d="M0 212.64 L0 841.89" class="st1"/>
		</g>
		<g id="shape8281-274" v:mID="8281" v:groupContext="shape" transform="translate(937.693,-773.051)">
			<title>Sheet.8281</title>
			<path d="M0 841.59 L0 841.89" class="st1"/>
		</g>
		<g id="shape8282-277" v:mID="8282" v:groupContext="shape" transform="translate(937.693,-144.098)">
			<title>Sheet.8282</title>
			<path d="M14.2 841.89 L0 841.89" class="st3"/>
		</g>
		<g id="shape8283-280" v:mID="8283" v:groupContext="shape" transform="translate(951.897,-143.803)">
			<title>Sheet.8283</title>
			<path d="M0 841.59 L0 841.89" class="st3"/>
		</g>
		<g id="shape8284-283" v:mID="8284" v:groupContext="shape" transform="translate(734.394,-83.6218)">
			<title>Sheet.8284</title>
			<path d="M0 841.89 L0 152.17" class="st1"/>
		</g>
		<g id="shape8285-286" v:mID="8285" v:groupContext="shape" transform="translate(937.693,-143.803)">
			<title>Sheet.8285</title>
			<path d="M0 841.59 L0 841.89" class="st3"/>
		</g>
		<g id="shape8286-289" v:mID="8286" v:groupContext="shape" transform="translate(748.895,-69.1665)">
			<title>Sheet.8286</title>
			<path d="M0 137.71 L0 841.89" class="st1"/>
		</g>
		<g id="shape8287-292" v:mID="8287" v:groupContext="shape" transform="translate(734.394,-773.051)">
			<title>Sheet.8287</title>
			<path d="M0 841.59 L0 841.89" class="st1"/>
		</g>
		<g id="shape8288-295" v:mID="8288" v:groupContext="shape" transform="translate(734.394,-69.1665)">
			<title>Sheet.8288</title>
			<path d="M0 827.43 L0 828.32 L0 829.2 L0.3 830.09 L0.59 830.97 L0.59 831.86 L0.89 832.74 L1.48 833.63 L1.78 834.22 L2.37
						 835.1 L2.66 835.99 L3.26 836.58 L3.85 837.17 L4.44 837.76 L5.33 838.35 L5.92 838.94 L6.81 839.53 L7.4 840.12
						 L8.29 840.41 L9.17 840.71 L10.06 841 L10.95 841.3 L11.84 841.59 L12.72 841.59 L13.61 841.89 L14.5 841.89"
					class="st1"/>
		</g>
		<g id="shape8289-298" v:mID="8289" v:groupContext="shape" transform="translate(748.895,-68.8715)">
			<title>Sheet.8289</title>
			<path d="M0 841.59 L0 841.89" class="st1"/>
		</g>
		<g id="shape8290-301" v:mID="8290" v:groupContext="shape" transform="translate(748.895,-69.1665)">
			<title>Sheet.8290</title>
			<path d="M0 841.89 L131.09 841.89" class="st1"/>
		</g>
		<g id="shape8291-304" v:mID="8291" v:groupContext="shape" transform="translate(748.895,-68.8715)">
			<title>Sheet.8291</title>
			<path d="M0 841.59 L0 841.89" class="st1"/>
		</g>
		<g id="shape8292-307" v:mID="8292" v:groupContext="shape" transform="translate(908.692,-144.098)">
			<title>Sheet.8292</title>
			<path d="M29 841.89 L-0 841.89" class="st1"/>
		</g>
		<g id="shape8293-310" v:mID="8293" v:groupContext="shape" transform="translate(879.988,-68.8715)">
			<title>Sheet.8293</title>
			<path d="M0 841.59 L0 841.89" class="st1"/>
		</g>
		<g id="shape8294-313" v:mID="8294" v:groupContext="shape" transform="translate(879.988,-115.187)">
			<title>Sheet.8294</title>
			<path d="M28.7 812.98 L27.52 812.98 L26.34 813.27 L24.86 813.27 L23.67 813.57 L22.49 813.86 L21.01 814.16 L19.83 814.45
						 L18.64 815.04 L17.46 815.34 L16.28 815.93 L15.09 816.52 L13.91 817.11 L13.02 817.99 L11.84 818.58 L10.95
						 819.47 L9.77 820.06 L8.88 820.94 L7.99 821.83 L7.1 823.01 L6.21 823.89 L5.62 825.07 L4.73 825.96 L4.14 827.14
						 L3.55 828.32 L2.96 829.5 L2.37 830.68 L1.78 831.86 L1.48 833.04 L0.89 834.22 L0.59 835.4 L0.59 836.58 L0.3
						 838.05 L0 839.23 L0 840.41 L0 841.89" class="st1"/>
		</g>
		<g id="shape8295-316" v:mID="8295" v:groupContext="shape" transform="translate(908.692,-143.803)">
			<title>Sheet.8295</title>
			<path d="M0 841.59 L0 841.89" class="st1"/>
		</g>
		<g id="shape8296-319" v:mID="8296" v:groupContext="shape" transform="translate(879.988,-69.1665)">
			<title>Sheet.8296</title>
			<path d="M0 795.87 L0 841.89" class="st1"/>
		</g>
		<g id="shape8297-322" v:mID="8297" v:groupContext="shape" transform="translate(879.988,-114.892)">
			<title>Sheet.8297</title>
			<path d="M0 841.59 L0 841.89" class="st1"/>
		</g>
		<g id="shape8298-325" v:mID="8298" v:groupContext="shape" transform="translate(879.988,-69.1665)">
			<title>Sheet.8298</title>
			<path d="M14.5 841.89 L0 841.89" class="st1"/>
		</g>
		<g id="shape8299-328" v:mID="8299" v:groupContext="shape" transform="translate(879.988,-68.8715)">
			<title>Sheet.8299</title>
			<path d="M0 841.59 L0 841.89" class="st1"/>
		</g>
		<g id="shape8300-331" v:mID="8300" v:groupContext="shape" transform="translate(1037.12,-773.346)">
			<title>Sheet.8300</title>
			<path d="M0 841.89 L0 827.73" class="st1"/>
		</g>
		<g id="shape8301-334" v:mID="8301" v:groupContext="shape" transform="translate(879.988,-68.8715)">
			<title>Sheet.8301</title>
			<path d="M0 841.59 L0 841.89" class="st1"/>
		</g>
		<g id="shape8302-337" v:mID="8302" v:groupContext="shape" transform="translate(937.693,-787.506)">
			<title>Sheet.8302</title>
			<path d="M0 841.89 L99.43 841.89" class="st1"/>
		</g>
		<g id="shape8303-340" v:mID="8303" v:groupContext="shape" transform="translate(1037.12,-787.211)">
			<title>Sheet.8303</title>
			<path d="M0 841.59 L0 841.89" class="st1"/>
		</g>
		<g id="shape8304-343" v:mID="8304" v:groupContext="shape" transform="translate(1037.12,-758.89)">
			<title>Sheet.8304</title>
			<path d="M28.7 841.89 L28.41 840.12 L27.82 838.05 L26.63 836.28 L24.86 834.81 L22.79 833.04 L20.42 831.86 L17.46 830.38
						 L14.2 829.5 L10.95 828.61 L7.4 828.02 L3.55 827.73 L0 827.43" class="st1"/>
		</g>
		<g id="shape8305-346" v:mID="8305" v:groupContext="shape" transform="translate(1037.12,-787.211)">
			<title>Sheet.8305</title>
			<path d="M0 841.59 L0 841.89" class="st1"/>
		</g>
		<g id="shape8306-349" v:mID="8306" v:groupContext="shape" transform="translate(1037.12,-69.1665)">
			<title>Sheet.8306</title>
			<path d="M0 841.89 L1.18 841.89 L2.66 841.59 L3.85 841.59 L5.03 841.3 L6.21 841 L7.69 840.71 L8.88 840.41 L10.06 839.82
						 L11.25 839.53 L12.43 838.94 L13.61 838.35 L14.8 837.76 L15.68 837.17 L16.87 836.28 L18.05 835.4 L18.94 834.81
						 L19.83 833.92 L20.71 833.04 L21.6 831.86 L22.49 830.97 L23.38 829.79 L23.97 828.91 L24.56 827.73 L25.45
						 826.55 L26.04 825.66 L26.34 824.48 L26.93 823.01 L27.22 821.83 L27.82 820.65 L28.11 819.47 L28.41 818.29
						 L28.41 816.81 L28.7 815.63 L28.7 814.45 L28.7 812.98" class="st1"/>
		</g>
		<g id="shape8307-352" v:mID="8307" v:groupContext="shape" transform="translate(1037.12,-773.051)">
			<title>Sheet.8307</title>
			<path d="M0 841.59 L0 841.89" class="st1"/>
		</g>
		<g id="shape8308-355" v:mID="8308" v:groupContext="shape" transform="translate(1037.12,-69.1665)">
			<title>Sheet.8308</title>
			<path d="M0 841.89 L0 137.71" class="st1"/>
		</g>
		<g id="shape8309-358" v:mID="8309" v:groupContext="shape" transform="translate(1065.83,-97.782)">
			<title>Sheet.8309</title>
			<path d="M0 841.59 L0 841.89" class="st1"/>
		</g>
		<g id="shape8310-361" v:mID="8310" v:groupContext="shape" transform="translate(1065.83,-98.077)">
			<title>Sheet.8310</title>
			<path d="M0 181.08 L0 841.89" class="st1"/>
		</g>
		<g id="shape8311-364" v:mID="8311" v:groupContext="shape" transform="translate(1037.12,-773.051)">
			<title>Sheet.8311</title>
			<path d="M0 841.59 L0 841.89" class="st1"/>
		</g>
		<g id="shape8312-367" v:mID="8312" v:groupContext="shape" transform="translate(1012.56,-98.077)">
			<title>Sheet.8312</title>
			<path d="M0 841.89 L0 795.87" class="st3"/>
		</g>
		<g id="shape8313-370" v:mID="8313" v:groupContext="shape" transform="translate(1065.83,-97.782)">
			<title>Sheet.8313</title>
			<path d="M0 841.59 L0 841.89" class="st1"/>
		</g>
		<g id="shape8314-373" v:mID="8314" v:groupContext="shape" transform="translate(951.897,-144.098)">
			<title>Sheet.8314</title>
			<path d="M60.66 841.89 L-0 841.89" class="st3"/>
		</g>
		<g id="shape8315-376" v:mID="8315" v:groupContext="shape" transform="translate(1012.56,-143.803)">
			<title>Sheet.8315</title>
			<path d="M0 841.59 L0 841.89" class="st3"/>
		</g>
		<g id="shape8316-379" v:mID="8316" v:groupContext="shape" transform="translate(918.754,-98.077)">
			<title>Sheet.8316</title>
			<path d="M0 795.87 L0 841.89" class="st3"/>
		</g>
		<g id="shape8317-382" v:mID="8317" v:groupContext="shape" transform="translate(951.897,-143.803)">
			<title>Sheet.8317</title>
			<path d="M0 841.59 L0 841.89" class="st3"/>
		</g>
		<g id="shape8318-385" v:mID="8318" v:groupContext="shape" transform="translate(918.754,-98.077)">
			<title>Sheet.8318</title>
			<path d="M-0 841.89 L93.81 841.89" class="st3"/>
		</g>
		<g id="shape8319-388" v:mID="8319" v:groupContext="shape" transform="translate(918.754,-97.782)">
			<title>Sheet.8319</title>
			<path d="M0 841.59 L0 841.89" class="st3"/>
		</g>
		<g id="shape8320-391" v:mID="8320" v:groupContext="shape" transform="translate(894.488,-69.1665)">
			<title>Sheet.8320</title>
			<path d="M0 841.89 L142.63 841.89" class="st1"/>
		</g>
		<g id="shape8321-394" v:mID="8321" v:groupContext="shape" transform="translate(1012.56,-97.782)">
			<title>Sheet.8321</title>
			<path d="M0 841.59 L0 841.89" class="st3"/>
		</g>
		<g id="shape8322-397" v:mID="8322" v:groupContext="shape" transform="translate(894.488,-69.1665)">
			<title>Sheet.8322</title>
			<path d="M0 770.79 L0 841.89" class="st1"/>
		</g>
		<g id="shape8323-400" v:mID="8323" v:groupContext="shape" transform="translate(1037.12,-68.8715)">
			<title>Sheet.8323</title>
			<path d="M0 841.59 L0 841.89" class="st1"/>
		</g>
		<g id="shape8324-403" v:mID="8324" v:groupContext="shape" transform="translate(951.897,-773.346)">
			<title>Sheet.8324</title>
			<path d="M85.23 841.89 L-0 841.89" class="st1"/>
		</g>
		<g id="shape8325-406" v:mID="8325" v:groupContext="shape" transform="translate(894.488,-68.8715)">
			<title>Sheet.8325</title>
			<path d="M0 841.59 L0 841.89" class="st1"/>
		</g>
		<g id="shape8327-409" v:mID="8327" v:groupContext="shape" transform="translate(951.897,-773.051)">
			<title>Sheet.8327</title>
			<path d="M0 841.59 L0 841.89" class="st1"/>
		</g>
		<g id="shape8504-412" v:mID="8504" v:groupContext="shape" transform="translate(1196.83,-86.6788) rotate(14.4703)">
			<title>Sheet.8504</title>
			<desc>M3 nut</desc>
			<v:textBlock v:margins="rect(4,4,4,4)"/>
			<v:textRect cx="90.7529" cy="841.89" width="181.51" height="0"/>
			<path d="M28.89 841.89 L29.25 841.89 L181.51 841.89" class="st4"/>
			<rect v:rectContext="textBkgnd" x="46.1483" y="823.89" width="89.2093" height="36" class="st6"/>
			<text x="46.15" y="850.89" class="st7" v:langID="1044"><v:paragraph v:horizAlign="1"/><v:tabList/>M3 nut</text>		</g>
		<g id="shape8511-420" v:mID="8511" v:groupContext="shape" transform="translate(675.262,-234.064) rotate(23.1776)">
			<title>Sheet.8511</title>
			<desc>M3 screw</desc>
			<v:textBlock v:margins="rect(4,4,4,4)"/>
			<v:textRect cx="125.381" cy="841.89" width="250.77" height="0"/>
			<path d="M28.89 841.89 L29.25 841.89 L227.18 841.89" class="st8"/>
			<rect v:rectContext="textBkgnd" x="65.9377" y="823.89" width="118.887" height="36" class="st6"/>
			<text x="65.94" y="850.89" class="st7" v:langID="1044"><v:paragraph v:horizAlign="1"/><v:tabList/>M3 screw</text>		</g>
	</g>
</svg>
