<?xml version="1.0" encoding="UTF-8" standalone="no"?>
<!DOCTYPE svg PUBLIC "-//W3C//DTD SVG 1.1//EN" "http://www.w3.org/Graphics/SVG/1.1/DTD/svg11.dtd">
<!-- Generated by Microsoft Visio, SVG Export topbottle.svg Page-2 -->
<svg xmlns="http://www.w3.org/2000/svg" xmlns:xlink="http://www.w3.org/1999/xlink" xmlns:ev="http://www.w3.org/2001/xml-events"
		xmlns:v="http://schemas.microsoft.com/visio/2003/SVGExtensions/" width="16.5354in" height="11.6929in"
		viewBox="0 0 1190.55 841.89" xml:space="preserve" color-interpolation-filters="sRGB" class="st13">
	<v:documentProperties v:langID="1044" v:viewMarkup="false">
		<v:userDefs>
			<v:ud v:nameU="msvNoAutoConnect" v:val="VT0(1):26"/>
		</v:userDefs>
	</v:documentProperties>

	<style type="text/css">
	<![CDATA[
		.st1 {stroke:#000000;stroke-linecap:round;stroke-linejoin:round;stroke-width:0.75}
		.st2 {fill:#595959;fill-opacity:0.36;marker-start:url(#mrkr13-730);stroke:#595959;stroke-linecap:round;stroke-linejoin:round;stroke-width:0.75}
		.st3 {fill:#595959;fill-opacity:1;stroke:#595959;stroke-opacity:1;stroke-width:0.22935779816514}
		.st4 {fill:#000000;font-family:Calibri;font-size:2.50001em}
		.st5 {font-size:1em}
		.st6 {fill:#595959;fill-opacity:0.44;marker-start:url(#mrkr13-736);stroke:#3f3f3f;stroke-linecap:round;stroke-linejoin:round;stroke-width:0.75}
		.st7 {fill:#3f3f3f;fill-opacity:1;stroke:#3f3f3f;stroke-opacity:1;stroke-width:0.22935779816514}
		.st8 {marker-start:url(#mrkr13-743);stroke:#595959;stroke-linecap:round;stroke-linejoin:round;stroke-width:3}
		.st9 {fill:#595959;fill-opacity:1;stroke:#595959;stroke-opacity:1;stroke-width:0.54347826086957}
		.st10 {fill:#ffffff;stroke:none;stroke-linecap:butt;stroke-width:7.2}
		.st11 {fill:#595959;fill-opacity:0.33;marker-start:url(#mrkr13-730);stroke:#595959;stroke-linecap:round;stroke-linejoin:round;stroke-width:0.75}
		.st12 {fill:#000000;font-family:Calibri;font-size:2.33334em}
		.st13 {fill:none;fill-rule:evenodd;font-size:12px;overflow:visible;stroke-linecap:square;stroke-miterlimit:3}
	]]>
	</style>

	<defs id="Markers">
		<g id="lend13">
			<path d="M 3 1 L 0 0 L 3 -1 L 3 1 " style="stroke:none"/>
		</g>
		<marker id="mrkr13-730" class="st3" v:arrowType="13" v:arrowSize="2" v:setback="13.08" refX="13.08" orient="auto"
				markerUnits="strokeWidth" overflow="visible">
			<use xlink:href="#lend13" transform="scale(4.36) "/>
		</marker>
		<marker id="mrkr13-736" class="st7" v:arrowType="13" v:arrowSize="2" v:setback="13.08" refX="13.08" orient="auto"
				markerUnits="strokeWidth" overflow="visible">
			<use xlink:href="#lend13" transform="scale(4.36) "/>
		</marker>
		<marker id="mrkr13-743" class="st9" v:arrowType="13" v:arrowSize="2" v:setback="5.4" refX="5.4" orient="auto"
				markerUnits="strokeWidth" overflow="visible">
			<use xlink:href="#lend13" transform="scale(1.84) "/>
		</marker>
	</defs>
	<g v:mID="6" v:index="2" v:groupContext="foregroundPage">
		<title>Page-2</title>
		<v:pageProperties v:drawingScale="0.0393701" v:pageScale="0.0393701" v:drawingUnits="24" v:shadowOffsetX="9"
				v:shadowOffsetY="-9"/>
		<v:layer v:name="CAD Drawing" v:index="0"/>
		<g id="shape6523-1" v:mID="6523" v:groupContext="shape" transform="translate(106.284,-469.359)">
			<title>Sheet.6523</title>
			<path d="M5.37 841.89 L4.61 840.81 L3.68 839.74 L2.76 838.67 L1.84 837.59 L0.92 836.67 L0 835.59" class="st1"/>
		</g>
		<g id="shape6524-4" v:mID="6524" v:groupContext="shape" transform="translate(106.284,-475.655)">
			<title>Sheet.6524</title>
			<path d="M0 841.89 L11.21 830.68" class="st1"/>
		</g>
		<g id="shape6525-7" v:mID="6525" v:groupContext="shape" transform="translate(106.284,-475.502)">
			<title>Sheet.6525</title>
			<path d="M0 841.74 L0 841.89" class="st1"/>
		</g>
		<g id="shape6526-10" v:mID="6526" v:groupContext="shape" transform="translate(117.491,-469.359)">
			<title>Sheet.6526</title>
			<path d="M12.59 841.89 L11.97 840.66 L11.21 839.43 L10.59 838.2 L9.82 836.98 L9.06 835.75 L8.29 834.52 L7.37 833.29 L6.6
						 832.06 L5.68 830.99 L4.76 829.76 L3.84 828.68 L2.92 827.61 L2 826.53 L0.92 825.46 L0 824.38" class="st1"/>
		</g>
		<g id="shape6527-13" v:mID="6527" v:groupContext="shape" transform="translate(117.491,-486.711)">
			<title>Sheet.6527</title>
			<path d="M0 841.74 L0 841.89" class="st1"/>
		</g>
		<g id="shape6528-16" v:mID="6528" v:groupContext="shape" transform="translate(111.657,-469.359)">
			<title>Sheet.6528</title>
			<path d="M18.42 841.89 L17.35 841.89 L16.27 841.89 L15.04 841.89 L13.97 841.89 L12.9 841.89 L10.9 841.89 L9.82 841.89
						 L8.75 841.89 L7.83 841.89 L6.91 841.89 L5.53 841.89 L5.22 841.89 L4.76 841.89 L4.3 841.89 L3.99 841.89 L3.22
						 841.89 L2.76 841.89 L2.3 841.89 L2 841.89 L1.38 841.89 L1.07 841.89 L0.77 841.89 L0.61 841.89 L0.31 841.89
						 L0.15 841.89 L0 841.89 L0 841.89" class="st1"/>
		</g>
		<g id="shape6529-19" v:mID="6529" v:groupContext="shape" transform="translate(117.491,-486.711)">
			<title>Sheet.6529</title>
			<path d="M0 841.74 L0 841.89" class="st1"/>
		</g>
		<g id="shape6530-22" v:mID="6530" v:groupContext="shape" transform="translate(496.366,-469.667)">
			<title>Sheet.6530</title>
			<path d="M6.14 832.22 L5.53 832.52 L5.07 832.83 L4.61 833.14 L4.14 833.6 L3.68 833.9 L3.22 834.37 L2.76 834.83 L2.46
						 835.29 L2 835.75 L1.69 836.21 L1.38 836.82 L1.07 837.28 L0.92 837.9 L0.61 838.36 L0.46 838.97 L0.31 839.59
						 L0.15 840.05 L0 840.66 L0 841.28 L0 841.89" class="st1"/>
		</g>
		<g id="shape6531-25" v:mID="6531" v:groupContext="shape" transform="translate(111.657,-469.206)">
			<title>Sheet.6531</title>
			<path d="M0 841.74 L0 841.89" class="st1"/>
		</g>
		<g id="shape6532-28" v:mID="6532" v:groupContext="shape" transform="translate(496.366,-469.667)">
			<title>Sheet.6532</title>
			<path d="M0 819.01 L0 841.89" class="st1"/>
		</g>
		<g id="shape6533-31" v:mID="6533" v:groupContext="shape" transform="translate(496.366,-469.513)">
			<title>Sheet.6533</title>
			<path d="M0 841.74 L0 841.89" class="st1"/>
		</g>
		<g id="shape6534-34" v:mID="6534" v:groupContext="shape" transform="translate(496.366,-479.341)">
			<title>Sheet.6534</title>
			<path d="M6.14 841.89 L6.29 841.28 L6.45 840.51 L6.45 839.89 L6.6 839.13 L6.45 837.74 L6.29 837.13 L5.99 836.52 L5.68
						 835.75 L5.22 834.83 L5.07 834.37 L4.76 834.06 L4.61 833.75 L4.14 833.14 L3.84 832.83 L3.68 832.68 L3.38
						 832.37 L3.22 832.06 L2.46 831.14 L1.84 830.53 L1.23 829.91 L0.61 829.3 L0 828.68" class="st1"/>
		</g>
		<g id="shape6535-37" v:mID="6535" v:groupContext="shape" transform="translate(496.366,-469.513)">
			<title>Sheet.6535</title>
			<path d="M0 841.74 L0 841.89" class="st1"/>
		</g>
		<g id="shape6536-40" v:mID="6536" v:groupContext="shape" transform="translate(502.814,-487.94)">
			<title>Sheet.6536</title>
			<path d="M-0 830.68 L11.21 841.89" class="st1"/>
		</g>
		<g id="shape6537-43" v:mID="6537" v:groupContext="shape" transform="translate(496.366,-492.393)">
			<title>Sheet.6537</title>
			<path d="M0 841.74 L0 841.89" class="st1"/>
		</g>
		<g id="shape6538-46" v:mID="6538" v:groupContext="shape" transform="translate(498.976,-472.891)">
			<title>Sheet.6538</title>
			<path d="M15.04 826.84 L0 841.89" class="st1"/>
		</g>
		<g id="shape6539-49" v:mID="6539" v:groupContext="shape" transform="translate(514.02,-487.786)">
			<title>Sheet.6539</title>
			<path d="M0 841.74 L0 841.89" class="st1"/>
		</g>
		<g id="shape6540-52" v:mID="6540" v:groupContext="shape" transform="translate(498.976,-472.891)">
			<title>Sheet.6540</title>
			<path d="M3.38 835.75 L3.07 836.67 L2.61 837.59 L2.15 838.51 L1.54 839.74 L1.23 840.05 L1.07 840.35 L0.92 840.66 L0.61
						 841.12 L0.46 841.28 L0.31 841.43 L0.15 841.74 L0.15 841.74 L0 841.89 L0 841.89" class="st1"/>
		</g>
		<g id="shape6541-55" v:mID="6541" v:groupContext="shape" transform="translate(498.976,-472.738)">
			<title>Sheet.6541</title>
			<path d="M0 841.74 L0 841.89" class="st1"/>
		</g>
		<g id="shape6542-58" v:mID="6542" v:groupContext="shape" transform="translate(502.353,-479.033)">
			<title>Sheet.6542</title>
			<path d="M0.15 841.58 L0 841.89" class="st1"/>
		</g>
		<g id="shape6543-61" v:mID="6543" v:groupContext="shape" transform="translate(498.976,-472.738)">
			<title>Sheet.6543</title>
			<path d="M0 841.74 L0 841.89" class="st1"/>
		</g>
		<g id="shape6544-64" v:mID="6544" v:groupContext="shape" transform="translate(496.366,-492.546)">
			<title>Sheet.6544</title>
			<path d="M-0 841.89 L6.45 835.29" class="st1"/>
		</g>
		<g id="shape6545-67" v:mID="6545" v:groupContext="shape" transform="translate(502.353,-478.88)">
			<title>Sheet.6545</title>
			<path d="M0 841.74 L0 841.89" class="st1"/>
		</g>
		<g id="shape6546-70" v:mID="6546" v:groupContext="shape" transform="translate(78.4979,-525.254)">
			<title>Sheet.6546</title>
			<path d="M0 841.89 L0 793.83" class="st1"/>
		</g>
		<g id="shape6547-73" v:mID="6547" v:groupContext="shape" transform="translate(502.814,-498.996)">
			<title>Sheet.6547</title>
			<path d="M0 841.74 L0 841.89" class="st1"/>
		</g>
		<g id="shape6548-76" v:mID="6548" v:groupContext="shape" transform="translate(78.4979,-573.316)">
			<title>Sheet.6548</title>
			<path d="M-0 841.89 L15.81 841.89" class="st1"/>
		</g>
		<g id="shape6549-79" v:mID="6549" v:groupContext="shape" transform="translate(78.4979,-573.163)">
			<title>Sheet.6549</title>
			<path d="M0 841.74 L0 841.89" class="st1"/>
		</g>
		<g id="shape6550-82" v:mID="6550" v:groupContext="shape" transform="translate(94.3099,-525.254)">
			<title>Sheet.6550</title>
			<path d="M0 793.83 L0 841.89" class="st1"/>
		</g>
		<g id="shape6551-85" v:mID="6551" v:groupContext="shape" transform="translate(94.3099,-573.163)">
			<title>Sheet.6551</title>
			<path d="M0 841.74 L0 841.89" class="st1"/>
		</g>
		<g id="shape6552-88" v:mID="6552" v:groupContext="shape" transform="translate(78.4979,-525.254)">
			<title>Sheet.6552</title>
			<path d="M-0 841.89 L15.81 841.89" class="st1"/>
		</g>
		<g id="shape6553-91" v:mID="6553" v:groupContext="shape" transform="translate(94.3099,-525.1)">
			<title>Sheet.6553</title>
			<path d="M0 841.74 L0 841.89" class="st1"/>
		</g>
		<g id="shape6554-94" v:mID="6554" v:groupContext="shape" transform="translate(78.4979,-573.316)">
			<title>Sheet.6554</title>
			<path d="M15.51 804.58 L14.58 805.5 L13.66 806.42 L12.9 807.34 L12.13 808.26 L11.36 809.18 L10.59 810.26 L9.82 811.33
						 L9.06 812.25 L8.44 813.33 L7.68 814.4 L7.06 815.48 L6.45 816.55 L5.83 817.63 L5.37 818.86 L4.76 819.93 L4.3
						 821.16 L3.84 822.23 L3.38 823.46 L2.92 824.54 L2.46 825.77 L2.15 826.99 L1.84 828.22 L1.54 829.45 L1.23
						 830.68 L0.92 831.91 L0.77 833.14 L0.61 834.37 L0.46 835.59 L0.31 836.82 L0.15 838.05 L0.15 839.28 L0 840.51
						 L0 841.89" class="st1"/>
		</g>
		<g id="shape6555-97" v:mID="6555" v:groupContext="shape" transform="translate(94.3099,-525.1)">
			<title>Sheet.6555</title>
			<path d="M0 841.74 L0 841.89" class="st1"/>
		</g>
		<g id="shape6556-100" v:mID="6556" v:groupContext="shape" transform="translate(94.0029,-599.421)">
			<title>Sheet.6556</title>
			<path d="M0 830.68 L11.05 841.89" class="st1"/>
		</g>
		<g id="shape6557-103" v:mID="6557" v:groupContext="shape" transform="translate(78.4979,-573.163)">
			<title>Sheet.6557</title>
			<path d="M0 841.74 L0 841.89" class="st1"/>
		</g>
		<g id="shape6558-106" v:mID="6558" v:groupContext="shape" transform="translate(94.3099,-573.316)">
			<title>Sheet.6558</title>
			<path d="M10.75 815.79 L10.13 816.55 L9.36 817.32 L8.6 818.09 L7.98 819.01 L7.37 819.78 L6.75 820.7 L6.14 821.62 L5.53
						 822.39 L4.91 823.31 L4.45 824.38 L3.99 825.31 L3.53 826.23 L3.07 827.15 L2.61 828.22 L2.3 829.14 L1.84 830.22
						 L1.54 831.29 L1.23 832.22 L1.07 833.29 L0.77 834.37 L0.61 835.44 L0.46 836.52 L0.31 837.59 L0.15 838.67
						 L0.15 839.74 L0 840.81 L0 841.89" class="st1"/>
		</g>
		<g id="shape6559-109" v:mID="6559" v:groupContext="shape" transform="translate(105.056,-599.267)">
			<title>Sheet.6559</title>
			<path d="M0 841.74 L0 841.89" class="st1"/>
		</g>
		<g id="shape6560-112" v:mID="6560" v:groupContext="shape" transform="translate(78.4979,-487.94)">
			<title>Sheet.6560</title>
			<path d="M0 804.58 L0 805.96 L0.15 807.19 L0.15 808.41 L0.31 809.64 L0.46 810.87 L0.61 812.1 L0.77 813.33 L0.92 814.56
						 L1.23 815.79 L1.54 817.01 L1.84 818.24 L2.15 819.47 L2.46 820.7 L2.92 821.93 L3.38 823 L3.84 824.23 L4.3
						 825.46 L4.76 826.53 L5.37 827.61 L5.83 828.84 L6.45 829.91 L7.06 830.99 L7.68 832.06 L8.44 833.14 L9.06
						 834.21 L9.82 835.29 L10.59 836.21 L11.36 837.28 L12.13 838.2 L12.9 839.13 L13.66 840.05 L14.58 840.97 L15.51
						 841.89" class="st1"/>
		</g>
		<g id="shape6561-115" v:mID="6561" v:groupContext="shape" transform="translate(94.3099,-573.163)">
			<title>Sheet.6561</title>
			<path d="M0 841.74 L0 841.89" class="st1"/>
		</g>
		<g id="shape6562-118" v:mID="6562" v:groupContext="shape" transform="translate(94.3099,-499.149)">
			<title>Sheet.6562</title>
			<path d="M0 815.79 L0 816.86 L0.15 817.94 L0.15 819.01 L0.31 820.08 L0.46 821.16 L0.61 822.23 L0.77 823.31 L1.07 824.38
						 L1.23 825.46 L1.54 826.38 L1.84 827.46 L2.3 828.53 L2.61 829.45 L3.07 830.53 L3.53 831.45 L3.99 832.37 L4.45
						 833.29 L4.91 834.37 L5.53 835.29 L6.14 836.05 L6.75 836.98 L7.37 837.9 L7.98 838.67 L8.6 839.59 L9.36 840.35
						 L10.13 841.12 L10.75 841.89" class="st1"/>
		</g>
		<g id="shape6563-121" v:mID="6563" v:groupContext="shape" transform="translate(94.0029,-487.786)">
			<title>Sheet.6563</title>
			<path d="M0 841.74 L0 841.89" class="st1"/>
		</g>
		<g id="shape6564-124" v:mID="6564" v:groupContext="shape" transform="translate(94.0029,-487.94)">
			<title>Sheet.6564</title>
			<path d="M0 841.89 L11.05 830.68" class="st1"/>
		</g>
		<g id="shape6565-127" v:mID="6565" v:groupContext="shape" transform="translate(105.056,-498.996)">
			<title>Sheet.6565</title>
			<path d="M0 841.74 L0 841.89" class="st1"/>
		</g>
		<g id="shape6566-130" v:mID="6566" v:groupContext="shape" transform="translate(124.859,-623.99)">
			<title>Sheet.6566</title>
			<path d="M5.22 836.67 L4.91 836.67 L4.45 836.67 L3.99 836.67 L3.68 836.82 L3.38 836.98 L2.92 837.13 L2.61 837.28 L2.3
						 837.59 L2 837.74 L1.69 838.05 L1.38 838.36 L1.07 838.67 L0.92 838.97 L0.61 839.28 L0.46 839.59 L0.31 839.89
						 L0.15 840.35 L0.15 840.66 L0 841.12 L0 841.43 L0 841.89" class="st1"/>
		</g>
		<g id="shape6567-133" v:mID="6567" v:groupContext="shape" transform="translate(105.056,-498.996)">
			<title>Sheet.6567</title>
			<path d="M0 841.74 L0 841.89" class="st1"/>
		</g>
		<g id="shape6568-136" v:mID="6568" v:groupContext="shape" transform="translate(124.859,-608.173)">
			<title>Sheet.6568</title>
			<path d="M0 841.89 L0 826.07" class="st1"/>
		</g>
		<g id="shape6569-139" v:mID="6569" v:groupContext="shape" transform="translate(124.859,-623.836)">
			<title>Sheet.6569</title>
			<path d="M0 841.74 L0 841.89" class="st1"/>
		</g>
		<g id="shape6570-142" v:mID="6570" v:groupContext="shape" transform="translate(124.859,-602.953)">
			<title>Sheet.6570</title>
			<path d="M0 836.67 L0 836.98 L0 837.44 L0.15 837.9 L0.15 838.2 L0.31 838.51 L0.46 838.97 L0.61 839.28 L0.92 839.59 L1.07
						 839.89 L1.38 840.2 L1.69 840.51 L2 840.81 L2.3 840.97 L2.61 841.28 L2.92 841.43 L3.38 841.58 L3.68 841.74
						 L3.99 841.74 L4.45 841.89 L4.91 841.89 L5.22 841.89" class="st1"/>
		</g>
		<g id="shape6571-145" v:mID="6571" v:groupContext="shape" transform="translate(124.859,-623.836)">
			<title>Sheet.6571</title>
			<path d="M0 841.74 L0 841.89" class="st1"/>
		</g>
		<g id="shape6572-148" v:mID="6572" v:groupContext="shape" transform="translate(130.079,-602.953)">
			<title>Sheet.6572</title>
			<path d="M5.22 841.89 L-0 841.89" class="st1"/>
		</g>
		<g id="shape6573-151" v:mID="6573" v:groupContext="shape" transform="translate(130.079,-602.799)">
			<title>Sheet.6573</title>
			<path d="M0 841.74 L0 841.89" class="st1"/>
		</g>
		<g id="shape6574-154" v:mID="6574" v:groupContext="shape" transform="translate(135.298,-587.136)">
			<title>Sheet.6574</title>
			<path d="M15.81 841.89 L15.81 841.28 L15.81 840.51 L15.66 839.89 L15.66 839.13 L15.51 838.51 L15.35 837.9 L15.2 837.13
						 L14.89 836.52 L14.74 835.9 L14.43 835.29 L14.12 834.67 L13.82 834.06 L13.36 833.44 L13.05 832.83 L12.59
						 832.37 L12.13 831.76 L11.67 831.29 L11.21 830.68 L10.75 830.22 L10.29 829.76 L9.67 829.45 L9.06 828.99 L8.6
						 828.53 L7.98 828.22 L7.37 827.92 L6.75 827.61 L6.14 827.3 L5.53 826.99 L4.76 826.84 L4.14 826.69 L3.53 826.53
						 L2.76 826.38 L2.15 826.23 L1.38 826.23 L0.77 826.07 L0 826.07" class="st1"/>
		</g>
		<g id="shape6575-157" v:mID="6575" v:groupContext="shape" transform="translate(130.079,-602.799)">
			<title>Sheet.6575</title>
			<path d="M0 841.74 L0 841.89" class="st1"/>
		</g>
		<g id="shape6576-160" v:mID="6576" v:groupContext="shape" transform="translate(151.111,-469.359)">
			<title>Sheet.6576</title>
			<path d="M0 841.89 L0 724.11" class="st1"/>
		</g>
		<g id="shape6577-163" v:mID="6577" v:groupContext="shape" transform="translate(135.298,-602.799)">
			<title>Sheet.6577</title>
			<path d="M0 841.74 L0 841.89" class="st1"/>
		</g>
		<g id="shape6578-166" v:mID="6578" v:groupContext="shape" transform="translate(105.056,-486.865)">
			<title>Sheet.6578</title>
			<path d="M-0 829.61 L12.43 841.89" class="st1"/>
		</g>
		<g id="shape6579-169" v:mID="6579" v:groupContext="shape" transform="translate(151.111,-586.983)">
			<title>Sheet.6579</title>
			<path d="M0 841.74 L0 841.89" class="st1"/>
		</g>
		<g id="shape6580-172" v:mID="6580" v:groupContext="shape" transform="translate(105.056,-599.421)">
			<title>Sheet.6580</title>
			<path d="M6.6 835.29 L-0 841.89" class="st1"/>
		</g>
		<g id="shape6581-175" v:mID="6581" v:groupContext="shape" transform="translate(117.491,-486.711)">
			<title>Sheet.6581</title>
			<path d="M0 841.74 L0 841.89" class="st1"/>
		</g>
		<g id="shape6582-178" v:mID="6582" v:groupContext="shape" transform="translate(111.657,-606.024)">
			<title>Sheet.6582</title>
			<path d="M0 801.97 L0 841.89" class="st1"/>
		</g>
		<g id="shape6583-181" v:mID="6583" v:groupContext="shape" transform="translate(105.056,-599.267)">
			<title>Sheet.6583</title>
			<path d="M0 841.74 L0 841.89" class="st1"/>
		</g>
		<g id="shape6584-184" v:mID="6584" v:groupContext="shape" transform="translate(111.657,-645.948)">
			<title>Sheet.6584</title>
			<path d="M0 841.89 L60.64 841.89" class="st1"/>
		</g>
		<g id="shape6585-187" v:mID="6585" v:groupContext="shape" transform="translate(111.657,-605.87)">
			<title>Sheet.6585</title>
			<path d="M0 841.74 L0 841.89" class="st1"/>
		</g>
		<g id="shape6586-190" v:mID="6586" v:groupContext="shape" transform="translate(172.296,-629.21)">
			<title>Sheet.6586</title>
			<path d="M0 841.89 L0 825.15" class="st1"/>
		</g>
		<g id="shape6587-193" v:mID="6587" v:groupContext="shape" transform="translate(172.296,-645.794)">
			<title>Sheet.6587</title>
			<path d="M0 841.74 L0 841.89" class="st1"/>
		</g>
		<g id="shape6588-196" v:mID="6588" v:groupContext="shape" transform="translate(130.079,-629.21)">
			<title>Sheet.6588</title>
			<path d="M-0 841.89 L42.22 841.89" class="st1"/>
		</g>
		<g id="shape6589-199" v:mID="6589" v:groupContext="shape" transform="translate(172.296,-645.794)">
			<title>Sheet.6589</title>
			<path d="M0 841.74 L0 841.89" class="st1"/>
		</g>
		<g id="shape6590-202" v:mID="6590" v:groupContext="shape" transform="translate(130.079,-469.359)">
			<title>Sheet.6590</title>
			<path d="M21.03 841.89 L-0 841.89" class="st1"/>
		</g>
		<g id="shape6591-205" v:mID="6591" v:groupContext="shape" transform="translate(172.296,-629.057)">
			<title>Sheet.6591</title>
			<path d="M0 841.74 L0 841.89" class="st1"/>
		</g>
		<g id="shape6592-208" v:mID="6592" v:groupContext="shape" transform="translate(94.0029,-475.655)">
			<title>Sheet.6592</title>
			<path d="M12.28 841.89 L0 829.61" class="st1"/>
		</g>
		<g id="shape6593-211" v:mID="6593" v:groupContext="shape" transform="translate(130.079,-469.206)">
			<title>Sheet.6593</title>
			<path d="M0 841.74 L0 841.89" class="st1"/>
		</g>
		<g id="shape6594-214" v:mID="6594" v:groupContext="shape" transform="translate(94.0029,-610.63)">
			<title>Sheet.6594</title>
			<path d="M0 841.89 L17.65 824.23" class="st1"/>
		</g>
		<g id="shape6595-217" v:mID="6595" v:groupContext="shape" transform="translate(94.0029,-487.786)">
			<title>Sheet.6595</title>
			<path d="M0 841.74 L0 841.89" class="st1"/>
		</g>
		<g id="shape6596-220" v:mID="6596" v:groupContext="shape" transform="translate(496.366,-606.024)">
			<title>Sheet.6596</title>
			<path d="M0 801.97 L0 841.89" class="st1"/>
		</g>
		<g id="shape6597-223" v:mID="6597" v:groupContext="shape" transform="translate(111.657,-628.136)">
			<title>Sheet.6597</title>
			<path d="M0 841.74 L0 841.89" class="st1"/>
		</g>
		<g id="shape6598-226" v:mID="6598" v:groupContext="shape" transform="translate(496.366,-599.421)">
			<title>Sheet.6598</title>
			<path d="M6.45 841.89 L-0 835.29" class="st1"/>
		</g>
		<g id="shape6599-229" v:mID="6599" v:groupContext="shape" transform="translate(496.366,-605.87)">
			<title>Sheet.6599</title>
			<path d="M0 841.74 L0 841.89" class="st1"/>
		</g>
		<g id="shape6600-232" v:mID="6600" v:groupContext="shape" transform="translate(502.814,-573.316)">
			<title>Sheet.6600</title>
			<path d="M10.75 841.89 L10.75 840.81 L10.75 839.74 L10.75 838.67 L10.59 837.59 L10.44 836.52 L10.29 835.44 L10.13 834.37
						 L9.82 833.29 L9.52 832.22 L9.21 831.29 L8.9 830.22 L8.6 829.14 L8.14 828.22 L7.83 827.15 L7.37 826.23 L6.91
						 825.31 L6.45 824.38 L5.83 823.31 L5.37 822.39 L4.76 821.62 L4.14 820.7 L3.53 819.78 L2.92 819.01 L2.15 818.09
						 L1.54 817.32 L0.77 816.55 L0 815.79" class="st1"/>
		</g>
		<g id="shape6601-235" v:mID="6601" v:groupContext="shape" transform="translate(496.366,-605.87)">
			<title>Sheet.6601</title>
			<path d="M0 841.74 L0 841.89" class="st1"/>
		</g>
		<g id="shape6602-238" v:mID="6602" v:groupContext="shape" transform="translate(513.56,-525.254)">
			<title>Sheet.6602</title>
			<path d="M0 841.89 L0 793.83" class="st1"/>
		</g>
		<g id="shape6603-241" v:mID="6603" v:groupContext="shape" transform="translate(502.814,-599.267)">
			<title>Sheet.6603</title>
			<path d="M0 841.74 L0 841.89" class="st1"/>
		</g>
		<g id="shape6604-244" v:mID="6604" v:groupContext="shape" transform="translate(502.814,-499.149)">
			<title>Sheet.6604</title>
			<path d="M0 841.89 L0.77 841.12 L1.54 840.35 L2.15 839.59 L2.92 838.67 L3.53 837.9 L4.14 836.98 L4.76 836.05 L5.37 835.29
						 L5.83 834.37 L6.45 833.29 L6.91 832.37 L7.37 831.45 L7.83 830.53 L8.14 829.45 L8.6 828.53 L8.9 827.46 L9.21
						 826.38 L9.52 825.46 L9.82 824.38 L10.13 823.31 L10.29 822.23 L10.44 821.16 L10.59 820.08 L10.75 819.01 L10.75
						 817.94 L10.75 816.86 L10.75 815.79" class="st1"/>
		</g>
		<g id="shape6605-247" v:mID="6605" v:groupContext="shape" transform="translate(513.56,-573.163)">
			<title>Sheet.6605</title>
			<path d="M0 841.74 L0 841.89" class="st1"/>
		</g>
		<g id="shape6606-250" v:mID="6606" v:groupContext="shape" transform="translate(496.366,-469.359)">
			<title>Sheet.6606</title>
			<path d="M0 841.58 L0 841.89" class="st1"/>
		</g>
		<g id="shape6607-253" v:mID="6607" v:groupContext="shape" transform="translate(513.56,-525.1)">
			<title>Sheet.6607</title>
			<path d="M0 841.74 L0 841.89" class="st1"/>
		</g>
		<g id="shape6608-256" v:mID="6608" v:groupContext="shape" transform="translate(456.759,-469.359)">
			<title>Sheet.6608</title>
			<path d="M0 841.89 L39.61 841.89" class="st1"/>
		</g>
		<g id="shape6609-259" v:mID="6609" v:groupContext="shape" transform="translate(496.366,-469.206)">
			<title>Sheet.6609</title>
			<path d="M0 841.74 L0 841.89" class="st1"/>
		</g>
		<g id="shape6610-262" v:mID="6610" v:groupContext="shape" transform="translate(456.759,-469.359)">
			<title>Sheet.6610</title>
			<path d="M0 724.11 L0 841.89" class="st1"/>
		</g>
		<g id="shape6611-265" v:mID="6611" v:groupContext="shape" transform="translate(496.366,-469.206)">
			<title>Sheet.6611</title>
			<path d="M0 841.74 L0 841.89" class="st1"/>
		</g>
		<g id="shape6612-268" v:mID="6612" v:groupContext="shape" transform="translate(456.759,-587.136)">
			<title>Sheet.6612</title>
			<path d="M15.81 826.07 L15.2 826.07 L14.43 826.23 L13.82 826.23 L13.05 826.38 L12.43 826.53 L11.82 826.69 L11.05 826.84
						 L10.44 826.99 L9.82 827.3 L9.21 827.61 L8.6 827.92 L7.98 828.22 L7.37 828.53 L6.75 828.99 L6.29 829.45 L5.68
						 829.76 L5.22 830.22 L4.61 830.68 L4.14 831.29 L3.68 831.76 L3.22 832.37 L2.92 832.83 L2.46 833.44 L2.15
						 834.06 L1.84 834.67 L1.54 835.29 L1.23 835.9 L0.92 836.52 L0.77 837.13 L0.61 837.9 L0.46 838.51 L0.31 839.13
						 L0.15 839.89 L0.15 840.51 L0 841.28 L0 841.89" class="st1"/>
		</g>
		<g id="shape6613-271" v:mID="6613" v:groupContext="shape" transform="translate(456.759,-469.206)">
			<title>Sheet.6613</title>
			<path d="M0 841.74 L0 841.89" class="st1"/>
		</g>
		<g id="shape6614-274" v:mID="6614" v:groupContext="shape" transform="translate(472.571,-602.953)">
			<title>Sheet.6614</title>
			<path d="M5.37 841.89 L0 841.89" class="st1"/>
		</g>
		<g id="shape6615-277" v:mID="6615" v:groupContext="shape" transform="translate(456.759,-586.983)">
			<title>Sheet.6615</title>
			<path d="M0 841.74 L0 841.89" class="st1"/>
		</g>
		<g id="shape6616-280" v:mID="6616" v:groupContext="shape" transform="translate(477.944,-602.953)">
			<title>Sheet.6616</title>
			<path d="M0 841.89 L0.31 841.89 L0.77 841.89 L1.07 841.74 L1.54 841.74 L1.84 841.58 L2.15 841.43 L2.61 841.28 L2.92 840.97
						 L3.22 840.81 L3.53 840.51 L3.84 840.2 L3.99 839.89 L4.3 839.59 L4.45 839.28 L4.61 838.97 L4.76 838.51 L4.91
						 838.2 L5.07 837.9 L5.07 837.44 L5.22 836.98 L5.22 836.67" class="st1"/>
		</g>
		<g id="shape6617-283" v:mID="6617" v:groupContext="shape" transform="translate(472.571,-602.799)">
			<title>Sheet.6617</title>
			<path d="M0 841.74 L0 841.89" class="st1"/>
		</g>
		<g id="shape6618-286" v:mID="6618" v:groupContext="shape" transform="translate(483.164,-608.173)">
			<title>Sheet.6618</title>
			<path d="M0 826.07 L0 841.89" class="st1"/>
		</g>
		<g id="shape6619-289" v:mID="6619" v:groupContext="shape" transform="translate(483.164,-608.02)">
			<title>Sheet.6619</title>
			<path d="M0 841.74 L0 841.89" class="st1"/>
		</g>
		<g id="shape6620-292" v:mID="6620" v:groupContext="shape" transform="translate(477.944,-623.99)">
			<title>Sheet.6620</title>
			<path d="M5.22 841.89 L5.22 841.43 L5.07 841.12 L5.07 840.66 L4.91 840.35 L4.76 839.89 L4.61 839.59 L4.45 839.28 L4.3
						 838.97 L3.99 838.67 L3.84 838.36 L3.53 838.05 L3.22 837.74 L2.92 837.59 L2.61 837.28 L2.15 837.13 L1.84
						 836.98 L1.54 836.82 L1.07 836.67 L0.77 836.67 L0.31 836.67 L0 836.67" class="st1"/>
		</g>
		<g id="shape6621-295" v:mID="6621" v:groupContext="shape" transform="translate(483.164,-608.02)">
			<title>Sheet.6621</title>
			<path d="M0 841.74 L0 841.89" class="st1"/>
		</g>
		<g id="shape6622-298" v:mID="6622" v:groupContext="shape" transform="translate(435.728,-629.21)">
			<title>Sheet.6622</title>
			<path d="M0 825.15 L0 841.89" class="st1"/>
		</g>
		<g id="shape6623-301" v:mID="6623" v:groupContext="shape" transform="translate(477.944,-629.057)">
			<title>Sheet.6623</title>
			<path d="M0 841.74 L0 841.89" class="st1"/>
		</g>
		<g id="shape6624-304" v:mID="6624" v:groupContext="shape" transform="translate(435.728,-629.21)">
			<title>Sheet.6624</title>
			<path d="M-0 841.89 L42.22 841.89" class="st1"/>
		</g>
		<g id="shape6625-307" v:mID="6625" v:groupContext="shape" transform="translate(435.728,-629.057)">
			<title>Sheet.6625</title>
			<path d="M0 841.74 L0 841.89" class="st1"/>
		</g>
		<g id="shape6626-310" v:mID="6626" v:groupContext="shape" transform="translate(435.728,-645.948)">
			<title>Sheet.6626</title>
			<path d="M-0 841.89 L60.64 841.89" class="st1"/>
		</g>
		<g id="shape6627-313" v:mID="6627" v:groupContext="shape" transform="translate(477.944,-629.057)">
			<title>Sheet.6627</title>
			<path d="M0 841.74 L0 841.89" class="st1"/>
		</g>
		<g id="shape6628-316" v:mID="6628" v:groupContext="shape" transform="translate(496.366,-610.63)">
			<title>Sheet.6628</title>
			<path d="M-0 824.23 L17.65 841.89" class="st1"/>
		</g>
		<g id="shape6629-319" v:mID="6629" v:groupContext="shape" transform="translate(496.366,-645.794)">
			<title>Sheet.6629</title>
			<path d="M0 841.74 L0 841.89" class="st1"/>
		</g>
		<g id="shape6630-322" v:mID="6630" v:groupContext="shape" transform="translate(502.814,-599.421)">
			<title>Sheet.6630</title>
			<path d="M-0 841.89 L11.21 830.68" class="st1"/>
		</g>
		<g id="shape6631-325" v:mID="6631" v:groupContext="shape" transform="translate(514.02,-610.477)">
			<title>Sheet.6631</title>
			<path d="M0 841.74 L0 841.89" class="st1"/>
		</g>
		<g id="shape6632-328" v:mID="6632" v:groupContext="shape" transform="translate(496.366,-469.359)">
			<title>Sheet.6632</title>
			<path d="M5.99 832.22 L5.53 832.52 L4.91 832.83 L4.45 833.14 L3.99 833.6 L3.53 833.9 L3.22 834.37 L2.76 834.83 L2.3 835.29
						 L2 835.75 L1.69 836.21 L1.38 836.82 L1.07 837.28 L0.92 837.9 L0.61 838.51 L0.46 838.97 L0.31 839.59 L0.15
						 840.2 L0 840.81 L0 841.43 L0 841.89" class="st1"/>
		</g>
		<g id="shape6633-331" v:mID="6633" v:groupContext="shape" transform="translate(514.02,-610.477)">
			<title>Sheet.6633</title>
			<path d="M0 841.74 L0 841.89" class="st1"/>
		</g>
		<g id="shape6634-334" v:mID="6634" v:groupContext="shape" transform="translate(513.56,-525.254)">
			<title>Sheet.6634</title>
			<path d="M0 841.89 L15.81 841.89" class="st1"/>
		</g>
		<g id="shape6635-337" v:mID="6635" v:groupContext="shape" transform="translate(496.366,-469.206)">
			<title>Sheet.6635</title>
			<path d="M0 841.74 L0 841.89" class="st1"/>
		</g>
		<g id="shape6636-340" v:mID="6636" v:groupContext="shape" transform="translate(514.02,-487.94)">
			<title>Sheet.6636</title>
			<path d="M0 841.89 L0.92 840.97 L1.69 840.05 L2.61 839.13 L3.38 838.2 L4.14 837.28 L4.91 836.21 L5.68 835.29 L6.29 834.21
						 L7.06 833.14 L7.68 832.06 L8.29 830.99 L8.9 829.91 L9.52 828.84 L10.13 827.61 L10.59 826.53 L11.21 825.46
						 L11.67 824.23 L12.13 823 L12.59 821.93 L12.9 820.7 L13.36 819.47 L13.66 818.24 L13.97 817.01 L14.28 815.79
						 L14.43 814.56 L14.74 813.33 L14.89 812.1 L15.04 810.87 L15.2 809.64 L15.35 808.41 L15.35 807.19 L15.35 805.96
						 L15.35 804.58" class="st1"/>
		</g>
		<g id="shape6637-343" v:mID="6637" v:groupContext="shape" transform="translate(529.372,-525.1)">
			<title>Sheet.6637</title>
			<path d="M0 841.74 L0 841.89" class="st1"/>
		</g>
		<g id="shape6638-346" v:mID="6638" v:groupContext="shape" transform="translate(514.02,-573.316)">
			<title>Sheet.6638</title>
			<path d="M15.35 841.89 L15.35 840.51 L15.35 839.28 L15.35 838.05 L15.2 836.82 L15.04 835.59 L14.89 834.37 L14.74 833.14
						 L14.43 831.91 L14.28 830.68 L13.97 829.45 L13.66 828.22 L13.36 826.99 L12.9 825.77 L12.59 824.54 L12.13
						 823.46 L11.67 822.23 L11.21 821.16 L10.59 819.93 L10.13 818.86 L9.52 817.63 L8.9 816.55 L8.29 815.48 L7.68
						 814.4 L7.06 813.33 L6.29 812.25 L5.68 811.33 L4.91 810.26 L4.14 809.18 L3.38 808.26 L2.61 807.34 L1.69 806.42
						 L0.92 805.5 L0 804.58" class="st1"/>
		</g>
		<g id="shape6639-349" v:mID="6639" v:groupContext="shape" transform="translate(529.372,-525.1)">
			<title>Sheet.6639</title>
			<path d="M0 841.74 L0 841.89" class="st1"/>
		</g>
		<g id="shape6640-352" v:mID="6640" v:groupContext="shape" transform="translate(513.56,-573.316)">
			<title>Sheet.6640</title>
			<path d="M0 841.89 L15.81 841.89" class="st1"/>
		</g>
		<g id="shape6641-355" v:mID="6641" v:groupContext="shape" transform="translate(514.02,-610.477)">
			<title>Sheet.6641</title>
			<path d="M0 841.74 L0 841.89" class="st1"/>
		</g>
		<g id="shape6642-358" v:mID="6642" v:groupContext="shape" transform="translate(529.372,-525.254)">
			<title>Sheet.6642</title>
			<path d="M0 793.83 L0 841.89" class="st1"/>
		</g>
		<g id="shape6643-361" v:mID="6643" v:groupContext="shape" transform="translate(529.372,-573.163)">
			<title>Sheet.6643</title>
			<path d="M0 841.74 L0 841.89" class="st1"/>
		</g>
		<g id="shape6644-364" v:mID="6644" v:groupContext="shape" transform="translate(496.366,-469.359)">
			<title>Sheet.6644</title>
			<path d="M2.61 838.36 L2.15 838.82 L1.69 839.43 L1.23 840.05 L0.77 840.66 L0.31 841.28 L0 841.89" class="st1"/>
		</g>
		<g id="shape6645-367" v:mID="6645" v:groupContext="shape" transform="translate(529.372,-525.1)">
			<title>Sheet.6645</title>
			<path d="M0 841.74 L0 841.89" class="st1"/>
		</g>
		<g id="shape6646-370" v:mID="6646" v:groupContext="shape" transform="translate(219.425,-629.21)">
			<title>Sheet.6646</title>
			<path d="M0 841.89 L0 825.15" class="st1"/>
		</g>
		<g id="shape6647-373" v:mID="6647" v:groupContext="shape" transform="translate(496.366,-469.206)">
			<title>Sheet.6647</title>
			<path d="M0 841.74 L0 841.89" class="st1"/>
		</g>
		<g id="shape6648-376" v:mID="6648" v:groupContext="shape" transform="translate(172.296,-629.21)">
			<title>Sheet.6648</title>
			<path d="M47.13 841.89 L0 841.89" class="st1"/>
		</g>
		<g id="shape6649-379" v:mID="6649" v:groupContext="shape" transform="translate(219.425,-645.794)">
			<title>Sheet.6649</title>
			<path d="M0 841.74 L0 841.89" class="st1"/>
		</g>
		<g id="shape6650-382" v:mID="6650" v:groupContext="shape" transform="translate(172.296,-645.948)">
			<title>Sheet.6650</title>
			<path d="M0 841.89 L47.13 841.89" class="st1"/>
		</g>
		<g id="shape6651-385" v:mID="6651" v:groupContext="shape" transform="translate(172.296,-629.057)">
			<title>Sheet.6651</title>
			<path d="M0 841.74 L0 841.89" class="st1"/>
		</g>
		<g id="shape6652-388" v:mID="6652" v:groupContext="shape" transform="translate(388.445,-629.21)">
			<title>Sheet.6652</title>
			<path d="M0 825.15 L0 841.89" class="st1"/>
		</g>
		<g id="shape6653-391" v:mID="6653" v:groupContext="shape" transform="translate(219.425,-645.794)">
			<title>Sheet.6653</title>
			<path d="M0 841.74 L0 841.89" class="st1"/>
		</g>
		<g id="shape6654-394" v:mID="6654" v:groupContext="shape" transform="translate(388.445,-629.21)">
			<title>Sheet.6654</title>
			<path d="M47.28 841.89 L0 841.89" class="st1"/>
		</g>
		<g id="shape6655-397" v:mID="6655" v:groupContext="shape" transform="translate(388.445,-629.057)">
			<title>Sheet.6655</title>
			<path d="M0 841.74 L0 841.89" class="st1"/>
		</g>
		<g id="shape6656-400" v:mID="6656" v:groupContext="shape" transform="translate(388.445,-645.948)">
			<title>Sheet.6656</title>
			<path d="M0 841.89 L47.28 841.89" class="st1"/>
		</g>
		<g id="shape6657-403" v:mID="6657" v:groupContext="shape" transform="translate(388.445,-629.057)">
			<title>Sheet.6657</title>
			<path d="M0 841.74 L0 841.89" class="st1"/>
		</g>
		<g id="shape6658-406" v:mID="6658" v:groupContext="shape" transform="translate(151.111,-587.136)">
			<title>Sheet.6658</title>
			<path d="M0 799.82 L0 841.89" class="st1"/>
		</g>
		<g id="shape6659-409" v:mID="6659" v:groupContext="shape" transform="translate(435.728,-645.794)">
			<title>Sheet.6659</title>
			<path d="M0 841.74 L0 841.89" class="st1"/>
		</g>
		<g id="shape6660-412" v:mID="6660" v:groupContext="shape" transform="translate(456.759,-587.136)">
			<title>Sheet.6660</title>
			<path d="M0 799.82 L0 841.89" class="st1"/>
		</g>
		<g id="shape6661-415" v:mID="6661" v:groupContext="shape" transform="translate(151.111,-586.983)">
			<title>Sheet.6661</title>
			<path d="M0 841.74 L0 841.89" class="st1"/>
		</g>
		<g id="shape6662-418" v:mID="6662" v:groupContext="shape" transform="translate(247.211,-629.21)">
			<title>Sheet.6662</title>
			<path d="M0 825.15 L0 841.89" class="st1"/>
		</g>
		<g id="shape6663-421" v:mID="6663" v:groupContext="shape" transform="translate(456.759,-586.983)">
			<title>Sheet.6663</title>
			<path d="M0 841.74 L0 841.89" class="st1"/>
		</g>
		<g id="shape6664-424" v:mID="6664" v:groupContext="shape" transform="translate(219.425,-629.21)">
			<title>Sheet.6664</title>
			<path d="M27.79 841.89 L-0 841.89" class="st1"/>
		</g>
		<g id="shape6665-427" v:mID="6665" v:groupContext="shape" transform="translate(247.211,-629.057)">
			<title>Sheet.6665</title>
			<path d="M0 841.74 L0 841.89" class="st1"/>
		</g>
		<g id="shape6666-430" v:mID="6666" v:groupContext="shape" transform="translate(219.425,-645.948)">
			<title>Sheet.6666</title>
			<path d="M-0 841.89 L27.79 841.89" class="st1"/>
		</g>
		<g id="shape6667-433" v:mID="6667" v:groupContext="shape" transform="translate(219.425,-629.057)">
			<title>Sheet.6667</title>
			<path d="M0 841.74 L0 841.89" class="st1"/>
		</g>
		<g id="shape6668-436" v:mID="6668" v:groupContext="shape" transform="translate(360.812,-629.21)">
			<title>Sheet.6668</title>
			<path d="M0 841.89 L0 825.15" class="st1"/>
		</g>
		<g id="shape6669-439" v:mID="6669" v:groupContext="shape" transform="translate(247.211,-645.794)">
			<title>Sheet.6669</title>
			<path d="M0 841.74 L0 841.89" class="st1"/>
		</g>
		<g id="shape6670-442" v:mID="6670" v:groupContext="shape" transform="translate(360.812,-629.21)">
			<title>Sheet.6670</title>
			<path d="M27.63 841.89 L0 841.89" class="st1"/>
		</g>
		<g id="shape6671-445" v:mID="6671" v:groupContext="shape" transform="translate(360.812,-645.794)">
			<title>Sheet.6671</title>
			<path d="M0 841.74 L0 841.89" class="st1"/>
		</g>
		<g id="shape6672-448" v:mID="6672" v:groupContext="shape" transform="translate(360.812,-645.948)">
			<title>Sheet.6672</title>
			<path d="M0 841.89 L27.63 841.89" class="st1"/>
		</g>
		<g id="shape6673-451" v:mID="6673" v:groupContext="shape" transform="translate(360.812,-629.057)">
			<title>Sheet.6673</title>
			<path d="M0 841.74 L0 841.89" class="st1"/>
		</g>
		<g id="shape6674-454" v:mID="6674" v:groupContext="shape" transform="translate(247.211,-629.21)">
			<title>Sheet.6674</title>
			<path d="M113.6 841.89 L-0 841.89" class="st1"/>
		</g>
		<g id="shape6675-457" v:mID="6675" v:groupContext="shape" transform="translate(388.445,-645.794)">
			<title>Sheet.6675</title>
			<path d="M0 841.74 L0 841.89" class="st1"/>
		</g>
		<g id="shape6676-460" v:mID="6676" v:groupContext="shape" transform="translate(247.211,-645.948)">
			<title>Sheet.6676</title>
			<path d="M113.6 841.89 L-0 841.89" class="st1"/>
		</g>
		<g id="shape6677-463" v:mID="6677" v:groupContext="shape" transform="translate(247.211,-629.057)">
			<title>Sheet.6677</title>
			<path d="M0 841.74 L0 841.89" class="st1"/>
		</g>
		<g id="shape6678-466" v:mID="6678" v:groupContext="shape" transform="translate(111.657,-261.292)">
			<title>Sheet.6678</title>
			<path d="M384.71 841.89 L0 841.89" class="st1"/>
		</g>
		<g id="shape6679-469" v:mID="6679" v:groupContext="shape" transform="translate(247.211,-645.794)">
			<title>Sheet.6679</title>
			<path d="M0 841.74 L0 841.89" class="st1"/>
		</g>
		<g id="shape6680-472" v:mID="6680" v:groupContext="shape" transform="translate(496.366,-261.292)">
			<title>Sheet.6680</title>
			<path d="M0 633.82 L0 841.89" class="st1"/>
		</g>
		<g id="shape6681-475" v:mID="6681" v:groupContext="shape" transform="translate(111.657,-261.139)">
			<title>Sheet.6681</title>
			<path d="M0 841.74 L0 841.89" class="st1"/>
		</g>
		<g id="shape6682-478" v:mID="6682" v:groupContext="shape" transform="translate(111.657,-261.292)">
			<title>Sheet.6682</title>
			<path d="M0 841.89 L0 633.82" class="st1"/>
		</g>
		<g id="shape6683-481" v:mID="6683" v:groupContext="shape" transform="translate(496.366,-261.139)">
			<title>Sheet.6683</title>
			<path d="M0 841.74 L0 841.89" class="st1"/>
		</g>
		<g id="shape6684-484" v:mID="6684" v:groupContext="shape" transform="translate(789.023,-477.817)">
			<title>Sheet.6684</title>
			<path d="M0 841.89 L1.84 841.28 L3.68 840.66 L5.53 840.05 L7.22 839.28 L9.06 838.67 L10.9 837.9 L12.59 837.13 L14.28
						 836.21 L16.12 835.44 L17.81 834.52 L19.5 833.6 L21.19 832.83 L22.87 831.76 L24.56 830.83 L26.1 829.91 L27.79
						 828.84" class="st1"/>
		</g>
		<g id="shape6685-487" v:mID="6685" v:groupContext="shape" transform="translate(111.657,-469.206)">
			<title>Sheet.6685</title>
			<path d="M0 841.74 L0 841.89" class="st1"/>
		</g>
		<g id="shape6686-490" v:mID="6686" v:groupContext="shape" transform="translate(741.894,-412.556)">
			<title>Sheet.6686</title>
			<path d="M47.13 776.63 L45.9 777.09 L44.52 777.7 L43.14 778.16 L41.76 778.63 L40.53 779.24 L39.15 779.85 L37.92 780.47
						 L36.69 781.08 L35.31 781.85 L34.08 782.46 L32.85 783.23 L31.62 784 L30.55 784.77 L29.32 785.53 L28.09 786.46
						 L27.02 787.22 L25.79 788.15 L24.72 789.07 L23.64 789.99 L22.57 790.91 L21.49 791.98 L20.42 792.91 L19.5
						 793.98 L18.42 794.9 L17.5 795.98 L16.58 797.05 L15.66 798.13 L14.74 799.35 L13.82 800.43 L13.05 801.66 L12.13
						 802.73 L11.36 803.96 L10.59 805.19 L9.82 806.42 L9.06 807.65 L8.44 808.88 L7.68 810.1 L7.06 811.33 L6.45
						 812.71 L5.83 813.94 L5.22 815.32 L4.76 816.55 L4.3 817.94 L3.68 819.32 L3.22 820.7 L2.92 822.08 L2.46 823.46
						 L2.15 824.85 L1.69 826.23 L1.38 827.61 L1.23 828.99 L0.92 830.37 L0.61 831.76 L0.46 833.29 L0.31 834.67
						 L0.15 836.05 L0.15 837.59 L0 838.97 L0 840.35 L0 841.89" class="st1"/>
		</g>
		<g id="shape6687-493" v:mID="6687" v:groupContext="shape" transform="translate(816.81,-490.716)">
			<title>Sheet.6687</title>
			<path d="M0 841.74 L0 841.89" class="st1"/>
		</g>
		<g id="shape6688-496" v:mID="6688" v:groupContext="shape" transform="translate(741.894,-349.445)">
			<title>Sheet.6688</title>
			<path d="M0 778.78 L0 841.89" class="st1"/>
		</g>
		<g id="shape6689-499" v:mID="6689" v:groupContext="shape" transform="translate(741.894,-412.403)">
			<title>Sheet.6689</title>
			<path d="M0 841.74 L0 841.89" class="st1"/>
		</g>
		<g id="shape6690-502" v:mID="6690" v:groupContext="shape" transform="translate(681.256,-349.445)">
			<title>Sheet.6690</title>
			<path d="M0 841.89 L60.64 841.89" class="st1"/>
		</g>
		<g id="shape6691-505" v:mID="6691" v:groupContext="shape" transform="translate(741.894,-349.292)">
			<title>Sheet.6691</title>
			<path d="M0 841.74 L0 841.89" class="st1"/>
		</g>
		<g id="shape6692-508" v:mID="6692" v:groupContext="shape" transform="translate(681.256,-349.445)">
			<title>Sheet.6692</title>
			<path d="M0 633.82 L0 841.89" class="st1"/>
		</g>
		<g id="shape6693-511" v:mID="6693" v:groupContext="shape" transform="translate(741.894,-349.292)">
			<title>Sheet.6693</title>
			<path d="M0 841.74 L0 841.89" class="st1"/>
		</g>
		<g id="shape6694-514" v:mID="6694" v:groupContext="shape" transform="translate(1005.33,-349.445)">
			<title>Sheet.6694</title>
			<path d="M-0 841.89 L60.64 841.89" class="st1"/>
		</g>
		<g id="shape6695-517" v:mID="6695" v:groupContext="shape" transform="translate(681.256,-349.292)">
			<title>Sheet.6695</title>
			<path d="M0 841.74 L0 841.89" class="st1"/>
		</g>
		<g id="shape6696-520" v:mID="6696" v:groupContext="shape" transform="translate(1005.33,-349.445)">
			<title>Sheet.6696</title>
			<path d="M0 841.89 L0 778.78" class="st1"/>
		</g>
		<g id="shape6697-523" v:mID="6697" v:groupContext="shape" transform="translate(1065.96,-349.292)">
			<title>Sheet.6697</title>
			<path d="M0 841.74 L0 841.89" class="st1"/>
		</g>
		<g id="shape6698-526" v:mID="6698" v:groupContext="shape" transform="translate(958.043,-412.556)">
			<title>Sheet.6698</title>
			<path d="M47.28 841.89 L47.28 840.35 L47.28 838.97 L47.13 837.59 L46.98 836.05 L46.82 834.67 L46.67 833.29 L46.52 831.76
						 L46.36 830.37 L46.05 828.99 L45.75 827.61 L45.44 826.23 L45.13 824.85 L44.83 823.46 L44.37 822.08 L43.91
						 820.7 L43.44 819.32 L42.98 817.94 L42.52 816.55 L41.91 815.32 L41.3 813.94 L40.84 812.71 L40.07 811.33 L39.45
						 810.1 L38.84 808.88 L38.07 807.65 L37.46 806.42 L36.69 805.19 L35.92 803.96 L35 802.73 L34.23 801.66 L33.31
						 800.43 L32.55 799.35 L31.62 798.13 L30.7 797.05 L29.78 795.98 L28.71 794.9 L27.79 793.98 L26.71 792.91 L25.64
						 791.98 L24.72 790.91 L23.64 789.99 L22.41 789.07 L21.34 788.15 L20.26 787.22 L19.04 786.46 L17.96 785.53
						 L16.73 784.77 L15.51 784 L14.28 783.23 L13.05 782.46 L11.82 781.85 L10.59 781.08 L9.36 780.47 L7.98 779.85
						 L6.75 779.24 L5.37 778.63 L3.99 778.16 L2.76 777.7 L1.38 777.09 L0 776.63" class="st1"/>
		</g>
		<g id="shape6699-529" v:mID="6699" v:groupContext="shape" transform="translate(1005.33,-412.403)">
			<title>Sheet.6699</title>
			<path d="M0 841.74 L0 841.89" class="st1"/>
		</g>
		<g id="shape6700-532" v:mID="6700" v:groupContext="shape" transform="translate(930.411,-477.817)">
			<title>Sheet.6700</title>
			<path d="M0 828.84 L1.54 829.91 L3.22 830.83 L4.91 831.76 L6.6 832.83 L8.29 833.6 L9.98 834.52 L11.67 835.44 L13.36 836.21
						 L15.2 837.13 L16.89 837.9 L18.73 838.67 L20.42 839.28 L22.26 840.05 L24.1 840.66 L25.79 841.28 L27.63 841.89"
					class="st1"/>
		</g>
		<g id="shape6701-535" v:mID="6701" v:groupContext="shape" transform="translate(958.043,-477.664)">
			<title>Sheet.6701</title>
			<path d="M0 841.74 L0 841.89" class="st1"/>
		</g>
		<g id="shape6702-538" v:mID="6702" v:groupContext="shape" transform="translate(816.81,-490.87)">
			<title>Sheet.6702</title>
			<path d="M113.6 841.89 L112.07 840.97 L110.53 840.05 L109 839.13 L107.46 838.2 L105.93 837.44 L104.39 836.67 L102.86
						 835.9 L101.17 835.13 L99.63 834.37 L97.94 833.6 L96.41 832.98 L94.72 832.37 L93.03 831.76 L91.34 831.14
						 L89.65 830.53 L88.12 830.07 L86.43 829.45 L84.59 828.99 L82.9 828.53 L81.21 828.07 L79.52 827.76 L77.83
						 827.3 L75.99 826.99 L74.3 826.69 L72.61 826.38 L70.77 826.23 L69.08 825.92 L67.39 825.77 L65.55 825.61 L63.86
						 825.46 L62.02 825.46 L60.33 825.31 L58.49 825.31 L56.8 825.31 L54.96 825.31 L53.27 825.31 L51.43 825.46
						 L49.74 825.46 L47.9 825.61 L46.21 825.77 L44.52 825.92 L42.68 826.23 L40.99 826.38 L39.15 826.69 L37.46
						 826.99 L35.77 827.3 L34.08 827.76 L32.24 828.07 L30.55 828.53 L28.86 828.99 L27.17 829.45 L25.48 830.07
						 L23.79 830.53 L22.11 831.14 L20.42 831.76 L18.88 832.37 L17.19 832.98 L15.51 833.6 L13.97 834.37 L12.28
						 835.13 L10.75 835.9 L9.21 836.67 L7.68 837.44 L5.99 838.2 L4.45 839.13 L2.92 840.05 L1.54 840.97 L0 841.89"
					class="st1"/>
		</g>
		<g id="shape6703-541" v:mID="6703" v:groupContext="shape" transform="translate(958.043,-477.664)">
			<title>Sheet.6703</title>
			<path d="M0 841.74 L0 841.89" class="st1"/>
		</g>
		<g id="shape6704-544" v:mID="6704" v:groupContext="shape" transform="translate(1065.96,-349.445)">
			<title>Sheet.6704</title>
			<path d="M0 633.82 L0 841.89" class="st1"/>
		</g>
		<g id="shape6705-547" v:mID="6705" v:groupContext="shape" transform="translate(816.81,-490.716)">
			<title>Sheet.6705</title>
			<path d="M0 841.74 L0 841.89" class="st1"/>
		</g>
		<g id="shape6706-550" v:mID="6706" v:groupContext="shape" transform="translate(681.256,-557.513)">
			<title>Sheet.6706</title>
			<path d="M0 841.89 L384.71 841.89" class="st1"/>
		</g>
		<g id="shape6707-553" v:mID="6707" v:groupContext="shape" transform="translate(1065.96,-349.292)">
			<title>Sheet.6707</title>
			<path d="M0 841.74 L0 841.89" class="st1"/>
		</g>
		<g id="shape6708-556" v:mID="6708" v:groupContext="shape" transform="translate(1065.96,-491.637)">
			<title>Sheet.6708</title>
			<path d="M17.65 841.89 L-0 841.89" class="st1"/>
		</g>
		<g id="shape6709-559" v:mID="6709" v:groupContext="shape" transform="translate(1065.96,-557.359)">
			<title>Sheet.6709</title>
			<path d="M0 841.74 L0 841.89" class="st1"/>
		</g>
		<g id="shape6710-562" v:mID="6710" v:groupContext="shape" transform="translate(1065.96,-507.454)">
			<title>Sheet.6710</title>
			<path d="M-0 841.89 L6.45 841.89" class="st1"/>
		</g>
		<g id="shape6711-565" v:mID="6711" v:groupContext="shape" transform="translate(1065.96,-491.484)">
			<title>Sheet.6711</title>
			<path d="M0 841.74 L0 841.89" class="st1"/>
		</g>
		<g id="shape6712-568" v:mID="6712" v:groupContext="shape" transform="translate(1072.41,-491.637)">
			<title>Sheet.6712</title>
			<path d="M11.21 841.89 L11.21 841.12 L11.36 840.51 L11.36 839.89 L11.36 839.28 L11.36 838.67 L11.21 837.9 L11.05 837.28
						 L11.05 836.67 L10.9 836.05 L10.59 835.44 L10.44 834.83 L10.13 834.21 L9.98 833.6 L9.67 833.14 L9.36 832.52
						 L8.9 831.91 L8.6 831.45 L8.14 830.99 L7.83 830.37 L7.37 829.91 L6.91 829.45 L6.45 829.14 L5.83 828.68 L5.37
						 828.22 L4.76 827.92 L4.3 827.61 L3.68 827.3 L3.07 826.99 L2.46 826.69 L1.84 826.53 L1.23 826.38 L0.61 826.23
						 L0 826.07" class="st1"/>
		</g>
		<g id="shape6713-571" v:mID="6713" v:groupContext="shape" transform="translate(1072.41,-507.3)">
			<title>Sheet.6713</title>
			<path d="M0 841.74 L0 841.89" class="st1"/>
		</g>
		<g id="shape6714-574" v:mID="6714" v:groupContext="shape" transform="translate(674.655,-507.454)">
			<title>Sheet.6714</title>
			<path d="M-0 841.89 L6.6 841.89" class="st1"/>
		</g>
		<g id="shape6715-577" v:mID="6715" v:groupContext="shape" transform="translate(1072.41,-507.3)">
			<title>Sheet.6715</title>
			<path d="M0 841.74 L0 841.89" class="st1"/>
		</g>
		<g id="shape6716-580" v:mID="6716" v:groupContext="shape" transform="translate(663.601,-491.637)">
			<title>Sheet.6716</title>
			<path d="M17.65 841.89 L0 841.89" class="st1"/>
		</g>
		<g id="shape6717-583" v:mID="6717" v:groupContext="shape" transform="translate(681.256,-507.3)">
			<title>Sheet.6717</title>
			<path d="M0 841.74 L0 841.89" class="st1"/>
		</g>
		<g id="shape6718-586" v:mID="6718" v:groupContext="shape" transform="translate(663.448,-491.637)">
			<title>Sheet.6718</title>
			<path d="M11.21 826.07 L10.59 826.23 L9.98 826.38 L9.36 826.53 L8.75 826.84 L8.29 826.99 L7.68 827.3 L7.06 827.61 L6.6
						 827.92 L5.99 828.38 L5.53 828.68 L4.91 829.14 L4.45 829.61 L3.99 830.07 L3.53 830.53 L3.22 830.99 L2.76
						 831.45 L2.46 832.06 L2 832.52 L1.69 833.14 L1.38 833.75 L1.23 834.21 L0.92 834.83 L0.77 835.44 L0.46 836.05
						 L0.31 836.67 L0.15 837.28 L0.15 838.05 L0 838.67 L0 839.28 L0 839.89 L0 840.51 L0 841.12 L0.15 841.89"
					class="st1"/>
		</g>
		<g id="shape6719-589" v:mID="6719" v:groupContext="shape" transform="translate(663.601,-491.484)">
			<title>Sheet.6719</title>
			<path d="M0 841.74 L0 841.89" class="st1"/>
		</g>
		<g id="shape6720-592" v:mID="6720" v:groupContext="shape" transform="translate(1083.62,-365.261)">
			<title>Sheet.6720</title>
			<path d="M0 841.89 L0 715.51" class="st1"/>
		</g>
		<g id="shape6721-595" v:mID="6721" v:groupContext="shape" transform="translate(663.601,-491.484)">
			<title>Sheet.6721</title>
			<path d="M0 841.74 L0 841.89" class="st1"/>
		</g>
		<g id="shape6722-598" v:mID="6722" v:groupContext="shape" transform="translate(1065.96,-365.261)">
			<title>Sheet.6722</title>
			<path d="M-0 841.89 L17.65 841.89" class="st1"/>
		</g>
		<g id="shape6723-601" v:mID="6723" v:groupContext="shape" transform="translate(1083.62,-491.484)">
			<title>Sheet.6723</title>
			<path d="M0 841.74 L0 841.89" class="st1"/>
		</g>
		<g id="shape6724-604" v:mID="6724" v:groupContext="shape" transform="translate(663.601,-365.261)">
			<title>Sheet.6724</title>
			<path d="M0 841.89 L17.65 841.89" class="st1"/>
		</g>
		<g id="shape6725-607" v:mID="6725" v:groupContext="shape" transform="translate(1083.62,-365.108)">
			<title>Sheet.6725</title>
			<path d="M0 841.74 L0 841.89" class="st1"/>
		</g>
		<g id="shape6726-610" v:mID="6726" v:groupContext="shape" transform="translate(663.601,-365.261)">
			<title>Sheet.6726</title>
			<path d="M0 715.51 L0 841.89" class="st1"/>
		</g>
		<g id="shape6727-613" v:mID="6727" v:groupContext="shape" transform="translate(681.256,-365.108)">
			<title>Sheet.6727</title>
			<path d="M0 841.74 L0 841.89" class="st1"/>
		</g>
		<g id="shape6728-616" v:mID="6728" v:groupContext="shape" transform="translate(1072.41,-349.445)">
			<title>Sheet.6728</title>
			<path d="M0 841.89 L0.61 841.74 L1.23 841.58 L1.84 841.43 L2.46 841.28 L3.07 840.97 L3.68 840.66 L4.14 840.35 L4.76 840.05
						 L5.37 839.59 L5.83 839.28 L6.29 838.82 L6.75 838.36 L7.22 838.05 L7.68 837.44 L8.14 836.98 L8.6 836.52 L8.9
						 836.05 L9.21 835.44 L9.52 834.83 L9.82 834.37 L10.13 833.75 L10.44 833.14 L10.59 832.52 L10.75 831.91 L10.9
						 831.29 L11.05 830.68 L11.21 830.07 L11.21 829.3 L11.36 828.68 L11.36 828.07 L11.36 827.46 L11.21 826.84
						 L11.21 826.07" class="st1"/>
		</g>
		<g id="shape6729-619" v:mID="6729" v:groupContext="shape" transform="translate(663.601,-365.108)">
			<title>Sheet.6729</title>
			<path d="M0 841.74 L0 841.89" class="st1"/>
		</g>
		<g id="shape6730-622" v:mID="6730" v:groupContext="shape" transform="translate(1065.96,-349.445)">
			<title>Sheet.6730</title>
			<path d="M6.45 841.89 L-0 841.89" class="st1"/>
		</g>
		<g id="shape6731-625" v:mID="6731" v:groupContext="shape" transform="translate(1083.62,-365.108)">
			<title>Sheet.6731</title>
			<path d="M0 841.74 L0 841.89" class="st1"/>
		</g>
		<g id="shape6732-628" v:mID="6732" v:groupContext="shape" transform="translate(663.448,-349.445)">
			<title>Sheet.6732</title>
			<path d="M0.15 826.07 L0 826.84 L0 827.46 L0 828.07 L0 828.68 L0 829.45 L0 830.07 L0.15 830.68 L0.31 831.29 L0.46 831.91
						 L0.61 832.52 L0.92 833.14 L1.07 833.75 L1.38 834.37 L1.69 834.98 L2 835.44 L2.3 836.05 L2.76 836.52 L3.07
						 837.13 L3.53 837.59 L3.99 838.05 L4.45 838.51 L4.91 838.97 L5.37 839.28 L5.99 839.74 L6.45 840.05 L7.06
						 840.35 L7.68 840.66 L8.14 840.97 L8.75 841.28 L9.36 841.43 L9.98 841.58 L10.59 841.89 L11.21 841.89"
					class="st1"/>
		</g>
		<g id="shape6733-631" v:mID="6733" v:groupContext="shape" transform="translate(1065.96,-349.292)">
			<title>Sheet.6733</title>
			<path d="M0 841.74 L0 841.89" class="st1"/>
		</g>
		<g id="shape6734-634" v:mID="6734" v:groupContext="shape" transform="translate(674.655,-349.445)">
			<title>Sheet.6734</title>
			<path d="M6.6 841.89 L-0 841.89" class="st1"/>
		</g>
		<g id="shape6735-637" v:mID="6735" v:groupContext="shape" transform="translate(674.655,-349.292)">
			<title>Sheet.6735</title>
			<path d="M0 841.74 L0 841.89" class="st1"/>
		</g>
		<g id="shape6736-640" v:mID="6736" v:groupContext="shape" transform="translate(1083.62,-491.637)">
			<title>Sheet.6736</title>
			<path d="M15.35 841.89 L-0 841.89" class="st1"/>
		</g>
		<g id="shape6737-643" v:mID="6737" v:groupContext="shape" transform="translate(674.655,-349.292)">
			<title>Sheet.6737</title>
			<path d="M0 841.74 L0 841.89" class="st1"/>
		</g>
		<g id="shape6738-646" v:mID="6738" v:groupContext="shape" transform="translate(1072.41,-507.454)">
			<title>Sheet.6738</title>
			<path d="M-0 841.89 L10.75 841.89" class="st1"/>
		</g>
		<g id="shape6739-649" v:mID="6739" v:groupContext="shape" transform="translate(1083.62,-491.484)">
			<title>Sheet.6739</title>
			<path d="M0 841.74 L0 841.89" class="st1"/>
		</g>
		<g id="shape6740-652" v:mID="6740" v:groupContext="shape" transform="translate(1083.16,-491.637)">
			<title>Sheet.6740</title>
			<path d="M15.81 841.89 L15.81 841.12 L15.81 840.51 L15.81 839.74 L15.66 839.13 L15.51 838.36 L15.35 837.74 L15.2 837.13
						 L14.89 836.36 L14.74 835.75 L14.43 835.13 L14.12 834.52 L13.82 833.9 L13.36 833.29 L13.05 832.83 L12.59
						 832.22 L12.13 831.6 L11.67 831.14 L11.21 830.68 L10.75 830.22 L10.29 829.76 L9.67 829.3 L9.21 828.84 L8.6
						 828.53 L7.98 828.07 L7.37 827.76 L6.75 827.46 L6.14 827.3 L5.53 826.99 L4.76 826.69 L4.14 826.53 L3.53 826.38
						 L2.76 826.23 L2.15 826.23 L1.38 826.07 L0.77 826.07 L0 826.07" class="st1"/>
		</g>
		<g id="shape6741-655" v:mID="6741" v:groupContext="shape" transform="translate(1083.16,-507.3)">
			<title>Sheet.6741</title>
			<path d="M0 841.74 L0 841.89" class="st1"/>
		</g>
		<g id="shape6742-658" v:mID="6742" v:groupContext="shape" transform="translate(663.908,-507.454)">
			<title>Sheet.6742</title>
			<path d="M0 841.89 L10.75 841.89" class="st1"/>
		</g>
		<g id="shape6743-661" v:mID="6743" v:groupContext="shape" transform="translate(1083.16,-507.3)">
			<title>Sheet.6743</title>
			<path d="M0 841.74 L0 841.89" class="st1"/>
		</g>
		<g id="shape6744-664" v:mID="6744" v:groupContext="shape" transform="translate(648.096,-491.637)">
			<title>Sheet.6744</title>
			<path d="M15.51 841.89 L-0 841.89" class="st1"/>
		</g>
		<g id="shape6745-667" v:mID="6745" v:groupContext="shape" transform="translate(674.655,-507.3)">
			<title>Sheet.6745</title>
			<path d="M0 841.74 L0 841.89" class="st1"/>
		</g>
		<g id="shape6746-670" v:mID="6746" v:groupContext="shape" transform="translate(648.096,-491.637)">
			<title>Sheet.6746</title>
			<path d="M15.81 826.07 L15.2 826.07 L14.43 826.07 L13.82 826.23 L13.05 826.23 L12.43 826.38 L11.67 826.53 L11.05 826.69
						 L10.44 826.99 L9.82 827.3 L9.21 827.46 L8.6 827.76 L7.98 828.07 L7.37 828.53 L6.75 828.84 L6.14 829.3 L5.68
						 829.76 L5.22 830.22 L4.61 830.68 L4.14 831.14 L3.68 831.6 L3.22 832.22 L2.92 832.83 L2.46 833.29 L2.15 833.9
						 L1.84 834.52 L1.54 835.13 L1.23 835.75 L0.92 836.36 L0.77 837.13 L0.61 837.74 L0.46 838.36 L0.31 839.13
						 L0.15 839.74 L0.15 840.51 L0 841.12 L0 841.89" class="st1"/>
		</g>
		<g id="shape6747-673" v:mID="6747" v:groupContext="shape" transform="translate(648.096,-491.484)">
			<title>Sheet.6747</title>
			<path d="M0 841.74 L0 841.89" class="st1"/>
		</g>
		<g id="shape6748-676" v:mID="6748" v:groupContext="shape" transform="translate(648.096,-365.261)">
			<title>Sheet.6748</title>
			<path d="M-0 841.89 L15.51 841.89" class="st1"/>
		</g>
		<g id="shape6749-679" v:mID="6749" v:groupContext="shape" transform="translate(648.096,-491.484)">
			<title>Sheet.6749</title>
			<path d="M0 841.74 L0 841.89" class="st1"/>
		</g>
		<g id="shape6750-682" v:mID="6750" v:groupContext="shape" transform="translate(648.096,-365.261)">
			<title>Sheet.6750</title>
			<path d="M0 841.89 L0 715.51" class="st1"/>
		</g>
		<g id="shape6751-685" v:mID="6751" v:groupContext="shape" transform="translate(663.601,-365.108)">
			<title>Sheet.6751</title>
			<path d="M0 841.74 L0 841.89" class="st1"/>
		</g>
		<g id="shape6752-688" v:mID="6752" v:groupContext="shape" transform="translate(1098.97,-365.261)">
			<title>Sheet.6752</title>
			<path d="M0 715.51 L0 841.89" class="st1"/>
		</g>
		<g id="shape6753-691" v:mID="6753" v:groupContext="shape" transform="translate(648.096,-491.484)">
			<title>Sheet.6753</title>
			<path d="M0 841.74 L0 841.89" class="st1"/>
		</g>
		<g id="shape6754-694" v:mID="6754" v:groupContext="shape" transform="translate(1083.62,-365.261)">
			<title>Sheet.6754</title>
			<path d="M-0 841.89 L15.35 841.89" class="st1"/>
		</g>
		<g id="shape6755-697" v:mID="6755" v:groupContext="shape" transform="translate(1098.97,-365.108)">
			<title>Sheet.6755</title>
			<path d="M0 841.74 L0 841.89" class="st1"/>
		</g>
		<g id="shape6756-700" v:mID="6756" v:groupContext="shape" transform="translate(1083.16,-349.445)">
			<title>Sheet.6756</title>
			<path d="M0 841.89 L0.77 841.89 L1.38 841.89 L2.15 841.89 L2.76 841.74 L3.53 841.58 L4.14 841.43 L4.76 841.28 L5.53 840.97
						 L6.14 840.81 L6.75 840.51 L7.37 840.2 L7.98 839.89 L8.6 839.43 L9.21 839.13 L9.67 838.67 L10.29 838.2 L10.75
						 837.74 L11.21 837.28 L11.67 836.82 L12.13 836.36 L12.59 835.75 L13.05 835.29 L13.36 834.67 L13.82 834.06
						 L14.12 833.44 L14.43 832.83 L14.74 832.22 L14.89 831.6 L15.2 830.83 L15.35 830.22 L15.51 829.61 L15.66 828.84
						 L15.81 828.22 L15.81 827.46 L15.81 826.84 L15.81 826.07" class="st1"/>
		</g>
		<g id="shape6757-703" v:mID="6757" v:groupContext="shape" transform="translate(1098.97,-365.108)">
			<title>Sheet.6757</title>
			<path d="M0 841.74 L0 841.89" class="st1"/>
		</g>
		<g id="shape6758-706" v:mID="6758" v:groupContext="shape" transform="translate(1072.41,-349.445)">
			<title>Sheet.6758</title>
			<path d="M10.75 841.89 L-0 841.89" class="st1"/>
		</g>
		<g id="shape6759-709" v:mID="6759" v:groupContext="shape" transform="translate(1098.97,-365.108)">
			<title>Sheet.6759</title>
			<path d="M0 841.74 L0 841.89" class="st1"/>
		</g>
		<g id="shape6760-712" v:mID="6760" v:groupContext="shape" transform="translate(648.096,-349.445)">
			<title>Sheet.6760</title>
			<path d="M0 826.07 L0 826.84 L0.15 827.46 L0.15 828.22 L0.31 828.84 L0.46 829.61 L0.61 830.22 L0.77 830.83 L0.92 831.6
						 L1.23 832.22 L1.54 832.83 L1.84 833.44 L2.15 834.06 L2.46 834.67 L2.92 835.29 L3.22 835.75 L3.68 836.36
						 L4.14 836.82 L4.61 837.28 L5.22 837.74 L5.68 838.2 L6.14 838.67 L6.75 839.13 L7.37 839.43 L7.98 839.89 L8.6
						 840.2 L9.21 840.51 L9.82 840.81 L10.44 840.97 L11.05 841.28 L11.67 841.43 L12.43 841.58 L13.05 841.74 L13.82
						 841.89 L14.43 841.89 L15.2 841.89 L15.81 841.89" class="st1"/>
		</g>
		<g id="shape6761-715" v:mID="6761" v:groupContext="shape" transform="translate(1072.41,-349.292)">
			<title>Sheet.6761</title>
			<path d="M0 841.74 L0 841.89" class="st1"/>
		</g>
		<g id="shape6762-718" v:mID="6762" v:groupContext="shape" transform="translate(663.908,-349.445)">
			<title>Sheet.6762</title>
			<path d="M10.75 841.89 L0 841.89" class="st1"/>
		</g>
		<g id="shape6763-721" v:mID="6763" v:groupContext="shape" transform="translate(663.908,-349.292)">
			<title>Sheet.6763</title>
			<path d="M0 841.74 L0 841.89" class="st1"/>
		</g>
		<g id="shape6765-724" v:mID="6765" v:groupContext="shape" transform="translate(663.908,-349.292)">
			<title>Sheet.6765</title>
			<path d="M0 841.74 L0 841.89" class="st1"/>
		</g>
		<g id="shape6867-727" v:mID="6867" v:groupContext="shape" transform="translate(742.677,-348.661)">
			<title>Sheet.6867</title>
			<desc>Space for spray cap</desc>
			<v:textBlock v:margins="rect(4,4,4,4)"/>
			<v:textRect cx="131.811" cy="761.102" width="263.63" height="161.575"/>
			<rect x="0" y="680.315" width="263.622" height="161.575" class="st2"/>
			<text x="74.94" y="752.1" class="st4" v:langID="1044"><v:paragraph v:horizAlign="1"/><v:tabList/>Space for <v:newlineChar/><tspan
						x="74.06" dy="1.2em" class="st5">spray cap</tspan></text>		</g>
		<g id="shape6868-733" v:mID="6868" v:groupContext="shape" transform="translate(111.969,-260.787)">
			<title>Sheet.6868</title>
			<desc>ArUco tag holder</desc>
			<v:textBlock v:margins="rect(4,4,4,4)"/>
			<v:textRect cx="192.047" cy="737.717" width="384.1" height="208.346"/>
			<rect x="0" y="633.543" width="384.094" height="208.346" class="st6"/>
			<text x="88.4" y="746.72" class="st4" v:langID="1044"><v:paragraph v:horizAlign="1"/><v:tabList/>ArUco tag holder</text>		</g>
		<g id="shape6869-738" v:mID="6869" v:groupContext="shape" transform="translate(483.164,-616.535)">
			<title>Sheet.6869</title>
			<desc>Locking mechanism for lower half</desc>
			<v:textBlock v:margins="rect(4,4,4,4)"/>
			<v:textRect cx="199.721" cy="841.89" width="399.45" height="0"/>
			<path d="M16.2 841.89 L16.56 841.89 L399.44 841.89" class="st8"/>
			<rect v:rectContext="textBkgnd" x="80.5408" y="805.89" width="238.36" height="72" class="st10"/>
			<text x="80.54" y="832.89" class="st4" v:langID="1044"><v:paragraph v:horizAlign="1"/><v:tabList/>Locking mechanism<v:newlineChar/><tspan
						x="113.98" dy="1.2em" class="st5"> </tspan>for lower half</text>		</g>
		<g id="shape6870-747" v:mID="6870" v:groupContext="shape" transform="translate(538.583,-339.158)">
			<title>Sheet.6870</title>
			<desc>Interface cube</desc>
			<v:textBlock v:margins="rect(4,4,4,4)"/>
			<v:textRect cx="70.9738" cy="752.598" width="141.95" height="178.583"/>
			<rect x="0" y="663.307" width="141.948" height="178.583" class="st11"/>
			<text x="4" y="744.2" class="st12" v:langID="1044"><v:paragraph/><v:tabList/>Interface <tspan x="4" dy="1.2em"
						class="st5">cube</tspan></text>		</g>
	</g>
</svg>
