<?xml version="1.0" encoding="UTF-8" standalone="no"?>
<!-- Created with Inkscape (http://www.inkscape.org/) -->

<svg
   width="136.64656mm"
   height="143.692mm"
   viewBox="0 0 136.64656 143.692"
   version="1.1"
   id="svg1"
   sodipodi:docname="bounding_boxes_errors_5.svg"
   inkscape:version="1.4.2 (2aeb623e1d, 2025-05-12)"
   xmlns:inkscape="http://www.inkscape.org/namespaces/inkscape"
   xmlns:sodipodi="http://sodipodi.sourceforge.net/DTD/sodipodi-0.dtd"
   xmlns="http://www.w3.org/2000/svg"
   xmlns:svg="http://www.w3.org/2000/svg">
  <sodipodi:namedview
     id="namedview1"
     pagecolor="#ffffff"
     bordercolor="#000000"
     borderopacity="0.25"
     inkscape:showpageshadow="2"
     inkscape:pageopacity="0.0"
     inkscape:pagecheckerboard="0"
     inkscape:deskcolor="#d1d1d1"
     inkscape:document-units="mm"
     showguides="false"
     inkscape:zoom="1.3311147"
     inkscape:cx="251.29315"
     inkscape:cy="264.0644"
     inkscape:window-width="1920"
     inkscape:window-height="941"
     inkscape:window-x="0"
     inkscape:window-y="0"
     inkscape:window-maximized="1"
     inkscape:current-layer="layer1" />
  <defs
     id="defs1">
    <linearGradient
       id="swatch35">
      <stop
         style="stop-color:#ff0505;stop-opacity:0.64313725;"
         offset="0"
         id="stop35" />
    </linearGradient>
    <rect
       x="59.00811"
       y="172.57089"
       width="180.36441"
       height="103.54253"
       id="rect30" />
  </defs>
  <g
     inkscape:label="Layer 1"
     inkscape:groupmode="layer"
     id="layer1"
     transform="translate(24.726535,17.212306)">
    <g
       id="g4"
       transform="translate(-26.806475,-58.031599)">
      <path
         style="fill:none;stroke:#000000;stroke-width:1.68429;stroke-dasharray:none;stroke-opacity:1"
         d="M 28.543075,170.34525 114.3266,60.013686"
         id="path2" />
      <path
         style="fill:none;stroke:#000000;stroke-width:1.68429;stroke-dasharray:none;stroke-opacity:1"
         d="M 41.684887,178.60538 127.46841,68.273819"
         id="path2-3" />
      <path
         style="fill:none;stroke:#000000;stroke-width:1.6;stroke-dasharray:none;stroke-opacity:1"
         d="m 113.70658,59.799058 12.6668,8.8373"
         id="path3" />
      <path
         style="fill:none;stroke:#000000;stroke-width:1.6;stroke-dasharray:none;stroke-opacity:1"
         d="m 28.573933,169.97072 12.961374,8.24815"
         id="path4" />
    </g>
    <path
       style="fill:none;fill-opacity:0.644564;stroke:none;stroke-width:6.73276;stroke-dasharray:none;stroke-opacity:1"
       d="m 33.400817,436.40557 c -11.328444,-7.27358 -20.597171,-13.81759 -20.597171,-14.54222 0,-1.52281 315.764884,-408.293931 317.044524,-408.419561 1.51442,-0.148678 41.00676,27.990313 40.67017,28.978203 -0.30451,0.89371 -316.158376,407.474338 -316.40649,407.291988 -0.06262,-0.046 -9.38259,-6.03481 -20.711033,-13.30841 z"
       id="path24"
       transform="matrix(0.26458333,0,0,0.26458333,0.38372886,0.08915395)" />
    <ellipse
       style="fill:none;fill-opacity:0.644564;stroke:none;stroke-width:1.6;stroke-dasharray:none;stroke-opacity:1"
       id="path25"
       cx="7.8954329"
       cy="111.88099"
       rx="10.162894"
       ry="13.697814" />
    <text
       xml:space="preserve"
       style="font-size:3.175px;text-align:start;writing-mode:lr-tb;direction:ltr;text-anchor:start;fill:none;fill-opacity:0.644564;stroke:none;stroke-width:1.6;stroke-dasharray:none;stroke-opacity:1"
       x="28.663084"
       y="84.043503"
       id="text29"><tspan
         id="tspan29"
         style="stroke:none;stroke-width:1.6"
         x="28.663084"
         y="84.043503"
         sodipodi:role="line">Arm</tspan></text>
    <text
       xml:space="preserve"
       transform="matrix(0.26458333,0,0,0.26458333,0.38372886,0.08915395)"
       id="text30"
       style="text-align:start;writing-mode:lr-tb;direction:ltr;white-space:pre;shape-inside:url(#rect30);display:inline;fill:none;fill-opacity:0.644564;stroke:#000000;stroke-width:3.77953;stroke-dasharray:none;stroke-opacity:1" />
    <text
       xml:space="preserve"
       style="font-size:3.175px;text-align:start;writing-mode:lr-tb;direction:ltr;text-anchor:start;fill:none;fill-opacity:0.644564;stroke:#000000;stroke-width:1;stroke-dasharray:none;stroke-opacity:1"
       x="27.190203"
       y="59.593636"
       id="text31"><tspan
         sodipodi:role="line"
         id="tspan31"
         style="stroke-width:1"
         x="27.190203"
         y="59.593636" /></text>
    <text
       xml:space="preserve"
       style="font-style:normal;font-variant:normal;font-weight:normal;font-stretch:normal;font-size:14.9504px;font-family:Sans;-inkscape-font-specification:'Sans, Normal';font-variant-ligatures:normal;font-variant-caps:normal;font-variant-numeric:normal;font-variant-east-asian:normal;text-align:start;writing-mode:lr-tb;direction:ltr;text-anchor:start;white-space:pre;inline-size:57.5313;display:inline;fill:#000000;fill-opacity:1;stroke:#000000;stroke-width:1;stroke-dasharray:none;stroke-opacity:1"
       x="24.244436"
       y="43.686497"
       id="text32"
       transform="matrix(0.59553194,-0.773314,0.72314797,0.5568989,-3.5686537,72.551321)" />
    <path
       style="fill:#ff5f5f;fill-opacity:1;stroke:#ff5f5f;stroke-width:0.499999;stroke-linejoin:miter;stroke-miterlimit:4;stroke-dasharray:none;stroke-opacity:1"
       d="m 100.71299,11.94748 c -0.003,0.006 -0.004,0.01247 -0.008,0.01789 -0.0384,0.05859 -0.0834,0.112513 -0.12526,0.16871 -0.0448,0.06025 -0.0886,0.120366 -0.13548,0.178936 -0.0646,0.08073 -0.0158,0.02356 -0.0716,0.0818 -0.0121,0.0126 -0.0433,0.05358 -0.0588,0.06135 m 0.34035,-0.227501 c 0.005,0.04171 0.002,0.0835 0,0.125255 -9.9e-4,0.02215 -9.4e-4,0.04435 -0.003,0.06646 -9.4e-4,0.01286 -0.004,0.02551 -0.005,0.03834 -0.002,0.01992 -0.005,0.09161 -0.005,0.102249 8e-4,0.03679 0.008,0.07321 0.0102,0.109918 0.002,0.03065 0.003,0.06139 0.005,0.09202 0.0115,0.155472 2e-4,-0.04023 0.008,0.07924 0.001,0.01958 7.8e-4,0.03926 0.003,0.05879 0.008,0.09292 -7.6e-4,-0.224036 0.0102,0.132924 5.3e-4,0.01705 -0.002,0.03408 -0.003,0.05112 -0.001,0.0265 -0.004,0.204656 -0.0204,0.237729"
       id="path39" />
    <path
       style="fill:#ff5f5f;fill-opacity:1;stroke:#ff5f5f;stroke-width:0.499999;stroke-linejoin:miter;stroke-miterlimit:4;stroke-dasharray:none;stroke-opacity:1"
       d="m 100.6423,17.341763 0.0496,-3.926684 c -0.0454,0.0081 -0.0635,-0.05422 -0.0992,-0.06613 -0.0224,-0.0075 -0.0479,0.0099 -0.0661,-0.0083"
       id="path40" />
    <path
       style="fill:#ff5f5f;fill-opacity:1;stroke:#ff5f5f;stroke-width:0.1;stroke-linejoin:miter;stroke-miterlimit:4;stroke-dasharray:none;stroke-opacity:1"
       d="m 100.85036,11.482824 c -0.35498,0.72002 -0.2002,0.449558 -0.4273,0.831487"
       id="path41" />
    <path
       style="fill:#ff5f5f;fill-opacity:1;stroke:#ff5f5f;stroke-width:0.1;stroke-linejoin:miter;stroke-miterlimit:4;stroke-dasharray:none;stroke-opacity:1"
       d="m 100.29834,12.152633 0.48042,-0.600518"
       id="path42" />
    <path
       style="fill:#ff5f5f;fill-opacity:1;stroke:#ff5f5f;stroke-width:0.1;stroke-linejoin:miter;stroke-miterlimit:4;stroke-dasharray:none;stroke-opacity:1"
       d="m 100.85036,11.637573 -0.0878,0.489653"
       id="path43" />
    <path
       style="fill:#ff5f5f;fill-opacity:1;stroke:#ff5f5f;stroke-width:0.1;stroke-linejoin:miter;stroke-miterlimit:4;stroke-dasharray:none;stroke-opacity:1"
       d="m 100.83419,11.401985 c -0.003,0.02002 -0.005,0.04031 -0.009,0.06005 -0.0517,0.226892 -0.0499,0.141328 -0.0762,0.401885 -0.0231,0.229191 -0.0243,0.183557 -0.007,0.330285 0.006,0.05169 0.002,0.06267 0.0277,0.108555 0.004,0.0067 0.0112,0.01041 0.0162,0.01617 0.0112,0.01292 0.0198,0.02792 0.03,0.04157"
       id="path44" />
    <path
       style="fill:#ff5f5f;fill-opacity:1;stroke:#ff5f5f;stroke-width:0.1;stroke-linejoin:miter;stroke-miterlimit:4;stroke-dasharray:none;stroke-opacity:1"
       d="m 100.8619,12.441343 c 8e-4,-0.03233 -5.2e-4,-0.06478 0.002,-0.09701 0.003,-0.03027 0.008,-0.0602 0.0139,-0.09008 0.001,-0.0079 0.005,-0.01541 0.007,-0.0231 8e-4,-0.0023 0.003,-0.0045 0.002,-0.0069 -5.3e-4,-0.0063 -0.003,-0.01225 -0.005,-0.01848 -0.003,-0.01303 -0.004,-0.02629 -0.007,-0.03927 -0.0155,-0.06976 -0.0109,-0.02051 -0.0208,-0.103936 -0.004,-0.03579 -0.002,-0.07262 -0.002,-0.108555 0,-0.02404 -0.004,-0.04754 -0.002,-0.0716 0.003,-0.06529 0.002,0.03632 0.002,-0.04157 0,-0.01771 0.002,-0.03548 0,-0.05312 -0.002,-0.02431 -0.009,-0.04934 -0.009,-0.07391 0,-0.04223 0.0142,-0.0958 0.0277,-0.136271"
       id="path45" />
    <path
       style="fill:#ff5f5f;fill-opacity:1;stroke:#ff5f5f;stroke-width:0.1;stroke-linejoin:miter;stroke-miterlimit:4;stroke-dasharray:none;stroke-opacity:1"
       d="m 100.85267,11.401985 c -0.0321,0.07008 -0.21259,0.465069 -0.23097,0.503512 -0.014,0.02921 -0.0308,0.05697 -0.0462,0.08546"
       id="path46" />
    <path
       style="fill:#ff5f5f;fill-opacity:1;stroke:#ff5f5f;stroke-width:0.1;stroke-linejoin:miter;stroke-miterlimit:4;stroke-dasharray:none;stroke-opacity:1"
       d="m 100.8619,11.462037 c -0.0186,0.249503 -0.023,0.144867 -0.007,0.314117 m -0.009,-1.329625 0.004,-1.9780888"
       id="path47" />
    <path
       style="fill:#ff5f5f;fill-opacity:1;stroke:#ff5f5f;stroke-width:0.1;stroke-linejoin:miter;stroke-miterlimit:4;stroke-dasharray:none;stroke-opacity:1"
       d="m 100.8747,1.0743179 c -0.0347,0 -0.0694,0 -0.10403,0 -0.0245,0 -0.0502,-0.00239 -0.0743,0.00212 -0.007,0.00124 -0.0649,0.011839 -0.0701,0.016986 -0.003,0.00283 0.005,0.00627 0.008,0.00849 0.008,0.00512 0.0154,0.010239 0.0234,0.014862 0.009,0.00502 0.0352,0.017089 0.0425,0.019109 0.004,0.00114 0.009,-3.519e-4 0.0127,0 0.004,3.571e-4 0.008,0.00142 0.0128,0.00212 0.006,7.065e-4 0.0113,0.00172 0.017,0.00212 0.0141,0.00101 0.0284,-0.00117 0.0425,0 0.0104,8.678e-4 0.0196,0.00434 0.0297,0.00637 0.004,7.355e-4 0.0234,0.00142 0.0276,0 0.002,-6.324e-4 0.002,-0.00335 0.004,-0.00425 5.3e-4,-3.175e-4 0.002,5e-4 0.002,0 5.2e-4,-5.001e-4 -5.3e-4,-0.00162 0,-0.00212 5.2e-4,-5.001e-4 0.002,5.001e-4 0.002,0 5.3e-4,-5.609e-4 0,-0.0055 0,-0.00637"
       id="path48" />
    <path
       style="fill:#ff5f5f;fill-opacity:1;stroke:#ff5f5f;stroke-width:0.1;stroke-linejoin:miter;stroke-miterlimit:4;stroke-dasharray:none;stroke-opacity:1"
       d="m 86.847601,1.3828545 c 0.02408,0.019783 0.04161,0.045256 0.06205,0.068253 0.01355,0.015227 0.03039,0.027783 0.04343,0.043434 0.0079,0.00946 0.02981,0.039926 0.04033,0.043434 0.01045,0.00349 0.03382,-0.028063 0.03723,-0.034126 0.0061,-0.010891 0.0097,-0.023048 0.01551,-0.034126 0.0343,-0.065751 0.06617,-0.1015822 0.07756,-0.1737344 0.006,-0.037954 0.0021,-0.074777 -0.02172,-0.1054816 -0.01281,-0.016479 -0.03073,-0.038542 -0.05274,-0.043433 -0.06224,-0.013831 -0.134012,0.063526 -0.15512,0.1147887 -0.01098,0.026651 -0.014,0.055231 -0.01241,0.083765 5.29e-4,0.00999 7.94e-4,0.034702 0.01241,0.043434 0.0016,0.00124 0.0041,0 0.0062,0 0.04228,0 0.102928,-0.054704 0.133402,-0.07756 0.0864,-0.0648 -0.0276,0.017011 0.05584,-0.037229 0.02723,-0.017697 0.0524,-0.036588 0.08066,-0.052741 0.01085,-0.0062 0.02342,-0.00908 0.03413,-0.015512 0.01384,-0.0083 0.02469,-0.021263 0.03723,-0.031024 0.0136,-0.010587 0.02707,-0.019974 0.04033,-0.031024 0.0045,-0.00374 0.0075,-0.00916 0.01241,-0.012409 0.0016,-0.00107 0.008,-0.00185 0.0093,-0.0031 0.0062,-0.00623 0.0019,-0.030489 -0.0031,-0.037229 -0.0021,-0.00285 -0.0089,-0.010056 -0.01241,-0.012409 -0.0019,-0.00128 -0.004,-0.00237 -0.0062,-0.0031 -0.0011,-3.281e-4 -0.0037,8.281e-4 -0.0031,0 0.0035,-0.00468 0.0075,-0.00927 0.01241,-0.012409 0.01582,-0.010061 0.04277,-0.014356 0.05895,-0.018614 0.07552,-0.019874 0.143764,0.00963 0.217168,0.024819 0.03967,0.00821 0.08052,0.015723 0.120994,0.018614 0.03059,0.00219 0.05997,0.00246 0.08997,0.0062 0.0031,3.836e-4 0.0063,-8.52e-4 0.0093,0 0.01622,0.00811 0.0079,0.00508 0.02482,0.00931"
       id="path49" />
    <path
       style="fill:#ff5f5f;fill-opacity:1;stroke:#ff5f5f;stroke-width:0.1;stroke-linejoin:miter;stroke-miterlimit:4;stroke-dasharray:none;stroke-opacity:1"
       d="m 87.29745,1.0850242 c -0.03102,0.046536 -0.06205,0.093072 -0.09307,0.1396079 -0.01654,0.024819 -0.03478,0.048593 -0.04964,0.074458 -0.05621,0.097853 -0.01029,0.047954 -0.07756,0.1458128 -0.0066,0.00964 -0.01654,0.016546 -0.02482,0.024819"
       id="path50" />
    <path
       style="fill:#ff5f5f;fill-opacity:1;stroke:#ff5f5f;stroke-width:0.1;stroke-linejoin:miter;stroke-miterlimit:4;stroke-dasharray:none;stroke-opacity:1"
       d="m 87.210582,1.1408674 c -0.09252,0.1708141 -0.04316,0.1067219 -0.130302,0.2047583"
       id="path51" />
    <path
       style="fill:#ff5f5f;fill-opacity:1;stroke:#ff5f5f;stroke-width:0.1;stroke-linejoin:miter;stroke-miterlimit:4;stroke-dasharray:none;stroke-opacity:1"
       d="m 87.015132,1.106741 c 0.04136,-0.00414 0.08253,-0.012866 0.124095,-0.012409 0.09208,0.00101 0.124624,0.010534 0.19545,0.021717 0.02689,0.00414 0.05378,0.00827 0.08066,0.01241 0.0093,0.00207 0.01852,0.00464 0.02792,0.0062 0.0459,0.00765 0.01103,-0.00253 0.04653,0.00931"
       id="path52" />
    <path
       style="fill:#ff5f5f;fill-opacity:1;stroke:#ff5f5f;stroke-width:0.1;stroke-linejoin:miter;stroke-miterlimit:4;stroke-dasharray:none;stroke-opacity:1"
       d="m 87.291243,0.9888498 c 0.09281,0.0229672 0.175803,0.072389 0.260604,0.1147888 0.01418,0.00709 0.05542,0.028282 0.07135,0.034126 0.01934,0.00709 0.0394,0.012099 0.05895,0.018614 0.04214,0.014045 0.04128,0.017536 0.08376,0.024819 0.02262,0.00388 0.04562,0.00543 0.06825,0.00931 0.05301,0.00909 0.104523,0.028373 0.15822,0.034126 0.06562,0.00703 0.03563,0.00205 0.09307,0 0.06566,-0.00234 0.03487,0.00477 0.111686,-0.0062 0.01466,-0.00209 0.02874,-0.00747 0.04343,-0.00931 0.0249,-0.00311 0.04961,0.0031 0.07446,0.0031"
       id="path53" />
    <path
       style="fill:#ff5f5f;fill-opacity:1;stroke:#ff5f5f;stroke-width:0.1;stroke-linejoin:miter;stroke-miterlimit:4;stroke-dasharray:none;stroke-opacity:1"
       d="m 1.327941,111.35772 c 0.00495,-0.0129 0.00829,-0.0265 0.014846,-0.0386 0.01332,-0.0246 0.029858,-0.0474 0.044538,-0.0713 0.024909,-0.0405 0.049199,-0.0813 0.07423,-0.12174 0.078251,-0.1263 0.1594943,-0.25061 0.2464453,-0.37115 0.028032,-0.0389 0.060036,-0.0747 0.089077,-0.11283 0.032643,-0.0428 0.062753,-0.0876 0.095015,-0.13065 0.014928,-0.0199 0.035631,-0.0384 0.035631,-0.0653"
       id="path54" />
    <path
       style="fill:#ff5f5f;fill-opacity:1;stroke:#ff5f5f;stroke-width:0.1;stroke-linejoin:miter;stroke-miterlimit:4;stroke-dasharray:none;stroke-opacity:1"
       d="m 1.8416161,110.74309 c -0.010887,0.0287 -0.017471,0.0594 -0.032661,0.0861 -0.025679,0.0451 -0.059405,0.0851 -0.089077,0.12768 -0.04675,0.0671 -0.097239,0.13788 -0.1484611,0.2019 -0.00745,0.009 -0.016309,0.0174 -0.023754,0.0267 -0.044631,0.0558 -0.02321,0.0321 -0.056415,0.0772 -0.03018,0.041 -0.062121,0.0806 -0.092046,0.12174 -0.00889,0.0122 -0.020465,0.0216 -0.026723,0.0356 -0.00166,0.004 -0.00114,0.008 -0.00297,0.0119 -0.00244,0.005 -0.029783,0.0416 -0.0386,0.0416"
       id="path55" />
    <path
       style="fill:#ff5f5f;fill-opacity:1;stroke:#ff5f5f;stroke-width:0.1;stroke-linejoin:miter;stroke-miterlimit:4;stroke-dasharray:none;stroke-opacity:1"
       d="m 1.3338794,111.36366 c 0.0099,-0.0148 0.01808,-0.031 0.029692,-0.0445 0.047877,-0.0559 0.099059,-0.10879 0.148461,-0.16331 0.008,-0.009 0.015156,-0.0185 0.023754,-0.0267 0.016187,-0.0155 0.034012,-0.0293 0.050477,-0.0445 0.03421,-0.0317 0.066747,-0.0664 0.097984,-0.10095 0.019103,-0.0211 0.043439,-0.0423 0.056415,-0.0683 0.00378,-0.008 0.00536,-0.0161 0.00891,-0.0238 0.00885,-0.0192 0.022034,-0.0365 0.029692,-0.0564 0.00181,-0.005 0.00152,-0.01 0.00297,-0.0148 0.0027,-0.009 0.00542,-0.018 0.00891,-0.0267 5.186e-4,-0.001 0.00253,-0.002 0.00297,-0.003 0.0023,-0.007 -0.00141,-0.0167 0,-0.0237 0.00166,-0.008 0.00297,-0.0119 0.00297,-0.0208"
       id="path56" />
    <path
       style="fill:#ff5f5f;fill-opacity:1;stroke:#ff5f5f;stroke-width:0.1;stroke-linejoin:miter;stroke-miterlimit:4;stroke-dasharray:none;stroke-opacity:1"
       d="m 1.7376934,110.77873 c -0.011092,0.11059 -0.08459,0.20127 -0.1543995,0.28504"
       id="path57" />
    <path
       style="fill:#ff5f5f;fill-opacity:1;stroke:#ff5f5f;stroke-width:0.1;stroke-linejoin:miter;stroke-miterlimit:4;stroke-dasharray:none;stroke-opacity:1"
       d="m 1.3487255,111.43492 c -9.895e-4,-0.0475 -0.010477,-0.0956 -0.00297,-0.14252 0.014833,-0.0927 0.049689,-0.18514 0.0772,-0.27614 0.00925,-0.0306 0.024891,-0.08 0.032661,-0.1158 0.00235,-0.0108 0.00338,-0.0219 0.00594,-0.0327 0.00239,-0.0101 0.0077,-0.0194 0.00891,-0.0297 8.176e-4,-0.007 -0.0016,-0.0139 -0.00297,-0.0208 -0.00358,-0.0179 -0.0091,-0.0354 -0.011877,-0.0534 -0.00241,-0.0157 7.541e-4,-0.0317 0,-0.0475 -0.00139,-0.0291 -0.00628,-0.0572 -0.00891,-0.0861 -0.00207,-0.0228 -0.00495,-0.0455 -0.00594,-0.0683 -0.00237,-0.0546 0.00187,-0.10943 -0.00891,-0.16331 -0.00656,-0.0328 -0.019578,-0.0615 -0.032661,-0.092 -0.00261,-0.006 -0.00681,-0.0115 -0.00891,-0.0178 -0.0024,-0.007 0,-0.019 0,-0.0267"
       id="path58" />
    <path
       style="fill:#ff5f5f;fill-opacity:1;stroke:#ff5f5f;stroke-width:0.1;stroke-linejoin:miter;stroke-miterlimit:4;stroke-dasharray:none;stroke-opacity:1"
       d="m 1.422956,111.0994 c 0.012148,-0.0339 0.1146711,-0.32201 0.133615,-0.36818 0.021888,-0.0533 0.018347,-0.048 0.041569,-0.0713"
       id="path59" />
    <path
       style="fill:#ff5f5f;fill-opacity:1;stroke:#ff5f5f;stroke-width:0.1;stroke-linejoin:miter;stroke-miterlimit:4;stroke-dasharray:none;stroke-opacity:1"
       d="m 1.5090634,111.04595 c 0.091924,-0.0997 0.123717,-0.2405 0.1454918,-0.37115"
       id="path60" />
    <path
       style="fill:#ff5f5f;fill-opacity:1;stroke:#ff5f5f;stroke-width:0.1;stroke-linejoin:miter;stroke-miterlimit:4;stroke-dasharray:none;stroke-opacity:1"
       d="m 1.5773555,110.63323 c -0.05384,0.13832 -0.087373,0.28376 -0.1425226,0.42163"
       id="path61" />
    <path
       style="fill:#ff5f5f;fill-opacity:1;stroke:#ff5f5f;stroke-width:0.1;stroke-linejoin:miter;stroke-miterlimit:4;stroke-dasharray:none;stroke-opacity:1"
       d="M 1.354664,111.0994 1.40811,109.27927"
       id="path62" />
    <path
       style="fill:#ff5f5f;fill-opacity:1;stroke:#ff5f5f;stroke-width:0.1;stroke-linejoin:miter;stroke-miterlimit:4;stroke-dasharray:none;stroke-opacity:1"
       d="m 1.4971865,109.68308 c -0.015836,0.0277 -0.037166,0.0529 -0.047508,0.0831 -0.037316,0.10896 -0.034853,0.22891 -0.020785,0.34146 0.01033,0.0826 0.031992,0.16215 0.026723,0.24644 -0.00266,0.0426 -0.00494,0.0568 -0.014846,0.095 -0.010191,0.0393 -0.023754,0.0776 -0.023754,0.11877"
       id="path63" />
    <path
       style="fill:#ff5f5f;fill-opacity:1;stroke:#ff5f5f;stroke-width:0.1;stroke-linejoin:miter;stroke-miterlimit:4;stroke-dasharray:none;stroke-opacity:1"
       d="m 1.3894475,109.32794 -0.017748,-2.99349"
       id="path64" />
    <path
       style="fill:#ff5f5f;fill-opacity:1;stroke:#000000;stroke-width:0.1;stroke-linejoin:miter;stroke-miterlimit:4;stroke-dasharray:none;stroke-opacity:1"
       d="m 1.3567465,112.07173 c 0.014604,0.0191 0.024908,0.0412 0.038187,0.0611 0.0026,0.004 0.00623,0.007 0.00916,0.0107 0.012586,0.0157 0.02598,0.0297 0.039715,0.0443 0.018548,0.0197 0.049771,0.0418 0.04277,0.0733 -8.917e-4,0.004 -0.00367,0.007 -0.00611,0.0107 -0.00472,0.006 -0.00936,0.013 -0.015275,0.0183 -0.017006,0.0153 -0.054605,0.0263 -0.07332,0.008 -0.014229,-0.0142 -0.018218,-0.0377 -0.022913,-0.0565 -0.00805,-0.0322 0.00388,0.006 -0.00458,-0.0138 -8.546e-4,-0.002 -3.334e-4,-0.006 -0.00306,-0.008 -4.551e-4,-2.2e-4 -0.00117,2.7e-4 -0.00153,0 -3.599e-4,-2.6e-4 0,-0.002 0,-0.002 0,0.006 0.00333,0.0121 0.00458,0.0183 0.00239,0.012 0.00353,0.0254 0.00916,0.0367 0.00112,0.002 0.0024,0.002 0.00458,0.002 0.011151,0 0.0207,-0.002 0.02444,-0.0153 0.0026,-0.009 0.00339,-0.0183 0.00458,-0.0275 0.00433,-0.0334 0.00764,-0.0658 0.00764,-0.0993 0,-5.3e-4 -9.99e-5,0.001 0,0.002 4.127e-4,0.002 0.00105,0.004 0.00153,0.006 0.00156,0.007 0.00352,0.0131 0.00458,0.0198 0.00799,0.0503 0.00836,0.0911 -0.00306,0.14053 -0.00994,0.0431 -0.029474,0.0813 -0.045825,0.1222 -0.012152,0.0304 -0.020058,0.0618 -0.029023,0.0932 -8.837e-4,0.003 -0.00204,0.006 -0.00305,0.009 -0.00102,0.006 -0.00153,0.0113 -0.00306,0.0168 -0.00306,0.011 -0.00709,0.0108 -0.00764,0.0229 -3.255e-4,0.007 0.00122,0.0142 0.00153,0.0214 8.387e-4,0.0193 0,0.0388 0,0.058"
       id="path65" />
    <path
       style="fill:none;fill-opacity:1;stroke:#000000;stroke-width:0.1;stroke-linejoin:miter;stroke-miterlimit:4;stroke-dasharray:none;stroke-opacity:1"
       d="m 1.5339366,112.06409 c -0.00208,-0.014 -0.00996,-0.0243 -0.015275,-0.0367 -6.191e-4,-10e-4 -5.926e-4,-0.006 -0.00305,-0.006 -0.00302,-5.3e-4 -0.00611,0 -0.00916,0 -0.036541,0 -0.016333,-5.3e-4 -0.05499,0.002 -0.010183,5.3e-4 -0.020357,0.002 -0.03055,0.002 -0.00811,-1.8e-4 -0.042107,-0.003 -0.05499,-0.006 -0.016876,-0.004 -0.022959,-0.0134 -0.038187,-0.0168 -0.014396,-0.003 -0.054219,0.0245 -0.070265,0.0305 -0.01667,0.006 -0.015709,0.003 -0.032077,0.008 -0.00621,0.002 -0.012014,0.005 -0.01833,0.006 -0.010782,0.002 -0.012038,-0.003 -0.021385,0.003 -0.035252,0.0228 -0.05125,0.0729 -0.045825,0.11304 0.00612,0.0453 0.071297,0.0654 0.1023425,0.0764 0.026785,0.009 0.054619,0.0159 0.082485,0.0214 0.1529481,0.0302 0.1391026,0.0187 0.2673126,0.0473 0.080727,0.018 0.086005,0.0244 0.1664975,0.0458 0.018628,0.005 0.037656,0.008 0.056517,0.0122 0.00381,8e-4 0.01222,0.002 0.01222,0.002 0,-7.9e-4 -0.001,-10e-4 -0.00153,-0.002 -0.019838,-0.0184 -0.04024,-0.0361 -0.059573,-0.055 -0.05987,-0.0585 -0.081911,-0.0828 -0.13442,-0.14664 -0.026933,-0.0327 -0.052911,-0.0662 -0.07943,-0.0993 -0.031887,-0.0397 -0.074636,-0.0977 -0.1298375,-0.10692 -0.017992,-0.003 -0.044393,0.003 -0.059573,0.009 -0.014463,0.006 -0.033211,0.0211 -0.04277,0.0336 -0.016553,0.0216 -0.020436,0.0327 -0.02444,0.0596 -0.018481,0.12409 0.061498,0.20948 0.1435851,0.29023 0.029604,0.0291 0.048256,0.0453 0.082485,0.0687 0.0032,0.002 0.00706,0.003 0.010693,0.005 4.762e-4,1.8e-4 0.0012,2.6e-4 0.00153,0 0.021285,-0.0248 0.023344,-0.0715 0.027495,-0.0993 0.00374,-0.0251 0.00629,-0.0573 0.00764,-0.0825 0.0019,-0.0355 0.00236,-0.0663 0,-0.10234 -0.00186,-0.0284 -0.00672,-0.0613 -0.022912,-0.0855 -0.00123,-0.002 -0.00771,-0.011 -0.01222,-0.009 -0.019562,0.008 -0.057746,0.0562 -0.058045,0.0565 -0.021916,0.025 -0.04313,0.0506 -0.064155,0.0764 -0.020417,0.025 -0.1061096,0.11917 -0.093177,0.16803 0.00222,0.008 0.00949,0.0152 0.016803,0.0199 0.039039,0.0248 0.091279,0.009 0.131365,0.003 0.033336,-0.005 0.1228307,-0.0251 0.149695,-0.0519 0.035994,-0.036 0.030176,-0.13617 -0.019858,-0.15734 -0.025682,-0.0109 -0.073115,-0.0189 -0.1023425,-0.0137 -0.040965,0.007 -0.081613,0.0218 -0.119145,0.0397 -0.016129,0.008 -0.033899,0.0165 -0.044297,0.0321 -0.002,0.003 -0.00193,0.007 -0.00153,0.0107 0.0037,0.0333 0.031139,0.0451 0.06721,0.0565 0.032261,0.0102 0.067041,0.01 0.100815,0.0122 0.03404,0.002 0.068234,0.002 0.1023425,0.002 0.052832,-10e-4 0.1046044,-0.008 0.1573325,-0.008 0.012567,0 -0.016051,0.0328 -0.022912,0.0382 -0.019228,0.015 -0.040134,0.031 -0.064155,0.0351 -0.067507,0.0117 -0.1211876,0.005 -0.1695525,-0.0412 -0.014135,-0.0134 -0.025667,-0.0305 -0.032077,-0.0489 -0.023449,-0.0673 -0.017126,-0.0862 -0.00458,-0.14817 0.018357,-0.0907 0.015187,-0.0667 0.056517,-0.17108 0.00439,-0.0111 0.018404,-0.0546 0.029022,-0.0687 8.652e-4,-0.001 0.00277,0.002 0.00306,0.003 8.044e-4,0.004 0.00102,0.008 0.00153,0.0122"
       id="path66" />
    <path
       style="fill:none;fill-opacity:1;stroke:#000000;stroke-width:0.1;stroke-linejoin:miter;stroke-miterlimit:4;stroke-dasharray:none;stroke-opacity:1"
       d="m 1.7854148,112.07808 -0.462639,-0.0358"
       id="path67" />
    <path
       style="fill:none;fill-opacity:1;stroke:#000000;stroke-width:0.1;stroke-linejoin:miter;stroke-miterlimit:4;stroke-dasharray:none;stroke-opacity:1"
       d="m 1.4577122,112.2791 -0.093629,0.22857"
       id="path68" />
    <path
       style="fill:none;fill-opacity:1;stroke:#000000;stroke-width:0.1;stroke-linejoin:miter;stroke-miterlimit:4;stroke-dasharray:none;stroke-opacity:1"
       d="m 1.3695905,112.48564 0.1900124,-0.0303"
       id="path69" />
    <path
       style="fill:#ff5f5f;fill-opacity:1;stroke:#ff5f5f;stroke-width:0.1;stroke-linejoin:miter;stroke-miterlimit:4;stroke-dasharray:none;stroke-opacity:1"
       d="m 1.6504784,113.15481 -0.308426,-0.33872"
       id="path70" />
    <path
       style="fill:#ff5f5f;fill-opacity:1;stroke:#ff5f5f;stroke-width:0.1;stroke-linejoin:miter;stroke-miterlimit:4;stroke-dasharray:none;stroke-opacity:1"
       d="M 1.4659736,113.21815 1.3448062,112.69493"
       id="path71" />
    <path
       style="fill:#ff5f5f;fill-opacity:1;stroke:#ff5f5f;stroke-width:0.1;stroke-linejoin:miter;stroke-miterlimit:4;stroke-dasharray:none;stroke-opacity:1"
       d="m 1.851506,112.98683 c -0.067691,-0.0406 0.021786,0.0142 -0.068845,-0.0468 -0.030833,-0.0208 -0.062604,-0.0401 -0.093629,-0.0606 -0.00855,-0.006 -0.063712,-0.0443 -0.077106,-0.0523 -0.017967,-0.0108 -0.036336,-0.0209 -0.055076,-0.0303 -0.020012,-0.01 -0.041622,-0.0182 -0.060584,-0.0303 -0.018775,-0.012 -0.033931,-0.029 -0.052322,-0.0413 -0.013912,-0.009 -6.39e-5,-2e-5 -0.00826,-0.003 -0.019947,-0.007 0.00434,7.9e-4 -0.00826,-0.006 -0.013104,-0.007 -0.02814,-0.009 -0.038553,-0.0193"
       id="path72" />
    <path
       style="fill:#ff5f5f;fill-opacity:1;stroke:#ff5f5f;stroke-width:0.1;stroke-linejoin:miter;stroke-miterlimit:4;stroke-dasharray:none;stroke-opacity:1"
       d="m 1.6477246,113.01988 c -0.011933,-0.0147 -0.024286,-0.029 -0.035799,-0.0441 -0.00961,-0.0125 -0.017631,-0.0262 -0.027538,-0.0386 -0.016739,-0.0208 -0.034166,-0.041 -0.052322,-0.0606 -0.014582,-0.0157 -0.032128,-0.0285 -0.046815,-0.0441 -0.0058,-0.006 -0.010539,-0.0133 -0.016523,-0.0193 -0.0069,-0.007 -0.014912,-0.0126 -0.022031,-0.0193 -0.012312,-0.0115 -0.023186,-0.0246 -0.035799,-0.0358 -0.00786,-0.007 -0.017323,-0.0118 -0.024784,-0.0193"
       id="path73" />
    <path
       style="fill:#ff5f5f;fill-opacity:1;stroke:#ff5f5f;stroke-width:0.1;stroke-linejoin:miter;stroke-miterlimit:4;stroke-dasharray:none;stroke-opacity:1"
       d="m 1.3695905,112.66188 c -0.00748,0.0449 0.00316,-0.0245 -0.00275,0.0523 -9.261e-4,0.012 -0.00493,0.0237 -0.00551,0.0358 -0.00127,0.0266 0,0.0532 0,0.0799 0,0.0174 -9.419e-4,0.0349 0,0.0523 0.00352,0.0651 0.022792,0.12972 0.038553,0.19276 0.00609,0.0244 0.015438,0.0652 0.024784,0.0909 0.00113,0.003 0.00446,0.005 0.00551,0.008 0.00255,0.008 0.00174,0.0221 0.00275,0.0303 0.00194,0.0155 0.011015,0.0316 0.011015,0.0468"
       id="path74" />
    <path
       style="fill:#ff5f5f;fill-opacity:1;stroke:#ff5f5f;stroke-width:0.1;stroke-linejoin:miter;stroke-miterlimit:4;stroke-dasharray:none;stroke-opacity:1"
       d="m 1.3640829,113.17133 c -0.020979,-0.0505 -0.026518,-0.10187 -0.027538,-0.15696 -5.71e-5,-0.003 0.010524,-0.10274 0.011015,-0.1074"
       id="path75" />
    <path
       style="fill:#ff5f5f;fill-opacity:1;stroke:#ff5f5f;stroke-width:0.1;stroke-linejoin:miter;stroke-miterlimit:4;stroke-dasharray:none;stroke-opacity:1"
       d="m 1.3503138,113.09147 c -0.00128,0.0592 0.019277,0.11678 0.019277,0.17625 0,0.0203 -0.00467,0.0408 -0.00826,0.0606"
       id="path76" />
    <path
       style="fill:#ff5f5f;fill-opacity:1;stroke:#ff5f5f;stroke-width:0.1;stroke-linejoin:miter;stroke-miterlimit:4;stroke-dasharray:none;stroke-opacity:1"
       d="m 12.537273,119.74587 c -0.05128,-0.0333 -0.107612,-0.0561 -0.165843,-0.0743 -0.05035,-0.0157 -0.04809,-0.0105 -0.101485,-0.0248 -0.02825,-0.008 -0.05608,-0.0166 -0.08416,-0.0247 -0.05854,-0.017 -0.117373,-0.0341 -0.170794,-0.0644 -0.01376,-0.008 -0.05187,-0.0303 -0.06436,-0.0446 -0.0032,-0.004 -0.0043,-0.009 -0.0074,-0.0124 -0.01519,-0.0177 -0.033,-0.033 -0.0495,-0.0495 -0.03756,-0.0376 -0.07108,-0.082 -0.09654,-0.12871 -0.002,-0.004 -0.02546,-0.0389 -0.02475,-0.0396 0.01114,-0.0111 0.121446,0.0346 0.133665,0.0396 0.03426,0.0139 0.06065,0.0296 0.09158,0.0495 0.009,0.006 0.0408,0.0252 0.04703,0.0297 0.0062,0.004 0.01128,0.0102 0.01733,0.0148 0.04208,0.0322 0.009,0.005 0.0396,0.0272 0.02987,0.0217 0.05868,0.0452 0.08663,0.0693 0.03661,0.0316 0.07165,0.0662 0.111386,0.0941 0.0055,0.004 0.01173,0.006 0.01733,0.01 0.02014,0.0129 0.0387,0.0249 0.06188,0.0322 0.02241,0.007 0.04426,0.008 0.06436,0.0198"
       id="path77" />
    <path
       style="fill:#ff5f5f;fill-opacity:1;stroke:#ff5f5f;stroke-width:0.1;stroke-linejoin:miter;stroke-miterlimit:4;stroke-dasharray:none;stroke-opacity:1"
       d="m 12.450639,119.72607 c -0.03391,7.9e-4 -0.06758,-0.005 -0.101486,-0.005 -0.05118,0 -0.102346,0.002 -0.153466,0.005 -0.05266,0.003 -0.0404,0.006 -0.09159,0.0124 -0.02551,0.003 -0.05119,0.005 -0.07673,0.007 -0.0127,0.001 -0.04505,0.006 -0.05941,0.01 -0.0043,10e-4 -0.0079,0.005 -0.01238,0.005 -0.0044,0 -0.0081,-0.004 -0.01238,-0.005 -0.0048,-0.001 -0.01,-0.001 -0.01485,-0.002 -0.01085,-0.003 -0.02135,-0.007 -0.03218,-0.01 -0.0209,-0.006 -0.04314,-0.0106 -0.06436,-0.0148 -0.03438,-0.007 -0.06975,-0.01 -0.103961,-0.0173 -0.0099,-0.002 -0.01946,-0.005 -0.0297,-0.005 -0.0019,0 -0.0065,-0.001 -0.005,-0.002 0.0022,-10e-4 0.0049,-0.002 0.0074,-0.002 0.02557,-0.008 0.05057,-0.0186 0.07673,-0.0247 0.03711,-0.009 0.10591,-0.0178 0.148516,-0.0198 0.05867,-0.003 0.103025,0.009 0.158417,0.0272 0.02513,0.008 0.04987,0.0223 0.07673,0.0223"
       id="path78" />
    <path
       style="fill:#ff5f5f;fill-opacity:1;stroke:#ff5f5f;stroke-width:0.1;stroke-linejoin:miter;stroke-miterlimit:4;stroke-dasharray:none;stroke-opacity:1"
       d="m 11.906081,119.56765 c 0.0033,-7.9e-4 0.0065,-0.003 0.0099,-0.002 0.01002,5.3e-4 0.01979,0.003 0.0297,0.005 0.05584,0.009 0.06263,0.008 0.126238,0.0272 0.01526,0.005 0.02944,0.0123 0.04456,0.0173 0.04391,0.0146 0.05013,0.0117 0.09653,0.0247 0.0093,0.003 0.01803,0.007 0.02723,0.01 0.0219,0.007 0.04464,0.0138 0.06683,0.0198 0.01319,0.004 0.01238,-0.002 0.01238,0.005"
       id="path79" />
    <path
       style="fill:#ff5f5f;fill-opacity:1;stroke:#ff5f5f;stroke-width:0.1;stroke-linejoin:miter;stroke-miterlimit:4;stroke-dasharray:none;stroke-opacity:1"
       d="m 17.049184,119.18984 c -0.0077,-0.002 -0.02112,-0.0134 -0.02304,-0.006 -0.0019,0.008 0.03072,0.004 0.02304,0.006 -0.0149,0.004 -0.03082,-0.002 -0.04609,0 -0.01464,0.002 -0.04719,0.0928 -0.05185,0.10369 -0.01299,0.0303 -0.03707,0.0445 -0.05761,0.0691 -0.01989,0.0239 -0.03817,0.0506 -0.05761,0.0749 -0.0142,0.0178 -0.02432,0.0416 -0.04032,0.0576 -0.0068,0.007 -0.01567,0.0111 -0.02304,0.0173 -0.02979,0.0248 -0.05304,0.0588 -0.08065,0.0864 -0.01511,0.0151 -0.02955,0.0279 -0.04608,0.0403 -0.01138,0.009 -0.01246,0.0209 -0.02304,0.0288 -0.0034,0.003 -0.04662,0.0283 -0.03456,0.0403 0.01102,0.011 0.03508,-0.0138 0.04032,-0.0173 0.05549,-0.037 0.119537,-0.0534 0.184339,-0.0634 0.07854,-0.0121 0.170062,-0.0356 0.241946,-0.0691 0.01792,-0.008 0.03416,-0.0199 0.05185,-0.0288 0.06174,-0.0309 0.124134,-0.0578 0.184339,-0.0922 0.01573,-0.009 0.03008,-0.0203 0.04608,-0.0288 0.02753,-0.0146 0.103142,-0.0436 0.126734,-0.0518 0.0132,-0.005 0.02748,-0.006 0.04032,-0.0115 0.07381,-0.0316 0.127038,-0.0778 0.207382,-0.0979 0.02069,-0.005 0.02653,-0.0115 0.04609,-0.0115"
       id="path80" />
    <path
       style="fill:#ff5f5f;fill-opacity:1;stroke:#ff5f5f;stroke-width:0.1;stroke-linejoin:miter;stroke-miterlimit:4;stroke-dasharray:none;stroke-opacity:1"
       d="m 16.668983,119.72557 c 0.01728,-0.006 0.03398,-0.0137 0.05185,-0.0173 0.0337,-0.007 0.07542,0.003 0.109451,0 0.0079,-5.3e-4 0.01516,-0.005 0.02304,-0.006 0.03608,-0.004 0.07326,-0.003 0.109451,-0.006 0.0308,-0.003 0.05647,-0.0118 0.08641,-0.0173 0.03168,-0.006 0.06589,-0.009 0.09793,-0.0115 0.05187,-0.004 0.143943,-0.005 0.195861,0 0.04502,0.004 0.01234,0.009 0.05761,0.006 0.05373,-0.004 0.107964,-0.0154 0.161297,-0.023 0.02313,-0.003 0.04577,-0.0115 0.06913,-0.0115 0.0193,0 0.03835,0.004 0.05761,0.006 0.03818,0.003 0.07712,-0.003 0.115212,0 0.04377,0.004 0.08824,0.01 0.132494,0.006 0.0098,-7.9e-4 0.01906,-0.005 0.0288,-0.006 0.02293,-0.002 0.04616,0.002 0.06913,0 0.04045,-0.003 0.08069,-0.019 0.120973,-0.023 0.03383,-0.003 0.0695,0 0.103691,0"
       id="path81" />
    <path
       style="fill:#ff5f5f;fill-opacity:1;stroke:#ff5f5f;stroke-width:0.1;stroke-linejoin:miter;stroke-miterlimit:4;stroke-dasharray:none;stroke-opacity:1"
       d="m 16.92245,119.65645 c 0.09103,-0.0697 0.204614,-0.0522 0.311073,-0.0576 0.05769,-0.003 0.11558,-0.0149 0.172819,-0.023 0.02688,-0.004 0.05377,-0.008 0.08065,-0.0115 0.01536,0 0.03088,0.002 0.04609,0 0.01202,-0.002 0.02271,-0.009 0.03456,-0.0115 0.04086,0 0.0034,0.004 0.02304,-0.006 0.0034,-0.002 0.01536,0 0.01152,0 -0.02862,0 0.0096,10e-4 -0.0288,-0.006 -0.06437,-0.0117 -0.03601,0.003 -0.109452,-0.023 -0.01215,-0.004 -0.0226,-0.0125 -0.03456,-0.0173 -0.07721,-0.0309 -0.158933,-0.0467 -0.241946,-0.0403 -0.0072,5.3e-4 -0.09177,0.0111 -0.09217,0.0115 -0.0022,0.002 0,0.0268 0,0.0288 0,0.0138 -0.01131,0.0169 -0.01152,0.0173 -0.0053,0.0106 0.01831,0.0293 0.0288,0.0346 0.02304,0.0115 0.04521,0.025 0.06913,0.0346 0.01298,0.005 0.02728,0.007 0.04032,0.0115 0.01202,0.005 0.02273,0.0122 0.03456,0.0173 0.06043,0.0259 0.122634,0.0471 0.18434,0.0691 0.02719,0.01 0.171697,0.0691 0.195861,0.0691"
       id="path82" />
    <path
       style="fill:#ff5f5f;fill-opacity:1;stroke:#ff5f5f;stroke-width:0.1;stroke-linejoin:miter;stroke-miterlimit:4;stroke-dasharray:none;stroke-opacity:1"
       d="m 17.023347,119.72162 c 0.0042,-0.001 0.0083,-0.003 0.01266,-0.003 0.01158,-7.9e-4 0.02321,2.7e-4 0.03481,0 0.05597,-0.002 0.111819,-0.004 0.167725,-0.006 0.03376,-0.001 0.0675,-7.9e-4 0.101269,-0.003 0.01801,-0.001 0.03578,-0.005 0.0538,-0.006 0.04096,-0.003 0.08248,0.003 0.123421,0 0.02141,-0.002 0.04192,-0.008 0.06329,-0.01 0.0095,-5.3e-4 0.01901,8e-4 0.02848,0 0.01176,-7.9e-4 0.02312,-0.005 0.03481,-0.006 0.02597,-0.003 0.05299,-0.005 0.07912,-0.006 0.07958,-0.005 0.157982,0.0113 0.237347,0.006 0.0466,-0.003 0.0931,-0.0127 0.139243,-0.019 0.02332,-0.003 0.06431,-0.005 0.08544,-0.006 0.02934,-0.002 0.0591,-0.006 0.08861,-0.003 0.01056,10e-4 0.01807,0.003 0.02848,0.003"
       id="path83" />
    <path
       style="fill:#ff5f5f;fill-opacity:1;stroke:#ff5f5f;stroke-width:0.1;stroke-linejoin:miter;stroke-miterlimit:4;stroke-dasharray:none;stroke-opacity:1"
       d="m 17.59931,119.74377 c 0.08883,0.003 0.177246,-0.002 0.265829,-0.006 0.0042,-1.8e-4 0.0577,2e-4 0.06013,0 0.01487,-10e-4 0.02949,-0.005 0.0443,-0.006 0.02522,-0.003 0.05089,-0.002 0.07595,-0.006 0.04909,-0.008 0.09731,-0.0263 0.145573,-0.038 0.03711,-0.009 0.07636,-0.0159 0.113926,-0.0221 0.08203,-0.0137 -0.01679,0.004 0.05063,-0.003 0.07523,-0.008 0.148607,-0.0285 0.224689,-0.0285"
       id="path84" />
    <path
       style="fill:#ff5f5f;fill-opacity:1;stroke:#ff5f5f;stroke-width:0.1;stroke-linejoin:miter;stroke-miterlimit:4;stroke-dasharray:none;stroke-opacity:1"
       d="m 18.092992,119.71212 c 0.04468,-0.0132 0.08988,-0.0144 0.136079,-0.019 0.01693,-0.002 0.03365,-0.005 0.05063,-0.006 0.04652,-0.002 0.09297,-2.6e-4 0.139244,0.003 0.0061,5.3e-4 0.07437,0.004 0.08861,0.006 0.01183,0.002 0.0229,0.008 0.03481,0.01 0.04607,0.006 0.09299,0.002 0.139244,0.003 0.02217,5.3e-4 0.04429,0.002 0.06646,0.003 0.07423,0.002 -6.35e-4,-0.003 0.09177,0 0.0127,5.3e-4 0.02528,0.003 0.03798,0.003 0.04105,0.002 0.08239,-0.002 0.12342,0 0.0085,5.3e-4 0.01682,0.004 0.02532,0.003 0.01282,-5.3e-4 0.02526,-0.005 0.03798,-0.006 0.05494,-0.007 0.109558,-0.0182 0.164561,-0.0253 0.03865,-0.005 0.07819,-0.0102 0.117091,-0.0126 0.03534,-0.002 0.0098,0.003 0.03481,-0.003"
       id="path85" />
    <path
       style="fill:#ff5f5f;fill-opacity:1;stroke:#ff5f5f;stroke-width:0.1;stroke-linejoin:miter;stroke-miterlimit:4;stroke-dasharray:none;stroke-opacity:1"
       d="m 18.40629,119.68048 c 0.04105,-0.0156 0.08362,-0.0207 0.126585,-0.0285 0.02972,-0.005 0.05862,-0.0153 0.08861,-0.019 0.01993,-0.002 0.0401,-0.002 0.06013,-0.003 0.01373,-8e-4 0.02739,-0.003 0.04114,-0.003 0.03564,0 0.06953,0.003 0.104433,0.01 0.01487,0.003 0.0293,0.008 0.0443,0.01 0.02098,0.002 0.04226,0.001 0.06329,0.003 0.04635,0.004 0.09328,0.0154 0.139244,0.0221 0.04946,0.007 0.09911,0.01 0.148737,0.0158 0.04011,0.005 0.05907,0.01 0.101269,0.0126 0.04602,0.003 0.09334,-2.7e-4 0.139243,-0.003"
       id="path86" />
    <path
       style="fill:#ff5f5f;fill-opacity:1;stroke:#ff5f5f;stroke-width:0.1;stroke-linejoin:miter;stroke-miterlimit:4;stroke-dasharray:none;stroke-opacity:1"
       d="m 19.387325,119.6963 c 0.02084,-0.0131 0.04621,-0.0123 0.06962,-0.0158 0.01166,-0.002 0.0231,-0.005 0.03481,-0.006 0.111707,-0.0129 0.0051,0.001 0.06962,-0.003 0.03087,-0.002 0.06084,-0.0109 0.09177,-0.0126 0.0368,-0.002 0.07395,0.002 0.110762,0 0.02271,-0.001 0.04665,-0.005 0.06962,-0.003 0.01576,0.002 0.03143,0.005 0.04747,0.006 0.05034,0.004 0.101536,-0.004 0.151902,0 0.02614,0.002 0.05265,0.006 0.07912,0.003 0.03695,-0.003 0.0738,-0.01 0.110762,-0.0126 0.04506,-0.004 0.091,0.003 0.136079,0 0.02533,-0.002 0.05068,-0.005 0.07595,-0.006 0.02726,-0.002 0.05505,0.002 0.08228,0 0.01719,-10e-4 0.03313,-0.003 0.05063,-0.003"
       id="path87" />
    <path
       style="fill:#ff5f5f;fill-opacity:1;stroke:#ff5f5f;stroke-width:0.1;stroke-linejoin:miter;stroke-miterlimit:4;stroke-dasharray:none;stroke-opacity:1"
       d="m 19.463276,119.69314 c 0.0042,-0.002 0.01477,-0.002 0.01266,-0.006 -0.0021,-0.004 -0.01723,0.007 -0.01266,0.006 0.0087,-0.002 0.01677,-0.007 0.02532,-0.01 0.01311,-0.004 0.07141,0.002 0.08861,0 0.01687,-0.002 0.01677,-0.005 0.03481,-0.006 0.03022,-0.002 0.0614,0 0.09177,0"
       id="path88" />
    <path
       style="fill:#ff5f5f;fill-opacity:1;stroke:#ff5f5f;stroke-width:0.1;stroke-linejoin:miter;stroke-miterlimit:4;stroke-dasharray:none;stroke-opacity:1"
       d="m 19.539227,119.69947 1.712064,0.003 m 0.930402,-0.006 -1.145596,0.003"
       id="path89" />
    <path
       style="fill:#49cf50;fill-opacity:1;stroke:#49cf50;stroke-width:0.253927;stroke-opacity:1"
       d="M 32.723431,436.1536 C 18.187275,426.91039 11.27766,422.15162 11.670558,421.6541 11.992223,421.24679 83.218758,329.60923 169.95174,218.01507 256.68473,106.42092 328.18716,14.558573 328.84603,13.87653 c 1.15897,-1.199731 1.87847,-0.764958 22.11421,13.362933 l 20.91626,14.603011 -2.23657,2.761448 C 368.40982,46.122718 297.61227,137.15802 212.31205,246.90459 127.01183,356.65116 56.577337,447.22427 55.790948,448.17817 l -1.429799,1.73437 z M 167.71781,301.86333 c 1.55793,-2.26436 2.25243,-4.13174 2.45783,-6.6086 0.36059,-4.34823 -0.81129,-6.73033 -5.06261,-10.29083 -5.17093,-4.33067 -25.99759,-20.23325 -26.51335,-20.24475 -0.78199,-0.0174 -5.28903,6.21773 -5.03826,6.97007 0.12786,0.38357 6.23151,5.3223 13.56367,10.97495 7.33216,5.65265 13.72903,10.84554 14.21528,11.53976 0.76342,1.08995 0.64612,1.61286 -0.85954,3.83157 l -1.74361,2.56936 2.597,2.19735 c 1.42834,1.20854 2.96038,2.20184 3.40453,2.20734 0.44414,0.005 1.78472,-1.4103 2.97906,-3.14622 z m 5.12781,-23.4139 c 5.41222,-2.26137 9.11544,-7.81208 9.11007,-13.65501 -0.004,-4.51056 -1.19126,-7.04778 -4.8398,-10.34401 -3.99644,-3.61055 -6.64569,-4.7865 -10.84261,-4.81281 -10.24801,-0.0642 -17.57904,11.44955 -13.04419,20.48663 2.30325,4.58992 9.71627,9.3459 14.58683,9.35848 1.39756,0.004 3.66092,-0.46136 5.0297,-1.03328 z m 18.58643,-22.04018 c 1.31804,-1.60851 2.38258,-3.19576 2.36562,-3.52721 -0.0429,-0.83799 -28.83877,-22.77368 -29.89595,-22.77368 -1.10866,0 -5.11992,5.03351 -4.86675,6.10701 0.19054,0.80795 28.65031,23.06081 29.54172,23.09884 0.2524,0.0108 1.53731,-1.29646 2.85536,-2.90496 z m 8.04995,-10.43449 c 1.32478,-1.80471 2.40869,-3.44772 2.40869,-3.65113 0,-0.20341 -3.13928,-2.80086 -6.97619,-5.77212 -6.86062,-5.31281 -7.80449,-6.3721 -7.80449,-8.75897 0,-1.55438 2.50975,-4.7386 3.73489,-4.7386 0.73966,0 9.15871,6.00223 16.19533,11.5462 0.53546,0.42187 1.54306,-0.3795 3.19129,-2.53813 1.32482,-1.73506 2.40876,-3.39369 2.40876,-3.68585 0,-0.61119 -12.96849,-10.74195 -15.37822,-12.01319 -5.16201,-2.72322 -9.73856,-2.05231 -13.58997,1.99225 -1.33658,1.40361 -2.60928,3.26578 -2.82823,4.13815 -0.21896,0.87237 -1.77079,3.06018 -3.44854,4.8618 -1.67775,1.80161 -3.03723,3.61161 -3.02108,4.0222 0.0215,0.54669 21.8807,17.84369 22.58832,17.87395 0.0609,0.003 1.19466,-1.47184 2.51944,-3.27656 z m 19.20492,-26.1836 c 1.92694,-1.41307 7.39034,-7.91678 7.39034,-8.79755 0,-0.32371 -1.27419,-1.52561 -2.83153,-2.67089 l -2.83153,-2.08234 -1.45619,1.85626 c -0.80092,1.02093 -2.03489,2.56893 -2.74219,3.43998 l -1.28599,1.58373 -5.52259,-4.16139 -5.52259,-4.16139 2.75616,-3.4616 2.75617,-3.46159 -2.57741,-2.18091 c -1.41757,-1.1995 -2.79031,-2.1854 -3.05052,-2.1909 -0.26021,-0.005 -1.57662,1.42608 -2.92535,3.18129 -1.34872,1.7552 -2.7589,3.10375 -3.13372,2.99678 -0.37482,-0.10698 -1.71205,-0.98055 -2.97162,-1.94127 -1.25957,-0.96073 -2.382,-1.62904 -2.49427,-1.48513 -0.11227,0.14392 -1.31353,1.74142 -2.66946,3.55002 l -2.46533,3.28836 2.68775,1.97659 c 2.75066,2.02286 3.19842,2.80913 2.0159,3.53997 -1.14776,0.70936 -0.76554,1.37944 2.10077,3.68287 2.43835,1.95952 2.84735,2.09457 3.39263,1.12022 0.34101,-0.60936 0.90275,-1.10792 1.24833,-1.10792 0.34558,0 2.82479,1.70406 5.50938,3.78681 2.68457,2.08274 5.78804,4.19901 6.89659,4.70283 2.39503,1.08851 5.40765,0.69748 7.72627,-1.00283 z"
       id="path1"
       sodipodi:nodetypes="ssssscssscssssssssscscsscssscsssssssssssssssssssscsssscsscccccscssssscssssssss"
       transform="matrix(0.26458333,0,0,0.26458333,0.38372886,0.08915395)" />
    <path
       style="fill:#49cf50;fill-opacity:1;stroke:#49cf50;stroke-width:0.253927;stroke-opacity:1"
       d="m 165.21532,269.4848 c -5.05389,-3.08183 -6.3519,-7.74064 -2.87629,-10.3236 2.40831,-1.78978 5.29609,-1.07623 8.68278,2.14545 1.99386,1.89672 2.65121,3.04757 2.65121,4.64161 0,4.30428 -4.27041,6.08993 -8.4577,3.53654 z"
       id="path5"
       sodipodi:nodetypes="sssss"
       transform="matrix(0.26458333,0,0,0.26458333,0.38372886,0.08915395)" />
    <path
       style="fill:#49cf50;fill-opacity:1;stroke:#49cf50;stroke-width:0.1;stroke-opacity:1"
       d="M 45.640811,62.203123 44.21164,64.133115"
       id="path6" />
    <path
       style="fill:#49cf50;fill-opacity:1;stroke:#49cf50;stroke-width:0.1;stroke-opacity:1"
       d="m 44.199424,64.414063 1.636829,-2.296446"
       id="path7" />
    <path
       style="fill:#49cf50;fill-opacity:1;stroke:#49cf50;stroke-width:0.1;stroke-opacity:1"
       d="m 45.66524,62.178694 -1.539108,2.235369"
       id="path8" />
    <rect
       style="fill:none;fill-opacity:1;stroke:#000000;stroke-width:1.90996;stroke-dasharray:none;stroke-opacity:1"
       id="rect8"
       width="134.7366"
       height="141.78204"
       x="-23.771555"
       y="-16.257326" />
    <path
       style="fill:none;fill-opacity:1;stroke:#49cf50;stroke-width:2;stroke-dasharray:none;stroke-opacity:1"
       d="m 57.107217,49.831291 c -0.118956,1.636784 -0.941297,2.984989 -1.745337,4.363344 -0.959755,1.645293 -2.009193,3.041576 -3.241344,4.488013 -0.519327,0.609643 -2.027756,2.2313 -2.618007,3.116676 -0.731753,1.097626 -1.403948,2.30923 -1.99467,3.490674 -0.349168,0.698333 -0.588142,1.454399 -0.997336,2.119339 -0.170104,0.276415 -0.428602,0.488355 -0.623338,0.748003 -0.885351,1.180471 -1.629714,2.427859 -2.493338,3.615344 -0.677267,0.931241 -1.459288,1.799741 -2.119339,2.742673 -1.243258,1.776085 1.000911,-1.043657 -0.623337,1.122003 -0.105783,0.141044 -0.271523,0.230537 -0.373999,0.374002 -0.912162,1.277024 0.499346,-0.31246 -0.623337,0.997336 -0.114737,0.133861 -0.232955,0.268216 -0.373999,0.374002 -0.206354,0.154762 -0.06287,-0.248256 -0.249336,0.124666 -0.183435,0.366871 0.288804,-0.164134 -0.124666,0.249333"
       id="path9" />
    <path
       style="fill:none;fill-opacity:1;stroke:#49cf50;stroke-width:2;stroke-dasharray:none;stroke-opacity:1"
       d="m 60.597894,46.963948 c 0.08073,1.902442 -1.736624,3.072964 -2.992009,4.238678 -1.645391,1.527863 -3.490719,2.99203 -5.485349,3.989345 -0.385133,0.192567 -0.727694,0.689174 -0.997337,0.997337 -0.539863,0.61699 -1.215823,1.11955 -1.745337,1.745337 -1.644972,1.94406 -2.59911,4.173064 -3.615343,6.482686 -0.277032,0.629615 -0.631142,1.225933 -0.872667,1.870003 -0.26905,0.717463 -0.26634,1.51383 -0.498668,2.244008 -0.497319,1.562997 -1.225524,3.053234 -1.74534,4.612677"
       id="path10" />
    <path
       style="fill:none;fill-opacity:1;stroke:#49cf50;stroke-width:2;stroke-dasharray:none;stroke-opacity:1"
       d="m 54.82657,52.940764 c -0.02527,0.164174 -0.0209,0.335743 -0.07577,0.492525 -0.441563,1.261607 -0.66399,1.194527 -1.401799,2.538391 -0.421296,0.767363 -0.765561,1.574932 -1.17448,2.34896 -0.298538,0.565087 -0.647327,1.102609 -0.947161,1.667005 -0.355378,0.668946 -0.58433,1.409713 -0.833504,2.121643"
       id="path11" />
    <path
       style="fill:none;fill-opacity:1;stroke:#49cf50;stroke-width:2;stroke-dasharray:none;stroke-opacity:1"
       d="m 56.190484,51.538965 c -0.957072,0.476766 -2.020084,0.696603 -3.068805,0.871389 -0.263863,0.04398 -0.53645,0.01098 -0.795615,0.07577 -0.192844,0.04821 -0.42564,0.09916 -0.606184,0.189434 -0.04073,0.02037 -0.07181,0.05783 -0.11366,0.07577 -0.191741,0.08217 -0.478737,0.138626 -0.681955,0.189431 -0.18147,0.04537 -0.386125,0.120923 -0.530411,0.265205 -0.102819,0.10282 -0.17151,0.266433 -0.265205,0.378865 -0.04703,0.05644 -0.153585,0.22392 -0.151545,0.22732 0.267327,0.445547 1.511223,0.412461 1.742776,0.41675 0.834734,0.01545 1.730867,-0.164571 2.46262,-0.568296 0.180745,-0.09972 0.480801,-0.401513 0.64407,-0.530413 0.358717,-0.283196 0.726387,-0.567557 1.098708,-0.833501"
       id="path12" />
    <path
       style="fill:none;fill-opacity:1;stroke:#49cf50;stroke-width:2;stroke-dasharray:none;stroke-opacity:1"
       d="m 51.985085,56.918843 c -0.466505,0.555366 -1.475314,1.76116 -1.894321,2.235301 -1.200576,1.358545 0.246602,-0.36412 -0.530411,0.568296"
       id="path13" />
    <path
       style="fill:none;fill-opacity:1;stroke:#49cf50;stroke-width:2;stroke-dasharray:none;stroke-opacity:1"
       d="m 46.074799,60.36651 c 0.164663,0.618212 -0.856208,1.28497 -1.17448,1.59123 -0.404122,0.404125 -0.808244,0.808247 -1.212369,1.212369 -0.214688,0.164174 -0.446698,0.307887 -0.644067,0.492524 -0.380913,0.193302 -0.47875,0.630293 -0.75773,0.909275 -0.145354,0.145352 -0.349676,0.236017 -0.492524,0.378862"
       id="path14" />
    <path
       style="fill:none;fill-opacity:1;stroke:#49cf50;stroke-width:2;stroke-dasharray:none;stroke-opacity:1"
       d="m 44.483568,60.707489 c -0.138917,0.176802 -0.283371,0.349393 -0.416753,0.53041 -0.301337,0.408956 -0.560782,0.848291 -0.871387,1.250254 -0.1315,0.170172 -0.274463,0.331261 -0.416753,0.492522 -0.14842,0.168211 -0.353306,0.327753 -0.454636,0.53041"
       id="path15" />
    <path
       style="fill:none;fill-opacity:1;stroke:#49cf50;stroke-width:2;stroke-dasharray:none;stroke-opacity:1"
       d="m 46.491549,61.237899 c 0.02527,0.176803 0.139885,0.363715 0.07577,0.53041 -0.199062,0.517557 -0.550807,0.962639 -0.833503,1.439685 -0.159166,0.268592 -0.835909,1.325865 -0.947161,1.477571 -0.147862,0.201634 -0.363143,0.344559 -0.53041,0.530413 -0.06472,0.07191 -0.08467,0.160438 -0.151546,0.227317"
       id="path16" />
    <path
       style="fill:none;fill-opacity:1;stroke:#49cf50;stroke-width:2;stroke-dasharray:none;stroke-opacity:1"
       d="m 49.598239,59.646668 c -1.150911,1.437593 -2.234472,2.932547 -3.447669,4.319056"
       id="path17" />
    <path
       style="fill:none;fill-opacity:1;stroke:#49cf50;stroke-width:4;stroke-dasharray:none;stroke-opacity:1"
       d="m 60.244334,54.721429 c -0.160787,0.160787 -0.250206,0.235918 -0.378865,0.454636 -0.06306,0.107206 -0.09592,0.229729 -0.151545,0.340979 -0.295407,0.590812 -0.595074,1.202534 -0.909275,1.780664 -0.513644,0.945105 -0.498853,0.793004 -1.098709,1.742776 -0.348062,0.551098 -0.589346,1.043985 -1.06082,1.515459 -0.367065,0.367062 -0.838092,0.66175 -1.28814,0.909275 -0.164026,0.09022 -0.339281,0.15453 -0.492522,0.265206 -0.406027,0.29324 -0.821595,0.670046 -1.174483,1.022934 -0.265255,0.265256 -0.02027,0.139269 -0.378862,0.340977 -0.123063,0.06922 -0.254548,0.122491 -0.378865,0.189433 -0.04009,0.02159 -0.10473,0.120423 -0.113659,0.07577 -0.01805,-0.09015 0.0467,-0.177983 0.07577,-0.265205 0.613849,-1.841543 0.06697,-0.383056 0.568299,-1.363911 1.749102,-3.422161 -0.686965,1.087686 1.629116,-2.993031 0.211944,-0.373427 0.389832,-0.765706 0.606184,-1.136594 0.877853,-1.504889 0.215797,-0.204274 0.568296,-0.909275"
       id="path18" />
    <path
       style="fill:none;fill-opacity:1;stroke:#49cf50;stroke-width:4;stroke-dasharray:none;stroke-opacity:1"
       d="M 62.934273,53.887925 54.788684,58.32064"
       id="path19" />
    <path
       style="fill:none;fill-opacity:1;stroke:#49cf50;stroke-width:4;stroke-dasharray:none;stroke-opacity:1"
       d="m 51.286858,62.709115 c -3.333787,2.325954 -6.026153,5.405286 -9.178187,7.941407 -0.660337,0.531305 -1.611262,0.807641 -2.40846,1.106591"
       id="path26" />
    <path
       style="fill:none;fill-opacity:1;stroke:#49cf50;stroke-width:4;stroke-dasharray:none;stroke-opacity:1"
       d="m 53.630222,58.543128 c -1.734302,3.390022 -4.316593,6.204151 -6.379163,9.373468 -0.397846,0.611323 -0.770088,1.240589 -1.10659,1.88771 -0.601962,1.157618 -0.47937,1.455774 -1.366965,2.343366"
       id="path27" />
    <path
       style="fill:none;fill-opacity:1;stroke:#49cf50;stroke-width:4;stroke-dasharray:none;stroke-opacity:1"
       d="m 57.015087,52.879992 c 0.04062,0.668467 -0.173993,1.289177 -0.455655,1.887712 -0.429297,0.912257 -1.255004,1.833407 -1.82262,2.603741 -0.745532,1.011793 -1.495562,2.073468 -2.082993,3.189584 -0.108489,0.238675 -0.216977,0.47735 -0.325466,0.716028 -0.06509,0.08679 -0.141454,0.16618 -0.195281,0.260374 -0.256225,0.448392 -0.395042,1.020151 -0.585841,1.49715 -0.158731,0.39683 -0.362018,0.774854 -0.52075,1.171684 -0.21984,0.549603 -0.422936,1.108792 -0.716029,1.627338 -0.808249,1.429978 -1.788469,2.73926 -2.603738,4.165984 -0.197622,0.345839 -0.403889,0.687165 -0.585843,1.041497 -0.230539,0.448945 -0.397518,0.930521 -0.650936,1.366962 -0.539699,0.929487 -1.55512,1.519013 -2.148085,2.40846 -0.168196,0.252293 -0.28746,0.528831 -0.455655,0.781124 -0.261641,0.392462 -0.193419,0.209457 -0.585841,0.650933 -0.295685,0.332645 0.0628,0.06739 -0.325466,0.455655 -0.03431,0.03431 -0.101076,0.02627 -0.130189,0.0651 -0.241307,0.321743 0.110033,0.107717 -0.195281,0.260373"
       id="path28" />
    <path
       style="fill:none;fill-opacity:1;stroke:#49cf50;stroke-width:4;stroke-dasharray:none;stroke-opacity:1"
       d="m 53.630222,66.093977 c -1.808901,-1.305036 -3.509116,-0.508029 -5.272574,0.06509 -0.454033,0.14756 -0.912937,0.254354 -1.366962,0.390562 -0.127649,0.03829 -0.714807,0.300905 -0.781124,0.325466 -0.431147,0.159684 -0.873104,0.289682 -1.301869,0.455655 -0.443783,0.171786 -0.861431,0.405662 -1.301872,0.585843 -0.215866,0.08831 -0.997429,0.368528 -1.301869,0.520748 -0.524825,0.262411 -0.943041,0.659979 -1.432057,0.976402 -0.410348,0.265517 -0.766371,0.440904 -1.106591,0.781122"
       id="path29" />
    <path
       style="fill:none;fill-opacity:1;stroke:#49cf50;stroke-width:4;stroke-dasharray:none;stroke-opacity:1"
       d="m 42.238859,68.17697 c -0.368864,0.216977 -0.757499,0.403397 -1.106591,0.650933 -0.846071,0.599943 -1.679371,1.2206 -2.473552,1.887712 -0.293936,0.246907 -0.503971,0.580612 -0.781124,0.846217 -0.244703,0.234508 -0.529196,0.424201 -0.781122,0.650936 -0.469849,0.422862 -0.90107,0.882785 -1.432057,1.236776 -0.07444,0.04962 -0.175503,0.0368 -0.260374,0.06509"
       id="path30" />
    <path
       style="fill:none;fill-opacity:1;stroke:#49cf50;stroke-width:4;stroke-dasharray:none;stroke-opacity:1"
       d="m 41.52283,70.325056 c -0.649996,1.462487 -0.17567,0.471331 -1.822619,3.059393 -0.235876,0.370662 -0.456806,0.751866 -0.716029,1.10659 -0.353456,0.48368 -0.834051,0.886979 -1.10659,1.432058"
       id="path31" />
    <path
       style="fill:none;fill-opacity:1;stroke:#49cf50;stroke-width:4;stroke-dasharray:none;stroke-opacity:1"
       d="m 44.386945,77.159873 c -0.113543,0.45417 -0.0037,0.0948 -0.260374,0.650936 -0.133181,0.288557 -0.195969,0.530929 -0.390562,0.781121 -0.248695,0.319752 -0.846217,0.641308 -0.846217,1.106591"
       id="path32" />
    <path
       style="fill:none;fill-opacity:1;stroke:#49cf50;stroke-width:4;stroke-dasharray:none;stroke-opacity:1"
       d="m 42.824699,75.011787 c -0.271557,1.167929 -0.65056,2.277901 -1.49715,3.124488"
       id="path33" />
    <path
       style="fill:none;fill-opacity:1;stroke:#49cf50;stroke-width:4;stroke-dasharray:none;stroke-opacity:1"
       d="m 45.949188,75.59763 c -0.581456,0.417722 -0.733248,1.384181 -1.236776,1.887712 -0.454875,0.454872 -1.037445,0.777071 -1.497151,1.236776"
       id="path34" />
    <path
       style="fill:none;fill-opacity:1;stroke:#49cf50;stroke-width:4;stroke-dasharray:none;stroke-opacity:1"
       d="m 40.936987,82.692824 c 0.366893,-1.235213 1.140722,-2.20744 2.017901,-3.124491 0.278476,-0.291135 1.074055,-1.032637 1.366962,-1.432058 0.08608,-0.117374 0.123065,-0.264183 0.195281,-0.390559 0.101557,-0.177729 0.233923,-0.337661 0.325469,-0.520748 0.107765,-0.215532 0.122348,-0.497234 0.195278,-0.716028 0.08044,-0.241311 0.0651,0.07935 0.0651,-0.130189"
       id="path35" />
    <rect
       style="fill:none;fill-opacity:1;stroke:#000000;stroke-width:1;stroke-dasharray:none;stroke-opacity:1"
       id="rect37"
       width="32.848999"
       height="39.685001"
       x="1.5189917"
       y="80.457268"
       ry="0.26634485" />
    <rect
       style="fill:none;fill-opacity:1;stroke:#000000;stroke-width:1;stroke-dasharray:none;stroke-opacity:1"
       id="rect37-1"
       width="32.848999"
       height="39.685001"
       x="67.556145"
       y="1.0487912"
       ry="0.26634485" />
    <rect
       style="fill:none;fill-opacity:1;stroke:#000000;stroke-width:1;stroke-dasharray:none;stroke-opacity:1"
       id="rect37-6"
       width="32.848999"
       height="39.685001"
       x="34.537567"
       y="40.753029"
       ry="0.26634485" />
    <rect
       style="fill:none;fill-opacity:1;stroke:#000000;stroke-width:1;stroke-dasharray:none;stroke-opacity:1"
       id="rect37-6-4"
       width="32.848999"
       height="39.685001"
       x="18.02828"
       y="60.605148"
       ry="0.26634485" />
    <rect
       style="fill:none;fill-opacity:1;stroke:#000000;stroke-width:1;stroke-dasharray:none;stroke-opacity:1"
       id="rect37-6-8"
       width="32.848999"
       height="39.685001"
       x="51.046856"
       y="20.900909"
       ry="0.26634485" />
    <path
       style="fill:#fe5555;fill-opacity:1;stroke:#fe5555;stroke-width:2.51808;stroke-dasharray:none;stroke-opacity:1"
       d="M 448.81198,86.241152 427.04346,70.999865 h 21.97491 21.97492 v 15.273226 c 0,8.400275 -0.0929,15.258859 -0.2064,15.241289 -0.11351,-0.0176 -10.00223,-6.890519 -21.97491,-15.273228 z"
       id="path109"
       transform="matrix(0.26458333,0,0,0.26458333,-24.726535,-17.212306)" />
    <path
       style="fill:#fe5555;fill-opacity:1;stroke:#fe5555;stroke-width:2.51808;stroke-dasharray:none;stroke-opacity:1"
       d="m 101.13353,504.85428 v -11.95869 l 10.52614,6.70367 c 5.78938,3.68702 13.49823,8.57256 17.13078,10.85675 10.78998,6.78485 11.41714,6.35696 -9.31726,6.35696 h -18.33966 z"
       id="path118"
       transform="matrix(0.26458333,0,0,0.26458333,-24.726535,-17.212306)" />
    <path
       style="fill:#fe5555;stroke:#fe5555;stroke-width:1.66482"
       d="m 160.82249,516.08237 c 0.22035,-0.57421 -0.0429,-0.81875 -0.88136,-0.81875 -0.65755,0 -1.11367,-0.20326 -1.0136,-0.45169 0.10007,-0.24842 12.06683,-15.72271 26.5928,-34.3873 l 26.41085,-33.9356 h 4.56501 4.565 v 35.20604 35.20604 h -30.27644 c -26.68814,0 -30.2392,-0.097 -29.96226,-0.81874 z"
       id="path20"
       transform="matrix(0.26458333,0,0,0.26458333,-24.726535,-17.212306)" />
    <path
       style="fill:#fe5555;stroke:#fe5555;stroke-width:1.66482"
       d="m 101.5244,426.40248 v -55.23801 h 28.929 28.92899 l -7.1e-4,18.14885 -7.2e-4,18.14885 -28.42749,36.57062 c -15.63512,20.11384 -28.65285,36.80396 -28.92828,37.08916 -0.30395,0.31472 -0.50079,-21.19343 -0.50079,-54.71947 z"
       id="path21"
       transform="matrix(0.26458333,0,0,0.26458333,-24.726535,-17.212306)" />
    <path
       style="fill:#fe5555;stroke:#fe5555;stroke-width:1.66482"
       d="m 163.74903,386.50378 v -15.33931 h 11.73535 c 6.45444,0 11.73535,0.11743 11.73535,0.26095 0,0.14351 -5.28091,7.0462 -11.73535,15.3393 l -11.73535,15.07836 z"
       id="path22"
       transform="matrix(0.26458333,0,0,0.26458333,-24.726535,-17.212306)" />
    <path
       style="fill:#fe5555;stroke:#fe5555;stroke-width:1.66482"
       d="m 163.74903,331.59179 v -35.20604 h 28.929 28.92899 v 15.54606 15.54606 l -15.30548,19.65998 -15.30548,19.65998 h -13.62351 -13.62352 z"
       id="path23"
       transform="matrix(0.26458333,0,0,0.26458333,-24.726535,-17.212306)" />
    <path
       style="fill:#fe5555;stroke:#fe5555;stroke-width:1.66482"
       d="m 225.42783,435.5887 v -6.53368 l 22.51527,-28.94527 22.51528,-28.94528 h 6.68664 6.68664 v 35.47896 35.47896 h -29.20192 -29.20191 z"
       id="path36"
       transform="matrix(0.26458333,0,0,0.26458333,-24.726535,-17.212306)" />
    <path
       style="fill:#fe5555;stroke:#fe5555;stroke-width:1.66482"
       d="m 215.94146,441.4401 c 0.35615,-0.60298 3.51251,-4.72332 4.68306,-6.1133 0.24017,-0.2852 0.43667,1.12714 0.43667,3.13852 v 3.65707 h -2.76136 c -2.06014,0 -2.65903,-0.17327 -2.35837,-0.68229 z"
       id="path37"
       transform="matrix(0.26458333,0,0,0.26458333,-24.726535,-17.212306)" />
    <path
       style="fill:#fe5555;stroke:#fe5555;stroke-width:1.66482"
       d="m 274.40178,366.11554 c 0.2908,-0.37525 2.32852,-3.01571 4.52827,-5.86767 2.19975,-2.85196 4.20251,-5.41873 4.45058,-5.70392 0.24806,-0.2852 0.45103,2.35525 0.45103,5.86767 v 6.38621 h -4.97931 c -3.90155,0 -4.86486,-0.14768 -4.45057,-0.68229 z"
       id="path38"
       transform="matrix(0.26458333,0,0,0.26458333,-24.726535,-17.212306)" />
    <path
       style="fill:#fe5555;stroke:#fe5555;stroke-width:1.66482"
       d="m 225.97366,309.04901 v -12.66326 h 9.86072 9.86072 l -4.52263,5.86767 c -7.755,10.06135 -14.23948,18.39983 -14.72908,18.94031 -0.26382,0.29123 -0.46973,-5.03253 -0.46973,-12.14472 z"
       id="path90"
       transform="matrix(0.26458333,0,0,0.26458333,-24.726535,-17.212306)" />
    <path
       style="fill:#fe5555;stroke:#fe5555;stroke-width:1.66482"
       d="m 225.97366,256.54015 v -35.47896 h 29.20191 29.20192 v 12.80975 12.80975 L 266.77446,269.34034 249.17144,292 l -11.59889,0.01 -11.59889,0.01 z"
       id="path91"
       transform="matrix(0.26458333,0,0,0.26458333,-24.726535,-17.212306)" />
    <path
       style="fill:#fe5555;stroke:#fe5555;stroke-width:1.66482"
       d="m 287.65265,357.92809 1.9e-4,-8.86974 20.48594,-26.3363 20.48594,-26.3363 h 8.71578 8.71579 v 35.20604 35.20604 h -29.20191 -29.20191 z"
       id="path92"
       transform="matrix(0.26458333,0,0,0.26458333,-24.726535,-17.212306)" />
    <path
       style="fill:#fe5555;stroke:#fe5555;stroke-width:1.66482"
       d="m 332.41053,291.75335 c 0,-0.36336 13.1358,-17.20081 13.41928,-17.20081 0.12456,0 0.22648,3.92998 0.22648,8.73329 v 8.73328 h -6.82288 c -3.75258,0 -6.82288,-0.11959 -6.82288,-0.26576 z"
       id="path93"
       transform="matrix(0.26458333,0,0,0.26458333,-24.726535,-17.212306)" />
    <path
       style="fill:#fe5555;stroke:#fe5555;stroke-width:1.66482"
       d="m 288.74413,230.9953 v -9.93411 h 7.67383 c 5.99718,0 7.58289,0.14908 7.25758,0.68229 -0.44613,0.73127 -13.66641,17.80072 -14.45787,18.66739 -0.26915,0.29473 -0.47354,-3.76922 -0.47354,-9.41557 z"
       id="path94"
       transform="matrix(0.26458333,0,0,0.26458333,-24.726535,-17.212306)" />
    <path
       style="fill:#fe5555;stroke:#fe5555;stroke-width:1.66482"
       d="m 288.74413,181.48851 v -35.20604 h 28.92899 28.929 l -0.0114,10.23431 -0.0114,10.23432 -19.44113,24.97172 -19.44113,24.97173 h -9.47648 -9.47648 z"
       id="path95"
       transform="matrix(0.26458333,0,0,0.26458333,-24.726535,-17.212306)" />
    <path
       style="fill:#fe5555;stroke:#fe5555;stroke-width:1.66482"
       d="m 350.96876,153.37826 v -7.09579 h 5.79697 5.79696 l -1.86985,2.31978 c -1.02842,1.27587 -3.53464,4.46898 -5.56936,7.09579 -2.03473,2.62681 -3.80193,4.77601 -3.92711,4.77601 -0.12519,0 -0.22761,-3.1931 -0.22761,-7.09579 z"
       id="path96"
       transform="matrix(0.26458333,0,0,0.26458333,-24.726535,-17.212306)" />
    <path
       style="fill:#fe5555;stroke:#fe5555;stroke-width:1.66482"
       d="m 350.43512,280.1473 0.0122,-11.8718 18.37467,-23.60715 18.37468,-23.60716 h 10.54213 10.54213 v 35.47896 35.47896 h -28.929 -28.92899 z"
       id="path97"
       transform="matrix(0.26458333,0,0,0.26458333,-24.726535,-17.212306)" />
    <path
       style="fill:#fe5555;stroke:#fe5555;stroke-width:1.66482"
       d="m 392.2186,214.64769 c 3.16248,-4.22033 14.62209,-18.99854 15.32799,-19.76685 0.61731,-0.67188 0.73433,1.00251 0.73433,10.50723 v 11.30648 h -8.79807 -8.79806 z"
       id="path98"
       transform="matrix(0.26458333,0,0,0.26458333,-24.726535,-17.212306)" />
    <path
       style="fill:#fe5555;stroke:#fe5555;stroke-width:1.66482"
       d="m 412.64756,202.47858 v -14.21597 l 28.7209,-36.9556 c 15.79649,-20.32558 28.93735,-37.18895 29.20191,-37.47414 0.27773,-0.2994 0.48101,21.3266 0.48101,51.17157 v 51.69011 h -29.20191 -29.20191 z"
       id="path99"
       transform="matrix(0.26458333,0,0,0.26458333,-24.726535,-17.212306)" />
    <path
       style="fill:#fe5555;stroke:#fe5555;stroke-width:1.66482"
       d="M 350.96876,106.43687 V 70.957914 h 34.96408 c 33.84693,0 34.94129,0.03209 34.25083,1.004471 -0.39227,0.552459 -12.74879,16.509632 -27.45891,35.460385 l -26.74567,34.45591 -7.50517,0.0186 -7.50516,0.0186 z"
       id="path100"
       transform="matrix(0.26458333,0,0,0.26458333,-24.726535,-17.212306)" />
    <rect
       style="fill:#ffffff;fill-opacity:1;stroke:#000000;stroke-width:1;stroke-dasharray:none;stroke-opacity:1"
       id="rect32-3"
       width="69.174492"
       height="34.104595"
       x="-20.233971"
       y="-12.867582" />
    <g
       id="g1"
       transform="translate(-4.8493823,-3.9320419)">
      <text
         xml:space="preserve"
         style="font-style:normal;font-variant:normal;font-weight:normal;font-stretch:normal;font-size:12.3472px;font-family:Sans;-inkscape-font-specification:'Sans, Normal';font-variant-ligatures:normal;font-variant-caps:normal;font-variant-numeric:normal;font-variant-east-asian:normal;text-align:start;writing-mode:lr-tb;direction:ltr;text-anchor:start;fill:#000000;fill-opacity:1;stroke:#000000;stroke-width:0.2;stroke-dasharray:none;stroke-opacity:1"
         x="3.6693177"
         y="4.4184098"
         id="text33-1"><tspan
           sodipodi:role="line"
           id="tspan33-7"
           style="font-style:normal;font-variant:normal;font-weight:normal;font-stretch:normal;font-size:7.05556px;font-family:Sans;-inkscape-font-specification:'Sans, Normal';font-variant-ligatures:normal;font-variant-caps:normal;font-variant-numeric:normal;font-variant-east-asian:normal;fill:#000000;fill-opacity:1;stroke:#000000;stroke-width:0.2;stroke-dasharray:none;stroke-opacity:1"
           x="3.6693177"
           y="4.4184098">True position</tspan></text>
      <text
         xml:space="preserve"
         style="font-style:normal;font-variant:normal;font-weight:normal;font-stretch:normal;font-size:12.3472px;font-family:Sans;-inkscape-font-specification:'Sans, Normal';font-variant-ligatures:normal;font-variant-caps:normal;font-variant-numeric:normal;font-variant-east-asian:normal;text-align:start;writing-mode:lr-tb;direction:ltr;text-anchor:start;fill:#000000;fill-opacity:1;stroke:#000000;stroke-width:0.2;stroke-dasharray:none;stroke-opacity:1"
         x="2.9561825"
         y="17.075769"
         id="text33-9"><tspan
           sodipodi:role="line"
           id="tspan33-8"
           style="font-style:normal;font-variant:normal;font-weight:normal;font-stretch:normal;font-size:7.05556px;font-family:Sans;-inkscape-font-specification:'Sans, Normal';font-variant-ligatures:normal;font-variant-caps:normal;font-variant-numeric:normal;font-variant-east-asian:normal;fill:#000000;fill-opacity:1;stroke:#000000;stroke-width:0.2;stroke-dasharray:none;stroke-opacity:1"
           x="2.9561825"
           y="17.075769">Error</tspan></text>
    </g>
    <rect
       style="fill:#ff8080;stroke:#000000;stroke-width:1;stroke-miterlimit:2.9;stroke-dasharray:none"
       id="rect1"
       width="12.817994"
       height="7.2886629"
       x="-16.255257"
       y="-5.8130226"
       ry="0.26634485" />
    <rect
       style="fill:#55d400;stroke:#000000;stroke-width:1;stroke-miterlimit:2.9;stroke-dasharray:none"
       id="rect1-4"
       width="12.817994"
       height="7.2886629"
       x="-16.296417"
       y="5.6148148"
       ry="0.26634485" />
  </g>
</svg>
